<?xml version="1.0" standalone="no"?>
<!DOCTYPE svg PUBLIC "-//W3C//DTD SVG 1.1//EN" "http://www.w3.org/Graphics/SVG/1.1/DTD/svg11.dtd" >
<svg>
<metadata>
Created by FontForge 20120731 at Fri Sep 23 10:36:40 2016
 By ,,,
(c)2008-09 Paul Barnes and Christian Schwartz, under exclusive license to Schwartzco Inc./Commercial Type. All rights reserved.
</metadata>
<defs>
<font id="GuardianSans-Bold" horiz-adv-x="498" >
  <font-face 
    font-family="Guardian Sans Bold"
    font-weight="700"
    font-stretch="normal"
    units-per-em="1000"
    panose-1="2 11 8 3 5 5 3 6 8 3"
    ascent="790"
    descent="-210"
    x-height="532"
    cap-height="693"
    bbox="-192 -225 1321 1096"
    underline-thickness="102"
    underline-position="51"
    unicode-range="U+0020-FB04"
  />
<missing-glyph horiz-adv-x="499" 
 />
    <glyph glyph-name="f_f" unicode="ff" horiz-adv-x="670" 
d="M78 0v409h-68v123h68v43q0 81 47.5 123.5t125.5 42.5q55 0 96 -13v-110q-18 4 -39 4q-55 0 -55 -63v-27h125v52q0 82 51 123.5t138 41.5q75 0 118 -17v-109q-28 6 -59 6q-72 0 -72 -65v-32h105v-123h-105v-409h-176v409h-125v-409h-175z" />
    <glyph glyph-name="f_i" unicode="fi" horiz-adv-x="598" 
d="M78 0v409h-68v123h68v52q0 81 47 123t124 42q63 0 101 -14v-109q-15 3 -38 3q-59 0 -59 -64v-33h300v-532h-175v409h-125v-409h-175zM389 592v134h165v-134h-165z" />
    <glyph glyph-name="f_l" unicode="fl" horiz-adv-x="598" 
d="M553 0h-175v625q-19 4 -48 4q-40 0 -58.5 -17.5t-18.5 -58.5v-21h79v-123h-79v-409h-175v409h-68v123h68v32q0 102 61.5 143.5t188.5 41.5q131 0 225 -24v-725z" />
    <glyph glyph-name="f_f_i" unicode="ffi" horiz-adv-x="898" 
d="M78 0v409h-68v123h68v43q0 81 47.5 123.5t125.5 42.5q55 0 96 -13v-110q-18 4 -39 4q-55 0 -55 -63v-27h125v52q0 81 47 123t125 42q63 0 101 -14v-109q-15 3 -39 3q-58 0 -58 -64v-33h299v-532h-175v409h-124v-409h-176v409h-125v-409h-175zM689 592v134h165v-134h-165z
" />
    <glyph glyph-name="f_f_l" unicode="ffl" horiz-adv-x="898" 
d="M78 0v409h-68v123h68v43q0 81 47.5 123.5t125.5 42.5q55 0 96 -13v-110q-18 4 -39 4q-55 0 -55 -63v-27h125v32q0 102 61.5 143.5t188.5 41.5q132 0 225 -24v-725h-175v625q-17 4 -47 4q-40 0 -58.5 -17.5t-18.5 -58.5v-21h79v-123h-79v-409h-176v409h-125v-409h-175z
" />
    <glyph glyph-name="f_b" unicode="fb" horiz-adv-x="927" 
d="M610 -11q-131 0 -232 37v599q-19 4 -48 4q-40 0 -58.5 -17.5t-18.5 -58.5v-21h79v-123h-79v-409h-175v409h-68v123h68v32q0 102 61.5 143.5t188.5 41.5q131 0 225 -24v-232h5q60 49 151 49q85 0 141 -59t56 -194v-12q0 -151 -73.5 -219.5t-222.5 -68.5zM620 110
q49 0 77.5 32t28.5 113v16q0 79 -23.5 108t-74.5 29q-39 0 -75 -18v-268q30 -12 67 -12z" />
    <glyph glyph-name="f_f_b" unicode="ffb" horiz-adv-x="1227" 
d="M911 -11q-132 0 -233 37v599q-17 4 -47 4q-40 0 -58.5 -17.5t-18.5 -58.5v-21h79v-123h-79v-409h-176v409h-125v-409h-175v409h-68v123h68v43q0 81 47.5 123.5t125.5 42.5q55 0 96 -13v-110q-18 4 -39 4q-55 0 -55 -63v-27h125v32q0 102 61.5 143.5t188.5 41.5
q132 0 225 -24v-232h5q60 49 151 49q85 0 141 -59t56 -194v-12q0 -151 -73.5 -219.5t-221.5 -68.5zM920 110q49 0 77.5 32t28.5 113v16q0 79 -23 108t-75 29q-37 0 -75 -18v-268q30 -12 67 -12z" />
    <glyph glyph-name="f_f_h" unicode="ffh" horiz-adv-x="1217" 
d="M678 0v625q-17 4 -47 4q-40 0 -58.5 -17.5t-18.5 -58.5v-21h79v-123h-79v-409h-176v409h-125v-409h-175v409h-68v123h68v43q0 81 47.5 123.5t125.5 42.5q55 0 96 -13v-110q-18 4 -39 4q-55 0 -55 -63v-27h125v32q0 102 61.5 143.5t188.5 41.5q132 0 225 -24v-236h5
q67 53 163 53q157 0 157 -146v-396h-175v348q0 31 -15 44t-52 13q-39 0 -83 -18v-387h-175z" />
    <glyph glyph-name="f_f_j" unicode="ffj" horiz-adv-x="898" 
d="M78 0v409h-68v123h68v43q0 81 47.5 123.5t125.5 42.5q55 0 96 -13v-110q-18 4 -39 4q-55 0 -55 -63v-27h125v52q0 81 47 123t125 42q63 0 101 -14v-109q-15 3 -39 3q-58 0 -58 -64v-33h299v-558q0 -172 -188 -172q-63 0 -99 18v111q22 -4 41 -4q71 0 71 64v418h-124v-409
h-176v409h-125v-409h-175zM689 592v134h165v-134h-165z" />
    <glyph glyph-name="f_f_k" unicode="ffk" horiz-adv-x="1195" 
d="M78 0v409h-68v123h68v43q0 81 47.5 123.5t125.5 42.5q55 0 96 -13v-110q-18 4 -39 4q-55 0 -55 -63v-27h125v32q0 102 61.5 143.5t188.5 41.5q132 0 225 -24v-417l154 224h174l-171 -244l181 -288h-187l-151 246v-246h-175v625q-17 4 -47 4q-40 0 -58.5 -17.5
t-18.5 -58.5v-21h79v-123h-79v-409h-176v409h-125v-409h-175z" />
    <glyph glyph-name="f_h" unicode="fh" horiz-adv-x="917" 
d="M553 0h-175v625q-19 4 -48 4q-40 0 -58.5 -17.5t-18.5 -58.5v-21h79v-123h-79v-409h-175v409h-68v123h68v32q0 102 61.5 143.5t188.5 41.5q131 0 225 -24v-236h5q66 53 163 53q157 0 157 -146v-396h-175v348q0 31 -15 44t-52 13q-39 0 -83 -18v-387z" />
    <glyph glyph-name="f_j" unicode="fj" horiz-adv-x="598" 
d="M78 0v409h-68v123h68v52q0 81 47 123t124 42q63 0 101 -14v-109q-15 3 -38 3q-59 0 -59 -64v-33h300v-558q0 -172 -189 -172q-62 0 -98 18v111q22 -4 40 -4q72 0 72 64v418h-125v-409h-175zM389 592v134h165v-134h-165z" />
    <glyph glyph-name="f_k" unicode="fk" horiz-adv-x="894" 
d="M553 0h-175v625q-19 4 -48 4q-40 0 -58.5 -17.5t-18.5 -58.5v-21h79v-123h-79v-409h-175v409h-68v123h68v32q0 102 61.5 143.5t188.5 41.5q131 0 225 -24v-417l153 224h175l-171 -244l180 -288h-186l-151 246v-246z" />
    <glyph glyph-name=".notdef" horiz-adv-x="499" 
 />
    <glyph glyph-name=".null" horiz-adv-x="0" 
 />
    <glyph glyph-name="nonmarkingreturn" horiz-adv-x="333" 
 />
    <glyph glyph-name="space" unicode=" " horiz-adv-x="166" 
 />
    <glyph glyph-name="exclam" unicode="!" horiz-adv-x="293" 
d="M72 229l-26 464h200l-25 -464h-149zM62 0v153h169v-153h-169z" />
    <glyph glyph-name="quotedbl" unicode="&#x22;" horiz-adv-x="440" 
d="M257 474l-14 219h163l-14 -219h-135zM48 474l-14 219h163l-14 -219h-135z" />
    <glyph glyph-name="numbersign" unicode="#" horiz-adv-x="560" 
d="M60 399v130h91l24 164h114l-24 -164h85l24 164h114l-24 -164h67v-130h-86l-15 -99h70v-131h-89l-25 -169h-114l25 169h-85l-25 -169h-114l25 169h-69v131h87l16 99h-72zM246 399l-15 -99h85l15 99h-85z" />
    <glyph glyph-name="dollar" unicode="$" horiz-adv-x="556" 
d="M144 -118l21 112q-87 9 -138 37v132q86 -32 162 -40l30 160l-4 1q-95 18 -142.5 65.5t-47.5 143.5t65 154t192 58h17l12 60h84l-13 -66q58 -8 107 -31v-131q-58 21 -132 30l-27 -145h2q105 -21 152 -65.5t47 -140.5q0 -111 -70 -169.5t-205 -58.5h-8l-20 -106h-84z
M365 194q0 29 -13.5 44t-51.5 26l-27 -142q92 8 92 72zM185 508q0 -27 13.5 -42t50.5 -25l25 131q-89 -3 -89 -64z" />
    <glyph glyph-name="percent" unicode="%" horiz-adv-x="931" 
d="M212 304q-85 0 -136.5 50t-51.5 143v10q0 95 52 146.5t136 51.5q83 0 136 -50.5t53 -142.5v-11q0 -94 -52.5 -145.5t-136.5 -51.5zM718 -10q-84 0 -135.5 50t-51.5 143v10q0 95 52 146.5t136 51.5t136.5 -50t52.5 -143v-11q0 -93 -53 -145t-137 -52zM168 -40l462 753h123
l-462 -753h-123zM719 82q30 0 42 21.5t12 76.5v19q0 55 -12.5 78t-41.5 23t-41.5 -23t-12.5 -77v-18q0 -55 12.5 -77.5t41.5 -22.5zM212 396q30 0 42.5 21t12.5 77v18q0 55 -12.5 78t-42.5 23q-29 0 -41.5 -22.5t-12.5 -76.5v-19q0 -55 12 -77t42 -22z" />
    <glyph glyph-name="ampersand" unicode="&#x26;" horiz-adv-x="721" 
d="M295 -12q-132 0 -202 53t-70 153q0 138 153 204q-46 63 -46 127q0 82 62 131t164 49q99 0 154 -43.5t55 -116.5q0 -60 -39.5 -102.5t-114.5 -76.5l103 -123q22 48 33 108h138q-13 -123 -83 -214l114 -137h-212l-27 32q-85 -44 -182 -44zM321 110q43 0 79 15l-151 183
q-48 -35 -48 -93q0 -50 30.5 -77.5t89.5 -27.5zM302 535q0 -40 46 -92q64 38 64 93q0 28 -14.5 45t-38.5 17q-57 0 -57 -63z" />
    <glyph glyph-name="quotesingle" unicode="'" horiz-adv-x="231" 
d="M48 474l-14 219h163l-14 -219h-135z" />
    <glyph glyph-name="parenleft" unicode="(" horiz-adv-x="381" 
d="M232 -120q-82 68 -138.5 176.5t-56.5 242.5v22q0 134 56.5 241.5t138.5 176.5h143q-162 -186 -162 -410v-32q0 -119 45 -226.5t117 -190.5h-143z" />
    <glyph glyph-name="parenright" unicode=")" horiz-adv-x="381" 
d="M6 -120q162 186 162 410v32q0 119 -45 226.5t-117 190.5h143q82 -68 138.5 -176.5t56.5 -242.5v-22q0 -134 -56.5 -241.5t-138.5 -176.5h-143z" />
    <glyph glyph-name="asterisk" unicode="*" horiz-adv-x="412" 
d="M151 330l7 104l-84 -61l-54 100l97 38l-97 39l54 100l84 -62l-7 105h109l-6 -105l84 62l54 -100l-98 -39l98 -38l-54 -100l-84 61l6 -104h-109z" />
    <glyph glyph-name="plus" unicode="+" horiz-adv-x="524" 
d="M187 111v162h-156v136h156v162h150v-162h156v-136h-156v-162h-150z" />
    <glyph glyph-name="comma" unicode="," horiz-adv-x="259" 
d="M37 -73l12 229h173l-49 -229h-136z" />
    <glyph glyph-name="hyphen" unicode="-" horiz-adv-x="331" 
d="M40 218v138h251v-138h-251z" />
    <glyph glyph-name="period" unicode="." horiz-adv-x="259" 
d="M45 0v156h169v-156h-169z" />
    <glyph glyph-name="slash" unicode="/" horiz-adv-x="397" 
d="M-9 -120l246 859h152l-247 -859h-151z" />
    <glyph glyph-name="zero" unicode="0" horiz-adv-x="684" 
d="M341 -12q-140 0 -225.5 81.5t-85.5 255.5v36q0 92 26 161t71.5 107.5t100 57t117.5 18.5q138 0 224 -82.5t86 -255.5v-36q0 -91 -25.5 -159.5t-70.5 -107.5t-99.5 -57.5t-118.5 -18.5zM342 126q59 0 84.5 42t25.5 151v46q0 113 -25.5 157.5t-83.5 44.5t-84 -43t-26 -152
v-45q0 -109 25.5 -155t83.5 -46z" />
    <glyph glyph-name="one" unicode="1" horiz-adv-x="389" 
d="M133 0v513l-111 -9v110l193 81h112v-695h-194z" />
    <glyph glyph-name="two" unicode="2" horiz-adv-x="538" 
d="M21 0v127l140 129q72 66 104 111t32 96q0 95 -122 95q-70 0 -144 -31v135q92 43 214 43q124 0 189.5 -55t65.5 -156q0 -81 -42 -143.5t-133 -139.5l-80 -69v-3h264v-139h-488z" />
    <glyph glyph-name="three" unicode="3" horiz-adv-x="544" 
d="M237 -12q-135 0 -217 43v128q83 -27 161 -27q69 0 101 20t32 62q0 77 -112 77h-76v127h69q109 0 109 72q0 39 -27.5 55t-83.5 16q-75 0 -151 -21v129q94 36 213 36q110 0 174.5 -45.5t64.5 -130.5q0 -61 -33.5 -102t-92.5 -58v-4q147 -27 147 -169q0 -98 -73 -153
t-205 -55z" />
    <glyph glyph-name="four" unicode="4" horiz-adv-x="642" 
d="M330 0v165h-315v123l326 406h179v-397h107v-132h-107v-165h-190zM176 297h157v201h-4l-153 -198v-3z" />
    <glyph glyph-name="five" unicode="5" horiz-adv-x="540" 
d="M229 -12q-127 0 -211 43v130q75 -26 154 -26q68 0 102 21t34 68q0 49 -32.5 69t-103.5 20q-65 0 -127 -14l22 394h415v-139h-276l-8 -121q37 7 77 7q118 0 177 -53.5t59 -164.5q0 -109 -74.5 -171.5t-207.5 -62.5z" />
    <glyph glyph-name="six" unicode="6" horiz-adv-x="631" 
d="M332 -12q-145 0 -223.5 83.5t-78.5 233.5v39q0 185 94.5 273t254.5 88q124 0 181 -27v-134q-54 15 -137 15q-95 0 -141 -32.5t-52 -123.5q65 38 157 38q103 0 161 -52.5t58 -154.5q0 -110 -69.5 -178t-204.5 -68zM328 115q87 0 87 105q0 61 -24 81.5t-72 20.5
q-49 0 -89 -23v-24q0 -81 23.5 -120.5t74.5 -39.5z" />
    <glyph glyph-name="seven" unicode="7" horiz-adv-x="543" 
d="M62 0l266 545v4h-309v144h506v-128l-248 -565h-215z" />
    <glyph glyph-name="eight" unicode="8" horiz-adv-x="620" 
d="M307 -12q-140 0 -211.5 50t-71.5 134q0 54 35.5 98t95.5 69q-57 30 -84.5 69t-27.5 99q0 91 72.5 144.5t196.5 53.5q125 0 191.5 -48.5t66.5 -134.5q0 -104 -115 -156q71 -29 105.5 -67.5t34.5 -103.5q0 -97 -76 -152t-212 -55zM301 110q52 0 80 21t28 58q0 39 -31.5 63
t-113.5 45q-72 -41 -72 -104q0 -39 28 -61t81 -22zM338 418q67 35 67 92q0 32 -23 51t-68 19q-43 0 -66.5 -18.5t-23.5 -49.5q0 -32 26.5 -53t87.5 -41z" />
    <glyph glyph-name="nine" unicode="9" horiz-adv-x="631" 
d="M256 -12q-132 0 -190 29v135q69 -19 142 -19q103 0 146 33t47 123q-64 -37 -152 -37q-106 0 -165 53t-59 159q0 107 69.5 174t205.5 67q143 0 222.5 -81.5t79.5 -235.5v-39q0 -361 -346 -361zM312 371q49 0 89 22v25q0 160 -97 160q-87 0 -87 -105q0 -62 23.5 -82
t71.5 -20z" />
    <glyph glyph-name="colon" unicode=":" horiz-adv-x="267" 
d="M49 290v156h169v-156h-169zM49 0v156h169v-156h-169z" />
    <glyph glyph-name="semicolon" unicode=";" horiz-adv-x="267" 
d="M36 -73l12 229h173l-50 -229h-135zM49 290v156h169v-156h-169z" />
    <glyph glyph-name="less" unicode="&#x3c;" horiz-adv-x="472" 
d="M431 79l-397 176v134l397 175v-143l-237 -99l237 -99v-144z" />
    <glyph glyph-name="equal" unicode="=" horiz-adv-x="520" 
d="M39 344v133h442v-133h-442zM39 129v133h442v-133h-442z" />
    <glyph glyph-name="greater" unicode="&#x3e;" horiz-adv-x="472" 
d="M41 79v143l237 100l-237 99v143l397 -175v-134z" />
    <glyph glyph-name="question" unicode="?" horiz-adv-x="449" 
d="M97 229v41q0 49 19.5 77.5t70.5 65.5q32 23 44.5 41t12.5 47q0 36 -24.5 51.5t-78.5 15.5q-62 0 -123 -18v125q78 30 182 30q106 0 167 -44t61 -137q0 -64 -22 -99.5t-76 -75.5q-53 -36 -68 -52t-15 -45v-23h-150zM89 0v153h170v-153h-170z" />
    <glyph glyph-name="at" unicode="@" horiz-adv-x="910" 
d="M444 -161q-192 0 -303.5 97t-111.5 285q0 196 128 327.5t342 131.5q172 0 278.5 -95t106.5 -255q0 -144 -69 -220.5t-182 -76.5q-109 0 -128 61h-5q-50 -57 -125 -57q-63 0 -103.5 38.5t-40.5 119.5q0 124 53.5 201.5t145.5 77.5q70 0 107 -30h5l5 21h145l-53 -276
q-7 -23 -2 -40.5t27 -17.5q50 0 80.5 50.5t30.5 141.5q0 125 -70 194.5t-214 69.5q-160 0 -256 -100.5t-96 -262.5q0 -294 306 -294q125 0 251 40v-80q-109 -51 -252 -51zM430 140q23 0 47 22l36 203q-15 15 -45 15q-37 0 -58 -52.5t-21 -128.5q0 -59 41 -59z" />
    <glyph glyph-name="A" unicode="A" horiz-adv-x="690" 
d="M0 0l243 693h207l240 -693h-198l-46 137h-228l-43 -137h-175zM329 492l-73 -230h151l-74 230h-4z" />
    <glyph glyph-name="B" unicode="B" horiz-adv-x="642" 
d="M52 0v693h301q238 0 238 -176q0 -121 -116 -153v-3q147 -25 147 -164q0 -90 -63.5 -143.5t-192.5 -53.5h-314zM243 125h82q96 0 96 90q0 85 -101 85h-77v-175zM243 406h70q92 0 92 84q0 42 -22 61t-67 19h-73v-164z" />
    <glyph glyph-name="C" unicode="C" horiz-adv-x="576" 
d="M359 -12q-161 0 -248 86t-87 259v24q0 179 94 263.5t249 84.5q119 0 181 -30v-141q-67 24 -142 24q-86 0 -130.5 -45t-44.5 -142v-31q0 -103 40 -154t133 -51q78 0 150 29v-139q-81 -37 -195 -37z" />
    <glyph glyph-name="D" unicode="D" horiz-adv-x="689" 
d="M52 0v693h267q169 0 257.5 -78.5t88.5 -251.5v-23q0 -172 -89.5 -256t-255.5 -84h-268zM247 137h69q75 0 109.5 43.5t34.5 150.5v35q0 106 -36.5 148t-112.5 42h-64v-419z" />
    <glyph glyph-name="E" unicode="E" horiz-adv-x="573" 
d="M52 0v693h479v-139h-286v-132h224v-137h-224v-146h296v-139h-489z" />
    <glyph glyph-name="F" unicode="F" horiz-adv-x="553" 
d="M52 0v693h478v-139h-283v-157h221v-136h-221v-261h-195z" />
    <glyph glyph-name="G" unicode="G" horiz-adv-x="664" 
d="M380 -11q-173 0 -264.5 81.5t-91.5 264.5v23q0 95 29 164.5t80.5 108t113.5 56.5t138 18q131 0 209 -38v-143q-89 32 -182 32q-105 0 -146 -49t-41 -144v-31q0 -105 31.5 -155t117.5 -50q40 0 74 12v109h-99v127h280v-341q-106 -45 -249 -45z" />
    <glyph glyph-name="H" unicode="H" horiz-adv-x="712" 
d="M52 0v693h195v-267h218v267h195v-693h-195v286h-218v-286h-195z" />
    <glyph glyph-name="I" unicode="I" horiz-adv-x="306" 
d="M56 0v693h195v-693h-195z" />
    <glyph glyph-name="J" unicode="J" horiz-adv-x="447" 
d="M172 -8q-95 0 -154 32v131q48 -13 87 -13q100 0 100 87v464h195v-490q0 -96 -58.5 -153.5t-169.5 -57.5z" />
    <glyph glyph-name="K" unicode="K" horiz-adv-x="674" 
d="M52 0v693h195v-318l217 318h196l-227 -327l242 -366h-217l-211 318v-318h-195z" />
    <glyph glyph-name="L" unicode="L" horiz-adv-x="530" 
d="M52 0v693h195v-554h263v-139h-458z" />
    <glyph glyph-name="M" unicode="M" horiz-adv-x="878" 
d="M52 0v693h261l126 -417h4l126 417h257v-693h-191v468h-4l-140 -468h-135l-139 469h-4v-469h-161z" />
    <glyph glyph-name="N" unicode="N" horiz-adv-x="707" 
d="M52 0v693h210l224 -388h3v388h166v-693h-185l-248 432h-4v-432h-166z" />
    <glyph glyph-name="O" unicode="O" horiz-adv-x="719" 
d="M357 -12q-72 0 -131 20t-105 61t-71.5 108t-25.5 156v23q0 90 27.5 158.5t75 109t107 61t128.5 20.5q72 0 131 -20t105 -61t71.5 -108t25.5 -156v-23q0 -90 -27.5 -158.5t-75 -109t-107 -61t-128.5 -20.5zM361 130q129 0 129 195v35q0 108 -31.5 155.5t-100.5 47.5
q-130 0 -130 -194v-35q0 -110 32.5 -157t100.5 -47z" />
    <glyph glyph-name="P" unicode="P" horiz-adv-x="630" 
d="M52 0v693h288q137 0 206 -57.5t69 -167.5q0 -117 -69 -177.5t-200 -60.5h-99v-230h-195zM247 354h70q52 0 74.5 25t22.5 78q0 57 -22 80t-71 23h-74v-206z" />
    <glyph glyph-name="Q" unicode="Q" horiz-adv-x="719" 
d="M695 347q0 -225 -175 -281l189 -37l-33 -144l-386 102q-63 17 -107.5 40t-82.5 62t-57 100t-19 144v23q0 90 27.5 158.5t75 109t107 61t128.5 20.5q149 0 241 -85t92 -256v-17zM361 126q129 0 129 196v38q0 108 -31.5 155.5t-100.5 47.5q-130 0 -130 -194v-38
q0 -109 32.5 -157t100.5 -48z" />
    <glyph glyph-name="R" unicode="R" horiz-adv-x="649" 
d="M52 0v693h292q132 0 197.5 -52.5t65.5 -163.5q0 -68 -29 -109t-86 -66v-4l155 -298h-202l-127 252h-71v-252h-195zM245 369h72q51 0 74 24.5t23 74.5q0 48 -23.5 70.5t-75.5 22.5h-70v-192z" />
    <glyph glyph-name="S" unicode="S" horiz-adv-x="547" 
d="M251 -12q-149 0 -228 41v142q108 -39 205 -39q108 0 108 65q0 30 -17 43t-68 23l-52 10q-89 17 -133.5 64.5t-44.5 150.5q0 101 65 159t193 58q129 0 205 -36v-140q-93 33 -187 33t-94 -59q0 -27 17.5 -40.5t63.5 -22.5l52 -10q98 -18 144 -65t46 -148q0 -111 -70 -170
t-205 -59z" />
    <glyph glyph-name="T" unicode="T" horiz-adv-x="584" 
d="M195 0v554h-182v139h559v-139h-182v-554h-195z" />
    <glyph glyph-name="U" unicode="U" horiz-adv-x="684" 
d="M349 -12q-301 0 -301 260v445h195v-438q0 -66 27 -95.5t85 -29.5q57 0 83 29.5t26 96.5v437h173v-444q0 -130 -70.5 -195.5t-217.5 -65.5z" />
    <glyph glyph-name="V" unicode="V" horiz-adv-x="680" 
d="M240 0l-237 693h198l148 -468h4l146 468h178l-237 -693h-200z" />
    <glyph glyph-name="W" unicode="W" horiz-adv-x="951" 
d="M172 0l-165 693h195l91 -437h4l111 437h156l110 -437h4l97 437h169l-166 -693h-195l-104 427h-3l-108 -427h-196z" />
    <glyph glyph-name="X" unicode="X" horiz-adv-x="686" 
d="M8 0l206 357l-191 336h214l120 -219h4l112 219h191l-188 -331l203 -362h-214l-131 236h-4l-131 -236h-191z" />
    <glyph glyph-name="Y" unicode="Y" horiz-adv-x="636" 
d="M221 0v271l-220 422h206l124 -252h3l122 252h178l-218 -422v-271h-195z" />
    <glyph glyph-name="Z" unicode="Z" horiz-adv-x="580" 
d="M27 0v133l300 418v3h-282v139h505v-132l-301 -419v-3h300v-139h-522z" />
    <glyph glyph-name="bracketleft" unicode="[" horiz-adv-x="376" 
d="M55 -120v859h297v-129h-122v-601h122v-129h-297z" />
    <glyph glyph-name="backslash" unicode="\" horiz-adv-x="397" 
d="M255 -120l-247 859h152l246 -859h-151z" />
    <glyph glyph-name="bracketright" unicode="]" horiz-adv-x="376" 
d="M24 -120v129h121v601h-121v129h296v-859h-296z" />
    <glyph glyph-name="asciicircum" unicode="^" horiz-adv-x="484" 
d="M20 438l151 255h142l151 -255h-141l-81 118l-82 -118h-140z" />
    <glyph glyph-name="underscore" unicode="_" horiz-adv-x="380" 
d="M-4 -158v108h388v-108h-388z" />
    <glyph glyph-name="grave" unicode="`" 
d="M188 581l-103 155h177l67 -155h-141z" />
    <glyph glyph-name="a" unicode="a" horiz-adv-x="521" 
d="M183 -10q-76 0 -121 38.5t-45 112.5q0 79 49 116t144 50l97 13v23q0 41 -22 54.5t-82 13.5q-75 0 -141 -16v116q81 31 208 31q103 0 157.5 -38t54.5 -125v-379h-146l-12 41h-6q-35 -51 -135 -51zM243 101q43 0 64 21v103l-62 -6q-32 -2 -46 -16t-14 -44q0 -58 58 -58z
" />
    <glyph glyph-name="b" unicode="b" horiz-adv-x="591" 
d="M274 -11q-131 0 -232 37v713h175v-246h5q60 49 151 49q85 0 141 -59t56 -194v-12q0 -151 -73.5 -219.5t-222.5 -68.5zM284 110q49 0 77.5 32t28.5 113v16q0 79 -23.5 108t-74.5 29q-39 0 -75 -18v-268q30 -12 67 -12z" />
    <glyph glyph-name="c" unicode="c" horiz-adv-x="468" 
d="M287 -10q-131 0 -199.5 68t-68.5 198v13q0 133 73.5 203t202.5 70q97 0 149 -27v-127q-59 22 -117 22q-59 0 -92 -31.5t-33 -96.5v-17q0 -75 30 -109t97 -34q56 0 118 24v-120q-60 -36 -160 -36z" />
    <glyph glyph-name="d" unicode="d" horiz-adv-x="591" 
d="M232 -10q-92 0 -151.5 64.5t-59.5 197.5v12q0 143 65 210.5t177 67.5q70 0 111 -23v220h175v-739h-151l-12 41h-5q-54 -51 -149 -51zM299 118q43 0 75 24v261q-27 19 -73 19q-49 0 -74 -32.5t-25 -113.5v-17q0 -79 24.5 -110t72.5 -31z" />
    <glyph glyph-name="e" unicode="e" horiz-adv-x="546" 
d="M301 -10q-141 0 -211.5 69t-70.5 202v13q0 123 71.5 195.5t191.5 72.5q129 0 187 -69.5t58 -205.5v-46h-329q8 -60 42.5 -83t105.5 -23q82 0 159 32v-109q-80 -48 -204 -48zM282 426q-75 0 -85 -106h161q0 57 -18.5 81.5t-57.5 24.5z" />
    <glyph glyph-name="f" unicode="f" horiz-adv-x="369" 
d="M78 0v409h-68v123h68v52q0 82 51 123.5t138 41.5q75 0 117 -17v-109q-26 6 -59 6q-72 0 -72 -65v-32h106v-123h-106v-409h-175z" />
    <glyph glyph-name="g" unicode="g" horiz-adv-x="548" 
d="M257 -200q-132 0 -196.5 34t-64.5 93q0 74 99 106v5q-58 25 -58 81q0 61 66 110q-71 43 -71 131v7q0 85 61.5 130t169.5 45q53 0 97 -9h179v-101h-68q18 -24 18 -61v-7q0 -83 -60.5 -126t-166.5 -43q-43 0 -77 7q-10 -13 -10 -27q0 -30 41 -30h151q179 0 179 -150
q0 -90 -73 -142.5t-216 -52.5zM256 -93q117 0 117 57q0 24 -13.5 31.5t-54.5 7.5h-113q-36 -14 -36 -46q0 -25 22 -37.5t78 -12.5zM263 293q32 0 47.5 16t15.5 53v10q0 40 -15.5 55t-48.5 15q-64 0 -64 -69v-10q0 -38 16 -54t49 -16z" />
    <glyph glyph-name="h" unicode="h" horiz-adv-x="581" 
d="M42 0v739h175v-250h5q66 53 163 53q157 0 157 -146v-396h-175v348q0 31 -15 44t-52 13q-39 0 -83 -18v-387h-175z" />
    <glyph glyph-name="i" unicode="i" horiz-adv-x="265" 
d="M45 0v532h175v-532h-175zM44 592v134h177v-134h-177z" />
    <glyph glyph-name="j" unicode="j" horiz-adv-x="265" 
d="M31 -198q-62 0 -98 18v111q22 -4 40 -4q72 0 72 64v541h175v-558q0 -172 -189 -172zM44 592v134h177v-134h-177z" />
    <glyph glyph-name="k" unicode="k" horiz-adv-x="558" 
d="M368 0l-151 246v-246h-175v739h175v-431l153 224h175l-171 -244l180 -288h-186z" />
    <glyph glyph-name="l" unicode="l" horiz-adv-x="265" 
d="M45 0v739h175v-739h-175z" />
    <glyph glyph-name="m" unicode="m" horiz-adv-x="874" 
d="M42 0v532h169v-47h5q72 57 165 57t127 -60h5q82 60 176 60q71 0 108 -34t37 -110v-398h-175v349q0 30 -13.5 43t-45.5 13t-75 -18q0 -2 0.5 -6t0.5 -6v-375h-175v349q0 30 -13.5 43t-45.5 13q-35 0 -75 -18v-387h-175z" />
    <glyph glyph-name="n" unicode="n" horiz-adv-x="581" 
d="M42 0v532h169v-47h5q71 57 169 57q157 0 157 -146v-396h-175v348q0 31 -15 44t-52 13q-39 0 -83 -18v-387h-175z" />
    <glyph glyph-name="o" unicode="o" horiz-adv-x="582" 
d="M291 -10q-132 0 -202 69.5t-70 197.5v13q0 132 75.5 202t196.5 70q133 0 202.5 -68t69.5 -198v-13q0 -132 -75.5 -202.5t-196.5 -70.5zM292 111q45 0 68 32.5t23 110.5v19q0 88 -23.5 118.5t-69.5 30.5t-68.5 -32.5t-22.5 -110.5v-20q0 -86 24 -117t69 -31z" />
    <glyph glyph-name="p" unicode="p" horiz-adv-x="591" 
d="M42 -195v727h169v-45h5q57 55 154 55q87 0 143.5 -60t56.5 -196v-12q0 -284 -246 -284q-63 0 -107 20v-205h-175zM290 111q51 0 75.5 30.5t24.5 111.5v17q0 79 -23 108t-71 29t-79 -21v-256q26 -19 73 -19z" />
    <glyph glyph-name="q" unicode="q" horiz-adv-x="590" 
d="M374 -195v224h-5q-50 -39 -134 -39q-92 0 -153 63.5t-61 195.5v12q0 152 76 216.5t220 64.5q139 0 232 -37v-700h-175zM298 122q44 0 76 22v267q-33 11 -70 11q-51 0 -76.5 -32t-25.5 -113v-17q0 -80 24 -109t72 -29z" />
    <glyph glyph-name="r" unicode="r" horiz-adv-x="393" 
d="M42 0v532h169v-64h5q48 70 132 70q21 0 31 -5v-154q-28 5 -45 5q-69 0 -117 -24v-360h-175z" />
    <glyph glyph-name="s" unicode="s" horiz-adv-x="458" 
d="M207 -10q-113 0 -185 35v118q81 -31 159 -31q90 0 90 44q0 20 -13 28t-48 13l-49 7q-142 20 -142 166q0 82 54.5 127t163.5 45q101 0 169 -28v-117q-74 24 -146 24q-77 0 -77 -41q0 -19 13.5 -27.5t47.5 -13.5l49 -7q78 -11 112 -51.5t34 -112.5q0 -178 -232 -178z" />
    <glyph glyph-name="t" unicode="t" horiz-adv-x="384" 
d="M246 -8q-85 0 -127.5 34.5t-42.5 118.5v265h-66v122h66v126h176v-126h108v-122h-108v-240q0 -27 13 -38t46 -11q24 0 52 6v-113q-42 -22 -117 -22z" />
    <glyph glyph-name="u" unicode="u" horiz-adv-x="576" 
d="M202 -10q-162 0 -162 155v387h175v-350q0 -32 14.5 -45.5t49.5 -13.5q36 0 80 20v389h175v-532h-154l-12 47h-5q-74 -57 -161 -57z" />
    <glyph glyph-name="v" unicode="v" horiz-adv-x="564" 
d="M190 0l-187 532h183l103 -333h4l103 333h165l-187 -532h-184z" />
    <glyph glyph-name="w" unicode="w" horiz-adv-x="795" 
d="M148 0l-140 532h179l73 -309h4l82 309h131l83 -309h4l72 309h151l-140 -532h-164l-83 299h-3l-84 -299h-165z" />
    <glyph glyph-name="x" unicode="x" horiz-adv-x="563" 
d="M4 0l167 276l-156 256h196l86 -156l80 156h168l-151 -252l165 -280h-195l-95 169l-96 -169h-169z" />
    <glyph glyph-name="y" unicode="y" horiz-adv-x="558" 
d="M144 -198q-66 0 -102 16v116q36 -6 56 -6q69 0 88 52l12 32l-197 520h183l104 -318h3l100 318h165l-205 -583q-27 -79 -74.5 -113t-132.5 -34z" />
    <glyph glyph-name="z" unicode="z" horiz-adv-x="487" 
d="M22 0v123l230 283v3h-222v123h434v-113l-237 -293v-3h234v-123h-439z" />
    <glyph glyph-name="braceleft" unicode="{" horiz-adv-x="397" 
d="M373 -122q-152 2 -212.5 46.5t-60.5 132.5v109q0 40 -20 57.5t-66 20.5v129q47 3 66.5 18.5t19.5 56.5v109q0 89 61 135.5t212 48.5v-130q-52 -4 -75 -20.5t-23 -57.5v-95q0 -53 -25 -85t-90 -44v-3q65 -12 90 -44t25 -85v-95q0 -41 22.5 -55.5t75.5 -18.5v-130z" />
    <glyph glyph-name="bar" unicode="|" horiz-adv-x="287" 
d="M76 -120v859h135v-859h-135z" />
    <glyph glyph-name="braceright" unicode="}" horiz-adv-x="397" 
d="M24 -122v130q52 4 75 20.5t23 57.5v95q0 53 25 85t90 44v3q-65 12 -90 44t-25 85v95q0 41 -22.5 55.5t-75.5 18.5v130q152 -2 212.5 -46.5t60.5 -132.5v-109q0 -40 20 -57.5t66 -20.5v-129q-47 -3 -66.5 -18.5t-19.5 -56.5v-109q0 -89 -61 -135.5t-212 -48.5z" />
    <glyph glyph-name="asciitilde" unicode="~" horiz-adv-x="445" 
d="M25 223q6 89 42.5 128t87.5 39q30 0 70 -17.5t50 -17.5q28 0 34 34h111q-7 -89 -43 -128t-87 -39q-30 0 -70 17t-50 17q-27 0 -35 -33h-110z" />
    <glyph glyph-name="uni00A0" unicode="&#xa0;" horiz-adv-x="166" 
 />
    <glyph glyph-name="exclamdown" unicode="&#xa1;" horiz-adv-x="293" 
d="M47 -120l25 464h149l25 -464h-199zM61 420v153h170v-153h-170z" />
    <glyph glyph-name="cent" unicode="&#xa2;" horiz-adv-x="477" 
d="M206 -118l19 113q-206 34 -206 261v13q0 133 75 203t208 70h14l11 61h84l-12 -69q33 -8 56 -19v-124q-44 17 -77 20l-49 -293h11q52 0 118 23v-114q-55 -34 -150 -37l-18 -108h-84zM195 264q0 -94 54 -126l45 272q-99 -17 -99 -127v-19z" />
    <glyph glyph-name="sterling" unicode="&#xa3;" horiz-adv-x="556" 
d="M33 281v120h65v66q0 119 71.5 178.5t188.5 59.5q109 0 163 -29v-133q-58 15 -109 15q-119 0 -119 -110v-47h155v-120h-155q-1 -93 -72 -140v-2h310v-139h-503v129q70 34 70 119v33h-65z" />
    <glyph glyph-name="yen" unicode="&#xa5;" horiz-adv-x="644" 
d="M227 0v104h-157v115h157v47h-157v115h115l-175 312h205l120 -245h4l120 245h177l-175 -312h117v-115h-157v-47h157v-115h-157v-104h-194z" />
    <glyph glyph-name="brokenbar" unicode="&#xa6;" horiz-adv-x="307" 
d="M76 -120v402h155v-402h-155zM76 363v374h155v-374h-155z" />
    <glyph glyph-name="section" unicode="&#xa7;" horiz-adv-x="558" 
d="M255 -132q-119 0 -194 40v121q91 -35 169 -35q95 0 95 49q0 22 -13 33t-51 20l-68 16q-84 18 -129 55.5t-45 112.5q0 96 89 127q-48 43 -48 121q0 84 59 130.5t175 46.5q105 0 178 -34v-120q-87 29 -156 29q-84 0 -84 -44q0 -22 13 -32.5t48 -18.5l70 -18
q93 -20 136 -55.5t43 -108.5q0 -100 -86 -133q47 -39 47 -115q0 -187 -248 -187zM292 340l-44 12l-4 2q-61 -9 -61 -53q0 -25 16 -38.5t60 -24.5l42 -12q4 -2 6 -2q65 8 65 53q0 25 -16 38t-64 25z" />
    <glyph glyph-name="dieresis" unicode="&#xa8;" 
d="M279 592v133h145v-133h-145zM73 592v133h146v-133h-146z" />
    <glyph glyph-name="copyright" unicode="&#xa9;" horiz-adv-x="777" 
d="M388 -14q-153 0 -256 104.5t-103 253.5t103 252.5t256 103.5q152 0 256 -103.5t104 -252.5t-104 -253.5t-256 -104.5zM388 41q128 0 211 85.5t83 217.5t-83 216.5t-211 84.5q-129 0 -211 -84.5t-82 -216.5t82 -217.5t211 -85.5zM403 141q-93 0 -145.5 49.5t-52.5 146.5v9
q0 101 56 150.5t145 49.5q64 0 108 -20v-97q-36 12 -75 12q-44 0 -65.5 -20.5t-21.5 -65.5v-16q0 -50 20 -72.5t67 -22.5q38 0 77 15v-96q-57 -22 -113 -22z" />
    <glyph glyph-name="ordfeminine" unicode="&#xaa;" horiz-adv-x="475" 
d="M165 214q-68 0 -108 34t-40 100q0 70 45 102.5t130 43.5l85 11v21q0 36 -19.5 48t-72.5 12q-62 0 -128 -14v104q76 28 189 28q191 0 191 -146v-335h-134l-10 36h-6q-31 -45 -122 -45zM221 314q39 0 56 19v92l-53 -5q-53 -4 -53 -55t50 -51z" />
    <glyph glyph-name="guillemotleft" unicode="&#xab;" horiz-adv-x="520" 
d="M343 52l-92 179v43l92 179h145l-91 -200l91 -201h-145zM122 52l-92 179v43l92 179h145l-91 -200l91 -201h-145z" />
    <glyph glyph-name="registered" unicode="&#xae;" horiz-adv-x="450" 
d="M224 303q-85 0 -144 59.5t-59 142.5q0 84 59 142.5t144 58.5q86 0 145.5 -58.5t59.5 -142.5q0 -83 -59.5 -142.5t-145.5 -59.5zM224 340q71 0 116 47t45 118q0 70 -45 117.5t-116 47.5q-70 0 -114 -47.5t-44 -117.5q0 -71 43.5 -118t114.5 -47zM143 410v194h95
q37 0 58 -16t21 -46q0 -36 -29 -49v-3l39 -80h-69l-31 66h-18v-66h-66zM209 518h19q22 0 22 20t-22 20h-19v-40z" />
    <glyph glyph-name="macron" unicode="&#xaf;" 
d="M107 594v115h284v-115h-284z" />
    <glyph glyph-name="degree" unicode="&#xb0;" horiz-adv-x="398" 
d="M199 388q-73 0 -118.5 46t-45.5 112t45.5 111.5t118.5 45.5q74 0 119.5 -45.5t45.5 -111.5t-45.5 -112t-119.5 -46zM199 475q31 0 47 20t16 51q0 30 -16 50t-47 20q-30 0 -46 -20t-16 -50q0 -31 16 -51t46 -20z" />
    <glyph glyph-name="acute" unicode="&#xb4;" 
d="M168 581l67 155h178l-104 -155h-141z" />
    <glyph glyph-name="paragraph" unicode="&#xb6;" horiz-adv-x="592" 
d="M269 -120v444h-26q-96 0 -153 48.5t-57 135.5q0 85 56.5 135t166.5 50h284v-813h-99v720h-72v-720h-100z" />
    <glyph glyph-name="periodcentered" unicode="&#xb7;" horiz-adv-x="260" 
d="M45 238v155h171v-155h-171z" />
    <glyph glyph-name="cedilla" unicode="&#xb8;" 
d="M193 -225v68q52 4 73 11.5t21 23.5q0 14 -15.5 19.5t-54.5 7.5v95h80v-41q108 -4 108 -80q0 -49 -50 -74.5t-162 -29.5z" />
    <glyph glyph-name="ordmasculine" unicode="&#xba;" horiz-adv-x="524" 
d="M262 214q-117 0 -180 61.5t-63 175.5v11q0 117 67.5 179.5t175.5 62.5q118 0 180.5 -60.5t62.5 -176.5v-11q0 -117 -67.5 -179.5t-175.5 -62.5zM263 322q39 0 58.5 28.5t19.5 97.5v17q0 76 -20 102.5t-60 26.5q-39 0 -58.5 -28t-19.5 -96v-18q0 -74 20.5 -102t59.5 -28z
" />
    <glyph glyph-name="guillemotright" unicode="&#xbb;" horiz-adv-x="520" 
d="M253 52l91 200l-91 201h145l92 -179v-43l-92 -179h-145zM32 52l91 200l-91 201h145l92 -179v-43l-92 -179h-145z" />
    <glyph glyph-name="onequarter" unicode="&#xbc;" horiz-adv-x="862" 
d="M93 270v295l-75 -9v83l127 55h87v-424h-139zM90 -40l511 753h122l-511 -753h-122zM649 0v96h-190v85l196 242h131v-237h60v-90h-60v-96h-137zM569 184h84v106h-2l-82 -104v-2z" />
    <glyph glyph-name="onehalf" unicode="&#xbd;" horiz-adv-x="892" 
d="M81 -40l511 753h122l-511 -753h-122zM93 270v295l-75 -9v83l127 55h87v-424h-139zM551 0v91l82 71q42 37 60.5 61.5t18.5 52.5q0 51 -66 51q-45 0 -89 -18v95q63 27 142 27q78 0 119.5 -34.5t41.5 -97.5q0 -49 -26 -86t-80 -78l-43 -35v-1h153v-99h-313z" />
    <glyph glyph-name="threequarters" unicode="&#xbe;" horiz-adv-x="892" 
d="M161 263q-82 0 -138 25v87q54 -14 94 -14q77 0 77 42q0 41 -60 41h-51v83h47q62 0 62 39q0 37 -67 37q-45 0 -89 -11v86q63 23 137 23q71 0 113 -28t42 -81q0 -37 -21.5 -62.5t-59.5 -35.5v-2q47 -8 70 -32t23 -70q0 -60 -46.5 -93.5t-132.5 -33.5zM134 -43l511 753h122
l-511 -753h-122zM679 0v96h-190v85l196 242h131v-237h60v-90h-60v-96h-137zM599 184h84v106h-2l-82 -104v-2z" />
    <glyph glyph-name="questiondown" unicode="&#xbf;" horiz-adv-x="449" 
d="M249 -132q-106 0 -167 44t-61 137q0 64 22 99.5t76 75.5q52 35 67 51.5t15 45.5v23h151v-41q0 -49 -19.5 -77.5t-70.5 -65.5q-32 -23 -44.5 -41t-12.5 -47q0 -36 24 -51.5t79 -15.5q60 0 123 18v-125q-78 -30 -182 -30zM190 420v153h170v-153h-170z" />
    <glyph glyph-name="Agrave" unicode="&#xc0;" horiz-adv-x="690" 
d="M0 0l243 693h207l240 -693h-198l-46 137h-228l-43 -137h-175zM329 492l-73 -230h151l-74 230h-4zM283 729l-93 143h177l57 -143h-141z" />
    <glyph glyph-name="Aacute" unicode="&#xc1;" horiz-adv-x="690" 
d="M0 0l243 693h207l240 -693h-198l-46 137h-228l-43 -137h-175zM329 492l-73 -230h151l-74 230h-4zM266 729l59 141h178l-96 -141h-141z" />
    <glyph glyph-name="Acircumflex" unicode="&#xc2;" horiz-adv-x="690" 
d="M0 0l243 693h207l240 -693h-198l-46 137h-228l-43 -137h-175zM329 492l-73 -230h151l-74 230h-4zM170 729l103 135h142l102 -135h-125l-49 44l-48 -44h-125z" />
    <glyph glyph-name="Atilde" unicode="&#xc3;" horiz-adv-x="690" 
d="M0 0l243 693h207l240 -693h-198l-46 137h-228l-43 -137h-175zM329 492l-73 -230h151l-74 230h-4zM161 731q7 71 40.5 103.5t80.5 32.5q28 0 65 -14t46 -14q24 0 32 27h103q-7 -71 -40.5 -103.5t-80.5 -32.5q-27 0 -64 14t-47 14q-25 0 -31 -27h-104z" />
    <glyph glyph-name="Adieresis" unicode="&#xc4;" horiz-adv-x="690" 
d="M0 0l243 693h207l240 -693h-198l-46 137h-228l-43 -137h-175zM329 492l-73 -230h151l-74 230h-4zM376 732v128h146v-128h-146zM166 732v128h145v-128h-145z" />
    <glyph glyph-name="Aring" unicode="&#xc5;" horiz-adv-x="690" 
d="M0 0l243 693h207l240 -693h-198l-46 137h-228l-43 -137h-175zM329 492l-73 -230h151l-74 230h-4zM346 716q-53 0 -86.5 32.5t-33.5 78.5q0 47 33.5 79t86.5 32t86.5 -32t33.5 -79q0 -46 -33.5 -78.5t-86.5 -32.5zM346 782q19 0 30.5 12.5t11.5 32.5t-11.5 32.5
t-30.5 12.5q-20 0 -31.5 -12.5t-11.5 -32.5t11.5 -32.5t31.5 -12.5z" />
    <glyph glyph-name="AE" unicode="&#xc6;" horiz-adv-x="951" 
d="M-5 0l352 693h562v-139h-280v-132h218v-137h-218v-146h291v-139h-480v145h-194l-70 -145h-181zM436 547l-133 -277h137v277h-4z" />
    <glyph glyph-name="Ccedilla" unicode="&#xc7;" horiz-adv-x="576" 
d="M359 -12q-8 0 -22 1v-30q108 -4 108 -80q0 -49 -50 -74.5t-162 -29.5v68q52 4 73 11.5t21 23.5q0 14 -15.5 19.5t-54.5 7.5v93q-233 50 -233 335v24q0 179 94 263.5t249 84.5q119 0 181 -30v-141q-67 24 -142 24q-86 0 -130.5 -45t-44.5 -142v-31q0 -103 40 -154t133 -51
q78 0 150 29v-139q-81 -37 -195 -37z" />
    <glyph glyph-name="Egrave" unicode="&#xc8;" horiz-adv-x="573" 
d="M237 729l-93 143h177l57 -143h-141zM52 0v693h479v-139h-286v-132h224v-137h-224v-146h296v-139h-489z" />
    <glyph glyph-name="Eacute" unicode="&#xc9;" horiz-adv-x="573" 
d="M220 729l59 141h178l-96 -141h-141zM52 0v693h479v-139h-286v-132h224v-137h-224v-146h296v-139h-489z" />
    <glyph glyph-name="Ecircumflex" unicode="&#xca;" horiz-adv-x="573" 
d="M125 729l103 135h142l102 -135h-125l-49 44l-48 -44h-125zM52 0v693h479v-139h-286v-132h224v-137h-224v-146h296v-139h-489z" />
    <glyph glyph-name="Edieresis" unicode="&#xcb;" horiz-adv-x="573" 
d="M52 0v693h479v-139h-286v-132h224v-137h-224v-146h296v-139h-489zM327 732v128h146v-128h-146zM117 732v128h145v-128h-145z" />
    <glyph glyph-name="Igrave" unicode="&#xcc;" horiz-adv-x="306" 
d="M56 0v693h195v-693h-195zM92 729l-93 143h177l57 -143h-141z" />
    <glyph glyph-name="Iacute" unicode="&#xcd;" horiz-adv-x="306" 
d="M56 0v693h195v-693h-195zM75 729l59 141h178l-96 -141h-141z" />
    <glyph glyph-name="Icircumflex" unicode="&#xce;" horiz-adv-x="306" 
d="M56 0v693h195v-693h-195zM-20 729l103 135h142l102 -135h-125l-49 44l-48 -44h-125z" />
    <glyph glyph-name="Idieresis" unicode="&#xcf;" horiz-adv-x="306" 
d="M179 732v128h133v-128h-133zM-6 732v128h133v-128h-133zM56 0v693h195v-693h-195z" />
    <glyph glyph-name="Eth" unicode="&#xd0;" horiz-adv-x="692" 
d="M5 281v132h50v280h267q169 0 257.5 -78.5t88.5 -251.5v-23q0 -172 -89.5 -256t-255.5 -84h-268v281h-50zM248 137h74q75 0 109.5 43.5t34.5 150.5v35q0 106 -36.5 148t-112.5 42h-69v-143h125v-132h-125v-144z" />
    <glyph glyph-name="Ntilde" unicode="&#xd1;" horiz-adv-x="707" 
d="M189 731q7 71 40.5 103.5t80.5 32.5q28 0 65 -14t46 -14q24 0 32 27h103q-7 -71 -40.5 -103.5t-80.5 -32.5q-27 0 -64 14t-47 14q-25 0 -31 -27h-104zM52 0v693h210l224 -388h3v388h166v-693h-185l-248 432h-4v-432h-166z" />
    <glyph glyph-name="Ograve" unicode="&#xd2;" horiz-adv-x="719" 
d="M297 729l-93 143h177l57 -143h-141zM357 -12q-72 0 -131 20t-105 61t-71.5 108t-25.5 156v23q0 90 27.5 158.5t75 109t107 61t128.5 20.5q72 0 131 -20t105 -61t71.5 -108t25.5 -156v-23q0 -90 -27.5 -158.5t-75 -109t-107 -61t-128.5 -20.5zM361 130q129 0 129 195v35
q0 108 -31.5 155.5t-100.5 47.5q-130 0 -130 -194v-35q0 -110 32.5 -157t100.5 -47z" />
    <glyph glyph-name="Oacute" unicode="&#xd3;" horiz-adv-x="719" 
d="M280 729l59 141h178l-96 -141h-141zM357 -12q-72 0 -131 20t-105 61t-71.5 108t-25.5 156v23q0 90 27.5 158.5t75 109t107 61t128.5 20.5q72 0 131 -20t105 -61t71.5 -108t25.5 -156v-23q0 -90 -27.5 -158.5t-75 -109t-107 -61t-128.5 -20.5zM361 130q129 0 129 195v35
q0 108 -31.5 155.5t-100.5 47.5q-130 0 -130 -194v-35q0 -110 32.5 -157t100.5 -47z" />
    <glyph glyph-name="Ocircumflex" unicode="&#xd4;" horiz-adv-x="719" 
d="M185 729l103 135h142l102 -135h-125l-49 44l-48 -44h-125zM357 -12q-72 0 -131 20t-105 61t-71.5 108t-25.5 156v23q0 90 27.5 158.5t75 109t107 61t128.5 20.5q72 0 131 -20t105 -61t71.5 -108t25.5 -156v-23q0 -90 -27.5 -158.5t-75 -109t-107 -61t-128.5 -20.5z
M361 130q129 0 129 195v35q0 108 -31.5 155.5t-100.5 47.5q-130 0 -130 -194v-35q0 -110 32.5 -157t100.5 -47z" />
    <glyph glyph-name="Otilde" unicode="&#xd5;" horiz-adv-x="719" 
d="M175 731q7 71 40.5 103.5t80.5 32.5q28 0 65 -14t46 -14q24 0 32 27h103q-7 -71 -40.5 -103.5t-80.5 -32.5q-27 0 -64 14t-47 14q-25 0 -31 -27h-104zM357 -12q-72 0 -131 20t-105 61t-71.5 108t-25.5 156v23q0 90 27.5 158.5t75 109t107 61t128.5 20.5q72 0 131 -20
t105 -61t71.5 -108t25.5 -156v-23q0 -90 -27.5 -158.5t-75 -109t-107 -61t-128.5 -20.5zM361 130q129 0 129 195v35q0 108 -31.5 155.5t-100.5 47.5q-130 0 -130 -194v-35q0 -110 32.5 -157t100.5 -47z" />
    <glyph glyph-name="Odieresis" unicode="&#xd6;" horiz-adv-x="719" 
d="M391 732v128h146v-128h-146zM181 732v128h145v-128h-145zM357 -12q-72 0 -131 20t-105 61t-71.5 108t-25.5 156v23q0 90 27.5 158.5t75 109t107 61t128.5 20.5q72 0 131 -20t105 -61t71.5 -108t25.5 -156v-23q0 -90 -27.5 -158.5t-75 -109t-107 -61t-128.5 -20.5z
M361 130q129 0 129 195v35q0 108 -31.5 155.5t-100.5 47.5q-130 0 -130 -194v-35q0 -110 32.5 -157t100.5 -47z" />
    <glyph glyph-name="multiply" unicode="&#xd7;" horiz-adv-x="553" 
d="M145 103l-97 96l130 129l-130 129l97 96l130 -130l131 130l97 -96l-131 -129l131 -129l-97 -96l-131 129z" />
    <glyph glyph-name="Oslash" unicode="&#xd8;" horiz-adv-x="719" 
d="M357 -12q-119 0 -200 53l-35 -41h-120l88 104q-66 86 -66 229v23q0 90 27.5 158.5t75 109t107 61t128.5 20.5q115 0 195 -51l33 39h120l-85 -100q70 -87 70 -233v-23q0 -90 -27.5 -158.5t-75 -109t-107 -61t-128.5 -20.5zM361 126q137 0 137 198v43q0 36 -5 71l-232 -274
q32 -38 100 -38zM221 329q0 -37 3 -67l230 271q-34 34 -96 34q-137 0 -137 -198v-40z" />
    <glyph glyph-name="Ugrave" unicode="&#xd9;" horiz-adv-x="684" 
d="M291 729l-93 143h177l57 -143h-141zM349 -12q-301 0 -301 260v445h195v-438q0 -66 27 -95.5t85 -29.5q57 0 83 29.5t26 96.5v437h173v-444q0 -130 -70.5 -195.5t-217.5 -65.5z" />
    <glyph glyph-name="Uacute" unicode="&#xda;" horiz-adv-x="684" 
d="M274 729l59 141h178l-96 -141h-141zM349 -12q-301 0 -301 260v445h195v-438q0 -66 27 -95.5t85 -29.5q57 0 83 29.5t26 96.5v437h173v-444q0 -130 -70.5 -195.5t-217.5 -65.5z" />
    <glyph glyph-name="Ucircumflex" unicode="&#xdb;" horiz-adv-x="684" 
d="M179 729l103 135h142l102 -135h-125l-49 44l-48 -44h-125zM349 -12q-301 0 -301 260v445h195v-438q0 -66 27 -95.5t85 -29.5q57 0 83 29.5t26 96.5v437h173v-444q0 -130 -70.5 -195.5t-217.5 -65.5z" />
    <glyph glyph-name="Udieresis" unicode="&#xdc;" horiz-adv-x="684" 
d="M349 -12q-301 0 -301 260v445h195v-438q0 -66 27 -95.5t85 -29.5q57 0 83 29.5t26 96.5v437h173v-444q0 -130 -70.5 -195.5t-217.5 -65.5zM385 732v128h146v-128h-146zM175 732v128h145v-128h-145z" />
    <glyph glyph-name="Yacute" unicode="&#xdd;" horiz-adv-x="636" 
d="M221 0v271l-220 422h206l124 -252h3l122 252h178l-218 -422v-271h-195zM253 729l59 141h178l-96 -141h-141z" />
    <glyph glyph-name="Thorn" unicode="&#xde;" horiz-adv-x="627" 
d="M52 0v693h195v-108h95q270 0 270 -217q0 -228 -265 -228h-100v-140h-195zM247 263h73q53 0 76 22.5t23 72.5q0 53 -22.5 73t-72.5 20h-77v-188z" />
    <glyph glyph-name="germandbls" unicode="&#xdf;" horiz-adv-x="642" 
d="M426 -9q-91 0 -154 24v116q74 -20 118 -20q66 0 66 40q0 16 -10 25.5t-37 20.5l-33 13q-55 22 -78.5 55.5t-23.5 86.5q0 36 17.5 70t39 56t39 47.5t17.5 46.5q0 56 -71 56q-99 0 -99 -113v-515h-175v528q0 113 75.5 167t204.5 54q242 0 242 -160q0 -36 -20.5 -69.5
t-44.5 -54t-44.5 -42t-20.5 -35.5q0 -16 9.5 -24.5t34.5 -19.5l34 -15q60 -27 87 -66t27 -103q0 -80 -52 -124.5t-148 -44.5z" />
    <glyph glyph-name="agrave" unicode="&#xe0;" horiz-adv-x="521" 
d="M183 -10q-76 0 -121 38.5t-45 112.5q0 79 49 116t144 50l97 13v23q0 41 -22 54.5t-82 13.5q-75 0 -141 -16v116q81 31 208 31q103 0 157.5 -38t54.5 -125v-379h-146l-12 41h-6q-35 -51 -135 -51zM243 101q43 0 64 21v103l-62 -6q-32 -2 -46 -16t-14 -44q0 -58 58 -58z
M201 581l-103 155h177l67 -155h-141z" />
    <glyph glyph-name="aacute" unicode="&#xe1;" horiz-adv-x="521" 
d="M183 -10q-76 0 -121 38.5t-45 112.5q0 79 49 116t144 50l97 13v23q0 41 -22 54.5t-82 13.5q-75 0 -141 -16v116q81 31 208 31q103 0 157.5 -38t54.5 -125v-379h-146l-12 41h-6q-35 -51 -135 -51zM243 101q43 0 64 21v103l-62 -6q-32 -2 -46 -16t-14 -44q0 -58 58 -58z
M186 581l67 155h178l-104 -155h-141z" />
    <glyph glyph-name="acircumflex" unicode="&#xe2;" horiz-adv-x="521" 
d="M183 -10q-76 0 -121 38.5t-45 112.5q0 79 49 116t144 50l97 13v23q0 41 -22 54.5t-82 13.5q-75 0 -141 -16v116q81 31 208 31q103 0 157.5 -38t54.5 -125v-379h-146l-12 41h-6q-35 -51 -135 -51zM243 101q43 0 64 21v103l-62 -6q-32 -2 -46 -16t-14 -44q0 -58 58 -58z
M92 581l104 155h143l104 -155h-125l-51 57l-49 -57h-126z" />
    <glyph glyph-name="atilde" unicode="&#xe3;" horiz-adv-x="521" 
d="M183 -10q-76 0 -121 38.5t-45 112.5q0 79 49 116t144 50l97 13v23q0 41 -22 54.5t-82 13.5q-75 0 -141 -16v116q81 31 208 31q103 0 157.5 -38t54.5 -125v-379h-146l-12 41h-6q-35 -51 -135 -51zM243 101q43 0 64 21v103l-62 -6q-32 -2 -46 -16t-14 -44q0 -58 58 -58z
M84 591q7 72 41 107t80 35q28 0 65 -15.5t46 -15.5q24 0 32 30h103q-7 -72 -41 -107t-80 -35q-28 0 -65 15.5t-46 15.5q-25 0 -31 -30h-104z" />
    <glyph glyph-name="adieresis" unicode="&#xe4;" horiz-adv-x="521" 
d="M183 -10q-76 0 -121 38.5t-45 112.5q0 79 49 116t144 50l97 13v23q0 41 -22 54.5t-82 13.5q-75 0 -141 -16v116q81 31 208 31q103 0 157.5 -38t54.5 -125v-379h-146l-12 41h-6q-35 -51 -135 -51zM243 101q43 0 64 21v103l-62 -6q-32 -2 -46 -16t-14 -44q0 -58 58 -58z
M296 592v133h145v-133h-145zM90 592v133h146v-133h-146z" />
    <glyph glyph-name="aring" unicode="&#xe5;" horiz-adv-x="521" 
d="M183 -10q-76 0 -121 38.5t-45 112.5q0 79 49 116t144 50l97 13v23q0 41 -22 54.5t-82 13.5q-75 0 -141 -16v116q81 31 208 31q103 0 157.5 -38t54.5 -125v-379h-146l-12 41h-6q-35 -51 -135 -51zM243 101q43 0 64 21v103l-62 -6q-32 -2 -46 -16t-14 -44q0 -58 58 -58z
M265 575q-53 0 -86.5 32.5t-33.5 78.5q0 47 33.5 79t86.5 32t86.5 -32t33.5 -79q0 -46 -33.5 -78.5t-86.5 -32.5zM265 641q19 0 30.5 12.5t11.5 32.5t-11.5 32.5t-30.5 12.5q-20 0 -31.5 -12.5t-11.5 -32.5t11.5 -32.5t31.5 -12.5z" />
    <glyph glyph-name="ae" unicode="&#xe6;" horiz-adv-x="827" 
d="M186 -10q-78 0 -123.5 38.5t-45.5 112.5q0 79 48.5 114.5t144.5 47.5l97 13v27q0 41 -22 54.5t-82 13.5q-75 0 -141 -16v116q81 31 202 31q111 0 148 -58q53 58 158 58q125 0 181.5 -69.5t56.5 -205.5v-45h-329q7 -61 42 -84t106 -23q82 0 159 32v-109q-80 -48 -204 -48
q-144 0 -214 73q-64 -73 -182 -73zM323 137q-15 39 -18 90l-60 -4q-60 -4 -60 -63t58 -59q45 0 80 36zM563 426q-75 0 -85 -106h161q0 57 -18.5 81.5t-57.5 24.5z" />
    <glyph glyph-name="ccedilla" unicode="&#xe7;" horiz-adv-x="468" 
d="M171 -225v68q52 4 73 11.5t21 23.5q0 14 -15.5 19.5t-54.5 7.5v95q-176 44 -176 256v13q0 133 73.5 203t202.5 70q97 0 149 -27v-127q-59 22 -117 22q-59 0 -92 -31.5t-33 -96.5v-17q0 -75 30 -109t97 -34q56 0 118 24v-120q-60 -36 -160 -36h-12v-31q108 -4 108 -80
q0 -49 -50 -74.5t-162 -29.5z" />
    <glyph glyph-name="egrave" unicode="&#xe8;" horiz-adv-x="546" 
d="M301 -10q-141 0 -211.5 69t-70.5 202v13q0 123 71.5 195.5t191.5 72.5q129 0 187 -69.5t58 -205.5v-46h-329q8 -60 42.5 -83t105.5 -23q82 0 159 32v-109q-80 -48 -204 -48zM220 581l-103 155h177l67 -155h-141zM282 426q-75 0 -85 -106h161q0 57 -18.5 81.5t-57.5 24.5z
" />
    <glyph glyph-name="eacute" unicode="&#xe9;" horiz-adv-x="546" 
d="M301 -10q-141 0 -211.5 69t-70.5 202v13q0 123 71.5 195.5t191.5 72.5q129 0 187 -69.5t58 -205.5v-46h-329q8 -60 42.5 -83t105.5 -23q82 0 159 32v-109q-80 -48 -204 -48zM205 581l67 155h178l-104 -155h-141zM282 426q-75 0 -85 -106h161q0 57 -18.5 81.5t-57.5 24.5z
" />
    <glyph glyph-name="ecircumflex" unicode="&#xea;" horiz-adv-x="546" 
d="M301 -10q-141 0 -211.5 69t-70.5 202v13q0 123 71.5 195.5t191.5 72.5q129 0 187 -69.5t58 -205.5v-46h-329q8 -60 42.5 -83t105.5 -23q82 0 159 32v-109q-80 -48 -204 -48zM108 581l104 155h143l104 -155h-125l-51 57l-49 -57h-126zM282 426q-75 0 -85 -106h161
q0 57 -18.5 81.5t-57.5 24.5z" />
    <glyph glyph-name="edieresis" unicode="&#xeb;" horiz-adv-x="546" 
d="M301 -10q-141 0 -211.5 69t-70.5 202v13q0 123 71.5 195.5t191.5 72.5q129 0 187 -69.5t58 -205.5v-46h-329q8 -60 42.5 -83t105.5 -23q82 0 159 32v-109q-80 -48 -204 -48zM108 592v133h146v-133h-146zM314 592v133h145v-133h-145zM282 426q-75 0 -85 -106h161
q0 57 -18.5 81.5t-57.5 24.5z" />
    <glyph glyph-name="igrave" unicode="&#xec;" horiz-adv-x="265" 
d="M45 0v532h175v-532h-175zM68 581l-103 155h177l67 -155h-141z" />
    <glyph glyph-name="iacute" unicode="&#xed;" horiz-adv-x="265" 
d="M53 581l67 155h178l-104 -155h-141zM45 0v532h175v-532h-175z" />
    <glyph glyph-name="icircumflex" unicode="&#xee;" horiz-adv-x="265" 
d="M45 0v532h175v-532h-175zM-32 581l93 155h143l92 -155h-124l-40 57l-40 -57h-124z" />
    <glyph glyph-name="idieresis" unicode="&#xef;" horiz-adv-x="265" 
d="M156 592v133h134v-133h-134zM-26 592v133h133v-133h-133zM45 0v532h175v-532h-175z" />
    <glyph glyph-name="eth" unicode="&#xf0;" horiz-adv-x="582" 
d="M100 620l105 31q-49 43 -110 88h204q27 -16 60 -41l105 32l19 -68l-60 -18q139 -139 139 -335v-26q0 -146 -72 -219.5t-200 -73.5q-133 0 -202 68t-69 199v13q0 128 63 194t161 66q43 0 75 -18h5q-24 40 -62 83l-142 -43zM382 289q0 59 -14 113q-32 17 -72 17
q-51 0 -74 -30.5t-23 -109.5v-20q0 -86 23.5 -117t68.5 -31q46 0 68.5 33.5t22.5 118.5v26z" />
    <glyph glyph-name="ntilde" unicode="&#xf1;" horiz-adv-x="581" 
d="M42 0v532h169v-47h5q71 57 169 57q157 0 157 -146v-396h-175v348q0 31 -15 44t-52 13q-39 0 -83 -18v-387h-175zM113 591q7 72 41 107t80 35q28 0 65 -15.5t46 -15.5q24 0 32 30h103q-7 -72 -41 -107t-80 -35q-27 0 -64 15.5t-47 15.5q-25 0 -31 -30h-104z" />
    <glyph glyph-name="ograve" unicode="&#xf2;" horiz-adv-x="582" 
d="M291 -10q-132 0 -202 69.5t-70 197.5v13q0 132 75.5 202t196.5 70q133 0 202.5 -68t69.5 -198v-13q0 -132 -75.5 -202.5t-196.5 -70.5zM292 111q45 0 68 32.5t23 110.5v19q0 88 -23.5 118.5t-69.5 30.5t-68.5 -32.5t-22.5 -110.5v-20q0 -86 24 -117t69 -31zM226 581
l-103 155h177l67 -155h-141z" />
    <glyph glyph-name="oacute" unicode="&#xf3;" horiz-adv-x="582" 
d="M211 581l67 155h178l-104 -155h-141zM291 -10q-132 0 -202 69.5t-70 197.5v13q0 132 75.5 202t196.5 70q133 0 202.5 -68t69.5 -198v-13q0 -132 -75.5 -202.5t-196.5 -70.5zM292 111q45 0 68 32.5t23 110.5v19q0 88 -23.5 118.5t-69.5 30.5t-68.5 -32.5t-22.5 -110.5v-20
q0 -86 24 -117t69 -31z" />
    <glyph glyph-name="ocircumflex" unicode="&#xf4;" horiz-adv-x="582" 
d="M115 581l104 155h143l104 -155h-125l-51 57l-49 -57h-126zM291 -10q-132 0 -202 69.5t-70 197.5v13q0 132 75.5 202t196.5 70q133 0 202.5 -68t69.5 -198v-13q0 -132 -75.5 -202.5t-196.5 -70.5zM292 111q45 0 68 32.5t23 110.5v19q0 88 -23.5 118.5t-69.5 30.5
t-68.5 -32.5t-22.5 -110.5v-20q0 -86 24 -117t69 -31z" />
    <glyph glyph-name="otilde" unicode="&#xf5;" horiz-adv-x="582" 
d="M291 -10q-132 0 -202 69.5t-70 197.5v13q0 132 75.5 202t196.5 70q133 0 202.5 -68t69.5 -198v-13q0 -132 -75.5 -202.5t-196.5 -70.5zM292 111q45 0 68 32.5t23 110.5v19q0 88 -23.5 118.5t-69.5 30.5t-68.5 -32.5t-22.5 -110.5v-20q0 -86 24 -117t69 -31zM107 591
q7 72 41 107t80 35q28 0 65 -15.5t46 -15.5q24 0 32 30h103q-7 -72 -41 -107t-80 -35q-27 0 -64 15.5t-47 15.5q-25 0 -31 -30h-104z" />
    <glyph glyph-name="odieresis" unicode="&#xf6;" horiz-adv-x="582" 
d="M321 592v133h145v-133h-145zM115 592v133h146v-133h-146zM291 -10q-132 0 -202 69.5t-70 197.5v13q0 132 75.5 202t196.5 70q133 0 202.5 -68t69.5 -198v-13q0 -132 -75.5 -202.5t-196.5 -70.5zM292 111q45 0 68 32.5t23 110.5v19q0 88 -23.5 118.5t-69.5 30.5
t-68.5 -32.5t-22.5 -110.5v-20q0 -86 24 -117t69 -31z" />
    <glyph glyph-name="divide" unicode="&#xf7;" horiz-adv-x="523" 
d="M31 273v136h461v-136h-461zM179 75v152h166v-152h-166zM179 455v152h166v-152h-166z" />
    <glyph glyph-name="oslash" unicode="&#xf8;" horiz-adv-x="582" 
d="M291 -10q-97 0 -161 38l-25 -28h-105l70 80q-51 66 -51 177v13q0 132 75.5 202t196.5 70q93 0 157 -35l22 25h106l-67 -76q54 -68 54 -180v-13q0 -132 -75.5 -202.5t-196.5 -70.5zM292 105q48 0 73 34t25 115v27q0 15 -2 39l-167 -189q22 -26 71 -26zM192 254
q0 -25 1 -36l165 187q-22 22 -68 22q-48 0 -73 -34t-25 -114v-25z" />
    <glyph glyph-name="ugrave" unicode="&#xf9;" horiz-adv-x="576" 
d="M202 -10q-162 0 -162 155v387h175v-350q0 -32 14.5 -45.5t49.5 -13.5q36 0 80 20v389h175v-532h-154l-12 47h-5q-74 -57 -161 -57zM225 581l-103 155h177l67 -155h-141z" />
    <glyph glyph-name="uacute" unicode="&#xfa;" horiz-adv-x="576" 
d="M214 581l67 155h178l-104 -155h-141zM202 -10q-162 0 -162 155v387h175v-350q0 -32 14.5 -45.5t49.5 -13.5q36 0 80 20v389h175v-532h-154l-12 47h-5q-74 -57 -161 -57z" />
    <glyph glyph-name="ucircumflex" unicode="&#xfb;" horiz-adv-x="576" 
d="M114 581l104 155h143l104 -155h-125l-51 57l-49 -57h-126zM202 -10q-162 0 -162 155v387h175v-350q0 -32 14.5 -45.5t49.5 -13.5q36 0 80 20v389h175v-532h-154l-12 47h-5q-74 -57 -161 -57z" />
    <glyph glyph-name="udieresis" unicode="&#xfc;" horiz-adv-x="576" 
d="M320 592v133h145v-133h-145zM114 592v133h146v-133h-146zM202 -10q-162 0 -162 155v387h175v-350q0 -32 14.5 -45.5t49.5 -13.5q36 0 80 20v389h175v-532h-154l-12 47h-5q-74 -57 -161 -57z" />
    <glyph glyph-name="yacute" unicode="&#xfd;" horiz-adv-x="558" 
d="M144 -198q-66 0 -102 16v116q36 -6 56 -6q69 0 88 52l12 32l-197 520h183l104 -318h3l100 318h165l-205 -583q-27 -79 -74.5 -113t-132.5 -34zM209 581l67 155h178l-104 -155h-141z" />
    <glyph glyph-name="thorn" unicode="&#xfe;" horiz-adv-x="591" 
d="M42 -195v934h175v-248h5q58 51 146 51q90 0 146 -60t56 -196v-12q0 -284 -246 -284q-63 0 -107 20v-205h-175zM290 111q51 0 75.5 31t24.5 113v16q0 79 -23 107.5t-72 28.5q-51 0 -78 -20v-257q26 -19 73 -19z" />
    <glyph glyph-name="ydieresis" unicode="&#xff;" horiz-adv-x="558" 
d="M144 -198q-66 0 -102 16v116q36 -6 56 -6q69 0 88 52l12 32l-197 520h183l104 -318h3l100 318h165l-205 -583q-27 -79 -74.5 -113t-132.5 -34zM319 592v133h145v-133h-145zM113 592v133h146v-133h-146z" />
    <glyph glyph-name="Amacron" unicode="&#x100;" horiz-adv-x="690" 
d="M0 0l243 693h207l240 -693h-198l-46 137h-228l-43 -137h-175zM329 492l-73 -230h151l-74 230h-4zM196 732v115h296v-115h-296z" />
    <glyph glyph-name="amacron" unicode="&#x101;" horiz-adv-x="521" 
d="M183 -10q-76 0 -121 38.5t-45 112.5q0 79 49 116t144 50l97 13v23q0 41 -22 54.5t-82 13.5q-75 0 -141 -16v116q81 31 208 31q103 0 157.5 -38t54.5 -125v-379h-146l-12 41h-6q-35 -51 -135 -51zM243 101q43 0 64 21v103l-62 -6q-32 -2 -46 -16t-14 -44q0 -58 58 -58z
M125 594v115h284v-115h-284z" />
    <glyph glyph-name="Abreve" unicode="&#x102;" horiz-adv-x="690" 
d="M0 0l243 693h207l240 -693h-198l-46 137h-228l-43 -137h-175zM329 492l-73 -230h151l-74 230h-4zM344 726q-72 0 -114.5 38t-45.5 101h113q5 -42 47 -42q41 0 47 42h112q-2 -63 -44.5 -101t-114.5 -38z" />
    <glyph glyph-name="abreve" unicode="&#x103;" horiz-adv-x="521" 
d="M183 -10q-76 0 -121 38.5t-45 112.5q0 79 49 116t144 50l97 13v23q0 41 -22 54.5t-82 13.5q-75 0 -141 -16v116q81 31 208 31q103 0 157.5 -38t54.5 -125v-379h-146l-12 41h-6q-35 -51 -135 -51zM243 101q43 0 64 21v103l-62 -6q-32 -2 -46 -16t-14 -44q0 -58 58 -58z
M268 586q-71 0 -114 40t-46 105h113q5 -43 47 -43q40 0 47 43h112q-2 -65 -44.5 -105t-114.5 -40z" />
    <glyph glyph-name="Aogonek" unicode="&#x104;" horiz-adv-x="690" 
d="M599 -199q-56 0 -87.5 23.5t-31.5 63.5q0 67 84 112h-72l-46 137h-228l-43 -137h-175l243 693h207l238 -688q-72 -42 -72 -78q0 -29 36 -29q9 0 27 3v-87q-32 -13 -80 -13zM329 492l-73 -230h151l-74 230h-4z" />
    <glyph glyph-name="aogonek" unicode="&#x105;" horiz-adv-x="521" 
d="M405 -199q-56 0 -87.5 23.5t-31.5 63.5q0 68 86 112h-36l-12 41h-6q-35 -51 -135 -51q-76 0 -121 38.5t-45 112.5q0 79 49 116t144 50l97 13v23q0 41 -22 54.5t-82 13.5q-75 0 -141 -16v116q81 31 208 31q103 0 157.5 -38t54.5 -125v-376q-60 -41 -60 -76q0 -29 36 -29
q9 0 27 3v-87q-32 -13 -80 -13zM243 101q43 0 64 21v103l-62 -6q-32 -2 -46 -16t-14 -44q0 -58 58 -58z" />
    <glyph glyph-name="Cacute" unicode="&#x106;" horiz-adv-x="576" 
d="M359 -12q-161 0 -248 86t-87 259v24q0 179 94 263.5t249 84.5q119 0 181 -30v-141q-67 24 -142 24q-86 0 -130.5 -45t-44.5 -142v-31q0 -103 40 -154t133 -51q78 0 150 29v-139q-81 -37 -195 -37zM268 729l59 141h178l-96 -141h-141z" />
    <glyph glyph-name="cacute" unicode="&#x107;" horiz-adv-x="468" 
d="M190 581l67 155h178l-104 -155h-141zM287 -10q-131 0 -199.5 68t-68.5 198v13q0 133 73.5 203t202.5 70q97 0 149 -27v-127q-59 22 -117 22q-59 0 -92 -31.5t-33 -96.5v-17q0 -75 30 -109t97 -34q56 0 118 24v-120q-60 -36 -160 -36z" />
    <glyph glyph-name="Ccircumflex" unicode="&#x108;" horiz-adv-x="576" 
d="M173 729l103 135h142l102 -135h-125l-49 44l-48 -44h-125zM359 -12q-161 0 -248 86t-87 259v24q0 179 94 263.5t249 84.5q119 0 181 -30v-141q-67 24 -142 24q-86 0 -130.5 -45t-44.5 -142v-31q0 -103 40 -154t133 -51q78 0 150 29v-139q-81 -37 -195 -37z" />
    <glyph glyph-name="ccircumflex" unicode="&#x109;" horiz-adv-x="468" 
d="M93 581l104 155h143l104 -155h-125l-51 57l-49 -57h-126zM287 -10q-131 0 -199.5 68t-68.5 198v13q0 133 73.5 203t202.5 70q97 0 149 -27v-127q-59 22 -117 22q-59 0 -92 -31.5t-33 -96.5v-17q0 -75 30 -109t97 -34q56 0 118 24v-120q-60 -36 -160 -36z" />
    <glyph glyph-name="Cdotaccent" unicode="&#x10a;" horiz-adv-x="576" 
d="M359 -12q-161 0 -248 86t-87 259v24q0 179 94 263.5t249 84.5q119 0 181 -30v-141q-67 24 -142 24q-86 0 -130.5 -45t-44.5 -142v-31q0 -103 40 -154t133 -51q78 0 150 29v-139q-81 -37 -195 -37zM262 732v128h170v-128h-170z" />
    <glyph glyph-name="cdotaccent" unicode="&#x10b;" horiz-adv-x="468" 
d="M287 -10q-131 0 -199.5 68t-68.5 198v13q0 133 73.5 203t202.5 70q97 0 149 -27v-127q-59 22 -117 22q-59 0 -92 -31.5t-33 -96.5v-17q0 -75 30 -109t97 -34q56 0 118 24v-120q-60 -36 -160 -36zM180 592v134h177v-134h-177z" />
    <glyph glyph-name="Ccaron" unicode="&#x10c;" horiz-adv-x="576" 
d="M517 864l-102 -135h-142l-103 135h125l49 -44l48 44h125zM359 -12q-161 0 -248 86t-87 259v24q0 179 94 263.5t249 84.5q119 0 181 -30v-141q-67 24 -142 24q-86 0 -130.5 -45t-44.5 -142v-31q0 -103 40 -154t133 -51q78 0 150 29v-139q-81 -37 -195 -37z" />
    <glyph glyph-name="ccaron" unicode="&#x10d;" horiz-adv-x="468" 
d="M444 736l-104 -155h-143l-104 155h126l50 -57l50 57h125zM287 -10q-131 0 -199.5 68t-68.5 198v13q0 133 73.5 203t202.5 70q97 0 149 -27v-127q-59 22 -117 22q-59 0 -92 -31.5t-33 -96.5v-17q0 -75 30 -109t97 -34q56 0 118 24v-120q-60 -36 -160 -36z" />
    <glyph glyph-name="Dcaron" unicode="&#x10e;" horiz-adv-x="689" 
d="M501 864l-102 -135h-142l-103 135h125l49 -44l48 44h125zM52 0v693h267q169 0 257.5 -78.5t88.5 -251.5v-23q0 -172 -89.5 -256t-255.5 -84h-268zM247 137h69q75 0 109.5 43.5t34.5 150.5v35q0 106 -36.5 148t-112.5 42h-64v-419z" />
    <glyph glyph-name="dcaron" unicode="&#x10f;" horiz-adv-x="591" 
d="M682 575h-96l7 164h121zM232 -10q-92 0 -151.5 64.5t-59.5 197.5v12q0 143 65 210.5t177 67.5q70 0 111 -23v220h175v-739h-151l-12 41h-5q-54 -51 -149 -51zM299 118q43 0 75 24v261q-27 19 -73 19q-49 0 -74 -32.5t-25 -113.5v-17q0 -79 24.5 -110t72.5 -31z" />
    <glyph glyph-name="Dcroat" unicode="&#x110;" horiz-adv-x="692" 
d="M5 281v132h50v280h267q169 0 257.5 -78.5t88.5 -251.5v-23q0 -172 -89.5 -256t-255.5 -84h-268v281h-50zM248 137h74q75 0 109.5 43.5t34.5 150.5v35q0 106 -36.5 148t-112.5 42h-69v-143h125v-132h-125v-144z" />
    <glyph glyph-name="dcroat" unicode="&#x111;" horiz-adv-x="591" 
d="M240 590v80h134v69h175v-69h54v-80h-54v-590h-151l-12 41h-5q-54 -51 -149 -51q-92 0 -151.5 64.5t-59.5 197.5v12q0 143 65 210.5t177 67.5q70 0 111 -23v71h-134zM299 118q43 0 75 24v261q-27 19 -73 19q-49 0 -74 -32.5t-25 -113.5v-17q0 -79 24.5 -110t72.5 -31z" />
    <glyph glyph-name="Emacron" unicode="&#x112;" horiz-adv-x="573" 
d="M52 0v693h479v-139h-286v-132h224v-137h-224v-146h296v-139h-489zM147 732v115h296v-115h-296z" />
    <glyph glyph-name="emacron" unicode="&#x113;" horiz-adv-x="546" 
d="M301 -10q-141 0 -211.5 69t-70.5 202v13q0 123 71.5 195.5t191.5 72.5q129 0 187 -69.5t58 -205.5v-46h-329q8 -60 42.5 -83t105.5 -23q82 0 159 32v-109q-80 -48 -204 -48zM142 594v115h284v-115h-284zM282 426q-75 0 -85 -106h161q0 57 -18.5 81.5t-57.5 24.5z" />
    <glyph glyph-name="Ebreve" unicode="&#x114;" horiz-adv-x="573" 
d="M52 0v693h479v-139h-286v-132h224v-137h-224v-146h296v-139h-489zM297 726q-72 0 -114.5 38t-45.5 101h113q5 -42 47 -42q41 0 47 42h112q-2 -63 -44.5 -101t-114.5 -38z" />
    <glyph glyph-name="ebreve" unicode="&#x115;" horiz-adv-x="546" 
d="M301 -10q-141 0 -211.5 69t-70.5 202v13q0 123 71.5 195.5t191.5 72.5q129 0 187 -69.5t58 -205.5v-46h-329q8 -60 42.5 -83t105.5 -23q82 0 159 32v-109q-80 -48 -204 -48zM282 586q-71 0 -114 40t-46 105h113q5 -43 47 -43q40 0 47 43h112q-2 -65 -44.5 -105
t-114.5 -40zM282 426q-75 0 -85 -106h161q0 57 -18.5 81.5t-57.5 24.5z" />
    <glyph glyph-name="Edotaccent" unicode="&#x116;" horiz-adv-x="573" 
d="M216 732v128h170v-128h-170zM52 0v693h479v-139h-286v-132h224v-137h-224v-146h296v-139h-489z" />
    <glyph glyph-name="edotaccent" unicode="&#x117;" horiz-adv-x="546" 
d="M301 -10q-141 0 -211.5 69t-70.5 202v13q0 123 71.5 195.5t191.5 72.5q129 0 187 -69.5t58 -205.5v-46h-329q8 -60 42.5 -83t105.5 -23q82 0 159 32v-109q-80 -48 -204 -48zM196 592v134h177v-134h-177zM282 426q-75 0 -85 -106h161q0 57 -18.5 81.5t-57.5 24.5z" />
    <glyph glyph-name="Eogonek" unicode="&#x118;" horiz-adv-x="573" 
d="M52 0v693h479v-139h-286v-132h224v-137h-224v-146h296v-139h-47q-52 -45 -52 -73q0 -29 36 -29q9 0 27 3v-87q-32 -13 -80 -13q-56 0 -88 23.5t-32 63.5q0 67 78 112h-331z" />
    <glyph glyph-name="eogonek" unicode="&#x119;" horiz-adv-x="546" 
d="M361 -199q-56 0 -87.5 23.5t-31.5 63.5q0 60 72 102h-13q-141 0 -211.5 69t-70.5 202v13q0 123 71.5 195.5t191.5 72.5q129 0 187 -69.5t58 -205.5v-46h-329q8 -60 42.5 -83t105.5 -23q82 0 159 32v-109q-10 -7 -34.5 -20t-34.5 -19q-57 -36 -57 -72q0 -29 35 -29
q9 0 27 3v-87q-32 -13 -80 -13zM282 426q-75 0 -85 -106h161q0 57 -18.5 81.5t-57.5 24.5z" />
    <glyph glyph-name="Ecaron" unicode="&#x11a;" horiz-adv-x="573" 
d="M471 864l-102 -135h-142l-103 135h125l49 -44l48 44h125zM52 0v693h479v-139h-286v-132h224v-137h-224v-146h296v-139h-489z" />
    <glyph glyph-name="ecaron" unicode="&#x11b;" horiz-adv-x="546" 
d="M301 -10q-141 0 -211.5 69t-70.5 202v13q0 123 71.5 195.5t191.5 72.5q129 0 187 -69.5t58 -205.5v-46h-329q8 -60 42.5 -83t105.5 -23q82 0 159 32v-109q-80 -48 -204 -48zM458 736l-104 -155h-143l-104 155h126l50 -57l50 57h125zM282 426q-75 0 -85 -106h161
q0 57 -18.5 81.5t-57.5 24.5z" />
    <glyph glyph-name="Gcircumflex" unicode="&#x11c;" horiz-adv-x="664" 
d="M189 729l103 135h142l102 -135h-125l-49 44l-48 -44h-125zM380 -11q-173 0 -264.5 81.5t-91.5 264.5v23q0 95 29 164.5t80.5 108t113.5 56.5t138 18q131 0 209 -38v-143q-89 32 -182 32q-105 0 -146 -49t-41 -144v-31q0 -105 31.5 -155t117.5 -50q40 0 74 12v109h-99v127
h280v-341q-106 -45 -249 -45z" />
    <glyph glyph-name="gcircumflex" unicode="&#x11d;" horiz-adv-x="548" 
d="M96 581l104 155h143l104 -155h-125l-51 57l-49 -57h-126zM257 -200q-132 0 -196.5 34t-64.5 93q0 74 99 106v5q-58 25 -58 81q0 61 66 110q-71 43 -71 131v7q0 85 61.5 130t169.5 45q53 0 97 -9h179v-101h-68q18 -24 18 -61v-7q0 -83 -60.5 -126t-166.5 -43q-43 0 -77 7
q-10 -13 -10 -27q0 -30 41 -30h151q179 0 179 -150q0 -90 -73 -142.5t-216 -52.5zM256 -93q117 0 117 57q0 24 -13.5 31.5t-54.5 7.5h-113q-36 -14 -36 -46q0 -25 22 -37.5t78 -12.5zM263 293q32 0 47.5 16t15.5 53v10q0 40 -15.5 55t-48.5 15q-64 0 -64 -69v-10
q0 -38 16 -54t49 -16z" />
    <glyph glyph-name="Gbreve" unicode="&#x11e;" horiz-adv-x="664" 
d="M363 726q-72 0 -114.5 38t-45.5 101h113q5 -42 47 -42q41 0 47 42h112q-2 -63 -44.5 -101t-114.5 -38zM380 -11q-173 0 -264.5 81.5t-91.5 264.5v23q0 95 29 164.5t80.5 108t113.5 56.5t138 18q131 0 209 -38v-143q-89 32 -182 32q-105 0 -146 -49t-41 -144v-31
q0 -105 31.5 -155t117.5 -50q40 0 74 12v109h-99v127h280v-341q-106 -45 -249 -45z" />
    <glyph glyph-name="gbreve" unicode="&#x11f;" horiz-adv-x="548" 
d="M257 -200q-132 0 -196.5 34t-64.5 93q0 74 99 106v5q-58 25 -58 81q0 61 66 110q-71 43 -71 131v7q0 85 61.5 130t169.5 45q53 0 97 -9h179v-101h-68q18 -24 18 -61v-7q0 -83 -60.5 -126t-166.5 -43q-43 0 -77 7q-10 -13 -10 -27q0 -30 41 -30h151q179 0 179 -150
q0 -90 -73 -142.5t-216 -52.5zM256 -93q117 0 117 57q0 24 -13.5 31.5t-54.5 7.5h-113q-36 -14 -36 -46q0 -25 22 -37.5t78 -12.5zM263 293q32 0 47.5 16t15.5 53v10q0 40 -15.5 55t-48.5 15q-64 0 -64 -69v-10q0 -38 16 -54t49 -16zM276 586q-71 0 -114 40t-46 105h113
q5 -43 47 -43q40 0 47 43h112q-2 -65 -44.5 -105t-114.5 -40z" />
    <glyph glyph-name="Gdotaccent" unicode="&#x120;" horiz-adv-x="664" 
d="M278 732v128h170v-128h-170zM380 -11q-173 0 -264.5 81.5t-91.5 264.5v23q0 95 29 164.5t80.5 108t113.5 56.5t138 18q131 0 209 -38v-143q-89 32 -182 32q-105 0 -146 -49t-41 -144v-31q0 -105 31.5 -155t117.5 -50q40 0 74 12v109h-99v127h280v-341q-106 -45 -249 -45z
" />
    <glyph glyph-name="gdotaccent" unicode="&#x121;" horiz-adv-x="548" 
d="M257 -200q-132 0 -196.5 34t-64.5 93q0 74 99 106v5q-58 25 -58 81q0 61 66 110q-71 43 -71 131v7q0 85 61.5 130t169.5 45q53 0 97 -9h179v-101h-68q18 -24 18 -61v-7q0 -83 -60.5 -126t-166.5 -43q-43 0 -77 7q-10 -13 -10 -27q0 -30 41 -30h151q179 0 179 -150
q0 -90 -73 -142.5t-216 -52.5zM256 -93q117 0 117 57q0 24 -13.5 31.5t-54.5 7.5h-113q-36 -14 -36 -46q0 -25 22 -37.5t78 -12.5zM263 293q32 0 47.5 16t15.5 53v10q0 40 -15.5 55t-48.5 15q-64 0 -64 -69v-10q0 -38 16 -54t49 -16zM184 592v134h177v-134h-177z" />
    <glyph glyph-name="Gcommaaccent" unicode="&#x122;" horiz-adv-x="664" 
d="M280 -182l10 147h157l-48 -147h-119zM380 -11q-173 0 -264.5 81.5t-91.5 264.5v23q0 95 29 164.5t80.5 108t113.5 56.5t138 18q131 0 209 -38v-143q-89 32 -182 32q-105 0 -146 -49t-41 -144v-31q0 -105 31.5 -155t117.5 -50q40 0 74 12v109h-99v127h280v-341
q-106 -45 -249 -45z" />
    <glyph glyph-name="gcommaaccent" unicode="&#x123;" horiz-adv-x="548" 
d="M355 735l-11 -146h-157l48 146h120zM257 -200q-132 0 -196.5 34t-64.5 93q0 74 99 106v5q-58 25 -58 81q0 61 66 110q-71 43 -71 131v7q0 85 61.5 130t169.5 45q53 0 97 -9h179v-101h-68q18 -24 18 -61v-7q0 -83 -60.5 -126t-166.5 -43q-43 0 -77 7q-10 -13 -10 -27
q0 -30 41 -30h151q179 0 179 -150q0 -90 -73 -142.5t-216 -52.5zM256 -93q117 0 117 57q0 24 -13.5 31.5t-54.5 7.5h-113q-36 -14 -36 -46q0 -25 22 -37.5t78 -12.5zM263 293q32 0 47.5 16t15.5 53v10q0 40 -15.5 55t-48.5 15q-64 0 -64 -69v-10q0 -38 16 -54t49 -16z" />
    <glyph glyph-name="Hcircumflex" unicode="&#x124;" horiz-adv-x="712" 
d="M52 0v693h195v-267h218v267h195v-693h-195v286h-218v-286h-195zM181 729l103 135h142l102 -135h-125l-49 44l-48 -44h-125z" />
    <glyph glyph-name="hcircumflex" unicode="&#x125;" horiz-adv-x="581" 
d="M42 0v739h175v-250h5q66 53 163 53q157 0 157 -146v-396h-175v348q0 31 -15 44t-52 13q-39 0 -83 -18v-387h-175zM124 776l103 135h142l102 -135h-125l-49 44l-48 -44h-125z" />
    <glyph glyph-name="Hbar" unicode="&#x126;" horiz-adv-x="712" 
d="M4 502v89h48v102h195v-102h218v102h195v-102h47v-89h-47v-502h-195v286h-218v-286h-195v502h-48zM247 421h218v81h-218v-81z" />
    <glyph glyph-name="hbar" unicode="&#x127;" horiz-adv-x="581" 
d="M42 0v590h-53v80h53v69h175v-69h135v-80h-135v-101h5q66 53 163 53q157 0 157 -146v-396h-175v348q0 31 -15 44t-52 13q-39 0 -83 -18v-387h-175z" />
    <glyph glyph-name="Itilde" unicode="&#x128;" horiz-adv-x="306" 
d="M56 0v693h195v-693h-195zM-30 731q7 71 40.5 103.5t80.5 32.5q28 0 65 -14t46 -14q24 0 32 27h103q-7 -71 -40.5 -103.5t-80.5 -32.5q-28 0 -65 14t-46 14q-25 0 -31 -27h-104z" />
    <glyph glyph-name="itilde" unicode="&#x129;" horiz-adv-x="265" 
d="M45 0v532h175v-532h-175zM-39 591q6 71 38.5 106.5t74.5 35.5q26 0 60 -15t42 -15q21 0 27 29h100q-6 -71 -38.5 -106.5t-74.5 -35.5q-27 0 -60.5 15t-41.5 15q-21 0 -27 -29h-100z" />
    <glyph glyph-name="Imacron" unicode="&#x12a;" horiz-adv-x="306" 
d="M56 0v693h195v-693h-195zM15 732v115h276v-115h-276z" />
    <glyph glyph-name="imacron" unicode="&#x12b;" horiz-adv-x="265" 
d="M7 594v115h251v-115h-251zM45 0v532h175v-532h-175z" />
    <glyph glyph-name="Ibreve" unicode="&#x12c;" horiz-adv-x="306" 
d="M56 0v693h195v-693h-195zM154 726q-72 0 -114.5 38t-45.5 101h113q5 -42 47 -42q41 0 47 42h112q-2 -63 -44.5 -101t-114.5 -38z" />
    <glyph glyph-name="ibreve" unicode="&#x12d;" horiz-adv-x="265" 
d="M45 0v532h175v-532h-175zM132 586q-71 0 -111 39.5t-42 105.5h109q5 -43 44 -43q41 0 44 43h109q-2 -65 -42.5 -105t-110.5 -40z" />
    <glyph glyph-name="Iogonek" unicode="&#x12e;" horiz-adv-x="306" 
d="M50 -112q0 66 75 112h-69v693h195v-690q-64 -37 -64 -76q0 -29 35 -29q6 0 27 3v-87q-32 -13 -80 -13q-57 0 -88 23.5t-31 63.5z" />
    <glyph glyph-name="iogonek" unicode="&#x12f;" horiz-adv-x="265" 
d="M25 -111q0 66 73 111h-53v532h175v-529q-59 -38 -59 -76q0 -29 35 -29q9 0 27 3v-87q-32 -13 -80 -13q-56 0 -87 24t-31 64zM44 592v134h177v-134h-177z" />
    <glyph glyph-name="Idotaccent" unicode="&#x130;" horiz-adv-x="306" 
d="M56 0v693h195v-693h-195zM69 732v128h170v-128h-170z" />
    <glyph glyph-name="dotlessi" unicode="&#x131;" horiz-adv-x="265" 
d="M45 0v532h175v-532h-175z" />
    <glyph glyph-name="IJ" unicode="&#x132;" horiz-adv-x="721" 
d="M56 0v693h195v-693h-195zM306 19l-1 134q38 -11 77 -11q97 0 97 87v464h195v-490q0 -96 -57 -153.5t-167 -57.5q-88 0 -144 27z" />
    <glyph glyph-name="ij" unicode="&#x133;" horiz-adv-x="530" 
d="M45 0v532h175v-532h-175zM44 592v134h177v-134h-177zM296 -198q-62 0 -98 18v111q22 -4 40 -4q72 0 72 64v541h175v-558q0 -172 -189 -172zM309 592v134h177v-134h-177z" />
    <glyph glyph-name="Jcircumflex" unicode="&#x134;" horiz-adv-x="447" 
d="M130 729l103 135h142l102 -135h-125l-49 44l-48 -44h-125zM172 -8q-95 0 -154 32v131q48 -13 87 -13q100 0 100 87v464h195v-490q0 -96 -58.5 -153.5t-169.5 -57.5z" />
    <glyph glyph-name="jcircumflex" unicode="&#x135;" horiz-adv-x="265" 
d="M-31 581l92 155h143l93 -155h-124l-41 57l-40 -57h-123zM31 -198q-62 0 -98 18v111q22 -4 40 -4q72 0 72 64v541h175v-558q0 -172 -189 -172z" />
    <glyph glyph-name="Kcommaaccent" unicode="&#x136;" horiz-adv-x="674" 
d="M52 0v693h195v-318l217 318h196l-227 -327l242 -366h-217l-211 318v-318h-195zM255 -182l10 147h157l-48 -147h-119z" />
    <glyph glyph-name="kcommaaccent" unicode="&#x137;" horiz-adv-x="558" 
d="M368 0l-151 246v-246h-175v739h175v-431l153 224h175l-171 -244l180 -288h-186zM201 -182l10 147h157l-48 -147h-119z" />
    <glyph glyph-name="Lacute" unicode="&#x139;" horiz-adv-x="530" 
d="M71 729l59 141h178l-96 -141h-141zM52 0v693h195v-554h263v-139h-458z" />
    <glyph glyph-name="lacute" unicode="&#x13a;" horiz-adv-x="265" 
d="M56 776l59 141h178l-96 -141h-141zM45 0v739h175v-739h-175z" />
    <glyph glyph-name="Lcommaaccent" unicode="&#x13b;" horiz-adv-x="530" 
d="M199 -182l10 147h157l-48 -147h-119zM52 0v693h195v-554h263v-139h-458z" />
    <glyph glyph-name="lcommaaccent" unicode="&#x13c;" horiz-adv-x="265" 
d="M48 -182l10 147h157l-48 -147h-119zM45 0v739h175v-739h-175z" />
    <glyph glyph-name="Lcaron" unicode="&#x13d;" horiz-adv-x="530" 
d="M52 0v693h195v-554h263v-139h-458zM437 506h-114l10 187h138z" />
    <glyph glyph-name="lcaron" unicode="&#x13e;" horiz-adv-x="265" 
d="M353 575h-96l7 164h121zM45 0v739h175v-739h-175z" />
    <glyph glyph-name="Ldot" unicode="&#x13f;" horiz-adv-x="530" 
d="M52 0v693h195v-554h263v-139h-458zM348 299v140h154v-140h-154z" />
    <glyph glyph-name="ldot" unicode="&#x140;" horiz-adv-x="386" 
d="M45 0v739h175v-739h-175zM256 293v127h139v-127h-139z" />
    <glyph glyph-name="Lslash" unicode="&#x141;" horiz-adv-x="540" 
d="M3 198v134l58 22v339h195v-268l172 66v-133l-172 -67v-152h263v-139h-458v221z" />
    <glyph glyph-name="lslash" unicode="&#x142;" horiz-adv-x="295" 
d="M4 245v134l55 28v332h175v-244l62 34v-134l-62 -34v-361h-175v273z" />
    <glyph glyph-name="Nacute" unicode="&#x143;" horiz-adv-x="707" 
d="M294 729l59 141h178l-96 -141h-141zM52 0v693h210l224 -388h3v388h166v-693h-185l-248 432h-4v-432h-166z" />
    <glyph glyph-name="nacute" unicode="&#x144;" horiz-adv-x="581" 
d="M217 581l67 155h178l-104 -155h-141zM42 0v532h169v-47h5q71 57 169 57q157 0 157 -146v-396h-175v348q0 31 -15 44t-52 13q-39 0 -83 -18v-387h-175z" />
    <glyph glyph-name="Ncommaaccent" unicode="&#x145;" horiz-adv-x="707" 
d="M269 -181l10 147h157l-48 -147h-119zM52 0v693h210l224 -388h3v388h166v-693h-185l-248 432h-4v-432h-166z" />
    <glyph glyph-name="ncommaaccent" unicode="&#x146;" horiz-adv-x="581" 
d="M209 -182l10 147h157l-48 -147h-119zM42 0v532h169v-47h5q71 57 169 57q157 0 157 -146v-396h-175v348q0 31 -15 44t-52 13q-39 0 -83 -18v-387h-175z" />
    <glyph glyph-name="Ncaron" unicode="&#x147;" horiz-adv-x="707" 
d="M546 864l-102 -135h-142l-103 135h125l49 -44l48 44h125zM52 0v693h210l224 -388h3v388h166v-693h-185l-248 432h-4v-432h-166z" />
    <glyph glyph-name="ncaron" unicode="&#x148;" horiz-adv-x="581" 
d="M472 736l-104 -155h-143l-104 155h126l50 -57l50 57h125zM42 0v532h169v-47h5q71 57 169 57q157 0 157 -146v-396h-175v348q0 31 -15 44t-52 13q-39 0 -83 -18v-387h-175z" />
    <glyph glyph-name="napostrophe" unicode="&#x149;" horiz-adv-x="668" 
d="M-53 474l11 219h163l-40 -219h-134zM128 0v532h169v-47h5q71 57 169 57q157 0 157 -146v-396h-175v348q0 31 -15 44t-52 13q-39 0 -83 -18v-387h-175z" />
    <glyph glyph-name="Eng" unicode="&#x14a;" horiz-adv-x="707" 
d="M440 -177q-68 0 -120 23v111q38 -9 76 -9q70 0 87 40l-261 444h-4v-432h-166v693h210l224 -387h3v387h166v-677q0 -193 -215 -193z" />
    <glyph glyph-name="eng" unicode="&#x14b;" horiz-adv-x="581" 
d="M258 -181v109q16 -3 40 -3q69 0 69 64v359q0 31 -15 44t-52 13q-39 0 -83 -18v-387h-175v532h169v-47h5q71 57 169 57q157 0 157 -146v-422q0 -172 -186 -172q-64 0 -98 17z" />
    <glyph glyph-name="Omacron" unicode="&#x14c;" horiz-adv-x="719" 
d="M211 732v115h296v-115h-296zM357 -12q-72 0 -131 20t-105 61t-71.5 108t-25.5 156v23q0 90 27.5 158.5t75 109t107 61t128.5 20.5q72 0 131 -20t105 -61t71.5 -108t25.5 -156v-23q0 -90 -27.5 -158.5t-75 -109t-107 -61t-128.5 -20.5zM361 130q129 0 129 195v35
q0 108 -31.5 155.5t-100.5 47.5q-130 0 -130 -194v-35q0 -110 32.5 -157t100.5 -47z" />
    <glyph glyph-name="omacron" unicode="&#x14d;" horiz-adv-x="582" 
d="M149 594v115h284v-115h-284zM291 -10q-132 0 -202 69.5t-70 197.5v13q0 132 75.5 202t196.5 70q133 0 202.5 -68t69.5 -198v-13q0 -132 -75.5 -202.5t-196.5 -70.5zM292 111q45 0 68 32.5t23 110.5v19q0 88 -23.5 118.5t-69.5 30.5t-68.5 -32.5t-22.5 -110.5v-20
q0 -86 24 -117t69 -31z" />
    <glyph glyph-name="Obreve" unicode="&#x14e;" horiz-adv-x="719" 
d="M359 726q-72 0 -114.5 38t-45.5 101h113q5 -42 47 -42q41 0 47 42h112q-2 -63 -44.5 -101t-114.5 -38zM357 -12q-72 0 -131 20t-105 61t-71.5 108t-25.5 156v23q0 90 27.5 158.5t75 109t107 61t128.5 20.5q72 0 131 -20t105 -61t71.5 -108t25.5 -156v-23
q0 -90 -27.5 -158.5t-75 -109t-107 -61t-128.5 -20.5zM361 130q129 0 129 195v35q0 108 -31.5 155.5t-100.5 47.5q-130 0 -130 -194v-35q0 -110 32.5 -157t100.5 -47z" />
    <glyph glyph-name="obreve" unicode="&#x14f;" horiz-adv-x="582" 
d="M291 -10q-132 0 -202 69.5t-70 197.5v13q0 132 75.5 202t196.5 70q133 0 202.5 -68t69.5 -198v-13q0 -132 -75.5 -202.5t-196.5 -70.5zM292 111q45 0 68 32.5t23 110.5v19q0 88 -23.5 118.5t-69.5 30.5t-68.5 -32.5t-22.5 -110.5v-20q0 -86 24 -117t69 -31zM291 586
q-71 0 -114 40t-46 105h113q5 -43 47 -43q40 0 47 43h112q-2 -65 -44.5 -105t-114.5 -40z" />
    <glyph glyph-name="Ohungarumlaut" unicode="&#x150;" horiz-adv-x="719" 
d="M390 729l39 143h158l-64 -143h-133zM189 729l39 143h158l-64 -143h-133zM357 -12q-72 0 -131 20t-105 61t-71.5 108t-25.5 156v23q0 90 27.5 158.5t75 109t107 61t128.5 20.5q72 0 131 -20t105 -61t71.5 -108t25.5 -156v-23q0 -90 -27.5 -158.5t-75 -109t-107 -61
t-128.5 -20.5zM361 130q129 0 129 195v35q0 108 -31.5 155.5t-100.5 47.5q-130 0 -130 -194v-35q0 -110 32.5 -157t100.5 -47z" />
    <glyph glyph-name="ohungarumlaut" unicode="&#x151;" horiz-adv-x="582" 
d="M323 581l44 155h158l-69 -155h-133zM122 581l44 155h158l-69 -155h-133zM291 -10q-132 0 -202 69.5t-70 197.5v13q0 132 75.5 202t196.5 70q133 0 202.5 -68t69.5 -198v-13q0 -132 -75.5 -202.5t-196.5 -70.5zM292 111q45 0 68 32.5t23 110.5v19q0 88 -23.5 118.5
t-69.5 30.5t-68.5 -32.5t-22.5 -110.5v-20q0 -86 24 -117t69 -31z" />
    <glyph glyph-name="OE" unicode="&#x152;" horiz-adv-x="950" 
d="M368 0q-168 0 -256 78.5t-88 251.5v23q0 172 89 256t254 84h541v-139h-280v-132h217v-137h-217v-146h290v-139h-550zM375 137h60v419h-64q-74 0 -108.5 -44t-34.5 -150v-35q0 -106 36.5 -148t110.5 -42z" />
    <glyph glyph-name="oe" unicode="&#x153;" horiz-adv-x="909" 
d="M287 -10q-130 0 -199 69.5t-69 197.5v13q0 132 75 202t194 70q131 0 189 -73q59 73 174 73q127 0 183 -69.5t56 -205.5v-46h-329q8 -60 42.5 -83t105.5 -23q82 0 159 32v-109q-78 -48 -193 -48q-142 0 -203 78q-62 -78 -185 -78zM292 111q45 0 68 32.5t23 110.5v19
q0 88 -23.5 118.5t-69.5 30.5t-68.5 -32.5t-22.5 -110.5v-20q0 -86 24 -117t69 -31zM646 426q-76 0 -86 -106h161q0 57 -18 81.5t-57 24.5z" />
    <glyph glyph-name="Racute" unicode="&#x154;" horiz-adv-x="649" 
d="M236 729l59 141h178l-96 -141h-141zM52 0v693h292q132 0 197.5 -52.5t65.5 -163.5q0 -68 -29 -109t-86 -66v-4l155 -298h-202l-127 252h-71v-252h-195zM245 369h72q51 0 74 24.5t23 74.5q0 48 -23.5 70.5t-75.5 22.5h-70v-192z" />
    <glyph glyph-name="racute" unicode="&#x155;" horiz-adv-x="393" 
d="M153 581l67 155h178l-104 -155h-141zM42 0v532h169v-64h5q48 70 132 70q21 0 31 -5v-154q-28 5 -45 5q-69 0 -117 -24v-360h-175z" />
    <glyph glyph-name="Rcommaaccent" unicode="&#x156;" horiz-adv-x="649" 
d="M254 -182l10 147h157l-48 -147h-119zM52 0v693h292q132 0 197.5 -52.5t65.5 -163.5q0 -68 -29 -109t-86 -66v-4l155 -298h-202l-127 252h-71v-252h-195zM245 369h72q51 0 74 24.5t23 74.5q0 48 -23.5 70.5t-75.5 22.5h-70v-192z" />
    <glyph glyph-name="rcommaaccent" unicode="&#x157;" horiz-adv-x="393" 
d="M41 -182l10 147h157l-48 -147h-119zM42 0v532h169v-64h5q48 70 132 70q21 0 31 -5v-154q-28 5 -45 5q-69 0 -117 -24v-360h-175z" />
    <glyph glyph-name="Rcaron" unicode="&#x158;" horiz-adv-x="649" 
d="M487 864l-102 -135h-142l-103 135h125l49 -44l48 44h125zM52 0v693h292q132 0 197.5 -52.5t65.5 -163.5q0 -68 -29 -109t-86 -66v-4l155 -298h-202l-127 252h-71v-252h-195zM245 369h72q51 0 74 24.5t23 74.5q0 48 -23.5 70.5t-75.5 22.5h-70v-192z" />
    <glyph glyph-name="rcaron" unicode="&#x159;" horiz-adv-x="393" 
d="M408 736l-104 -155h-143l-104 155h126l50 -57l50 57h125zM42 0v532h169v-64h5q48 70 132 70q21 0 31 -5v-154q-28 5 -45 5q-69 0 -117 -24v-360h-175z" />
    <glyph glyph-name="Sacute" unicode="&#x15a;" horiz-adv-x="547" 
d="M251 -12q-149 0 -228 41v142q108 -39 205 -39q108 0 108 65q0 30 -17 43t-68 23l-52 10q-89 17 -133.5 64.5t-44.5 150.5q0 101 65 159t193 58q129 0 205 -36v-140q-93 33 -187 33t-94 -59q0 -27 17.5 -40.5t63.5 -22.5l52 -10q98 -18 144 -65t46 -148q0 -111 -70 -170
t-205 -59zM197 729l59 141h178l-96 -141h-141z" />
    <glyph glyph-name="sacute" unicode="&#x15b;" horiz-adv-x="458" 
d="M154 581l67 155h178l-104 -155h-141zM207 -10q-113 0 -185 35v118q81 -31 159 -31q90 0 90 44q0 20 -13 28t-48 13l-49 7q-142 20 -142 166q0 82 54.5 127t163.5 45q101 0 169 -28v-117q-74 24 -146 24q-77 0 -77 -41q0 -19 13.5 -27.5t47.5 -13.5l49 -7
q78 -11 112 -51.5t34 -112.5q0 -178 -232 -178z" />
    <glyph glyph-name="Scircumflex" unicode="&#x15c;" horiz-adv-x="547" 
d="M102 729l103 135h142l102 -135h-125l-49 44l-48 -44h-125zM251 -12q-149 0 -228 41v142q108 -39 205 -39q108 0 108 65q0 30 -17 43t-68 23l-52 10q-89 17 -133.5 64.5t-44.5 150.5q0 101 65 159t193 58q129 0 205 -36v-140q-93 33 -187 33t-94 -59q0 -27 17.5 -40.5
t63.5 -22.5l52 -10q98 -18 144 -65t46 -148q0 -111 -70 -170t-205 -59z" />
    <glyph glyph-name="scircumflex" unicode="&#x15d;" horiz-adv-x="458" 
d="M57 581l104 155h143l104 -155h-125l-51 57l-49 -57h-126zM207 -10q-113 0 -185 35v118q81 -31 159 -31q90 0 90 44q0 20 -13 28t-48 13l-49 7q-142 20 -142 166q0 82 54.5 127t163.5 45q101 0 169 -28v-117q-74 24 -146 24q-77 0 -77 -41q0 -19 13.5 -27.5t47.5 -13.5
l49 -7q78 -11 112 -51.5t34 -112.5q0 -178 -232 -178z" />
    <glyph glyph-name="Scedilla" unicode="&#x15e;" horiz-adv-x="547" 
d="M167 -225v68q52 4 73 11.5t21 23.5q0 14 -15.5 19.5t-54.5 7.5v85q-110 8 -168 39v142q108 -39 205 -39q108 0 108 65q0 30 -17 43t-68 23l-52 10q-89 17 -133.5 64.5t-44.5 150.5q0 101 65 159t193 58q129 0 205 -36v-140q-93 33 -187 33t-94 -59q0 -27 17.5 -40.5
t63.5 -22.5l52 -10q98 -18 144 -65t46 -148q0 -107 -65 -166t-190 -63v-29q108 -4 108 -80q0 -49 -50 -74.5t-162 -29.5z" />
    <glyph glyph-name="scedilla" unicode="&#x15f;" horiz-adv-x="458" 
d="M131 -225v68q52 4 73 11.5t21 23.5q0 14 -15.5 19.5t-54.5 7.5v88q-85 8 -133 32v118q81 -31 159 -31q90 0 90 44q0 20 -13 28t-48 13l-49 7q-142 20 -142 166q0 82 54.5 127t163.5 45q101 0 169 -28v-117q-74 24 -146 24q-77 0 -77 -41q0 -19 13.5 -27.5t47.5 -13.5
l49 -7q78 -11 112 -51.5t34 -112.5q0 -167 -204 -177v-32q108 -4 108 -80q0 -49 -50 -74.5t-162 -29.5z" />
    <glyph glyph-name="Scaron" unicode="&#x160;" horiz-adv-x="547" 
d="M445 864l-102 -135h-142l-103 135h125l49 -44l48 44h125zM251 -12q-149 0 -228 41v142q108 -39 205 -39q108 0 108 65q0 30 -17 43t-68 23l-52 10q-89 17 -133.5 64.5t-44.5 150.5q0 101 65 159t193 58q129 0 205 -36v-140q-93 33 -187 33t-94 -59q0 -27 17.5 -40.5
t63.5 -22.5l52 -10q98 -18 144 -65t46 -148q0 -111 -70 -170t-205 -59z" />
    <glyph glyph-name="scaron" unicode="&#x161;" horiz-adv-x="458" 
d="M408 736l-104 -155h-143l-104 155h126l50 -57l50 57h125zM207 -10q-113 0 -185 35v118q81 -31 159 -31q90 0 90 44q0 20 -13 28t-48 13l-49 7q-142 20 -142 166q0 82 54.5 127t163.5 45q101 0 169 -28v-117q-74 24 -146 24q-77 0 -77 -41q0 -19 13.5 -27.5t47.5 -13.5
l49 -7q78 -11 112 -51.5t34 -112.5q0 -178 -232 -178z" />
    <glyph glyph-name="Tcommaaccent" unicode="&#x162;" horiz-adv-x="584" 
d="M201 -182l10 147h157l-48 -147h-119zM195 0v554h-182v139h559v-139h-182v-554h-195z" />
    <glyph glyph-name="tcommaaccent" unicode="&#x163;" horiz-adv-x="384" 
d="M131 -182l10 147h157l-48 -147h-119zM246 -8q-85 0 -127.5 34.5t-42.5 118.5v265h-66v122h66v126h176v-126h108v-122h-108v-240q0 -27 13 -38t46 -11q24 0 52 6v-113q-42 -22 -117 -22z" />
    <glyph glyph-name="Tcaron" unicode="&#x164;" horiz-adv-x="584" 
d="M465 864l-102 -135h-142l-103 135h125l49 -44l48 44h125zM195 0v554h-182v139h559v-139h-182v-554h-195z" />
    <glyph glyph-name="tcaron" unicode="&#x165;" horiz-adv-x="384" 
d="M390 575h-96l7 164h121zM246 -8q-85 0 -127.5 34.5t-42.5 118.5v265h-66v122h66v126h176v-126h108v-122h-108v-240q0 -27 13 -38t46 -11q24 0 52 6v-113q-42 -22 -117 -22z" />
    <glyph glyph-name="Tbar" unicode="&#x166;" horiz-adv-x="584" 
d="M70 313v100h125v141h-182v139h559v-139h-182v-141h124v-100h-124v-313h-195v313h-125z" />
    <glyph glyph-name="tbar" unicode="&#x167;" horiz-adv-x="384" 
d="M10 261v88h66v61h-66v122h66v126h176v-126h108v-122h-108v-61h108v-88h-108v-91q0 -27 13 -38t46 -11q24 0 52 6v-113q-42 -22 -117 -22q-85 0 -127.5 34.5t-42.5 118.5v116h-66z" />
    <glyph glyph-name="Utilde" unicode="&#x168;" horiz-adv-x="684" 
d="M349 -12q-301 0 -301 260v445h195v-438q0 -66 27 -95.5t85 -29.5q57 0 83 29.5t26 96.5v437h173v-444q0 -130 -70.5 -195.5t-217.5 -65.5zM169 731q7 71 40.5 103.5t80.5 32.5q28 0 65 -14t46 -14q24 0 32 27h103q-7 -71 -40.5 -103.5t-80.5 -32.5q-27 0 -64 14t-47 14
q-25 0 -31 -27h-104z" />
    <glyph glyph-name="utilde" unicode="&#x169;" horiz-adv-x="576" 
d="M202 -10q-162 0 -162 155v387h175v-350q0 -32 14.5 -45.5t49.5 -13.5q36 0 80 20v389h175v-532h-154l-12 47h-5q-74 -57 -161 -57zM106 591q7 72 41 107t80 35q28 0 65 -15.5t46 -15.5q24 0 32 30h103q-7 -72 -41 -107t-80 -35q-28 0 -65 15.5t-46 15.5q-25 0 -31 -30
h-104z" />
    <glyph glyph-name="Umacron" unicode="&#x16a;" horiz-adv-x="684" 
d="M349 -12q-301 0 -301 260v445h195v-438q0 -66 27 -95.5t85 -29.5q57 0 83 29.5t26 96.5v437h173v-444q0 -130 -70.5 -195.5t-217.5 -65.5zM205 732v115h296v-115h-296z" />
    <glyph glyph-name="umacron" unicode="&#x16b;" horiz-adv-x="576" 
d="M202 -10q-162 0 -162 155v387h175v-350q0 -32 14.5 -45.5t49.5 -13.5q36 0 80 20v389h175v-532h-154l-12 47h-5q-74 -57 -161 -57zM148 594v115h284v-115h-284z" />
    <glyph glyph-name="Ubreve" unicode="&#x16c;" horiz-adv-x="684" 
d="M349 -12q-301 0 -301 260v445h195v-438q0 -66 27 -95.5t85 -29.5q57 0 83 29.5t26 96.5v437h173v-444q0 -130 -70.5 -195.5t-217.5 -65.5zM353 726q-72 0 -114.5 38t-45.5 101h113q5 -42 47 -42q41 0 47 42h112q-2 -63 -44.5 -101t-114.5 -38z" />
    <glyph glyph-name="ubreve" unicode="&#x16d;" horiz-adv-x="576" 
d="M202 -10q-162 0 -162 155v387h175v-350q0 -32 14.5 -45.5t49.5 -13.5q36 0 80 20v389h175v-532h-154l-12 47h-5q-74 -57 -161 -57zM290 586q-71 0 -114 40t-46 105h113q5 -43 47 -43q40 0 47 43h112q-2 -65 -44.5 -105t-114.5 -40z" />
    <glyph glyph-name="Uring" unicode="&#x16e;" horiz-adv-x="684" 
d="M349 -12q-301 0 -301 260v445h195v-438q0 -66 27 -95.5t85 -29.5q57 0 83 29.5t26 96.5v437h173v-444q0 -130 -70.5 -195.5t-217.5 -65.5zM353 701q-53 0 -86.5 32.5t-33.5 78.5q0 47 33.5 79t86.5 32t86.5 -32t33.5 -79q0 -46 -33.5 -78.5t-86.5 -32.5zM353 767
q19 0 30.5 12.5t11.5 32.5t-11.5 32.5t-30.5 12.5q-20 0 -31.5 -12.5t-11.5 -32.5t11.5 -32.5t31.5 -12.5z" />
    <glyph glyph-name="uring" unicode="&#x16f;" horiz-adv-x="576" 
d="M290 575q-53 0 -86.5 32.5t-33.5 78.5q0 47 33.5 79t86.5 32t86.5 -32t33.5 -79q0 -46 -33.5 -78.5t-86.5 -32.5zM290 641q19 0 30.5 12.5t11.5 32.5t-11.5 32.5t-30.5 12.5q-20 0 -31.5 -12.5t-11.5 -32.5t11.5 -32.5t31.5 -12.5zM202 -10q-162 0 -162 155v387h175v-350
q0 -32 14.5 -45.5t49.5 -13.5q36 0 80 20v389h175v-532h-154l-12 47h-5q-74 -57 -161 -57z" />
    <glyph glyph-name="Uhungarumlaut" unicode="&#x170;" horiz-adv-x="684" 
d="M384 729l39 143h158l-64 -143h-133zM183 729l39 143h158l-64 -143h-133zM349 -12q-301 0 -301 260v445h195v-438q0 -66 27 -95.5t85 -29.5q57 0 83 29.5t26 96.5v437h173v-444q0 -130 -70.5 -195.5t-217.5 -65.5z" />
    <glyph glyph-name="uhungarumlaut" unicode="&#x171;" horiz-adv-x="576" 
d="M202 -10q-162 0 -162 155v387h175v-350q0 -32 14.5 -45.5t49.5 -13.5q36 0 80 20v389h175v-532h-154l-12 47h-5q-74 -57 -161 -57zM322 581l44 155h158l-69 -155h-133zM121 581l44 155h158l-69 -155h-133z" />
    <glyph glyph-name="Uogonek" unicode="&#x172;" horiz-adv-x="684" 
d="M376 -199q-56 0 -87.5 23.5t-31.5 63.5q0 60 64 100q-273 12 -273 260v445h195v-438q0 -66 27 -95.5t85 -29.5q57 0 83 29.5t26 96.5v437h173v-444q0 -121 -61 -185q-33 -35 -109 -65q-74 -31 -74 -72q0 -29 36 -29q9 0 27 3v-87q-32 -13 -80 -13z" />
    <glyph glyph-name="uogonek" unicode="&#x173;" horiz-adv-x="576" 
d="M458 -199q-56 0 -88 23.5t-32 63.5q0 67 85 112h-43l-12 47h-5q-74 -57 -161 -57q-162 0 -162 155v387h175v-350q0 -32 14.5 -45.5t49.5 -13.5q36 0 80 20v389h175v-530q-59 -39 -59 -75q0 -29 36 -29q9 0 27 3v-87q-32 -13 -80 -13z" />
    <glyph glyph-name="Wcircumflex" unicode="&#x174;" horiz-adv-x="951" 
d="M310 729l103 135h142l102 -135h-125l-49 44l-48 -44h-125zM172 0l-165 693h195l91 -437h4l111 437h156l110 -437h4l97 437h169l-166 -693h-195l-104 427h-3l-108 -427h-196z" />
    <glyph glyph-name="wcircumflex" unicode="&#x175;" horiz-adv-x="795" 
d="M235 581l104 155h143l104 -155h-125l-51 57l-49 -57h-126zM148 0l-140 532h179l73 -309h4l82 309h131l83 -309h4l72 309h151l-140 -532h-164l-83 299h-3l-84 -299h-165z" />
    <glyph glyph-name="Ycircumflex" unicode="&#x176;" horiz-adv-x="636" 
d="M221 0v271l-220 422h206l124 -252h3l122 252h178l-218 -422v-271h-195zM158 729l103 135h142l102 -135h-125l-49 44l-48 -44h-125z" />
    <glyph glyph-name="ycircumflex" unicode="&#x177;" horiz-adv-x="558" 
d="M144 -198q-66 0 -102 16v116q36 -6 56 -6q69 0 88 52l12 32l-197 520h183l104 -318h3l100 318h165l-205 -583q-27 -79 -74.5 -113t-132.5 -34zM113 581l104 155h143l104 -155h-125l-51 57l-49 -57h-126z" />
    <glyph glyph-name="Ydieresis" unicode="&#x178;" horiz-adv-x="636" 
d="M221 0v271l-220 422h206l124 -252h3l122 252h178l-218 -422v-271h-195zM364 732v128h146v-128h-146zM154 732v128h145v-128h-145z" />
    <glyph glyph-name="Zacute" unicode="&#x179;" horiz-adv-x="580" 
d="M222 729l59 141h178l-96 -141h-141zM27 0v133l300 418v3h-282v139h505v-132l-301 -419v-3h300v-139h-522z" />
    <glyph glyph-name="zacute" unicode="&#x17a;" horiz-adv-x="487" 
d="M173 581l67 155h178l-104 -155h-141zM22 0v123l230 283v3h-222v123h434v-113l-237 -293v-3h234v-123h-439z" />
    <glyph glyph-name="Zdotaccent" unicode="&#x17b;" horiz-adv-x="580" 
d="M27 0v133l300 418v3h-282v139h505v-132l-301 -419v-3h300v-139h-522zM215 732v128h170v-128h-170z" />
    <glyph glyph-name="zdotaccent" unicode="&#x17c;" horiz-adv-x="487" 
d="M22 0v123l230 283v3h-222v123h434v-113l-237 -293v-3h234v-123h-439zM163 592v134h177v-134h-177z" />
    <glyph glyph-name="Zcaron" unicode="&#x17d;" horiz-adv-x="580" 
d="M476 864l-102 -135h-142l-103 135h125l49 -44l48 44h125zM27 0v133l300 418v3h-282v139h505v-132l-301 -419v-3h300v-139h-522z" />
    <glyph glyph-name="zcaron" unicode="&#x17e;" horiz-adv-x="487" 
d="M427 736l-104 -155h-143l-104 155h126l50 -57l50 57h125zM22 0v123l230 283v3h-222v123h434v-113l-237 -293v-3h234v-123h-439z" />
    <glyph glyph-name="florin" unicode="&#x192;" horiz-adv-x="466" 
d="M34 306v124h82l17 101q31 188 219 188q68 0 108 -19v-117q-27 6 -51 6q-39 0 -60 -17.5t-28 -59.5l-14 -82h102v-124h-120l-49 -302q-15 -99 -66.5 -143t-147.5 -44q-66 0 -101 20v114q33 -6 44 -6q67 0 79 68l48 293h-62z" />
    <glyph glyph-name="Aringacute" unicode="&#x1fa;" horiz-adv-x="690" 
d="M0 0l243 693h207l240 -693h-198l-46 137h-228l-43 -137h-175zM329 492l-73 -230h151l-74 230h-4zM272 955l59 141h178l-96 -141h-141zM346 716q-53 0 -86.5 32.5t-33.5 78.5q0 47 33.5 79t86.5 32t86.5 -32t33.5 -79q0 -46 -33.5 -78.5t-86.5 -32.5zM346 782
q19 0 30.5 12.5t11.5 32.5t-11.5 32.5t-30.5 12.5q-20 0 -31.5 -12.5t-11.5 -32.5t11.5 -32.5t31.5 -12.5z" />
    <glyph glyph-name="aringacute" unicode="&#x1fb;" horiz-adv-x="521" 
d="M183 -10q-76 0 -121 38.5t-45 112.5q0 79 49 116t144 50l97 13v23q0 41 -22 54.5t-82 13.5q-75 0 -141 -16v116q81 31 208 31q103 0 157.5 -38t54.5 -125v-379h-146l-12 41h-6q-35 -51 -135 -51zM243 101q43 0 64 21v103l-62 -6q-32 -2 -46 -16t-14 -44q0 -58 58 -58z
M265 575q-53 0 -86.5 32.5t-33.5 78.5q0 47 33.5 79t86.5 32t86.5 -32t33.5 -79q0 -46 -33.5 -78.5t-86.5 -32.5zM265 641q19 0 30.5 12.5t11.5 32.5t-11.5 32.5t-30.5 12.5q-20 0 -31.5 -12.5t-11.5 -32.5t11.5 -32.5t31.5 -12.5zM187 826l59 141h178l-96 -141h-141z" />
    <glyph glyph-name="AEacute" unicode="&#x1fc;" horiz-adv-x="951" 
d="M534 729l59 141h178l-96 -141h-141zM-5 0l352 693h562v-139h-280v-132h218v-137h-218v-146h291v-139h-480v145h-194l-70 -145h-181zM436 547l-133 -277h137v277h-4z" />
    <glyph glyph-name="aeacute" unicode="&#x1fd;" horiz-adv-x="827" 
d="M186 -10q-78 0 -123.5 38.5t-45.5 112.5q0 79 48.5 114.5t144.5 47.5l97 13v27q0 41 -22 54.5t-82 13.5q-75 0 -141 -16v116q81 31 202 31q111 0 148 -58q53 58 158 58q125 0 181.5 -69.5t56.5 -205.5v-45h-329q7 -61 42 -84t106 -23q82 0 159 32v-109q-80 -48 -204 -48
q-144 0 -214 73q-64 -73 -182 -73zM355 581l67 155h178l-104 -155h-141zM323 137q-15 39 -18 90l-60 -4q-60 -4 -60 -63t58 -59q45 0 80 36zM563 426q-75 0 -85 -106h161q0 57 -18.5 81.5t-57.5 24.5z" />
    <glyph glyph-name="Oslashacute" unicode="&#x1fe;" horiz-adv-x="719" 
d="M357 -12q-119 0 -200 53l-35 -41h-120l88 104q-66 86 -66 229v23q0 90 27.5 158.5t75 109t107 61t128.5 20.5q115 0 195 -51l33 39h120l-85 -100q70 -87 70 -233v-23q0 -90 -27.5 -158.5t-75 -109t-107 -61t-128.5 -20.5zM361 126q137 0 137 198v43q0 36 -5 71l-232 -274
q32 -38 100 -38zM221 329q0 -37 3 -67l230 271q-34 34 -96 34q-137 0 -137 -198v-40zM278 729l59 141h178l-96 -141h-141z" />
    <glyph glyph-name="oslashacute" unicode="&#x1ff;" horiz-adv-x="582" 
d="M291 -10q-97 0 -161 38l-25 -28h-105l70 80q-51 66 -51 177v13q0 132 75.5 202t196.5 70q93 0 157 -35l22 25h106l-67 -76q54 -68 54 -180v-13q0 -132 -75.5 -202.5t-196.5 -70.5zM211 581l67 155h178l-104 -155h-141zM292 105q48 0 73 34t25 115v27q0 15 -2 39
l-167 -189q22 -26 71 -26zM192 254q0 -25 1 -36l165 187q-22 22 -68 22q-48 0 -73 -34t-25 -114v-25z" />
    <glyph glyph-name="Scommaaccent" unicode="&#x218;" horiz-adv-x="547" 
d="M175 -182l10 147h157l-48 -147h-119zM251 -12q-149 0 -228 41v142q108 -39 205 -39q108 0 108 65q0 30 -17 43t-68 23l-52 10q-89 17 -133.5 64.5t-44.5 150.5q0 101 65 159t193 58q129 0 205 -36v-140q-93 33 -187 33t-94 -59q0 -27 17.5 -40.5t63.5 -22.5l52 -10
q98 -18 144 -65t46 -148q0 -111 -70 -170t-205 -59z" />
    <glyph glyph-name="scommaaccent" unicode="&#x219;" horiz-adv-x="458" 
d="M136 -182l10 147h157l-48 -147h-119zM207 -10q-113 0 -185 35v118q81 -31 159 -31q90 0 90 44q0 20 -13 28t-48 13l-49 7q-142 20 -142 166q0 82 54.5 127t163.5 45q101 0 169 -28v-117q-74 24 -146 24q-77 0 -77 -41q0 -19 13.5 -27.5t47.5 -13.5l49 -7
q78 -11 112 -51.5t34 -112.5q0 -178 -232 -178z" />
    <glyph glyph-name="uni0237" unicode="&#x237;" horiz-adv-x="265" 
d="M31 -198q-62 0 -98 18v111q22 -4 40 -4q72 0 72 64v541h175v-558q0 -172 -189 -172z" />
    <glyph glyph-name="circumflex" unicode="&#x2c6;" 
d="M73 581l104 155h143l104 -155h-125l-51 57l-49 -57h-126z" />
    <glyph glyph-name="caron" unicode="&#x2c7;" 
d="M424 736l-104 -155h-143l-104 155h126l50 -57l50 57h125z" />
    <glyph glyph-name="breve" unicode="&#x2d8;" 
d="M249 586q-71 0 -114 40t-46 105h113q5 -43 47 -43q40 0 47 43h112q-2 -65 -44.5 -105t-114.5 -40z" />
    <glyph glyph-name="dotaccent" unicode="&#x2d9;" 
d="M159 592v134h177v-134h-177z" />
    <glyph glyph-name="ring" unicode="&#x2da;" 
d="M249 575q-53 0 -86.5 32.5t-33.5 78.5q0 47 33.5 79t86.5 32t86.5 -32t33.5 -79q0 -46 -33.5 -78.5t-86.5 -32.5zM249 641q19 0 30.5 12.5t11.5 32.5t-11.5 32.5t-30.5 12.5q-20 0 -31.5 -12.5t-11.5 -32.5t11.5 -32.5t31.5 -12.5z" />
    <glyph glyph-name="ogonek" unicode="&#x2db;" 
d="M253 -199q-57 0 -88.5 23.5t-31.5 63.5q0 68 87 112h102q-52 -43 -52 -73q0 -29 36 -29q6 0 27 3v-87q-32 -13 -80 -13z" />
    <glyph glyph-name="tilde" unicode="&#x2dc;" 
d="M64 591q7 72 41 107t80 35q28 0 65 -15.5t46 -15.5q24 0 32 30h103q-7 -72 -41 -107t-80 -35q-28 0 -65 15.5t-46 15.5q-25 0 -31 -30h-104z" />
    <glyph glyph-name="hungarumlaut" unicode="&#x2dd;" 
d="M277 581l44 155h158l-69 -155h-133zM76 581l44 155h158l-69 -155h-133z" />
    <glyph glyph-name="Wgrave" unicode="&#x1e80;" horiz-adv-x="951" 
d="M423 729l-93 143h177l57 -143h-141zM172 0l-165 693h195l91 -437h4l111 437h156l110 -437h4l97 437h169l-166 -693h-195l-104 427h-3l-108 -427h-196z" />
    <glyph glyph-name="wgrave" unicode="&#x1e81;" horiz-adv-x="795" 
d="M148 0l-140 532h179l73 -309h4l82 309h131l83 -309h4l72 309h151l-140 -532h-164l-83 299h-3l-84 -299h-165zM345 581l-103 155h177l67 -155h-141z" />
    <glyph glyph-name="Wacute" unicode="&#x1e82;" horiz-adv-x="951" 
d="M406 729l59 141h178l-96 -141h-141zM172 0l-165 693h195l91 -437h4l111 437h156l110 -437h4l97 437h169l-166 -693h-195l-104 427h-3l-108 -427h-196z" />
    <glyph glyph-name="wacute" unicode="&#x1e83;" horiz-adv-x="795" 
d="M334 581l67 155h178l-104 -155h-141zM148 0l-140 532h179l73 -309h4l82 309h131l83 -309h4l72 309h151l-140 -532h-164l-83 299h-3l-84 -299h-165z" />
    <glyph glyph-name="Wdieresis" unicode="&#x1e84;" horiz-adv-x="951" 
d="M516 732v128h146v-128h-146zM306 732v128h145v-128h-145zM172 0l-165 693h195l91 -437h4l111 437h156l110 -437h4l97 437h169l-166 -693h-195l-104 427h-3l-108 -427h-196z" />
    <glyph glyph-name="wdieresis" unicode="&#x1e85;" horiz-adv-x="795" 
d="M441 592v133h145v-133h-145zM235 592v133h146v-133h-146zM148 0l-140 532h179l73 -309h4l82 309h131l83 -309h4l72 309h151l-140 -532h-164l-83 299h-3l-84 -299h-165z" />
    <glyph glyph-name="Ygrave" unicode="&#x1ef2;" horiz-adv-x="636" 
d="M221 0v271l-220 422h206l124 -252h3l122 252h178l-218 -422v-271h-195zM270 729l-93 143h177l57 -143h-141z" />
    <glyph glyph-name="ygrave" unicode="&#x1ef3;" horiz-adv-x="558" 
d="M144 -198q-66 0 -102 16v116q36 -6 56 -6q69 0 88 52l12 32l-197 520h183l104 -318h3l100 318h165l-205 -583q-27 -79 -74.5 -113t-132.5 -34zM224 581l-103 155h177l67 -155h-141z" />
    <glyph glyph-name="uni2009" unicode="&#x2009;" horiz-adv-x="70" 
 />
    <glyph glyph-name="endash" unicode="&#x2013;" horiz-adv-x="430" 
d="M27 221v132h376v-132h-376z" />
    <glyph glyph-name="emdash" unicode="&#x2014;" horiz-adv-x="762" 
d="M27 221v132h708v-132h-708z" />
    <glyph glyph-name="quoteleft" unicode="&#x2018;" horiz-adv-x="232" 
d="M23 474l40 219h135l-12 -219h-163z" />
    <glyph glyph-name="quoteright" unicode="&#x2019;" horiz-adv-x="232" 
d="M35 474l11 219h163l-40 -219h-134z" />
    <glyph glyph-name="quotesinglbase" unicode="&#x201a;" horiz-adv-x="232" 
d="M35 -63l11 219h163l-40 -219h-134z" />
    <glyph glyph-name="quotedblleft" unicode="&#x201c;" horiz-adv-x="441" 
d="M232 474l40 219h135l-12 -219h-163zM23 474l40 219h135l-12 -219h-163z" />
    <glyph glyph-name="quotedblright" unicode="&#x201d;" horiz-adv-x="441" 
d="M244 474l11 219h163l-40 -219h-134zM35 474l11 219h163l-40 -219h-134z" />
    <glyph glyph-name="quotedblbase" unicode="&#x201e;" horiz-adv-x="441" 
d="M244 -63l11 219h163l-40 -219h-134zM35 -63l11 219h163l-40 -219h-134z" />
    <glyph glyph-name="dagger" unicode="&#x2020;" horiz-adv-x="501" 
d="M167 -69v454h-144v137h144v171h167v-171h144v-137h-144v-454h-167z" />
    <glyph glyph-name="daggerdbl" unicode="&#x2021;" horiz-adv-x="503" 
d="M24 102v137h145v146h-145v137h145v171h166v-171h144v-137h-144v-146h144v-137h-144v-171h-166v171h-145z" />
    <glyph glyph-name="bullet" unicode="&#x2022;" horiz-adv-x="372" 
d="M185 165q-64 0 -109 45t-45 108q0 65 45 109t109 44q63 0 109.5 -44.5t46.5 -108.5q0 -63 -46.5 -108t-109.5 -45z" />
    <glyph glyph-name="ellipsis" unicode="&#x2026;" horiz-adv-x="766" 
d="M552 0v156h170v-156h-170zM45 0v156h169v-156h-169zM298 0v156h170v-156h-170z" />
    <glyph glyph-name="perthousand" unicode="&#x2030;" horiz-adv-x="1346" 
d="M213 304q-85 0 -136.5 50t-51.5 143v10q0 94 52.5 146t135.5 52t136 -50.5t53 -142.5v-11q0 -94 -52.5 -145.5t-136.5 -51.5zM169 -40l462 753h123l-462 -753h-123zM1131 -10q-84 0 -135.5 50t-51.5 143v10q0 95 52 146.5t136 51.5t136.5 -50t52.5 -143v-11
q0 -93 -53 -145t-137 -52zM720 -10q-85 0 -136.5 50t-51.5 143v10q0 95 52 146.5t136 51.5t136.5 -50t52.5 -143v-11q0 -93 -52.5 -145t-136.5 -52zM213 396q30 0 42.5 21t12.5 77v18q0 55 -12.5 78t-42.5 23q-29 0 -41.5 -22.5t-12.5 -76.5v-19q0 -55 12 -77t42 -22z
M1132 82q30 0 42 21.5t12 76.5v19q0 55 -12.5 78t-41.5 23t-41.5 -23t-12.5 -77v-18q0 -55 12.5 -77.5t41.5 -22.5zM720 82q30 0 42.5 21.5t12.5 76.5v19q0 54 -13 77.5t-42 23.5t-41.5 -23t-12.5 -77v-18q0 -55 12.5 -77.5t41.5 -22.5z" />
    <glyph glyph-name="uni2032" unicode="&#x2032;" horiz-adv-x="232" 
d="M35 474l11 219h163l-40 -219h-134z" />
    <glyph glyph-name="uni2033" unicode="&#x2033;" horiz-adv-x="441" 
d="M244 474l11 219h163l-40 -219h-134zM35 474l11 219h163l-40 -219h-134z" />
    <glyph glyph-name="guilsinglleft" unicode="&#x2039;" horiz-adv-x="299" 
d="M122 52l-92 179v43l92 179h145l-91 -200l91 -201h-145z" />
    <glyph glyph-name="guilsinglright" unicode="&#x203a;" horiz-adv-x="299" 
d="M32 52l91 200l-91 201h145l92 -179v-43l-92 -179h-145z" />
    <glyph glyph-name="fraction" unicode="&#x2044;" horiz-adv-x="259" 
d="M-192 -40l511 753h122l-511 -753h-122z" />
    <glyph glyph-name="Euro" unicode="&#x20ac;" horiz-adv-x="607" 
d="M19 370v96h65q25 125 110.5 182t206.5 57q119 0 180 -29v-136q-71 23 -140 23q-61 0 -99.5 -22t-52.5 -75h188v-96h-197v-49h197v-96h-187q15 -51 51.5 -73t100.5 -22q72 0 144 29v-134q-77 -37 -178 -37q-279 0 -324 237h-65v96h56v49h-56z" />
    <glyph glyph-name="trademark" unicode="&#x2122;" horiz-adv-x="726" 
d="M322 390v303h135l49 -169h3l49 169h145v-303h-106v184h-3l-52 -184h-85l-52 184h-3v-184h-80zM93 390v213h-78v90h269v-90h-79v-213h-112z" />
    <glyph glyph-name="onethird" unicode="&#x2153;" horiz-adv-x="877" 
d="M672 -7q-82 0 -138 25v87q50 -13 94 -13q77 0 77 42q0 40 -60 40h-51v83h47q62 0 62 39q0 37 -67 37q-41 0 -89 -10v85q63 23 137 23q71 0 113 -28t42 -80q0 -76 -81 -99v-2q47 -8 70 -32t23 -70q0 -59 -46.5 -93t-132.5 -34zM93 270v295l-75 -9v83l127 55h87v-424h-139z
M72 -40l511 753h122l-511 -753h-122z" />
    <glyph glyph-name="twothirds" unicode="&#x2154;" horiz-adv-x="955" 
d="M749 -7q-82 0 -138 25v87q50 -13 94 -13q77 0 77 42q0 40 -60 40h-51v83h47q62 0 62 39q0 37 -67 37q-41 0 -89 -10v85q63 23 137 23q71 0 113 -28t42 -80q0 -76 -81 -99v-2q47 -8 70 -32t23 -70q0 -59 -46.5 -93t-132.5 -34zM24 270v91l82 71q42 36 60.5 61t18.5 52
q0 52 -66 52q-45 0 -89 -18v94q65 28 142 28q78 0 119.5 -34.5t41.5 -97.5q0 -49 -26 -86t-80 -79l-43 -34v-1h153v-99h-313zM163 -40l511 753h122l-511 -753h-122z" />
    <glyph glyph-name="oneeighth" unicode="&#x215b;" horiz-adv-x="894" 
d="M683 -7q-92 0 -137.5 31t-45.5 82q0 32 21.5 57.5t58.5 40.5q-35 18 -51 41.5t-16 60.5q0 58 47 91.5t128 33.5q82 0 125 -30t43 -84q0 -62 -70 -92q44 -16 65 -40t21 -63q0 -61 -50 -95t-139 -34zM679 76q59 0 59 42q0 22 -17 35t-66 24q-36 -22 -36 -56q0 -45 60 -45z
M705 259q36 21 36 50q0 40 -52 40q-24 0 -37 -11t-13 -28q0 -18 14.5 -29t51.5 -22zM93 270v295l-75 -9v83l127 55h87v-424h-139zM71 -40l511 753h122l-511 -753h-122z" />
    <glyph glyph-name="threeeighths" unicode="&#x215c;" horiz-adv-x="937" 
d="M726 -7q-92 0 -137.5 31t-45.5 82q0 32 21.5 57.5t58.5 40.5q-35 18 -51 41.5t-16 60.5q0 58 47 91.5t128 33.5q82 0 125 -30t43 -84q0 -62 -70 -92q44 -16 65 -40t21 -63q0 -61 -50 -95t-139 -34zM722 76q59 0 59 42q0 22 -17 35t-66 24q-36 -22 -36 -56q0 -45 60 -45z
M748 259q36 21 36 50q0 40 -52 40q-24 0 -37 -11t-13 -28q0 -18 14.5 -29t51.5 -22zM125 -40l511 753h122l-511 -753h-122zM161 263q-82 0 -138 25v87q54 -14 94 -14q77 0 77 42q0 41 -60 41h-51v83h47q62 0 62 39q0 37 -67 37q-45 0 -89 -11v86q63 23 137 23q71 0 113 -28
t42 -81q0 -37 -21.5 -62.5t-59.5 -35.5v-2q47 -8 70 -32t23 -70q0 -60 -46.5 -93.5t-132.5 -33.5z" />
    <glyph glyph-name="fiveeighths" unicode="&#x215d;" horiz-adv-x="930" 
d="M719 -7q-92 0 -137.5 31t-45.5 82q0 32 21.5 57.5t58.5 40.5q-35 18 -51 41.5t-16 60.5q0 58 47 91.5t128 33.5q82 0 125 -30t43 -84q0 -62 -70 -92q44 -16 65 -40t21 -63q0 -61 -50 -95t-139 -34zM715 76q59 0 59 42q0 22 -17 35t-66 24q-36 -22 -36 -56q0 -45 60 -45z
M741 259q36 21 36 50q0 40 -52 40q-24 0 -37 -11t-13 -28q0 -18 14.5 -29t51.5 -22zM162 263q-85 0 -141 25v89q47 -14 94 -14q79 0 79 47q0 24 -18.5 34.5t-60.5 10.5q-41 0 -76 -7l12 245h269v-96h-170l-4 -66q23 5 49 5q146 0 146 -130q0 -67 -47 -105t-132 -38zM119 -40
l511 753h122l-511 -753h-122z" />
    <glyph glyph-name="seveneighths" unicode="&#x215e;" horiz-adv-x="903" 
d="M692 -7q-92 0 -137.5 31t-45.5 82q0 32 21.5 57.5t58.5 40.5q-35 18 -51 41.5t-16 60.5q0 58 47 91.5t128 33.5q82 0 125 -30t43 -84q0 -62 -70 -92q44 -16 65 -40t21 -63q0 -61 -50 -95t-139 -34zM688 76q59 0 59 42q0 22 -17 35t-66 24q-36 -22 -36 -56q0 -45 60 -45z
M714 259q36 21 36 50q0 40 -52 40q-24 0 -37 -11t-13 -28q0 -18 14.5 -29t51.5 -22zM43 270l161 316v3h-182v104h325v-92l-156 -331h-148zM81 -40l511 753h122l-511 -753h-122z" />
    <glyph glyph-name="minus" unicode="&#x2212;" horiz-adv-x="518" 
d="M31 273v136h456v-136h-456z" />
    <glyph glyph-name="uni24C5" unicode="&#x24c5;" horiz-adv-x="780" 
d="M389 -14q-153 0 -255.5 104.5t-102.5 253.5t102.5 252.5t255.5 103.5q152 0 256 -103.5t104 -252.5t-104 -253.5t-256 -104.5zM389 41q128 0 211 85.5t83 217.5t-83 216.5t-211 84.5q-129 0 -210.5 -84.5t-81.5 -216.5t81.5 -217.5t210.5 -85.5zM246 160v370h172
q70 0 109 -33t39 -94q0 -63 -38 -97t-108 -34h-58v-112h-116zM361 351h42q48 0 48 47q0 46 -50 46h-40v-93z" />
    <glyph glyph-name="space_uni0326" horiz-adv-x="488" 
d="M159 -182l10 147h157l-48 -147h-119z" />
    <glyph glyph-name="caron.alt" horiz-adv-x="488" 
d="M300 575h-96l7 164h121z" />
    <glyph glyph-name="space_uni0326.alt" horiz-adv-x="488" 
d="M328 735l-11 -146h-157l48 146h120z" />
    <glyph glyph-name="acute.pl" 
d="M186 581l40 155h174l-77 -155h-137z" />
    <glyph glyph-name="grave.uc" 
d="M188 729l-93 143h177l57 -143h-141z" />
    <glyph glyph-name="dieresis.uc" 
d="M281 732v128h146v-128h-146zM71 732v128h145v-128h-145z" />
    <glyph glyph-name="macron.uc" 
d="M101 732v115h296v-115h-296z" />
    <glyph glyph-name="acute.uc" 
d="M168 729l59 141h178l-96 -141h-141z" />
    <glyph glyph-name="circumflex.uc" 
d="M75 729l103 135h142l102 -135h-125l-49 44l-48 -44h-125z" />
    <glyph glyph-name="caron.uc" 
d="M422 864l-102 -135h-142l-103 135h125l49 -44l48 44h125z" />
    <glyph glyph-name="breve.uc" 
d="M249 726q-72 0 -114.5 38t-45.5 101h113q5 -42 47 -42q41 0 47 42h112q-2 -63 -44.5 -101t-114.5 -38z" />
    <glyph glyph-name="dotaccent.uc" 
d="M163 732v128h170v-128h-170z" />
    <glyph glyph-name="ring.uc" 
d="M249 716q-53 0 -86.5 32.5t-33.5 78.5q0 47 33.5 79t86.5 32t86.5 -32t33.5 -79q0 -46 -33.5 -78.5t-86.5 -32.5zM249 782q19 0 30.5 12.5t11.5 32.5t-11.5 32.5t-30.5 12.5q-20 0 -31.5 -12.5t-11.5 -32.5t11.5 -32.5t31.5 -12.5z" />
    <glyph glyph-name="tilde.uc" 
d="M64 731q7 71 40.5 103.5t80.5 32.5q28 0 65 -14t46 -14q24 0 32 27h103q-7 -71 -40.5 -103.5t-80.5 -32.5q-28 0 -65 14t-46 14q-25 0 -31 -27h-104z" />
    <glyph glyph-name="hungarumlaut.uc" 
d="M277 729l39 143h158l-64 -143h-133zM76 729l39 143h158l-64 -143h-133z" />
    <glyph glyph-name="acute.ucpl" 
d="M183 729l35 143h175l-73 -143h-137z" />
    <glyph glyph-name="Cacute.pl" horiz-adv-x="576" 
d="M359 -12q-161 0 -248 86t-87 259v24q0 179 94 263.5t249 84.5q119 0 181 -30v-141q-67 24 -142 24q-86 0 -130.5 -45t-44.5 -142v-31q0 -103 40 -154t133 -51q78 0 150 29v-139q-81 -37 -195 -37zM279 729l35 143h175l-73 -143h-137z" />
    <glyph glyph-name="Nacute.pl" horiz-adv-x="707" 
d="M305 729l35 143h175l-73 -143h-137zM52 0v693h210l224 -388h3v388h166v-693h-185l-248 432h-4v-432h-166z" />
    <glyph glyph-name="Oacute.pl" horiz-adv-x="719" 
d="M291 729l35 143h175l-73 -143h-137zM357 -12q-72 0 -131 20t-105 61t-71.5 108t-25.5 156v23q0 90 27.5 158.5t75 109t107 61t128.5 20.5q72 0 131 -20t105 -61t71.5 -108t25.5 -156v-23q0 -90 -27.5 -158.5t-75 -109t-107 -61t-128.5 -20.5zM361 130q129 0 129 195v35
q0 108 -31.5 155.5t-100.5 47.5q-130 0 -130 -194v-35q0 -110 32.5 -157t100.5 -47z" />
    <glyph glyph-name="Sacute.pl" horiz-adv-x="547" 
d="M251 -12q-149 0 -228 41v142q108 -39 205 -39q108 0 108 65q0 30 -17 43t-68 23l-52 10q-89 17 -133.5 64.5t-44.5 150.5q0 101 65 159t193 58q129 0 205 -36v-140q-93 33 -187 33t-94 -59q0 -27 17.5 -40.5t63.5 -22.5l52 -10q98 -18 144 -65t46 -148q0 -111 -70 -170
t-205 -59zM208 729l35 143h175l-73 -143h-137z" />
    <glyph glyph-name="Zacute.pl" horiz-adv-x="580" 
d="M27 0v133l300 418v3h-282v139h505v-132l-301 -419v-3h300v-139h-522zM230 729l35 143h175l-73 -143h-137z" />
    <glyph glyph-name="cacute.pl" horiz-adv-x="468" 
d="M287 -10q-131 0 -199.5 68t-68.5 198v13q0 133 73.5 203t202.5 70q97 0 149 -27v-127q-59 22 -117 22q-59 0 -92 -31.5t-33 -96.5v-17q0 -75 30 -109t97 -34q56 0 118 24v-120q-60 -36 -160 -36zM197 581l40 155h174l-77 -155h-137z" />
    <glyph glyph-name="idotaccent" horiz-adv-x="265" 
d="M45 0v532h175v-532h-175zM44 592v134h177v-134h-177z" />
    <glyph glyph-name="nacute.pl" horiz-adv-x="581" 
d="M225 581l40 155h174l-77 -155h-137zM42 0v532h169v-47h5q71 57 169 57q157 0 157 -146v-396h-175v348q0 31 -15 44t-52 13q-39 0 -83 -18v-387h-175z" />
    <glyph glyph-name="oacute.pl" horiz-adv-x="582" 
d="M291 -10q-132 0 -202 69.5t-70 197.5v13q0 132 75.5 202t196.5 70q133 0 202.5 -68t69.5 -198v-13q0 -132 -75.5 -202.5t-196.5 -70.5zM292 111q45 0 68 32.5t23 110.5v19q0 88 -23.5 118.5t-69.5 30.5t-68.5 -32.5t-22.5 -110.5v-20q0 -86 24 -117t69 -31zM219 581
l40 155h174l-77 -155h-137z" />
    <glyph glyph-name="sacute.pl" horiz-adv-x="458" 
d="M207 -10q-113 0 -185 35v118q81 -31 159 -31q90 0 90 44q0 20 -13 28t-48 13l-49 7q-142 20 -142 166q0 82 54.5 127t163.5 45q101 0 169 -28v-117q-74 24 -146 24q-77 0 -77 -41q0 -19 13.5 -27.5t47.5 -13.5l49 -7q78 -11 112 -51.5t34 -112.5q0 -178 -232 -178z
M161 581l40 155h174l-77 -155h-137z" />
    <glyph glyph-name="zacute.pl" horiz-adv-x="487" 
d="M22 0v123l230 283v3h-222v123h434v-113l-237 -293v-3h234v-123h-439zM183 581l40 155h174l-77 -155h-137z" />
    <glyph glyph-name="dollar.old" horiz-adv-x="532" 
d="M137 -109l21 103q-81 9 -133 35v127q82 -29 158 -37l29 141l-6 2q-90 16 -136 61t-46 134q0 90 62.5 144.5t185.5 54.5h20l13 63h80l-14 -69q63 -10 102 -29v-126q-59 21 -128 29l-26 -130q101 -19 145.5 -61t44.5 -131q0 -104 -67.5 -158.5t-195.5 -54.5h-9l-20 -98h-80
zM348 182q0 26 -11.5 39.5t-48.5 22.5l-25 -126q85 7 85 64zM179 471q0 -24 13.5 -37.5t49.5 -22.5l24 118q-87 -1 -87 -58z" />
    <glyph glyph-name="Euro.old" horiz-adv-x="576" 
d="M19 344v90h62q24 114 103.5 168t195.5 54q110 0 170 -29v-126q-65 21 -133 21q-119 0 -146 -88h180v-90h-189v-45h189v-89h-179q27 -89 145 -89q67 0 138 27v-125q-70 -34 -167 -34q-267 0 -308 221h-61v89h53v45h-53z" />
    <glyph glyph-name="sterling.old" horiz-adv-x="526" 
d="M30 259v117h62v56q0 112 67.5 167.5t179.5 55.5q103 0 157 -28v-123q-51 14 -106 14q-119 0 -119 -104v-38h152v-117h-152q-3 -87 -68 -128v-2h302v-129h-480v120q67 34 67 113v26h-62z" />
    <glyph glyph-name="yen.old" horiz-adv-x="585" 
d="M204 0v91h-153v107h153v48h-153v107h109l-158 291h190l113 -239h2l112 239h164l-157 -291h110v-107h-153v-48h153v-107h-153v-91h-179z" />
    <glyph glyph-name="zero.old" horiz-adv-x="629" 
d="M313 -12q-129 0 -209.5 72t-80.5 224v24q0 79 24.5 139.5t66.5 94.5t93 51t110 17q61 0 112.5 -17t92 -51.5t63 -93t22.5 -135.5v-25q0 -78 -24.5 -137.5t-66.5 -94t-93.5 -51.5t-109.5 -17zM314 112q55 0 80 36t25 130v32q0 97 -25.5 136t-78.5 39t-78.5 -37t-25.5 -131
v-33q0 -93 25 -132.5t78 -39.5z" />
    <glyph glyph-name="one.old" horiz-adv-x="374" 
d="M129 0v422l-110 -10v105l190 81h101v-598h-181z" />
    <glyph glyph-name="two.old" horiz-adv-x="497" 
d="M18 0v116l137 114q69 57 95.5 90t26.5 71q0 75 -104 75q-66 0 -138 -28v123q84 44 207 44q111 0 170.5 -46t59.5 -135q0 -72 -38 -124.5t-125 -110.5l-84 -60v-3h247v-126h-454z" />
    <glyph glyph-name="three.old" horiz-adv-x="521" 
d="M224 -112q-125 0 -207 43v121q80 -26 156 -26q133 0 133 88q0 80 -110 80h-74v121h67q106 0 106 77q0 75 -106 75q-67 0 -146 -23v123q90 38 205 38q108 0 167 -45t59 -129q0 -127 -128 -162v-4q150 -28 150 -170q0 -97 -71.5 -152t-200.5 -55z" />
    <glyph glyph-name="four.old" horiz-adv-x="625" 
d="M332 -101v164h-315v115l325 414h167v-405h101v-124h-101v-164h-177zM168 187h167v215h-4l-163 -212v-3z" />
    <glyph glyph-name="five.old" horiz-adv-x="515" 
d="M216 -112q-118 0 -200 43v122q77 -27 150 -27q133 0 133 99q0 49 -31 69.5t-102 20.5q-63 0 -124 -14l22 392h406v-131h-275l-10 -136q36 12 86 12q218 0 218 -210q0 -111 -73 -175.5t-200 -64.5z" />
    <glyph glyph-name="six.old" horiz-adv-x="595" 
d="M314 -12q-140 0 -215 81.5t-75 231.5v39q0 185 91.5 275t244.5 90q116 0 172 -29v-125q-53 17 -133 17q-91 0 -136.5 -40.5t-52.5 -136.5q65 45 154 45q99 0 154.5 -50.5t55.5 -151.5q0 -108 -68 -177t-192 -69zM309 107q85 0 85 116q0 59 -23.5 79t-69.5 20t-90 -25v-26
q0 -164 98 -164z" />
    <glyph glyph-name="seven.old" horiz-adv-x="514" 
d="M56 -100l257 554v4h-294v135h477v-120l-240 -573h-200z" />
    <glyph glyph-name="eight.old" horiz-adv-x="594" 
d="M294 -12q-134 0 -202.5 50t-68.5 134q0 55 33 98.5t94 68.5q-56 29 -81.5 68t-25.5 100q0 91 69.5 144.5t187.5 53.5q119 0 183.5 -48.5t64.5 -134.5q0 -108 -113 -157q71 -27 103.5 -65.5t32.5 -104.5q0 -96 -74 -151.5t-203 -55.5zM288 106q49 0 76.5 22.5t27.5 59.5
q0 41 -28.5 64.5t-110.5 45.5q-70 -41 -70 -106q0 -39 27.5 -62.5t77.5 -23.5zM325 416q64 33 64 95q0 33 -21.5 53.5t-65.5 20.5q-40 0 -62.5 -20t-22.5 -51q0 -34 23.5 -56t84.5 -42z" />
    <glyph glyph-name="nine.old" horiz-adv-x="595" 
d="M237 -112q-118 0 -179 32v125q59 -21 139 -21q92 0 136.5 40t50.5 138q-63 -45 -154 -45q-98 0 -153.5 50t-55.5 151q0 109 68.5 178t194.5 69q140 0 213.5 -80.5t73.5 -232.5v-39q0 -185 -89.5 -275t-244.5 -90zM294 271q46 0 90 25v26q0 164 -99 164q-40 0 -62.5 -29.5
t-22.5 -86.5q0 -59 23.5 -79t70.5 -20z" />
    <glyph glyph-name="percent.old" horiz-adv-x="884" 
d="M200 278q-80 0 -129.5 46t-49.5 132v8q0 88 51 136t129 48q77 0 128 -47t51 -132v-9q0 -86 -50.5 -134t-129.5 -48zM682 -8q-79 0 -128.5 46t-49.5 131v9q0 87 50.5 135t128.5 48t128.5 -46.5t50.5 -132.5v-9q0 -86 -50.5 -133.5t-129.5 -47.5zM166 -34l425 689h119
l-426 -689h-118zM683 80q28 0 39 18.5t11 68.5v16q0 50 -11.5 70t-38.5 20t-38.5 -19.5t-11.5 -68.5v-16q0 -51 11 -70t39 -19zM201 366q28 0 39 18.5t11 68.5v16q0 50 -11.5 70t-38.5 20q-28 0 -39.5 -19.5t-11.5 -68.5v-16q0 -51 11.5 -70t39.5 -19z" />
    <glyph glyph-name="perthousand.old" horiz-adv-x="1273" 
d="M200 278q-80 0 -129.5 46t-49.5 132v8q0 88 51 136t129 48q77 0 128 -47t51 -132v-9q0 -86 -50.5 -134t-129.5 -48zM682 -8q-79 0 -128.5 46t-49.5 131v9q0 87 50.5 135t128.5 48t128.5 -46.5t50.5 -132.5v-9q0 -86 -50.5 -133.5t-129.5 -47.5zM166 -34l425 689h119
l-426 -689h-118zM683 80q28 0 39 18.5t11 68.5v16q0 50 -11.5 70t-38.5 20t-38.5 -19.5t-11.5 -68.5v-16q0 -51 11 -70t39 -19zM201 366q28 0 39 18.5t11 68.5v16q0 50 -11.5 70t-38.5 20q-28 0 -39.5 -19.5t-11.5 -68.5v-16q0 -51 11.5 -70t39.5 -19zM1072 -8
q-79 0 -129 46t-50 131v9q0 87 50.5 135t129.5 48q77 0 128 -46.5t51 -132.5v-9q0 -86 -50.5 -133.5t-129.5 -47.5zM1073 80q28 0 39 18.5t11 68.5v16q0 50 -11.5 70t-38.5 20t-38.5 -19t-11.5 -69v-16q0 -51 11 -70t39 -19z" />
    <glyph glyph-name="plus.old" horiz-adv-x="539" 
d="M194 83v162h-155v136h155v162h150v-162h156v-136h-156v-162h-150z" />
    <glyph glyph-name="minus.old" horiz-adv-x="533" 
d="M39 245v136h455v-136h-455z" />
    <glyph glyph-name="multiply.old" horiz-adv-x="555" 
d="M146 75l-97 96l130 129l-130 129l97 96l130 -130l131 130l97 -96l-131 -129l131 -129l-97 -96l-131 129z" />
    <glyph glyph-name="divide.old" horiz-adv-x="538" 
d="M39 245v136h461v-136h-461zM186 47v152h166v-152h-166zM186 427v152h166v-152h-166z" />
    <glyph glyph-name="equal.old" horiz-adv-x="530" 
d="M44 316v133h442v-133h-442zM44 101v133h442v-133h-442z" />
    <glyph glyph-name="less.old" horiz-adv-x="485" 
d="M438 51l-398 176v134l398 175v-143l-237 -99l237 -99v-144z" />
    <glyph glyph-name="greater.old" horiz-adv-x="485" 
d="M47 51v143l237 100l-237 99v143l398 -175v-134z" />
    <glyph glyph-name="numbersign.old" horiz-adv-x="549" 
d="M68 0l24 154h-66v127h85l14 93h-71v127h90l22 142h115l-22 -142h85l22 142h114l-22 -142h67v-127h-86l-15 -93h73v-127h-92l-23 -154h-114l24 154h-86l-23 -154h-115zM225 281h85l14 93h-85z" />
    <glyph glyph-name="zero.num" horiz-adv-x="447" 
d="M223 263q-91 0 -146 50t-55 156v22q0 110 57.5 160t144.5 50q92 0 146.5 -49.5t54.5 -156.5v-22q0 -108 -57.5 -159t-144.5 -51zM224 358q33 0 46.5 23.5t13.5 83.5v28q0 64 -14 89t-46 25q-31 0 -45.5 -24.5t-14.5 -84.5v-27q0 -62 14 -87.5t46 -25.5z" />
    <glyph glyph-name="one.num" horiz-adv-x="276" 
d="M90 270v295l-75 -9v83l127 55h87v-424h-139z" />
    <glyph glyph-name="two.num" horiz-adv-x="358" 
d="M21 270v91l82 71q42 36 60.5 61t18.5 52q0 52 -66 52q-45 0 -89 -18v94q65 28 142 28q78 0 119.5 -34.5t41.5 -97.5q0 -49 -26 -86t-80 -79l-43 -34v-1h153v-99h-313z" />
    <glyph glyph-name="three.num" horiz-adv-x="360" 
d="M158 263q-82 0 -138 25v87q54 -14 94 -14q77 0 77 42q0 41 -60 41h-51v83h47q62 0 62 39q0 37 -67 37q-45 0 -89 -11v86q63 23 137 23q71 0 113 -28t42 -81q0 -37 -21.5 -62.5t-59.5 -35.5v-2q47 -8 70 -32t23 -70q0 -60 -46.5 -93.5t-132.5 -33.5z" />
    <glyph glyph-name="four.num" horiz-adv-x="418" 
d="M208 270v96h-190v85l196 242h131v-237h60v-90h-60v-96h-137zM128 454h84v105h-2l-82 -103v-2z" />
    <glyph glyph-name="five.num" horiz-adv-x="362" 
d="M159 263q-85 0 -141 25v89q47 -14 94 -14q79 0 79 47q0 24 -18.5 34.5t-60.5 10.5q-41 0 -76 -7l12 245h269v-96h-170l-4 -66q23 5 49 5q146 0 146 -130q0 -67 -47 -105t-132 -38z" />
    <glyph glyph-name="six.num" horiz-adv-x="410" 
d="M217 263q-93 0 -144 51t-51 144v24q0 111 61 165t164 54q81 0 115 -18v-90q-36 10 -89 10q-58 0 -83.5 -19t-29.5 -67q38 22 95 22q137 0 137 -127q0 -66 -44.5 -107.5t-130.5 -41.5zM213 347q48 0 48 60q0 32 -13 44.5t-39 12.5q-24 0 -50 -11v-20q0 -86 54 -86z" />
    <glyph glyph-name="seven.num" horiz-adv-x="366" 
d="M40 270l161 316v3h-182v104h325v-92l-156 -331h-148z" />
    <glyph glyph-name="eight.num" horiz-adv-x="411" 
d="M203 263q-92 0 -137.5 31t-45.5 81q0 32 21.5 57.5t58.5 40.5q-35 18 -51 42t-16 61q0 58 47 91.5t128 33.5q82 0 125 -30t43 -84q0 -62 -70 -92q44 -17 65 -40.5t21 -62.5q0 -61 -50 -95t-139 -34zM199 345q59 0 59 43q0 22 -17 35t-66 24q-36 -23 -36 -56q0 -46 60 -46
zM225 529q36 19 36 50q0 39 -52 39q-24 0 -37 -10.5t-13 -27.5q0 -18 14.5 -29t51.5 -22z" />
    <glyph glyph-name="nine.num" horiz-adv-x="410" 
d="M164 263q-78 0 -120 20v88q48 -12 94 -12q60 0 85 19.5t27 67.5q-38 -22 -95 -22q-65 0 -101 32.5t-36 96.5q0 66 44.5 107t131.5 41q93 0 143.5 -49t50.5 -144v-23q0 -222 -224 -222zM201 502q24 0 50 11v18q0 87 -54 87q-48 0 -48 -60q0 -32 13 -44t39 -12z" />
    <glyph glyph-name="zero.den" horiz-adv-x="447" 
d="M223 -7q-91 0 -146 50t-55 156v22q0 110 57.5 160.5t144.5 50.5q92 0 146.5 -50t54.5 -157v-22q0 -108 -57.5 -159t-144.5 -51zM224 88q33 0 46.5 23.5t13.5 84.5v27q0 64 -14 89t-46 25q-31 0 -45.5 -24.5t-14.5 -84.5v-27q0 -62 14 -87.5t46 -25.5z" />
    <glyph glyph-name="one.den" horiz-adv-x="276" 
d="M90 0v295l-75 -9v83l127 55h87v-424h-139z" />
    <glyph glyph-name="two.den" horiz-adv-x="358" 
d="M21 0v91l82 71q42 37 60.5 61.5t18.5 52.5q0 51 -66 51q-45 0 -89 -18v95q63 27 142 27q78 0 119.5 -34.5t41.5 -97.5q0 -49 -26 -86t-80 -78l-43 -35v-1h153v-99h-313z" />
    <glyph glyph-name="three.den" horiz-adv-x="360" 
d="M158 -7q-82 0 -138 25v87q50 -13 94 -13q77 0 77 42q0 40 -60 40h-51v83h47q62 0 62 39q0 37 -67 37q-41 0 -89 -10v85q63 23 137 23q71 0 113 -28t42 -80q0 -76 -81 -99v-2q47 -8 70 -32t23 -70q0 -59 -46.5 -93t-132.5 -34z" />
    <glyph glyph-name="four.den" horiz-adv-x="418" 
d="M208 0v96h-190v85l196 242h131v-237h60v-90h-60v-96h-137zM128 184h84v106h-2l-82 -104v-2z" />
    <glyph glyph-name="five.den" horiz-adv-x="362" 
d="M159 -7q-85 0 -141 25v89q47 -14 94 -14q79 0 79 47q0 24 -18.5 34.5t-60.5 10.5q-41 0 -76 -7l12 245h269v-96h-170l-4 -66q23 5 49 5q146 0 146 -129q0 -67 -47 -105.5t-132 -38.5z" />
    <glyph glyph-name="six.den" horiz-adv-x="410" 
d="M217 -6q-93 0 -144 50.5t-51 143.5v24q0 111 61 165.5t164 54.5q77 0 115 -18v-91q-40 11 -89 11q-58 0 -83.5 -19.5t-29.5 -67.5q38 22 95 22q137 0 137 -127q0 -66 -44.5 -107t-130.5 -41zM213 77q48 0 48 60q0 32 -13 44.5t-39 12.5q-24 0 -50 -11v-19q0 -87 54 -87z
" />
    <glyph glyph-name="seven.den" horiz-adv-x="366" 
d="M40 0l161 316v3h-182v104h325v-92l-156 -331h-148z" />
    <glyph glyph-name="eight.den" horiz-adv-x="411" 
d="M203 -7q-92 0 -137.5 31t-45.5 82q0 32 21.5 57.5t58.5 40.5q-35 18 -51 41.5t-16 60.5q0 58 47 91.5t128 33.5q82 0 125 -30t43 -84q0 -62 -70 -92q44 -16 65 -40t21 -63q0 -61 -50 -95t-139 -34zM199 76q59 0 59 42q0 22 -17 35t-66 24q-36 -22 -36 -56q0 -45 60 -45z
M225 259q36 21 36 50q0 40 -52 40q-24 0 -37 -11t-13 -28q0 -18 14.5 -29t51.5 -22z" />
    <glyph glyph-name="nine.den" horiz-adv-x="410" 
d="M164 -6q-82 0 -120 20v88q52 -13 94 -13q60 0 85 19.5t27 67.5q-38 -22 -95 -22q-65 0 -101 32.5t-36 96.5q0 67 44.5 108t131.5 41q93 0 143.5 -49t50.5 -144v-24q0 -221 -224 -221zM201 232q24 0 50 11v19q0 86 -54 86q-48 0 -48 -60q0 -32 13 -44t39 -12z" />
    <glyph glyph-name="zero.sub" horiz-adv-x="447" 
d="M223 -127q-91 0 -146 50t-55 156v22q0 110 57.5 160.5t144.5 50.5q92 0 146.5 -50t54.5 -157v-22q0 -108 -57.5 -159t-144.5 -51zM224 -32q33 0 46.5 23.5t13.5 84.5v27q0 64 -14 89t-46 25q-31 0 -45.5 -24.5t-14.5 -84.5v-27q0 -62 14 -87.5t46 -25.5z" />
    <glyph glyph-name="one.sub" horiz-adv-x="276" 
d="M90 -120v295l-75 -9v83l127 55h87v-424h-139z" />
    <glyph glyph-name="two.sub" horiz-adv-x="358" 
d="M21 -120v91l82 71q42 37 60.5 61.5t18.5 52.5q0 51 -66 51q-45 0 -89 -18v95q63 27 142 27q78 0 119.5 -34.5t41.5 -97.5q0 -49 -26 -86t-80 -78l-43 -35v-1h153v-99h-313z" />
    <glyph glyph-name="three.sub" horiz-adv-x="360" 
d="M158 -127q-82 0 -138 25v87q50 -13 94 -13q77 0 77 42q0 40 -60 40h-51v83h47q62 0 62 39q0 37 -67 37q-41 0 -89 -10v85q63 23 137 23q71 0 113 -28t42 -80q0 -76 -81 -99v-2q47 -8 70 -32t23 -70q0 -59 -46.5 -93t-132.5 -34z" />
    <glyph glyph-name="four.sub" horiz-adv-x="418" 
d="M208 -120v96h-190v85l196 242h131v-237h60v-90h-60v-96h-137zM128 64h84v106h-2l-82 -104v-2z" />
    <glyph glyph-name="five.sub" horiz-adv-x="362" 
d="M159 -127q-85 0 -141 25v89q47 -14 94 -14q79 0 79 47q0 24 -18.5 34.5t-60.5 10.5q-41 0 -76 -7l12 245h269v-96h-170l-4 -66q23 5 49 5q146 0 146 -129q0 -67 -47 -105.5t-132 -38.5z" />
    <glyph glyph-name="six.sub" horiz-adv-x="410" 
d="M217 -126q-93 0 -144 50.5t-51 143.5v24q0 111 61 165.5t164 54.5q77 0 115 -18v-91q-40 11 -89 11q-58 0 -83.5 -19.5t-29.5 -67.5q38 22 95 22q137 0 137 -127q0 -66 -44.5 -107t-130.5 -41zM213 -43q48 0 48 60q0 32 -13 44.5t-39 12.5q-24 0 -50 -11v-19
q0 -87 54 -87z" />
    <glyph glyph-name="seven.sub" horiz-adv-x="366" 
d="M40 -120l161 316v3h-182v104h325v-92l-156 -331h-148z" />
    <glyph glyph-name="eight.sub" horiz-adv-x="411" 
d="M203 -127q-92 0 -137.5 31t-45.5 82q0 32 21.5 57.5t58.5 40.5q-35 18 -51 41.5t-16 60.5q0 58 47 91.5t128 33.5q82 0 125 -30t43 -84q0 -62 -70 -92q44 -16 65 -40t21 -63q0 -61 -50 -95t-139 -34zM199 -44q59 0 59 42q0 22 -17 35t-66 24q-36 -22 -36 -56
q0 -45 60 -45zM225 139q36 21 36 50q0 40 -52 40q-24 0 -37 -11t-13 -28q0 -18 14.5 -29t51.5 -22z" />
    <glyph glyph-name="nine.sub" horiz-adv-x="410" 
d="M164 -126q-82 0 -120 20v88q52 -13 94 -13q60 0 85 19.5t27 67.5q-38 -22 -95 -22q-65 0 -101 32.5t-36 96.5q0 67 44.5 108t131.5 41q93 0 143.5 -49t50.5 -144v-24q0 -221 -224 -221zM201 112q24 0 50 11v19q0 86 -54 86q-48 0 -48 -60q0 -32 13 -44t39 -12z" />
    <glyph glyph-name="zero.sup" horiz-adv-x="447" 
d="M223 315q-91 0 -146 50t-55 156v22q0 110 57.5 160.5t144.5 50.5q92 0 146.5 -50t54.5 -157v-22q0 -108 -57.5 -159t-144.5 -51zM224 410q33 0 46.5 23.5t13.5 84.5v27q0 64 -14 89t-46 25q-31 0 -45.5 -24.5t-14.5 -84.5v-27q0 -62 14 -87.5t46 -25.5z" />
    <glyph glyph-name="one.sup" horiz-adv-x="276" 
d="M90 322v295l-75 -9v83l127 55h87v-424h-139z" />
    <glyph glyph-name="two.sup" horiz-adv-x="358" 
d="M21 322v91l82 71q42 37 60.5 61.5t18.5 52.5q0 51 -66 51q-45 0 -89 -18v95q63 27 142 27q78 0 119.5 -34.5t41.5 -97.5q0 -49 -26 -86t-80 -78l-43 -35v-1h153v-99h-313z" />
    <glyph glyph-name="three.sup" horiz-adv-x="360" 
d="M158 315q-82 0 -138 25v87q50 -13 94 -13q77 0 77 42q0 40 -60 40h-51v83h47q62 0 62 39q0 37 -67 37q-41 0 -89 -10v85q63 23 137 23q71 0 113 -28t42 -80q0 -76 -81 -99v-2q47 -8 70 -32t23 -70q0 -59 -46.5 -93t-132.5 -34z" />
    <glyph glyph-name="four.sup" horiz-adv-x="418" 
d="M208 322v96h-190v85l196 242h131v-237h60v-90h-60v-96h-137zM128 506h84v106h-2l-82 -104v-2z" />
    <glyph glyph-name="five.sup" horiz-adv-x="362" 
d="M159 315q-85 0 -141 25v89q47 -14 94 -14q79 0 79 47q0 24 -18.5 34.5t-60.5 10.5q-41 0 -76 -7l12 245h269v-96h-170l-4 -66q23 5 49 5q146 0 146 -129q0 -67 -47 -105.5t-132 -38.5z" />
    <glyph glyph-name="six.sup" horiz-adv-x="410" 
d="M217 316q-93 0 -144 50.5t-51 143.5v24q0 111 61 165.5t164 54.5q77 0 115 -18v-91q-40 11 -89 11q-58 0 -83.5 -19.5t-29.5 -67.5q38 22 95 22q137 0 137 -127q0 -66 -44.5 -107t-130.5 -41zM213 399q48 0 48 60q0 32 -13 44.5t-39 12.5q-24 0 -50 -11v-19q0 -87 54 -87
z" />
    <glyph glyph-name="seven.sup" horiz-adv-x="366" 
d="M40 322l161 316v3h-182v104h325v-92l-156 -331h-148z" />
    <glyph glyph-name="eight.sup" horiz-adv-x="411" 
d="M203 315q-92 0 -137.5 31t-45.5 82q0 31 21.5 57t58.5 41q-35 18 -51 41.5t-16 60.5q0 58 47 91.5t128 33.5q82 0 125 -30t43 -84q0 -62 -70 -92q44 -16 65 -40t21 -63q0 -61 -50 -95t-139 -34zM199 398q59 0 59 42q0 22 -17 35t-66 24q-36 -22 -36 -56q0 -45 60 -45z
M225 581q36 21 36 50q0 40 -52 40q-24 0 -37 -11t-13 -28q0 -18 14.5 -29t51.5 -22z" />
    <glyph glyph-name="nine.sup" horiz-adv-x="410" 
d="M164 316q-82 0 -120 20v88q52 -13 94 -13q60 0 85 19.5t27 67.5q-38 -22 -95 -22q-65 0 -101 32.5t-36 96.5q0 67 44.5 108t131.5 41q93 0 143.5 -49t50.5 -144v-24q0 -221 -224 -221zM201 554q24 0 50 11v19q0 86 -54 86q-48 0 -48 -60q0 -32 13 -44t39 -12z" />
    <glyph glyph-name="g.alt" horiz-adv-x="591" 
d="M267 -204q-125 0 -208 38v119q87 -25 164 -25q81 0 116.5 21t35.5 72v42h-5q-50 -50 -144 -50q-90 0 -147.5 59.5t-57.5 189.5v12q0 268 233 268q80 0 138 -41h5l10 31h142v-526q0 -111 -72 -160.5t-210 -49.5zM297 136q44 0 77 23v237q-24 19 -72 19q-50 0 -75 -27.5
t-25 -100.5v-17q0 -77 24 -105.5t71 -28.5z" />
    <glyph glyph-name="l.alt" horiz-adv-x="305" 
d="M193 -10q-74 0 -111 34t-37 111v604h175v-581q0 -23 8.5 -31.5t25.5 -8.5q23 0 39 5v-111q-42 -22 -100 -22z" />
    <glyph glyph-name="gbreve.alt" horiz-adv-x="591" 
d="M267 -204q-125 0 -208 38v119q87 -25 164 -25q81 0 116.5 21t35.5 72v42h-5q-50 -50 -144 -50q-90 0 -147.5 59.5t-57.5 189.5v12q0 268 233 268q80 0 138 -41h5l10 31h142v-526q0 -111 -72 -160.5t-210 -49.5zM297 136q44 0 77 23v237q-24 19 -72 19q-50 0 -75 -27.5
t-25 -100.5v-17q0 -77 24 -105.5t71 -28.5zM299 586q-71 0 -114 40t-46 105h113q5 -43 47 -43q40 0 47 43h112q-2 -65 -44.5 -105t-114.5 -40z" />
    <glyph glyph-name="gcircumflex.alt" horiz-adv-x="591" 
d="M123 581l104 155h143l104 -155h-125l-51 57l-49 -57h-126zM267 -204q-125 0 -208 38v119q87 -25 164 -25q81 0 116.5 21t35.5 72v42h-5q-50 -50 -144 -50q-90 0 -147.5 59.5t-57.5 189.5v12q0 268 233 268q80 0 138 -41h5l10 31h142v-526q0 -111 -72 -160.5t-210 -49.5z
M297 136q44 0 77 23v237q-24 19 -72 19q-50 0 -75 -27.5t-25 -100.5v-17q0 -77 24 -105.5t71 -28.5z" />
    <glyph glyph-name="gcommaaccent.alt" horiz-adv-x="591" 
d="M382 735l-11 -146h-157l48 146h120zM267 -204q-125 0 -208 38v119q87 -25 164 -25q81 0 116.5 21t35.5 72v42h-5q-50 -50 -144 -50q-90 0 -147.5 59.5t-57.5 189.5v12q0 268 233 268q80 0 138 -41h5l10 31h142v-526q0 -111 -72 -160.5t-210 -49.5zM297 136q44 0 77 23
v237q-24 19 -72 19q-50 0 -75 -27.5t-25 -100.5v-17q0 -77 24 -105.5t71 -28.5z" />
    <glyph glyph-name="gdotaccent.alt" horiz-adv-x="591" 
d="M267 -204q-125 0 -208 38v119q87 -25 164 -25q81 0 116.5 21t35.5 72v42h-5q-50 -50 -144 -50q-90 0 -147.5 59.5t-57.5 189.5v12q0 268 233 268q80 0 138 -41h5l10 31h142v-526q0 -111 -72 -160.5t-210 -49.5zM297 136q44 0 77 23v237q-24 19 -72 19q-50 0 -75 -27.5
t-25 -100.5v-17q0 -77 24 -105.5t71 -28.5zM210 592v134h177v-134h-177z" />
    <glyph glyph-name="lacute.alt" horiz-adv-x="305" 
d="M193 -10q-74 0 -111 34t-37 111v604h175v-581q0 -23 8.5 -31.5t25.5 -8.5q23 0 39 5v-111q-42 -22 -100 -22zM58 776l59 141h178l-96 -141h-141z" />
    <glyph glyph-name="lcaron.alt" horiz-adv-x="305" 
d="M193 -10q-74 0 -111 34t-37 111v604h175v-581q0 -23 8.5 -31.5t25.5 -8.5q23 0 39 5v-111q-42 -22 -100 -22zM353 575h-96l7 164h121z" />
    <glyph glyph-name="lcommaaccent.alt" horiz-adv-x="305" 
d="M87 -182l10 147h157l-48 -147h-119zM193 -10q-74 0 -111 34t-37 111v604h175v-581q0 -23 8.5 -31.5t25.5 -8.5q23 0 39 5v-111q-42 -22 -100 -22z" />
    <glyph glyph-name="ldot.alt" horiz-adv-x="386" 
d="M193 -10q-74 0 -111 34t-37 111v604h175v-581q0 -23 8.5 -31.5t25.5 -8.5q23 0 39 5v-111q-42 -22 -100 -22zM256 293v127h139v-127h-139z" />
    <glyph glyph-name="lslash.alt" horiz-adv-x="317" 
d="M4 378l54 27v334h175v-247l73 37v-134l-73 -37v-200q0 -23 8 -31.5t26 -8.5q21 0 39 5v-111q-42 -22 -101 -22q-73 0 -110 34t-37 111v136l-54 -27v134z" />
    <glyph glyph-name="f_f_l.alt" horiz-adv-x="939" 
d="M826 -10q-73 0 -110.5 34t-37.5 111v490q-17 4 -47 4q-40 0 -58.5 -17.5t-18.5 -58.5v-21h79v-123h-79v-409h-176v409h-125v-409h-175v409h-68v123h68v43q0 81 47.5 123.5t125.5 42.5q55 0 96 -13v-110q-18 4 -39 4q-55 0 -55 -63v-27h125v32q0 102 61.5 143.5
t188.5 41.5q132 0 225 -24v-567q0 -23 8.5 -31.5t26.5 -8.5q22 0 39 5v-111q-42 -22 -101 -22z" />
    <glyph glyph-name="f_l.alt" horiz-adv-x="638" 
d="M526 -10q-74 0 -111 34t-37 111v490q-19 4 -48 4q-40 0 -58.5 -17.5t-18.5 -58.5v-21h79v-123h-79v-409h-175v409h-68v123h68v32q0 102 61.5 143.5t188.5 41.5q131 0 225 -24v-567q0 -23 8.5 -31.5t25.5 -8.5q23 0 39 5v-111q-42 -22 -100 -22z" />
    <glyph glyph-name="registered.alt" horiz-adv-x="777" 
d="M388 -14q-153 0 -256 104.5t-103 253.5t103 252.5t256 103.5q152 0 256 -103.5t104 -252.5t-104 -253.5t-256 -104.5zM388 41q128 0 211 85.5t83 217.5t-83 216.5t-211 84.5q-129 0 -211 -84.5t-82 -216.5t82 -217.5t211 -85.5zM236 165v364h168q70 0 108 -29.5t38 -86.5
q0 -34 -16 -59t-43 -35v-4l79 -150h-121l-63 126h-36v-126h-114zM350 364h39q47 0 47 43q0 41 -48 41h-38v-84z" />
    <glyph glyph-name="questiondown.uc" horiz-adv-x="449" 
d="M249 -12q-106 0 -167 44t-61 137q0 64 22 99.5t76 75.5q52 35 67 51.5t15 45.5v23h151v-41q0 -49 -19.5 -77.5t-70.5 -65.5q-32 -23 -44.5 -41t-12.5 -47q0 -36 24 -51.5t79 -15.5q60 0 123 18v-125q-78 -30 -182 -30zM190 540v153h170v-153h-170z" />
    <glyph glyph-name="exclamdown.uc" horiz-adv-x="293" 
d="M47 0l25 464h149l25 -464h-199zM61 540v153h170v-153h-170z" />
    <glyph glyph-name="hyphen.uc" horiz-adv-x="349" 
d="M40 272v138h269v-138h-269z" />
    <glyph glyph-name="endash.uc" horiz-adv-x="437" 
d="M30 271v132h376v-132h-376z" />
    <glyph glyph-name="emdash.uc" horiz-adv-x="769" 
d="M30 271v132h708v-132h-708z" />
    <glyph glyph-name="guilsinglleft.uc" horiz-adv-x="299" 
d="M122 88l-92 179v43l92 179h145l-91 -200l91 -201h-145z" />
    <glyph glyph-name="guilsinglright.uc" horiz-adv-x="299" 
d="M32 88l91 200l-91 201h145l92 -179v-43l-92 -179h-145z" />
    <glyph glyph-name="guillemotleft.uc" horiz-adv-x="520" 
d="M343 88l-92 179v43l92 179h145l-91 -200l91 -201h-145zM122 88l-92 179v43l92 179h145l-91 -200l91 -201h-145z" />
    <glyph glyph-name="guillemotright.uc" horiz-adv-x="520" 
d="M253 88l91 200l-91 201h145l92 -179v-43l-92 -179h-145zM32 88l91 200l-91 201h145l92 -179v-43l-92 -179h-145z" />
    <glyph glyph-name="parenleft.uc" horiz-adv-x="381" 
d="M232 -91q-82 68 -138.5 176.5t-56.5 242.5v22q0 134 56.5 241.5t138.5 176.5h143q-162 -186 -162 -410v-32q0 -119 45 -226.5t117 -190.5h-143z" />
    <glyph glyph-name="parenright.uc" horiz-adv-x="381" 
d="M6 -91q162 186 162 410v32q0 119 -45 226.5t-117 190.5h143q82 -68 138.5 -176.5t56.5 -242.5v-22q0 -134 -56.5 -241.5t-138.5 -176.5h-143z" />
    <glyph glyph-name="bracketleft.uc" horiz-adv-x="376" 
d="M55 -91v859h297v-129h-122v-601h122v-129h-297z" />
    <glyph glyph-name="bracketright.uc" horiz-adv-x="376" 
d="M24 -91v129h121v601h-121v129h296v-859h-296z" />
    <glyph glyph-name="braceleft.uc" horiz-adv-x="397" 
d="M373 -93q-152 2 -212.5 46.5t-60.5 132.5v109q0 40 -20 57.5t-66 20.5v129q47 3 66.5 18.5t19.5 56.5v109q0 89 61 135.5t212 48.5v-130q-52 -4 -75 -20.5t-23 -57.5v-95q0 -53 -25 -85t-90 -44v-3q65 -12 90 -44t25 -85v-95q0 -41 22.5 -55.5t75.5 -18.5v-130z" />
    <glyph glyph-name="braceright.uc" horiz-adv-x="397" 
d="M24 -93v130q52 4 75 20.5t23 57.5v95q0 53 25 85t90 44v3q-65 12 -90 44t-25 85v95q0 41 -22.5 55.5t-75.5 18.5v130q152 -2 212.5 -46.5t60.5 -132.5v-109q0 -40 20 -57.5t66 -20.5v-129q-47 -3 -66.5 -18.5t-19.5 -56.5v-109q0 -89 -61 -135.5t-212 -48.5z" />
    <glyph glyph-name="slash.uc" horiz-adv-x="397" 
d="M160 -60h-152l228 793h152z" />
    <glyph glyph-name="backslash.uc" horiz-adv-x="397" 
d="M389 -60h-152l-228 793h152z" />
    <glyph glyph-name="bar.uc" horiz-adv-x="287" 
d="M76 -60v793h135v-793h-135z" />
    <glyph glyph-name="at.uc" horiz-adv-x="808" 
d="M398 -13q-175 0 -272.5 80.5t-97.5 246.5q0 167 113.5 279t296.5 112q152 0 245 -79t93 -217q0 -123 -60 -188.5t-158 -65.5q-96 0 -113 51h-4q-42 -47 -108 -47q-127 0 -127 143q0 101 48.5 164.5t132.5 63.5q54 0 85 -26h4l4 18h129l-46 -234q-6 -20 -1 -33.5t25 -13.5
q43 0 67.5 43t24.5 119q0 220 -248 220q-137 0 -220 -84.5t-83 -221.5q0 -248 269 -248q111 0 224 37v-71q-96 -48 -223 -48zM381 249q21 0 39 16l31 171q-16 12 -38 12q-33 0 -50.5 -44.5t-17.5 -108.5q0 -46 36 -46z" />
    </font>
</defs>
</svg>
