<?xml version="1.0" standalone="no"?>
<!DOCTYPE svg PUBLIC "-//W3C//DTD SVG 1.1//EN" "http://www.w3.org/Graphics/SVG/1.1/DTD/svg11.dtd" >
<svg>
<metadata>
Created by FontForge 20120731 at Fri Sep 23 10:41:29 2016
 By ,,,
(c)2008-09 Paul Barnes and Christian Schwartz, under exclusive license to Schwartzco Inc./Commercial Type. All rights reserved.
</metadata>
<defs>
<font id="GuardianSans-Regular" horiz-adv-x="494" >
  <font-face 
    font-family="Guardian Sans Regular"
    font-weight="400"
    font-stretch="normal"
    units-per-em="1000"
    panose-1="2 11 5 3 5 5 3 6 8 3"
    ascent="790"
    descent="-210"
    x-height="513"
    cap-height="693"
    bbox="-175 -217 1194 1061"
    underline-thickness="102"
    underline-position="51"
    unicode-range="U+0020-FB04"
  />
<missing-glyph horiz-adv-x="497" 
 />
    <glyph glyph-name="f_f" unicode="ff" horiz-adv-x="594" 
d="M92 0v440h-75v73h75v67q0 78 43.5 119t111.5 41q47 0 81 -16v-63q-28 6 -65 6q-83 0 -83 -94v-60h192v73q0 81 44 121.5t117 40.5q52 0 88 -18v-63q-37 8 -72 8q-89 0 -89 -96v-66h117v-73h-117v-440h-88v440h-192v-440h-88z" />
    <glyph glyph-name="f_i" unicode="fi" horiz-adv-x="526" 
d="M92 0v440h-75v73h75v75q0 78 43.5 119t111.5 41q43 0 75 -15v-63q-23 5 -59 5q-83 0 -83 -94v-68h280v-513h-88v440h-192v-440h-88zM371 615v91h90v-91h-90z" />
    <glyph glyph-name="f_l" unicode="fl" horiz-adv-x="526" 
d="M460 0h-88v668q-37 7 -76 7q-58 0 -87 -27t-29 -88v-47h117v-73h-117v-440h-88v440h-75v73h75v54q0 91 55 136t144 45q100 0 169 -24v-724z" />
    <glyph glyph-name="f_f_i" unicode="ffi" horiz-adv-x="806" 
d="M92 0v440h-75v73h75v67q0 78 43.5 119t111.5 41q47 0 81 -16v-63q-28 6 -65 6q-83 0 -83 -94v-60h192v75q0 78 43.5 119t111.5 41q43 0 75 -15v-63q-23 5 -59 5q-83 0 -83 -94v-68h280v-513h-88v440h-192v-440h-88v440h-192v-440h-88zM651 615v91h90v-91h-90z" />
    <glyph glyph-name="f_f_l" unicode="ffl" horiz-adv-x="806" 
d="M92 0v440h-75v73h75v67q0 78 43.5 119t111.5 41q47 0 81 -16v-63q-28 6 -65 6q-83 0 -83 -94v-60h192v54q0 91 55 136t144 45q100 0 169 -24v-724h-88v668q-37 7 -76 7q-58 0 -87 -27t-29 -88v-47h117v-73h-117v-440h-88v440h-192v-440h-88z" />
    <glyph glyph-name="f_b" unicode="fb" horiz-adv-x="853" 
d="M561 -13q-117 0 -189 28v653q-37 7 -76 7q-58 0 -87 -27t-29 -88v-47h117v-73h-117v-440h-88v440h-75v73h75v54q0 91 55 136t144 45q100 0 169 -24v-242h5q67 41 155 41q38 0 72 -12.5t63.5 -40t46.5 -78t17 -119.5v-15q0 -129 -66 -200t-192 -71zM567 61q161 0 161 184
v22q0 100 -35.5 140.5t-114.5 40.5q-48 0 -118 -29v-341q47 -17 107 -17z" />
    <glyph glyph-name="f_f_b" unicode="ffb" horiz-adv-x="1133" 
d="M841 -13q-117 0 -189 28v653q-37 7 -76 7q-58 0 -87 -27t-29 -88v-47h117v-73h-117v-440h-88v440h-192v-440h-88v440h-75v73h75v67q0 78 43.5 119t111.5 41q47 0 81 -16v-63q-28 6 -65 6q-83 0 -83 -94v-60h192v54q0 91 55 136t144 45q100 0 169 -24v-242h5q67 41 155 41
q38 0 72 -12.5t63.5 -40t46.5 -78t17 -119.5v-15q0 -129 -66 -200t-192 -71zM847 61q161 0 161 184v22q0 100 -35.5 140.5t-114.5 40.5q-48 0 -118 -29v-341q47 -17 107 -17z" />
    <glyph glyph-name="f_f_h" unicode="ffh" horiz-adv-x="1123" 
d="M652 0v668q-37 7 -76 7q-58 0 -87 -27t-29 -88v-47h117v-73h-117v-440h-88v440h-192v-440h-88v440h-75v73h75v67q0 78 43.5 119t111.5 41q47 0 81 -16v-63q-28 6 -65 6q-83 0 -83 -94v-60h192v54q0 91 55 136t144 45q100 0 169 -24v-253h5q75 52 169 52q76 0 112.5 -33.5
t36.5 -107.5v-382h-88v363q0 46 -20.5 65t-79.5 19q-61 0 -135 -34v-413h-88z" />
    <glyph glyph-name="f_f_j" unicode="ffj" horiz-adv-x="806" 
d="M598 -199q-47 0 -78 17v61q36 -6 55 -6q77 0 77 77v490h-192v-440h-88v440h-192v-440h-88v440h-75v73h75v67q0 78 43.5 119t111.5 41q47 0 81 -16v-63q-28 6 -65 6q-83 0 -83 -94v-60h192v75q0 78 43.5 119t111.5 41q43 0 75 -15v-63q-23 5 -59 5q-83 0 -83 -94v-68h280
v-568q0 -66 -35 -105t-107 -39zM651 615v91h90v-91h-90z" />
    <glyph glyph-name="f_f_k" unicode="ffk" horiz-adv-x="1067" 
d="M92 0v440h-75v73h75v67q0 78 43.5 119t111.5 41q47 0 81 -16v-63q-28 6 -65 6q-83 0 -83 -94v-60h192v54q0 91 55 136t144 45q100 0 169 -24v-724h-88v668q-37 7 -76 7q-58 0 -87 -27t-29 -88v-47h117v-73h-117v-440h-88v440h-192v-440h-88zM956 0l-192 265l182 248h95
l-181 -242l197 -271h-101z" />
    <glyph glyph-name="f_h" unicode="fh" horiz-adv-x="843" 
d="M372 0v668q-37 7 -76 7q-58 0 -87 -27t-29 -88v-47h117v-73h-117v-440h-88v440h-75v73h75v54q0 91 55 136t144 45q100 0 169 -24v-253h5q75 52 169 52q76 0 112.5 -33.5t36.5 -107.5v-382h-88v363q0 46 -20.5 65t-79.5 19q-61 0 -135 -34v-413h-88z" />
    <glyph glyph-name="f_j" unicode="fj" horiz-adv-x="526" 
d="M318 -199q-47 0 -78 17v61q36 -6 55 -6q77 0 77 77v490h-192v-440h-88v440h-75v73h75v75q0 78 43.5 119t111.5 41q43 0 75 -15v-63q-23 5 -59 5q-83 0 -83 -94v-68h280v-568q0 -66 -35 -105t-107 -39zM371 615v91h90v-91h-90z" />
    <glyph glyph-name="f_k" unicode="fk" horiz-adv-x="787" 
d="M676 0l-192 265l182 248h95l-181 -242l197 -271h-101zM460 0h-88v668q-37 7 -76 7q-58 0 -87 -27t-29 -88v-47h117v-73h-117v-440h-88v440h-75v73h75v54q0 91 55 136t144 45q100 0 169 -24v-724z" />
    <glyph glyph-name=".notdef" horiz-adv-x="497" 
 />
    <glyph glyph-name=".null" horiz-adv-x="0" 
 />
    <glyph glyph-name="nonmarkingreturn" horiz-adv-x="333" 
 />
    <glyph glyph-name="space" unicode=" " horiz-adv-x="192" 
 />
    <glyph glyph-name="exclam" unicode="!" horiz-adv-x="279" 
d="M100 208l-11 485h100l-11 -485h-78zM90 0v101h100v-101h-100z" />
    <glyph glyph-name="quotedbl" unicode="&#x22;" horiz-adv-x="361" 
d="M221 508l-10 185h97l-10 -185h-77zM63 508l-10 185h97l-10 -185h-77z" />
    <glyph glyph-name="numbersign" unicode="#" horiz-adv-x="525" 
d="M61 414v77h101l32 202h71l-32 -202h109l32 202h71l-32 -202h77v-77h-90l-20 -124h84v-77h-96l-34 -213h-71l34 213h-109l-34 -213h-71l34 213h-82v77h94l20 124h-88zM220 414l-20 -124h109l20 124h-109z" />
    <glyph glyph-name="dollar" unicode="$" horiz-adv-x="513" 
d="M178 -118l11 108q-84 8 -151 45v72q71 -37 158 -44l26 259l-27 9q-77 26 -114.5 68.5t-37.5 118.5q0 84 56 135t162 52l6 60h66l-7 -64q49 -7 106 -34v-74q-56 24 -113 33l-24 -238l9 -3q86 -29 126.5 -71.5t40.5 -125.5q0 -91 -53.5 -144t-163.5 -57l-10 -105h-66z
M380 181q0 47 -20.5 73t-73.5 46l-24 -237q59 7 88.5 38t29.5 80zM132 526q0 -48 20 -72.5t79 -44.5l22 221q-57 -1 -89 -29t-32 -75z" />
    <glyph glyph-name="percent" unicode="%" horiz-adv-x="857" 
d="M202 322q-75 0 -118.5 48.5t-43.5 131.5v17q0 82 44 134t118 52q75 0 118 -48.5t43 -130.5v-17q0 -83 -43.5 -135t-117.5 -52zM656 -9q-75 0 -118.5 48.5t-43.5 131.5v17q0 82 44 134t118 52q75 0 118 -48.5t43 -130.5v-17q0 -83 -43.5 -135t-117.5 -52zM146 -40l480 753
h76l-480 -753h-76zM656 49q82 0 82 121v25q0 121 -82 121q-83 0 -83 -120v-25q0 -122 83 -122zM202 380q82 0 82 121v25q0 121 -82 121q-83 0 -83 -120v-25q0 -122 83 -122z" />
    <glyph glyph-name="ampersand" unicode="&#x26;" horiz-adv-x="644" 
d="M281 -12q-116 0 -180 51t-64 148q0 72 39.5 120t111.5 83q-64 77 -64 151q0 81 53 122.5t127 41.5q73 0 121 -41t48 -110q0 -66 -40.5 -107t-113.5 -76l153 -185q30 63 36 148h83q-9 -119 -68 -209l104 -125h-110l-50 59q-79 -71 -186 -71zM280 61q85 0 141 53l-189 224
q-49 -26 -75 -58.5t-26 -82.5q0 -63 38 -99.5t111 -36.5zM217 546q0 -52 46 -108l13 -16q32 17 52 31t37.5 40.5t17.5 58.5q0 38 -22 60.5t-58 22.5q-38 0 -62 -23t-24 -66z" />
    <glyph glyph-name="quotesingle" unicode="'" horiz-adv-x="203" 
d="M63 508l-10 185h97l-10 -185h-77z" />
    <glyph glyph-name="parenleft" unicode="(" horiz-adv-x="328" 
d="M238 -120q-81 80 -132 187t-51 234v17q0 128 51 234.5t132 186.5h78q-75 -82 -122 -190t-47 -222v-27q0 -112 47.5 -225.5t121.5 -194.5h-78z" />
    <glyph glyph-name="parenright" unicode=")" horiz-adv-x="328" 
d="M12 -120q75 82 122 190t47 222v27q0 112 -47.5 225.5t-121.5 194.5h78q81 -80 132 -187t51 -234v-17q0 -128 -51 -234.5t-132 -186.5h-78z" />
    <glyph glyph-name="asterisk" unicode="*" horiz-adv-x="378" 
d="M155 385l4 107l-87 -57l-33 58l92 46l-92 46l33 58l87 -57l-4 107h67l-3 -107l87 57l33 -58l-92 -46l92 -46l-33 -58l-87 57l3 -107h-67z" />
    <glyph glyph-name="plus" unicode="+" horiz-adv-x="517" 
d="M218 119v176h-169v77h169v176h81v-176h169v-77h-169v-176h-81z" />
    <glyph glyph-name="comma" unicode="," horiz-adv-x="252" 
d="M65 -92l16 193h103l-43 -193h-76z" />
    <glyph glyph-name="hyphen" unicode="-" horiz-adv-x="320" 
d="M63 238v76h194v-76h-194z" />
    <glyph glyph-name="period" unicode="." horiz-adv-x="252" 
d="M76 0v101h100v-101h-100z" />
    <glyph glyph-name="slash" unicode="/" horiz-adv-x="346" 
d="M5 -120l240 859h79l-240 -859h-79z" />
    <glyph glyph-name="zero" unicode="0" horiz-adv-x="652" 
d="M328 -13q-125 0 -201.5 84t-76.5 253v36q0 176 78 260.5t201 84.5q121 0 197 -83t76 -256v-36q0 -176 -74.5 -259.5t-199.5 -83.5zM328 63q94 0 136.5 61t42.5 193v50q0 262 -178 262q-181 0 -181 -256v-50q0 -260 180 -260z" />
    <glyph glyph-name="one" unicode="1" horiz-adv-x="334" 
d="M154 0v593l-127 -12v52l186 66h32v-699h-91z" />
    <glyph glyph-name="two" unicode="2" horiz-adv-x="516" 
d="M34 0v66l164 165q83 83 121 142t38 126q0 128 -148 128q-83 0 -161 -38v73q80 43 185 43t163 -52.5t58 -145.5q0 -83 -45 -151.5t-149 -168.5l-112 -107v-3h323v-77h-437z" />
    <glyph glyph-name="three" unicode="3" horiz-adv-x="508" 
d="M209 -11q-106 0 -181 44v72q87 -38 161 -38q175 0 175 130q0 125 -159 125h-64v77h52q69 0 107.5 30t38.5 89q0 60 -34 84.5t-101 24.5q-70 0 -147 -28v72q69 34 170 34q95 0 151 -46t56 -127q0 -121 -129 -161v-3q155 -30 155 -175q0 -97 -67 -150.5t-184 -53.5z" />
    <glyph glyph-name="four" unicode="4" horiz-adv-x="572" 
d="M337 0v188h-324v68l337 437h76v-430h133v-75h-133v-188h-89zM108 263h229v294h-4l-225 -291v-3z" />
    <glyph glyph-name="five" unicode="5" horiz-adv-x="509" 
d="M213 -11q-114 0 -185 44v72q78 -38 165 -38q171 0 171 147q0 75 -43 107.5t-128 32.5q-77 0 -136 -18l26 357h357v-77h-283l-15 -193q35 8 77 8q116 0 179 -53.5t63 -162.5q0 -104 -66.5 -165t-181.5 -61z" />
    <glyph glyph-name="six" unicode="6" horiz-adv-x="590" 
d="M307 -13q-121 0 -189 85t-68 225v44q0 98 26 171t72 113.5t100 60t118 19.5q94 0 139 -25v-71q-58 18 -123 18q-48 0 -84.5 -9.5t-71 -34.5t-54.5 -77t-24 -129q75 56 183 56q97 0 155.5 -54.5t58.5 -154.5q0 -102 -63.5 -169.5t-174.5 -67.5zM306 63q69 0 106 40.5
t37 111.5q0 79 -37 110t-107 31q-86 0 -158 -46v-15q0 -106 39 -169t120 -63z" />
    <glyph glyph-name="seven" unicode="7" horiz-adv-x="486" 
d="M89 0l285 612v4h-350v77h440v-72l-274 -621h-101z" />
    <glyph glyph-name="eight" unicode="8" horiz-adv-x="588" 
d="M294 -13q-117 0 -184 50t-67 136q0 60 42 108.5t104 76.5q-126 64 -126 169q0 78 62 128t165 50t165 -46t62 -126q0 -106 -129 -175q36 -15 60 -28.5t48 -34t36.5 -49t12.5 -64.5q0 -86 -67 -140.5t-184 -54.5zM292 63q71 0 113.5 29t42.5 80q0 29 -10.5 49.5t-40 39
t-57.5 30.5t-86 33q-118 -58 -118 -147q0 -55 42 -84.5t114 -29.5zM318 390q53 29 78.5 60.5t25.5 77.5t-33.5 73.5t-97.5 27.5q-61 0 -96 -25.5t-35 -72.5q0 -46 37 -75.5t121 -65.5z" />
    <glyph glyph-name="nine" unicode="9" horiz-adv-x="590" 
d="M224 -13q-99 0 -144 28v72q57 -22 128 -22q114 0 172 53t62 197q-75 -56 -183 -56q-97 0 -155.5 54.5t-58.5 154.5q0 102 62.5 169.5t176.5 67.5q115 0 185.5 -80t70.5 -230v-44q0 -99 -23.5 -171t-67.5 -113.5t-99.5 -60.5t-125.5 -19zM285 336q86 0 158 46v15
q0 110 -41 171t-117 61q-72 0 -108 -40t-36 -112q0 -79 37 -110t107 -31z" />
    <glyph glyph-name="colon" unicode=":" horiz-adv-x="262" 
d="M81 300v101h100v-101h-100zM81 0v101h100v-101h-100z" />
    <glyph glyph-name="semicolon" unicode=";" horiz-adv-x="262" 
d="M64 -92l16 193h103l-43 -193h-76zM81 300v101h100v-101h-100z" />
    <glyph glyph-name="less" unicode="&#x3c;" horiz-adv-x="481" 
d="M421 104l-376 180v71l376 180v-86l-282 -130l282 -127v-88z" />
    <glyph glyph-name="equal" unicode="=" horiz-adv-x="528" 
d="M56 357v74h416v-74h-416zM56 180v74h416v-74h-416z" />
    <glyph glyph-name="greater" unicode="&#x3e;" horiz-adv-x="481" 
d="M60 104v86l282 130l-282 127v88l376 -180v-71z" />
    <glyph glyph-name="question" unicode="?" horiz-adv-x="414" 
d="M120 208v49q0 34 14.5 61.5t30 42.5t59.5 51q35 28 48.5 53.5t13.5 67.5q0 52 -31 74t-92 22q-62 0 -137 -25v71q71 30 158 30q88 0 143 -42t55 -128q0 -60 -21 -92.5t-83 -83.5q-50 -41 -61 -58q-14 -22 -14 -50v-43h-83zM113 0v101h100v-101h-100z" />
    <glyph glyph-name="at" unicode="@" horiz-adv-x="893" 
d="M448 -155q-190 0 -295 98t-105 275q0 89 29 171t82.5 147.5t139 104.5t190.5 39q163 0 261 -98.5t98 -251.5q0 -140 -59.5 -219t-165.5 -79q-94 0 -110 62h-5q-52 -62 -123 -62q-66 0 -102.5 44t-36.5 121q0 130 57 206.5t156 76.5q67 0 106 -39h5l6 30h82l-61 -323
q-10 -53 40 -53q65 0 101 59.5t36 169.5q0 134 -73 212.5t-214 78.5q-116 0 -200 -53.5t-124.5 -142t-40.5 -200.5q0 -148 82.5 -229.5t244.5 -81.5q104 0 224 39v-57q-106 -45 -225 -45zM409 100q53 0 102 47l41 229q-29 35 -93 35q-124 0 -124 -213q0 -98 74 -98z" />
    <glyph glyph-name="A" unicode="A" horiz-adv-x="605" 
d="M7 0l252 693h89l250 -693h-95l-70 195h-271l-69 -195h-86zM295 572l-106 -300h216l-107 300h-3z" />
    <glyph glyph-name="B" unicode="B" horiz-adv-x="585" 
d="M78 0v693h215q225 0 225 -175q0 -114 -113 -150v-4q143 -26 143 -167q0 -89 -61 -143t-176 -54h-233zM169 76h136q147 0 147 125q0 121 -153 121h-130v-246zM169 395h109q146 0 146 111q0 61 -33.5 85.5t-105.5 24.5h-116v-221z" />
    <glyph glyph-name="C" unicode="C" horiz-adv-x="565" 
d="M342 -12q-143 0 -223.5 88.5t-80.5 260.5v24q0 177 88 260.5t230 83.5q100 0 171 -38v-76q-95 36 -177 36q-99 0 -156.5 -61.5t-57.5 -189.5v-38q0 -272 218 -272q89 0 181 44v-77q-79 -45 -193 -45z" />
    <glyph glyph-name="D" unicode="D" horiz-adv-x="651" 
d="M78 0v693h209q159 0 242.5 -82t83.5 -245v-20q0 -166 -80 -256t-244 -90h-211zM169 78h122q117 0 170.5 60.5t53.5 193.5v34q0 136 -59 192.5t-177 56.5h-110v-537z" />
    <glyph glyph-name="E" unicode="E" horiz-adv-x="547" 
d="M78 0v693h413v-77h-322v-220h248v-77h-248v-242h325v-77h-416z" />
    <glyph glyph-name="F" unicode="F" horiz-adv-x="511" 
d="M78 0v693h402v-77h-311v-233h240v-77h-240v-306h-91z" />
    <glyph glyph-name="G" unicode="G" horiz-adv-x="633" 
d="M360 -12q-152 0 -237 84.5t-85 258.5v20q0 96 26.5 166.5t74 110.5t104.5 58.5t125 18.5q104 0 182 -42v-78q-93 42 -189 42q-61 0 -106.5 -21.5t-70.5 -59t-36.5 -82.5t-11.5 -99v-32q0 -61 10 -107t34.5 -84t70 -57.5t112.5 -19.5q71 0 123 19v180h-144v76h235v-312
q-101 -40 -217 -40z" />
    <glyph glyph-name="H" unicode="H" horiz-adv-x="671" 
d="M78 0v693h91v-296h333v296h91v-693h-91v320h-333v-320h-91z" />
    <glyph glyph-name="I" unicode="I" horiz-adv-x="253" 
d="M81 0v693h91v-693h-91z" />
    <glyph glyph-name="J" unicode="J" horiz-adv-x="422" 
d="M159 -7q-76 0 -133 27v73q62 -22 125 -22q106 0 106 112v510h92v-513q0 -83 -47 -135t-143 -52z" />
    <glyph glyph-name="K" unicode="K" horiz-adv-x="586" 
d="M466 0l-269 354l266 339h97l-260 -329l274 -364h-108zM78 0v693h91v-693h-91z" />
    <glyph glyph-name="L" unicode="L" horiz-adv-x="498" 
d="M78 0v693h91v-616h306v-77h-397z" />
    <glyph glyph-name="M" unicode="M" horiz-adv-x="805" 
d="M78 0v693h134l190 -574h3l189 574h133v-693h-91v573h-3l-192 -573h-86l-191 573h-3v-573h-83z" />
    <glyph glyph-name="N" unicode="N" horiz-adv-x="667" 
d="M78 0v693h107l318 -539h3v539h83v-693h-94l-331 568h-3v-568h-83z" />
    <glyph glyph-name="O" unicode="O" horiz-adv-x="687" 
d="M342 -12q-143 0 -223.5 91t-80.5 258v20q0 162 82 255t226 93q142 0 222.5 -91t80.5 -258v-20q0 -162 -81.5 -255t-225.5 -93zM345 63q101 0 153.5 71.5t52.5 186.5v34q0 274 -210 275q-101 0 -153 -71t-52 -186v-34q0 -276 209 -276z" />
    <glyph glyph-name="P" unicode="P" horiz-adv-x="554" 
d="M78 0v693h221q114 0 172.5 -53.5t58.5 -152.5q0 -103 -60.5 -158.5t-161.5 -55.5h-139v-273h-91zM169 349h119q77 0 111 31.5t34 99.5q0 73 -32.5 104.5t-110.5 31.5h-121v-267z" />
    <glyph glyph-name="Q" unicode="Q" horiz-adv-x="687" 
d="M649 336q0 -131 -53.5 -212.5t-154.5 -109.5l232 -56l-23 -81l-393 117q-219 66 -219 343v20q0 162 82 255t226 93q142 0 222.5 -91t80.5 -258v-20zM345 61q101 0 153.5 72.5t52.5 187.5v34q0 274 -210 275q-101 0 -153 -71t-52 -186v-34q0 -278 209 -278z" />
    <glyph glyph-name="R" unicode="R" horiz-adv-x="578" 
d="M78 0v693h204q114 0 173 -50t59 -147q0 -134 -131 -181v-5l181 -310h-104l-167 293h-124v-293h-91zM169 365h107q75 0 108 31t33 98q0 65 -33.5 93.5t-108.5 28.5h-106v-251z" />
    <glyph glyph-name="S" unicode="S" horiz-adv-x="497" 
d="M227 -13q-116 0 -199 46v77q90 -45 194 -45q73 0 109.5 31.5t36.5 87.5q0 49 -24 74.5t-86 46.5l-72 24q-74 25 -111.5 68.5t-37.5 120.5q0 85 56.5 136t162.5 51q92 0 170 -38v-77q-82 37 -173 37q-59 0 -92 -26.5t-33 -74.5t20.5 -72.5t74.5 -42.5l72 -24
q84 -28 125 -71t41 -125q0 -95 -58 -149.5t-176 -54.5z" />
    <glyph glyph-name="T" unicode="T" horiz-adv-x="537" 
d="M223 0v616h-205v77h501v-77h-205v-616h-91z" />
    <glyph glyph-name="U" unicode="U" horiz-adv-x="655" 
d="M331 -13q-126 0 -192 63.5t-66 190.5v452h91v-446q0 -105 42 -146.5t129 -41.5q86 0 124.5 41t38.5 148v445h84v-449q0 -133 -62 -195t-189 -62z" />
    <glyph glyph-name="V" unicode="V" horiz-adv-x="599" 
d="M257 0l-249 693h95l200 -571h3l199 571h86l-249 -693h-85z" />
    <glyph glyph-name="W" unicode="W" horiz-adv-x="861" 
d="M190 0l-174 693h92l131 -550h3l157 550h75l154 -550h3l130 550h84l-173 -693h-88l-149 540h-3l-154 -540h-88z" />
    <glyph glyph-name="X" unicode="X" horiz-adv-x="600" 
d="M22 0l227 353l-215 340h102l172 -272h4l160 272h94l-207 -341l219 -352h-102l-178 286h-3l-179 -286h-94z" />
    <glyph glyph-name="Y" unicode="Y" horiz-adv-x="554" 
d="M232 0v268l-226 425h97l178 -339h3l175 339h89l-225 -425v-268h-91z" />
    <glyph glyph-name="Z" unicode="Z" horiz-adv-x="535" 
d="M27 0v69l373 544v3h-346v77h456v-68l-374 -545v-3h361v-77h-470z" />
    <glyph glyph-name="bracketleft" unicode="[" horiz-adv-x="336" 
d="M78 -120v859h226v-70h-138v-719h138v-70h-226z" />
    <glyph glyph-name="backslash" unicode="\" horiz-adv-x="346" 
d="M262 -120l-240 859h79l240 -859h-79z" />
    <glyph glyph-name="bracketright" unicode="]" horiz-adv-x="336" 
d="M32 -120v70h138v719h-138v70h226v-859h-226z" />
    <glyph glyph-name="asciicircum" unicode="^" horiz-adv-x="453" 
d="M44 452l146 241h74l145 -241h-78l-104 160l-105 -160h-78z" />
    <glyph glyph-name="underscore" unicode="_" horiz-adv-x="320" 
d="M-5 -120v59h330v-59h-330z" />
    <glyph glyph-name="grave" unicode="`" 
d="M211 587l-107 145h99l86 -145h-78z" />
    <glyph glyph-name="a" unicode="a" horiz-adv-x="469" 
d="M189 -10q-72 0 -115.5 37t-43.5 109q0 130 155 149l136 17v48q0 57 -27.5 77t-98.5 20q-56 0 -122 -15v63q72 28 157 28q179 0 179 -151v-372h-71l-9 43h-6q-46 -53 -134 -53zM212 58q70 0 109 35v142l-113 -12q-45 -5 -66 -24.5t-21 -60.5q0 -39 24.5 -59.5t66.5 -20.5z
" />
    <glyph glyph-name="b" unicode="b" horiz-adv-x="544" 
d="M252 -13q-117 0 -189 28v724h88v-257h5q67 41 155 41q38 0 72 -12.5t63.5 -40t46.5 -78t17 -119.5v-15q0 -129 -66 -200t-192 -71zM258 61q161 0 161 184v22q0 100 -35.5 140.5t-114.5 40.5q-48 0 -118 -29v-341q47 -17 107 -17z" />
    <glyph glyph-name="c" unicode="c" horiz-adv-x="443" 
d="M270 -10q-112 0 -175.5 64.5t-63.5 190.5v17q0 129 68 195t176 66q85 0 140 -34v-73q-29 12 -44.5 17.5t-42.5 10t-59 4.5q-69 0 -108 -45t-39 -128v-27q0 -95 39.5 -139t118.5 -44q69 0 141 36v-70q-63 -41 -151 -41z" />
    <glyph glyph-name="d" unicode="d" horiz-adv-x="544" 
d="M246 -10q-40 0 -75.5 13t-67 40.5t-50.5 78t-19 118.5v14q0 135 62 202t166 67q77 0 131 -32v248h88v-739h-74l-9 41h-5q-51 -51 -147 -51zM274 62q69 0 119 41v314q-38 31 -120 31q-73 0 -110.5 -42.5t-37.5 -139.5v-22q0 -99 38.5 -140.5t110.5 -41.5z" />
    <glyph glyph-name="e" unicode="e" horiz-adv-x="496" 
d="M276 -10q-119 0 -182 68.5t-63 190.5v15q0 127 65 193t161 66q208 0 208 -242v-50h-343q4 -88 46 -126.5t122 -38.5q84 0 160 39v-65q-67 -50 -174 -50zM253 452q-23 0 -43.5 -7t-40 -23t-32 -47t-15.5 -73h250q0 79 -29.5 114.5t-89.5 35.5z" />
    <glyph glyph-name="f" unicode="f" horiz-adv-x="314" 
d="M92 0v440h-75v73h75v73q0 81 44 121.5t117 40.5q52 0 88 -18v-63q-37 8 -72 8q-89 0 -89 -96v-66h117v-73h-117v-440h-88z" />
    <glyph glyph-name="g" unicode="g" horiz-adv-x="503" 
d="M244 -199q-114 0 -173 34.5t-59 95.5q0 39 26.5 67t69.5 43v5q-52 19 -52 71q0 56 59 99q-64 43 -64 128v10q0 79 54 124t142 45q39 0 74 -9h175v-67h-87q32 -35 32 -89v-10q0 -80 -55 -122.5t-140 -42.5q-47 0 -86 12q-21 -19 -21 -43q0 -44 48 -44h141q163 0 163 -135
q0 -76 -61.5 -124t-185.5 -48zM242 -127q157 0 157 86q0 35 -19 50t-68 15h-145q-62 -21 -62 -80q0 -71 137 -71zM246 250q107 0 107 94v15q0 97 -107 97q-51 0 -79 -25t-28 -70v-15q0 -48 28.5 -72t78.5 -24z" />
    <glyph glyph-name="h" unicode="h" horiz-adv-x="534" 
d="M63 0v739h88v-268h5q75 52 169 52q76 0 112.5 -33.5t36.5 -107.5v-382h-88v363q0 46 -20.5 65t-79.5 19q-61 0 -135 -34v-413h-88z" />
    <glyph glyph-name="i" unicode="i" horiz-adv-x="220" 
d="M66 0v513h88v-513h-88zM65 615v91h90v-91h-90z" />
    <glyph glyph-name="j" unicode="j" horiz-adv-x="220" 
d="M12 -199q-47 0 -78 17v61q36 -6 55 -6q77 0 77 77v563h88v-568q0 -66 -35 -105t-107 -39zM65 615v91h90v-91h-90z" />
    <glyph glyph-name="k" unicode="k" horiz-adv-x="478" 
d="M63 0v739h88v-739h-88zM367 0l-192 265l182 248h95l-181 -242l197 -271h-101z" />
    <glyph glyph-name="l" unicode="l" horiz-adv-x="220" 
d="M66 0v739h88v-739h-88z" />
    <glyph glyph-name="m" unicode="m" horiz-adv-x="809" 
d="M63 0v513h84v-44h5q80 54 156 54q88 0 123 -57h5q86 57 171 57q142 0 142 -141v-382h-88v363q0 45 -19.5 64.5t-69.5 19.5q-51 0 -124 -35q2 -20 2 -30v-382h-88v363q0 45 -19.5 64.5t-69.5 19.5q-52 0 -122 -34v-413h-88z" />
    <glyph glyph-name="n" unicode="n" horiz-adv-x="534" 
d="M63 0v513h84v-44h5q77 54 173 54q76 0 112.5 -33.5t36.5 -107.5v-382h-88v363q0 46 -20.5 65t-79.5 19q-61 0 -135 -34v-413h-88z" />
    <glyph glyph-name="o" unicode="o" horiz-adv-x="531" 
d="M265 -10q-111 0 -172.5 67.5t-61.5 188.5v17q0 120 64 190t171 70q110 0 172 -68t62 -189v-16q0 -120 -64 -190t-171 -70zM267 62q67 0 104.5 46t37.5 132v28q0 183 -145 183q-68 0 -105 -47t-37 -132v-28q0 -182 145 -182z" />
    <glyph glyph-name="p" unicode="p" horiz-adv-x="544" 
d="M63 -195v708h84v-41h5q55 51 148 51t151.5 -60t58.5 -192v-14q0 -136 -60.5 -201.5t-170.5 -65.5q-72 0 -128 33v-218h-88zM271 62q73 0 110.5 43t37.5 140v22q0 100 -35 140.5t-108 40.5q-77 0 -125 -35v-316q43 -35 120 -35z" />
    <glyph glyph-name="q" unicode="q" horiz-adv-x="541" 
d="M393 -195v226h-5q-57 -41 -142 -41q-40 0 -75.5 13t-67 40.5t-50.5 78t-19 118.5v14q0 144 69.5 206.5t183.5 62.5q118 0 194 -37v-681h-88zM274 64q71 0 119 39v333q-59 16 -112 16q-156 0 -156 -186v-22q0 -99 38 -139.5t111 -40.5z" />
    <glyph glyph-name="r" unicode="r" horiz-adv-x="338" 
d="M63 0v513h84v-57h5q23 27 61 45t78 18q22 0 32 -4v-78q-19 3 -39 3q-73 0 -133 -40v-400h-88z" />
    <glyph glyph-name="s" unicode="s" horiz-adv-x="409" 
d="M195 -9q-102 0 -166 36v70q30 -12 45 -17t45 -10t64 -5q109 0 109 71q0 32 -18.5 49.5t-65.5 30.5l-49 13q-62 17 -95 49t-33 94q0 70 45.5 110.5t134.5 40.5q82 0 140 -30v-71q-59 27 -136 27q-100 0 -100 -68q0 -31 17 -46.5t57 -26.5l49 -13q78 -21 109.5 -53
t31.5 -98q0 -74 -49 -113.5t-135 -39.5z" />
    <glyph glyph-name="t" unicode="t" horiz-adv-x="342" 
d="M229 -6q-139 0 -139 126v320h-73v73h73v122h88v-122h129v-73h-129v-307q0 -37 15.5 -52t58.5 -15q33 0 65 8v-59q-44 -21 -88 -21z" />
    <glyph glyph-name="u" unicode="u" horiz-adv-x="527" 
d="M217 -10q-76 0 -116.5 38.5t-40.5 112.5v372h88v-358q0 -49 20.5 -69t74.5 -20q61 0 133 37v410h88v-513h-75l-9 44h-5q-77 -54 -158 -54z" />
    <glyph glyph-name="v" unicode="v" horiz-adv-x="490" 
d="M201 0l-189 513h95l139 -402h4l142 402h86l-189 -513h-88z" />
    <glyph glyph-name="w" unicode="w" horiz-adv-x="734" 
d="M161 0l-145 513h94l101 -400h4l118 400h77l119 -400h4l101 400h84l-145 -513h-89l-114 378h-4l-115 -378h-90z" />
    <glyph glyph-name="x" unicode="x" horiz-adv-x="475" 
d="M15 0l172 261l-165 252h101l122 -190l110 190h92l-157 -252l170 -261h-101l-124 198l-127 -198h-93z" />
    <glyph glyph-name="y" unicode="y" horiz-adv-x="479" 
d="M96 -199q-38 0 -66 15v62q26 -4 50 -4q71 0 102 77l23 59l-197 503h95l145 -387h3l133 387h87l-208 -574q-27 -74 -64.5 -106t-102.5 -32z" />
    <glyph glyph-name="z" unicode="z" horiz-adv-x="447" 
d="M32 0v65l274 373v3h-259v72h366v-63l-274 -375v-3h273v-72h-380z" />
    <glyph glyph-name="braceleft" unicode="{" horiz-adv-x="374" 
d="M342 -122q-124 3 -168.5 45.5t-44.5 117.5v141q0 48 -24.5 67.5t-88.5 23.5v72q64 4 88.5 24t24.5 68v141q0 75 44.5 117.5t168.5 45.5v-70q-70 -5 -97.5 -24t-27.5 -73v-141q0 -48 -22.5 -79t-83.5 -43v-3q61 -12 83.5 -43t22.5 -79v-141q0 -54 27.5 -73t97.5 -24v-70z
" />
    <glyph glyph-name="bar" unicode="|" horiz-adv-x="290" 
d="M107 -120v859h76v-859h-76z" />
    <glyph glyph-name="braceright" unicode="}" horiz-adv-x="374" 
d="M32 -122v70q70 5 97.5 24t27.5 73v141q0 48 22.5 79t83.5 43v3q-61 12 -83.5 43t-22.5 79v141q0 54 -27.5 73t-97.5 24v70q124 -3 168.5 -45.5t44.5 -117.5v-141q0 -48 24.5 -67.5t88.5 -23.5v-72q-64 -4 -88.5 -24t-24.5 -68v-141q0 -75 -44.5 -117.5t-168.5 -45.5z" />
    <glyph glyph-name="asciitilde" unicode="~" horiz-adv-x="392" 
d="M36 240q14 112 104 112q24 0 62 -18t51 -18q31 0 39 38h64q-14 -112 -104 -112q-24 0 -62 18t-51 18q-31 0 -39 -38h-64z" />
    <glyph glyph-name="uni00A0" unicode="&#xa0;" horiz-adv-x="192" 
 />
    <glyph glyph-name="exclamdown" unicode="&#xa1;" horiz-adv-x="279" 
d="M90 -120l11 485h78l11 -485h-100zM89 472v101h100v-101h-100z" />
    <glyph glyph-name="cent" unicode="&#xa2;" horiz-adv-x="439" 
d="M179 -119l17 117q-79 19 -122 81t-43 166v17q0 129 67 194.5t174 66.5l10 63h67l-10 -68q40 -8 76 -29v-71q-58 22 -87 27l-57 -383h9q63 0 141 33v-63q-62 -42 -151 -42h-9l-16 -109h-66zM122 248q0 -139 85 -174l55 376q-66 -2 -103 -48t-37 -127v-27z" />
    <glyph glyph-name="sterling" unicode="&#xa3;" horiz-adv-x="521" 
d="M46 310v68h79v102q0 58 19 102.5t51 70.5t70.5 39t81.5 13q82 0 135 -31v-69q-61 22 -120 22q-146 0 -146 -151v-98h185v-68h-185v-59q0 -65 -16 -103.5t-52 -68.5v-2h340v-77h-451v67q46 27 67 68.5t21 111.5v63h-79z" />
    <glyph glyph-name="yen" unicode="&#xa5;" horiz-adv-x="580" 
d="M249 0v141h-163v73h163v68h-163v73h142l-197 338h100l164 -292h5l164 292h91l-197 -338h144v-73h-163v-68h163v-73h-163v-141h-90z" />
    <glyph glyph-name="brokenbar" unicode="&#xa6;" horiz-adv-x="295" 
d="M107 -120v395h81v-395h-81zM107 352v381h81v-381h-81z" />
    <glyph glyph-name="section" unicode="&#xa7;" horiz-adv-x="490" 
d="M229 -132q-97 0 -166 39v72q33 -13 47 -18.5t44.5 -11t64.5 -5.5q122 0 122 82q0 36 -17.5 53.5t-69.5 33.5l-87 27q-67 21 -104 58t-37 102q0 94 95 127q-48 40 -48 118q0 73 51 116.5t145 43.5q74 0 142 -34v-72q-64 30 -140 30q-53 0 -83 -19.5t-30 -55.5
q0 -37 14 -54.5t55 -30.5l96 -30q79 -24 113.5 -58.5t34.5 -103.5q0 -95 -94 -129q53 -38 53 -114q0 -80 -53 -123t-148 -43zM291 362l-98 30q-81 -14 -81 -84q0 -36 18.5 -57t63.5 -34l92 -28l15 -5q82 19 82 86q0 37 -20 56.5t-72 35.5z" />
    <glyph glyph-name="dieresis" unicode="&#xa8;" 
d="M289 615v89h86v-89h-86zM119 615v89h86v-89h-86z" />
    <glyph glyph-name="copyright" unicode="&#xa9;" horiz-adv-x="800" 
d="M399 -14q-151 0 -252.5 104.5t-101.5 253.5t101.5 252.5t252.5 103.5t253.5 -103.5t102.5 -252.5t-103 -253.5t-253 -104.5zM399 36q129 0 212.5 87t83.5 221t-83.5 220t-212.5 86q-130 0 -212 -86t-82 -220q0 -135 82.5 -221.5t211.5 -86.5zM408 146q-82 0 -129.5 49
t-47.5 144v12q0 98 51 144.5t132 46.5q56 0 96 -22v-63q-49 19 -100 19q-96 0 -96 -117v-20q0 -65 25 -96.5t79 -31.5q48 0 96 25v-63q-48 -27 -106 -27z" />
    <glyph glyph-name="ordfeminine" unicode="&#xaa;" horiz-adv-x="435" 
d="M172 222q-65 0 -104 33.5t-39 98.5q0 118 141 136l120 14v41q0 50 -24.5 67.5t-87.5 17.5q-43 0 -111 -14v61q67 25 145 25q163 0 163 -137v-334h-69l-8 39h-6q-41 -48 -120 -48zM195 287q63 0 95 30v126l-97 -11q-39 -5 -58 -22t-19 -53q0 -70 79 -70z" />
    <glyph glyph-name="guillemotleft" unicode="&#xab;" horiz-adv-x="446" 
d="M322 56l-102 180v33l102 180h81l-100 -196l100 -197h-81zM142 56l-102 180v33l102 180h81l-100 -196l100 -197h-81z" />
    <glyph glyph-name="registered" unicode="&#xae;" horiz-adv-x="433" 
d="M216 314q-82 0 -138.5 57.5t-56.5 139.5t56.5 139t138.5 57t139 -57t57 -139q0 -81 -57 -139t-139 -58zM216 347q69 0 112.5 47t43.5 117q0 69 -44 116.5t-112 47.5t-111.5 -47.5t-43.5 -116.5q0 -70 43 -117t112 -47zM151 420v187h71q73 0 73 -57q0 -35 -33 -47v-3
l43 -80h-49l-37 71h-21v-71h-47zM198 526h21q28 0 28 23q0 22 -28 22h-21v-45z" />
    <glyph glyph-name="macron" unicode="&#xaf;" 
d="M128 620v73h238v-73h-238z" />
    <glyph glyph-name="degree" unicode="&#xb0;" horiz-adv-x="358" 
d="M179 429q-60 0 -99.5 40t-39.5 97t39.5 97.5t99.5 40.5t99.5 -40.5t39.5 -97.5t-39.5 -97t-99.5 -40zM179 483q34 0 53 23.5t19 59.5t-19 60t-53 24t-53 -24t-19 -60t19 -59.5t53 -23.5z" />
    <glyph glyph-name="acute" unicode="&#xb4;" 
d="M205 587l86 145h99l-107 -145h-78z" />
    <glyph glyph-name="paragraph" unicode="&#xb6;" horiz-adv-x="567" 
d="M276 -120v457h-49q-82 0 -139 47t-57 130q0 79 55 129t174 50h229v-813h-65v756h-83v-756h-65z" />
    <glyph glyph-name="periodcentered" unicode="&#xb7;" horiz-adv-x="252" 
d="M76 273v101h100v-101h-100z" />
    <glyph glyph-name="cedilla" unicode="&#xb8;" 
d="M203 -217v52q102 8 102 41q0 17 -19 24t-62 7v93h57v-48q96 -5 96 -70q0 -45 -39.5 -68.5t-134.5 -30.5z" />
    <glyph glyph-name="ordmasculine" unicode="&#xba;" horiz-adv-x="486" 
d="M242 222q-100 0 -156 61t-56 170v15q0 108 58.5 171t154.5 63q100 0 156.5 -61t56.5 -170v-15q0 -108 -58.5 -171t-155.5 -63zM244 290q59 0 91.5 40.5t32.5 116.5v26q0 161 -127 161q-59 0 -91.5 -41t-32.5 -117v-25q0 -161 127 -161z" />
    <glyph glyph-name="guillemotright" unicode="&#xbb;" horiz-adv-x="446" 
d="M223 56l100 196l-100 197h81l102 -180v-33l-102 -180h-81zM43 56l100 196l-100 197h81l102 -180v-33l-102 -180h-81z" />
    <glyph glyph-name="onequarter" unicode="&#xbc;" horiz-adv-x="771" 
d="M105 277v342l-83 -13v46l118 44h38v-419h-73zM69 -40l511 753h74l-511 -753h-74zM610 0v109h-192v51l200 256h64v-252h75v-55h-75v-109h-72zM490 164h121v152h-3l-118 -149v-3z" />
    <glyph glyph-name="onehalf" unicode="&#xbd;" horiz-adv-x="813" 
d="M105 277v342l-83 -13v46l118 44h38v-419h-73zM56 -40l511 753h74l-511 -753h-74zM505 0v50l93 93q48 47 69.5 80t21.5 70q0 71 -78 71q-53 0 -99 -22v55q52 26 115 26q66 0 103 -33t37 -90q0 -49 -26 -88t-87 -96l-62 -57v-1h184v-58h-271z" />
    <glyph glyph-name="threequarters" unicode="&#xbe;" horiz-adv-x="801" 
d="M147 270q-70 0 -116 26v54q53 -21 97 -21q100 0 100 69q0 67 -91 67h-40v55h34q85 0 85 63q0 58 -80 58q-46 0 -89 -15v53q45 21 110 21q60 0 96.5 -27.5t36.5 -76.5q0 -73 -77 -97v-2q92 -18 92 -104q0 -58 -42.5 -90.5t-115.5 -32.5zM123 -43l511 753h74l-511 -753h-74
zM640 0v109h-192v51l200 256h64v-252h75v-55h-75v-109h-72zM520 164h121v152h-3l-118 -149v-3z" />
    <glyph glyph-name="questiondown" unicode="&#xbf;" horiz-adv-x="414" 
d="M230 -132q-88 0 -143 42t-55 128q0 60 21 92.5t83 83.5q50 41 61 58q14 22 14 50v43h83v-49q0 -34 -14.5 -61.5t-30 -42.5t-59.5 -51q-35 -28 -48.5 -53.5t-13.5 -67.5q0 -52 31 -74t92 -22q62 0 137 25v-71q-70 -30 -158 -30zM201 472v101h100v-101h-100z" />
    <glyph glyph-name="Agrave" unicode="&#xc0;" horiz-adv-x="605" 
d="M7 0l252 693h89l250 -693h-95l-70 195h-271l-69 -195h-86zM295 572l-106 -300h216l-107 300h-3zM275 740l-88 125h99l67 -125h-78z" />
    <glyph glyph-name="Aacute" unicode="&#xc1;" horiz-adv-x="605" 
d="M7 0l252 693h89l250 -693h-95l-70 195h-271l-69 -195h-86zM295 572l-106 -300h216l-107 300h-3zM257 740l73 125h99l-94 -125h-78z" />
    <glyph glyph-name="Acircumflex" unicode="&#xc2;" horiz-adv-x="605" 
d="M7 0l252 693h89l250 -693h-95l-70 195h-271l-69 -195h-86zM295 572l-106 -300h216l-107 300h-3zM167 740l99 124h72l99 -124h-69l-67 60l-65 -60h-69z" />
    <glyph glyph-name="Atilde" unicode="&#xc3;" horiz-adv-x="605" 
d="M7 0l252 693h89l250 -693h-95l-70 195h-271l-69 -195h-86zM295 572l-106 -300h216l-107 300h-3zM153 745q6 52 33 78t63 26q23 0 58.5 -15.5t47.5 -15.5q29 0 36 33h60q-6 -52 -33 -78t-63 -26q-23 0 -58.5 15.5t-47.5 15.5q-29 0 -36 -33h-60z" />
    <glyph glyph-name="Adieresis" unicode="&#xc4;" horiz-adv-x="605" 
d="M7 0l252 693h89l250 -693h-95l-70 195h-271l-69 -195h-86zM295 572l-106 -300h216l-107 300h-3zM346 746v89h86v-89h-86zM172 746v89h86v-89h-86z" />
    <glyph glyph-name="Aring" unicode="&#xc5;" horiz-adv-x="605" 
d="M7 0l252 693h89l250 -693h-95l-70 195h-271l-69 -195h-86zM295 572l-106 -300h216l-107 300h-3zM302 729q-41 0 -68.5 27t-27.5 65t27.5 65t68.5 27t68.5 -27t27.5 -65t-27.5 -65t-68.5 -27zM302 772q22 0 35 13.5t13 35.5t-13 35.5t-35 13.5t-35 -13.5t-13 -35.5
t13 -35.5t35 -13.5z" />
    <glyph glyph-name="AE" unicode="&#xc6;" horiz-adv-x="893" 
d="M0 0l375 693h463v-77h-322v-220h248v-77h-248v-242h325v-77h-416v200h-228l-106 -200h-91zM421 622l-183 -345h187v345h-4z" />
    <glyph glyph-name="Ccedilla" unicode="&#xc7;" horiz-adv-x="565" 
d="M342 -12h-17v-36q96 -5 96 -70q0 -45 -39.5 -68.5t-134.5 -30.5v52q102 8 102 41q0 17 -19 24t-62 7v88q-110 21 -170 107t-60 235v24q0 177 88 260.5t230 83.5q100 0 171 -38v-76q-95 36 -177 36q-99 0 -156.5 -61.5t-57.5 -189.5v-38q0 -272 218 -272q89 0 181 44v-77
q-79 -45 -193 -45z" />
    <glyph glyph-name="Egrave" unicode="&#xc8;" horiz-adv-x="547" 
d="M78 0v693h413v-77h-322v-220h248v-77h-248v-242h325v-77h-416zM262 740l-88 125h99l67 -125h-78z" />
    <glyph glyph-name="Eacute" unicode="&#xc9;" horiz-adv-x="547" 
d="M78 0v693h413v-77h-322v-220h248v-77h-248v-242h325v-77h-416zM244 740l73 125h99l-94 -125h-78z" />
    <glyph glyph-name="Ecircumflex" unicode="&#xca;" horiz-adv-x="547" 
d="M78 0v693h413v-77h-322v-220h248v-77h-248v-242h325v-77h-416zM154 740l99 124h72l99 -124h-69l-67 60l-65 -60h-69z" />
    <glyph glyph-name="Edieresis" unicode="&#xcb;" horiz-adv-x="547" 
d="M78 0v693h413v-77h-322v-220h248v-77h-248v-242h325v-77h-416zM333 746v89h86v-89h-86zM159 746v89h86v-89h-86z" />
    <glyph glyph-name="Igrave" unicode="&#xcc;" horiz-adv-x="253" 
d="M81 0v693h91v-693h-91zM99 740l-88 125h99l67 -125h-78z" />
    <glyph glyph-name="Iacute" unicode="&#xcd;" horiz-adv-x="253" 
d="M81 0v693h91v-693h-91zM81 740l73 125h99l-94 -125h-78z" />
    <glyph glyph-name="Icircumflex" unicode="&#xce;" horiz-adv-x="253" 
d="M81 0v693h91v-693h-91zM-9 740l99 124h72l99 -124h-69l-67 60l-65 -60h-69z" />
    <glyph glyph-name="Idieresis" unicode="&#xcf;" horiz-adv-x="253" 
d="M160 746v89h86v-89h-86zM6 746v89h86v-89h-86zM81 0v693h91v-693h-91z" />
    <glyph glyph-name="Eth" unicode="&#xd0;" horiz-adv-x="651" 
d="M7 309v77h71v307h209q159 0 242.5 -82t83.5 -245v-20q0 -166 -80 -256t-244 -90h-211v309h-71zM169 78h122q117 0 170.5 60.5t53.5 193.5v34q0 136 -59 192.5t-177 56.5h-110v-229h196v-77h-196v-231z" />
    <glyph glyph-name="Ntilde" unicode="&#xd1;" horiz-adv-x="667" 
d="M78 0v693h107l318 -539h3v539h83v-693h-94l-331 568h-3v-568h-83zM203 745q6 52 33 78t63 26q23 0 58.5 -15.5t47.5 -15.5q29 0 36 33h60q-6 -52 -33 -78t-63 -26q-23 0 -58.5 15.5t-47.5 15.5q-29 0 -36 -33h-60z" />
    <glyph glyph-name="Ograve" unicode="&#xd2;" horiz-adv-x="687" 
d="M342 -12q-143 0 -223.5 91t-80.5 258v20q0 162 82 255t226 93q142 0 222.5 -91t80.5 -258v-20q0 -162 -81.5 -255t-225.5 -93zM345 63q101 0 153.5 71.5t52.5 186.5v34q0 274 -210 275q-101 0 -153 -71t-52 -186v-34q0 -276 209 -276zM316 740l-88 125h99l67 -125h-78z
" />
    <glyph glyph-name="Oacute" unicode="&#xd3;" horiz-adv-x="687" 
d="M342 -12q-143 0 -223.5 91t-80.5 258v20q0 162 82 255t226 93q142 0 222.5 -91t80.5 -258v-20q0 -162 -81.5 -255t-225.5 -93zM345 63q101 0 153.5 71.5t52.5 186.5v34q0 274 -210 275q-101 0 -153 -71t-52 -186v-34q0 -276 209 -276zM298 740l73 125h99l-94 -125h-78z
" />
    <glyph glyph-name="Ocircumflex" unicode="&#xd4;" horiz-adv-x="687" 
d="M342 -12q-143 0 -223.5 91t-80.5 258v20q0 162 82 255t226 93q142 0 222.5 -91t80.5 -258v-20q0 -162 -81.5 -255t-225.5 -93zM345 63q101 0 153.5 71.5t52.5 186.5v34q0 274 -210 275q-101 0 -153 -71t-52 -186v-34q0 -276 209 -276zM208 740l99 124h72l99 -124h-69
l-67 60l-65 -60h-69z" />
    <glyph glyph-name="Otilde" unicode="&#xd5;" horiz-adv-x="687" 
d="M342 -12q-143 0 -223.5 91t-80.5 258v20q0 162 82 255t226 93q142 0 222.5 -91t80.5 -258v-20q0 -162 -81.5 -255t-225.5 -93zM345 63q101 0 153.5 71.5t52.5 186.5v34q0 274 -210 275q-101 0 -153 -71t-52 -186v-34q0 -276 209 -276zM194 745q6 52 33 78t63 26
q23 0 58.5 -15.5t47.5 -15.5q29 0 36 33h60q-6 -52 -33 -78t-63 -26q-23 0 -58.5 15.5t-47.5 15.5q-29 0 -36 -33h-60z" />
    <glyph glyph-name="Odieresis" unicode="&#xd6;" horiz-adv-x="687" 
d="M342 -12q-143 0 -223.5 91t-80.5 258v20q0 162 82 255t226 93q142 0 222.5 -91t80.5 -258v-20q0 -162 -81.5 -255t-225.5 -93zM345 63q101 0 153.5 71.5t52.5 186.5v34q0 274 -210 275q-101 0 -153 -71t-52 -186v-34q0 -276 209 -276zM387 746v89h86v-89h-86zM213 746v89
h86v-89h-86z" />
    <glyph glyph-name="multiply" unicode="&#xd7;" horiz-adv-x="549" 
d="M126 124l-53 53l146 146l-146 146l53 53l146 -146l146 146l53 -53l-146 -146l146 -146l-53 -53l-146 146z" />
    <glyph glyph-name="Oslash" unicode="&#xd8;" horiz-adv-x="687" 
d="M342 -12q-123 0 -200 68l-46 -56h-88l89 108q-59 88 -59 229v20q0 162 82 255t226 93q115 0 192 -63l42 51h87l-83 -101q65 -90 65 -236v-20q0 -162 -81.5 -255t-225.5 -93zM345 63q101 0 153.5 71.5t52.5 186.5v34q0 101 -28 163l-328 -398q52 -57 150 -57zM136 339
q0 -98 23 -156l325 394q-52 52 -143 53q-101 1 -153 -70.5t-52 -186.5v-34z" />
    <glyph glyph-name="Ugrave" unicode="&#xd9;" horiz-adv-x="655" 
d="M331 -13q-126 0 -192 63.5t-66 190.5v452h91v-446q0 -105 42 -146.5t129 -41.5q86 0 124.5 41t38.5 148v445h84v-449q0 -133 -62 -195t-189 -62zM304 740l-88 125h99l67 -125h-78z" />
    <glyph glyph-name="Uacute" unicode="&#xda;" horiz-adv-x="655" 
d="M331 -13q-126 0 -192 63.5t-66 190.5v452h91v-446q0 -105 42 -146.5t129 -41.5q86 0 124.5 41t38.5 148v445h84v-449q0 -133 -62 -195t-189 -62zM286 740l73 125h99l-94 -125h-78z" />
    <glyph glyph-name="Ucircumflex" unicode="&#xdb;" horiz-adv-x="655" 
d="M331 -13q-126 0 -192 63.5t-66 190.5v452h91v-446q0 -105 42 -146.5t129 -41.5q86 0 124.5 41t38.5 148v445h84v-449q0 -133 -62 -195t-189 -62zM196 740l99 124h72l99 -124h-69l-67 60l-65 -60h-69z" />
    <glyph glyph-name="Udieresis" unicode="&#xdc;" horiz-adv-x="655" 
d="M331 -13q-126 0 -192 63.5t-66 190.5v452h91v-446q0 -105 42 -146.5t129 -41.5q86 0 124.5 41t38.5 148v445h84v-449q0 -133 -62 -195t-189 -62zM375 746v89h86v-89h-86zM201 746v89h86v-89h-86z" />
    <glyph glyph-name="Yacute" unicode="&#xdd;" horiz-adv-x="554" 
d="M232 0v268l-226 425h97l178 -339h3l175 339h89l-225 -425v-268h-91zM237 740l73 125h99l-94 -125h-78z" />
    <glyph glyph-name="Thorn" unicode="&#xde;" horiz-adv-x="554" 
d="M78 0v693h91v-121h130q114 0 172.5 -51.5t58.5 -147.5q0 -100 -60.5 -154t-161.5 -54h-139v-165h-91zM169 241h119q77 0 112 30t35 95q0 70 -33.5 99.5t-111.5 29.5h-121v-254z" />
    <glyph glyph-name="germandbls" unicode="&#xdf;" horiz-adv-x="556" 
d="M359 -10q-75 0 -130 26v71q64 -23 119 -23q46 0 71 18t25 48q0 24 -14.5 41.5t-48.5 36.5l-45 25q-51 29 -73 57.5t-22 75.5q0 34 22.5 67.5t49 56.5t49 52t22.5 55q0 38 -27.5 58.5t-77.5 20.5q-59 0 -93.5 -35t-34.5 -103v-538h-88v546q0 99 64 150.5t152 51.5
q91 0 141 -37.5t50 -107.5q0 -39 -23 -75.5t-50 -59t-50 -48t-23 -44.5q0 -24 13 -39.5t43 -32.5l52 -29q51 -29 75 -60.5t24 -78.5q0 -70 -46.5 -108t-125.5 -38z" />
    <glyph glyph-name="agrave" unicode="&#xe0;" horiz-adv-x="469" 
d="M189 -10q-72 0 -115.5 37t-43.5 109q0 130 155 149l136 17v48q0 57 -27.5 77t-98.5 20q-56 0 -122 -15v63q72 28 157 28q179 0 179 -151v-372h-71l-9 43h-6q-46 -53 -134 -53zM212 58q70 0 109 35v142l-113 -12q-45 -5 -66 -24.5t-21 -60.5q0 -39 24.5 -59.5t66.5 -20.5z
M196 587l-107 145h99l86 -145h-78z" />
    <glyph glyph-name="aacute" unicode="&#xe1;" horiz-adv-x="469" 
d="M189 -10q-72 0 -115.5 37t-43.5 109q0 130 155 149l136 17v48q0 57 -27.5 77t-98.5 20q-56 0 -122 -15v63q72 28 157 28q179 0 179 -151v-372h-71l-9 43h-6q-46 -53 -134 -53zM212 58q70 0 109 35v142l-113 -12q-45 -5 -66 -24.5t-21 -60.5q0 -39 24.5 -59.5t66.5 -20.5z
M183 587l86 145h99l-107 -145h-78z" />
    <glyph glyph-name="acircumflex" unicode="&#xe2;" horiz-adv-x="469" 
d="M189 -10q-72 0 -115.5 37t-43.5 109q0 130 155 149l136 17v48q0 57 -27.5 77t-98.5 20q-56 0 -122 -15v63q72 28 157 28q179 0 179 -151v-372h-71l-9 43h-6q-46 -53 -134 -53zM212 58q70 0 109 35v142l-113 -12q-45 -5 -66 -24.5t-21 -60.5q0 -39 24.5 -59.5t66.5 -20.5z
M96 587l102 144h76l102 -144h-70l-71 78l-69 -78h-70z" />
    <glyph glyph-name="atilde" unicode="&#xe3;" horiz-adv-x="469" 
d="M189 -10q-72 0 -115.5 37t-43.5 109q0 130 155 149l136 17v48q0 57 -27.5 77t-98.5 20q-56 0 -122 -15v63q72 28 157 28q179 0 179 -151v-372h-71l-9 43h-6q-46 -53 -134 -53zM212 58q70 0 109 35v142l-113 -12q-45 -5 -66 -24.5t-21 -60.5q0 -39 24.5 -59.5t66.5 -20.5z
M87 604q6 53 33.5 80.5t62.5 27.5q23 0 58.5 -17.5t47.5 -17.5q29 0 36 37h60q-6 -53 -33.5 -80.5t-62.5 -27.5q-23 0 -58.5 17.5t-47.5 17.5q-29 0 -36 -37h-60z" />
    <glyph glyph-name="adieresis" unicode="&#xe4;" horiz-adv-x="469" 
d="M189 -10q-72 0 -115.5 37t-43.5 109q0 130 155 149l136 17v48q0 57 -27.5 77t-98.5 20q-56 0 -122 -15v63q72 28 157 28q179 0 179 -151v-372h-71l-9 43h-6q-46 -53 -134 -53zM212 58q70 0 109 35v142l-113 -12q-45 -5 -66 -24.5t-21 -60.5q0 -39 24.5 -59.5t66.5 -20.5z
M279 615v89h86v-89h-86zM109 615v89h86v-89h-86z" />
    <glyph glyph-name="aring" unicode="&#xe5;" horiz-adv-x="469" 
d="M189 -10q-72 0 -115.5 37t-43.5 109q0 130 155 149l136 17v48q0 57 -27.5 77t-98.5 20q-56 0 -122 -15v63q72 28 157 28q179 0 179 -151v-372h-71l-9 43h-6q-46 -53 -134 -53zM212 58q70 0 109 35v142l-113 -12q-45 -5 -66 -24.5t-21 -60.5q0 -39 24.5 -59.5t66.5 -20.5z
M230 576q-41 0 -68.5 27t-27.5 65t27.5 65t68.5 27t68.5 -27t27.5 -65t-27.5 -65t-68.5 -27zM230 619q22 0 35 13.5t13 35.5t-13 35.5t-35 13.5t-35 -13.5t-13 -35.5t13 -35.5t35 -13.5z" />
    <glyph glyph-name="ae" unicode="&#xe6;" horiz-adv-x="786" 
d="M189 -10q-72 0 -115.5 37t-43.5 109q0 129 155 148l136 17v49q0 57 -27.5 77t-98.5 20q-56 0 -122 -15v63q72 28 157 28q121 0 154 -79q58 79 163 79q208 0 208 -242v-46h-343q4 -91 46 -130t122 -39q84 0 160 39v-65q-67 -50 -174 -50q-131 0 -193 82q-77 -82 -184 -82z
M345 119q-22 51 -24 119l-113 -14q-45 -5 -66 -25t-21 -61q0 -39 24.5 -59.5t66.5 -20.5q74 0 133 61zM543 452q-50 0 -87.5 -34.5t-42.5 -114.5h249q0 79 -29.5 114t-89.5 35z" />
    <glyph glyph-name="ccedilla" unicode="&#xe7;" horiz-adv-x="443" 
d="M270 -10h-14v-38q96 -5 96 -70q0 -45 -39.5 -68.5t-134.5 -30.5v52q102 8 102 41q0 17 -19 24t-62 7v91q-80 18 -124 80t-44 167v17q0 129 68 195t176 66q85 0 140 -34v-73q-29 12 -44.5 17.5t-42.5 10t-59 4.5q-69 0 -108 -45t-39 -128v-27q0 -95 39.5 -139t118.5 -44
q69 0 141 36v-70q-63 -41 -151 -41z" />
    <glyph glyph-name="egrave" unicode="&#xe8;" horiz-adv-x="496" 
d="M276 -10q-119 0 -182 68.5t-63 190.5v15q0 127 65 193t161 66q208 0 208 -242v-50h-343q4 -88 46 -126.5t122 -38.5q84 0 160 39v-65q-67 -50 -174 -50zM253 452q-23 0 -43.5 -7t-40 -23t-32 -47t-15.5 -73h250q0 79 -29.5 114.5t-89.5 35.5zM223 587l-107 145h99
l86 -145h-78z" />
    <glyph glyph-name="eacute" unicode="&#xe9;" horiz-adv-x="496" 
d="M276 -10q-119 0 -182 68.5t-63 190.5v15q0 127 65 193t161 66q208 0 208 -242v-50h-343q4 -88 46 -126.5t122 -38.5q84 0 160 39v-65q-67 -50 -174 -50zM253 452q-23 0 -43.5 -7t-40 -23t-32 -47t-15.5 -73h250q0 79 -29.5 114.5t-89.5 35.5zM210 587l86 145h99
l-107 -145h-78z" />
    <glyph glyph-name="ecircumflex" unicode="&#xea;" horiz-adv-x="496" 
d="M276 -10q-119 0 -182 68.5t-63 190.5v15q0 127 65 193t161 66q208 0 208 -242v-50h-343q4 -88 46 -126.5t122 -38.5q84 0 160 39v-65q-67 -50 -174 -50zM253 452q-23 0 -43.5 -7t-40 -23t-32 -47t-15.5 -73h250q0 79 -29.5 114.5t-89.5 35.5zM117 587l102 144h76
l102 -144h-70l-71 78l-69 -78h-70z" />
    <glyph glyph-name="edieresis" unicode="&#xeb;" horiz-adv-x="496" 
d="M276 -10q-119 0 -182 68.5t-63 190.5v15q0 127 65 193t161 66q208 0 208 -242v-50h-343q4 -88 46 -126.5t122 -38.5q84 0 160 39v-65q-67 -50 -174 -50zM253 452q-23 0 -43.5 -7t-40 -23t-32 -47t-15.5 -73h250q0 79 -29.5 114.5t-89.5 35.5zM299 615v89h86v-89h-86z
M129 615v89h86v-89h-86z" />
    <glyph glyph-name="igrave" unicode="&#xec;" horiz-adv-x="220" 
d="M66 0v513h88v-513h-88zM76 587l-107 145h99l86 -145h-78z" />
    <glyph glyph-name="iacute" unicode="&#xed;" horiz-adv-x="220" 
d="M66 0v513h88v-513h-88zM63 587l86 145h99l-107 -145h-78z" />
    <glyph glyph-name="icircumflex" unicode="&#xee;" horiz-adv-x="220" 
d="M66 0v513h88v-513h-88zM-18 587l90 144h76l90 -144h-71l-58 77l-56 -77h-71z" />
    <glyph glyph-name="idieresis" unicode="&#xef;" horiz-adv-x="220" 
d="M142 615v89h86v-89h-86zM-8 615v89h86v-89h-86zM66 0v513h88v-513h-88z" />
    <glyph glyph-name="eth" unicode="&#xf0;" horiz-adv-x="532" 
d="M114 606l113 47q-38 34 -110 86h116q44 -27 75 -53l95 40l21 -52l-70 -29q144 -148 144 -350v-29q0 -134 -63 -205t-172 -71q-111 0 -171.5 67.5t-60.5 188.5v17q0 120 63 190t169 70q46 0 87 -22h7q-32 57 -85 110l-137 -57zM407 287q0 70 -17 130q-50 33 -119 33
q-72 0 -110.5 -46t-38.5 -132v-28q0 -182 143 -182q142 0 142 200v25z" />
    <glyph glyph-name="ntilde" unicode="&#xf1;" horiz-adv-x="534" 
d="M63 0v513h84v-44h5q77 54 173 54q76 0 112.5 -33.5t36.5 -107.5v-382h-88v363q0 46 -20.5 65t-79.5 19q-61 0 -135 -34v-413h-88zM121 604q6 53 33.5 80.5t62.5 27.5q23 0 58.5 -17.5t47.5 -17.5q29 0 36 37h60q-6 -53 -33.5 -80.5t-62.5 -27.5q-23 0 -58.5 17.5
t-47.5 17.5q-29 0 -36 -37h-60z" />
    <glyph glyph-name="ograve" unicode="&#xf2;" horiz-adv-x="531" 
d="M265 -10q-111 0 -172.5 67.5t-61.5 188.5v17q0 120 64 190t171 70q110 0 172 -68t62 -189v-16q0 -120 -64 -190t-171 -70zM267 62q67 0 104.5 46t37.5 132v28q0 183 -145 183q-68 0 -105 -47t-37 -132v-28q0 -182 145 -182zM231 587l-107 145h99l86 -145h-78z" />
    <glyph glyph-name="oacute" unicode="&#xf3;" horiz-adv-x="531" 
d="M265 -10q-111 0 -172.5 67.5t-61.5 188.5v17q0 120 64 190t171 70q110 0 172 -68t62 -189v-16q0 -120 -64 -190t-171 -70zM267 62q67 0 104.5 46t37.5 132v28q0 183 -145 183q-68 0 -105 -47t-37 -132v-28q0 -182 145 -182zM218 587l86 145h99l-107 -145h-78z" />
    <glyph glyph-name="ocircumflex" unicode="&#xf4;" horiz-adv-x="531" 
d="M265 -10q-111 0 -172.5 67.5t-61.5 188.5v17q0 120 64 190t171 70q110 0 172 -68t62 -189v-16q0 -120 -64 -190t-171 -70zM267 62q67 0 104.5 46t37.5 132v28q0 183 -145 183q-68 0 -105 -47t-37 -132v-28q0 -182 145 -182zM125 587l102 144h76l102 -144h-70l-71 78
l-69 -78h-70z" />
    <glyph glyph-name="otilde" unicode="&#xf5;" horiz-adv-x="531" 
d="M265 -10q-111 0 -172.5 67.5t-61.5 188.5v17q0 120 64 190t171 70q110 0 172 -68t62 -189v-16q0 -120 -64 -190t-171 -70zM267 62q67 0 104.5 46t37.5 132v28q0 183 -145 183q-68 0 -105 -47t-37 -132v-28q0 -182 145 -182zM116 604q6 53 33.5 80.5t62.5 27.5
q23 0 58.5 -17.5t47.5 -17.5q29 0 36 37h60q-6 -53 -33.5 -80.5t-62.5 -27.5q-23 0 -58.5 17.5t-47.5 17.5q-29 0 -36 -37h-60z" />
    <glyph glyph-name="odieresis" unicode="&#xf6;" horiz-adv-x="531" 
d="M265 -10q-111 0 -172.5 67.5t-61.5 188.5v17q0 120 64 190t171 70q110 0 172 -68t62 -189v-16q0 -120 -64 -190t-171 -70zM267 62q67 0 104.5 46t37.5 132v28q0 183 -145 183q-68 0 -105 -47t-37 -132v-28q0 -182 145 -182zM307 615v89h86v-89h-86zM137 615v89h86v-89
h-86z" />
    <glyph glyph-name="divide" unicode="&#xf7;" horiz-adv-x="516" 
d="M49 295v77h418v-77h-418zM208 127v101h100v-101h-100zM208 439v101h100v-101h-100z" />
    <glyph glyph-name="oslash" unicode="&#xf8;" horiz-adv-x="531" 
d="M265 -10q-95 0 -153 49l-34 -39h-79l73 84q-41 62 -41 162v17q0 120 64 190t171 70q88 0 147 -45l31 35h79l-69 -79q46 -66 46 -168v-16q0 -120 -64 -190t-171 -70zM267 61q67 0 104.5 46.5t37.5 132.5v28q0 58 -14 98l-233 -269q35 -36 105 -36zM122 244q0 -55 10 -91
l230 266q-36 33 -98 33q-67 0 -104.5 -47t-37.5 -133v-28z" />
    <glyph glyph-name="ugrave" unicode="&#xf9;" horiz-adv-x="527" 
d="M217 -10q-76 0 -116.5 38.5t-40.5 112.5v372h88v-358q0 -49 20.5 -69t74.5 -20q61 0 133 37v410h88v-513h-75l-9 44h-5q-77 -54 -158 -54zM230 587l-107 145h99l86 -145h-78z" />
    <glyph glyph-name="uacute" unicode="&#xfa;" horiz-adv-x="527" 
d="M217 -10q-76 0 -116.5 38.5t-40.5 112.5v372h88v-358q0 -49 20.5 -69t74.5 -20q61 0 133 37v410h88v-513h-75l-9 44h-5q-77 -54 -158 -54zM217 587l86 145h99l-107 -145h-78z" />
    <glyph glyph-name="ucircumflex" unicode="&#xfb;" horiz-adv-x="527" 
d="M217 -10q-76 0 -116.5 38.5t-40.5 112.5v372h88v-358q0 -49 20.5 -69t74.5 -20q61 0 133 37v410h88v-513h-75l-9 44h-5q-77 -54 -158 -54zM124 587l102 144h76l102 -144h-70l-71 78l-69 -78h-70z" />
    <glyph glyph-name="udieresis" unicode="&#xfc;" horiz-adv-x="527" 
d="M217 -10q-76 0 -116.5 38.5t-40.5 112.5v372h88v-358q0 -49 20.5 -69t74.5 -20q61 0 133 37v410h88v-513h-75l-9 44h-5q-77 -54 -158 -54zM306 615v89h86v-89h-86zM136 615v89h86v-89h-86z" />
    <glyph glyph-name="yacute" unicode="&#xfd;" horiz-adv-x="479" 
d="M96 -199q-38 0 -66 15v62q26 -4 50 -4q71 0 102 77l23 59l-197 503h95l145 -387h3l133 387h87l-208 -574q-27 -74 -64.5 -106t-102.5 -32zM203 587l86 145h99l-107 -145h-78z" />
    <glyph glyph-name="thorn" unicode="&#xfe;" horiz-adv-x="544" 
d="M63 -195v934h88v-263h5q56 47 144 47q93 0 151.5 -60t58.5 -192v-14q0 -136 -60.5 -201.5t-170.5 -65.5q-72 0 -128 33v-218h-88zM271 62q73 0 110.5 43t37.5 140v22q0 100 -35 140t-108 40q-78 0 -125 -34v-316q43 -35 120 -35z" />
    <glyph glyph-name="ydieresis" unicode="&#xff;" horiz-adv-x="479" 
d="M96 -199q-38 0 -66 15v62q26 -4 50 -4q71 0 102 77l23 59l-197 503h95l145 -387h3l133 387h87l-208 -574q-27 -74 -64.5 -106t-102.5 -32zM292 615v89h86v-89h-86zM122 615v89h86v-89h-86z" />
    <glyph glyph-name="Amacron" unicode="&#x100;" horiz-adv-x="605" 
d="M7 0l252 693h89l250 -693h-95l-70 195h-271l-69 -195h-86zM295 572l-106 -300h216l-107 300h-3zM183 748v73h238v-73h-238z" />
    <glyph glyph-name="amacron" unicode="&#x101;" horiz-adv-x="469" 
d="M189 -10q-72 0 -115.5 37t-43.5 109q0 130 155 149l136 17v48q0 57 -27.5 77t-98.5 20q-56 0 -122 -15v63q72 28 157 28q179 0 179 -151v-372h-71l-9 43h-6q-46 -53 -134 -53zM212 58q70 0 109 35v142l-113 -12q-45 -5 -66 -24.5t-21 -60.5q0 -39 24.5 -59.5t66.5 -20.5z
M115 620v73h238v-73h-238z" />
    <glyph glyph-name="Abreve" unicode="&#x102;" horiz-adv-x="605" 
d="M7 0l252 693h89l250 -693h-95l-70 195h-271l-69 -195h-86zM295 572l-106 -300h216l-107 300h-3zM302 738q-57 0 -93 35t-39 91h67q10 -60 65 -60t65 60h67q-2 -56 -38.5 -91t-93.5 -35z" />
    <glyph glyph-name="abreve" unicode="&#x103;" horiz-adv-x="469" 
d="M189 -10q-72 0 -115.5 37t-43.5 109q0 130 155 149l136 17v48q0 57 -27.5 77t-98.5 20q-56 0 -122 -15v63q72 28 157 28q179 0 179 -151v-372h-71l-9 43h-6q-46 -53 -134 -53zM212 58q70 0 109 35v142l-113 -12q-45 -5 -66 -24.5t-21 -60.5q0 -39 24.5 -59.5t66.5 -20.5z
M236 593q-57 0 -93 35t-39 91h67q10 -60 65 -60t65 60h67q-2 -56 -38.5 -91t-93.5 -35z" />
    <glyph glyph-name="Aogonek" unicode="&#x104;" horiz-adv-x="605" 
d="M544 -200q-51 0 -79 23t-28 62q0 33 20.5 64.5t45.5 50.5l-70 195h-271l-69 -195h-86l252 693h89l249 -690q-82 -58 -82 -107q0 -36 52 -36q19 0 33 4v-54q-28 -10 -56 -10zM295 572l-106 -300h216l-107 300h-3z" />
    <glyph glyph-name="aogonek" unicode="&#x105;" horiz-adv-x="469" 
d="M362 -200q-51 0 -79 23t-28 62q0 37 25 67.5t58 49.5l-9 41h-6q-46 -53 -134 -53q-72 0 -115.5 37t-43.5 109q0 130 155 149l136 17v48q0 57 -27.5 77t-98.5 20q-56 0 -122 -15v63q72 28 157 28q179 0 179 -151v-372q-76 -60 -76 -104q0 -36 52 -36q19 0 33 4v-54
q-28 -10 -56 -10zM212 58q70 0 109 35v142l-113 -12q-45 -5 -66 -24.5t-21 -60.5q0 -39 24.5 -59.5t66.5 -20.5z" />
    <glyph glyph-name="Cacute" unicode="&#x106;" horiz-adv-x="565" 
d="M342 -12q-143 0 -223.5 88.5t-80.5 260.5v24q0 177 88 260.5t230 83.5q100 0 171 -38v-76q-95 36 -177 36q-99 0 -156.5 -61.5t-57.5 -189.5v-38q0 -272 218 -272q89 0 181 44v-77q-79 -45 -193 -45zM289 740l73 125h99l-94 -125h-78z" />
    <glyph glyph-name="cacute" unicode="&#x107;" horiz-adv-x="443" 
d="M270 -10q-112 0 -175.5 64.5t-63.5 190.5v17q0 129 68 195t176 66q85 0 140 -34v-73q-29 12 -44.5 17.5t-42.5 10t-59 4.5q-69 0 -108 -45t-39 -128v-27q0 -95 39.5 -139t118.5 -44q69 0 141 36v-70q-63 -41 -151 -41zM211 587l86 145h99l-107 -145h-78z" />
    <glyph glyph-name="Ccircumflex" unicode="&#x108;" horiz-adv-x="565" 
d="M342 -12q-143 0 -223.5 88.5t-80.5 260.5v24q0 177 88 260.5t230 83.5q100 0 171 -38v-76q-95 36 -177 36q-99 0 -156.5 -61.5t-57.5 -189.5v-38q0 -272 218 -272q89 0 181 44v-77q-79 -45 -193 -45zM199 740l99 124h72l99 -124h-69l-67 60l-65 -60h-69z" />
    <glyph glyph-name="ccircumflex" unicode="&#x109;" horiz-adv-x="443" 
d="M270 -10q-112 0 -175.5 64.5t-63.5 190.5v17q0 129 68 195t176 66q85 0 140 -34v-73q-29 12 -44.5 17.5t-42.5 10t-59 4.5q-69 0 -108 -45t-39 -128v-27q0 -95 39.5 -139t118.5 -44q69 0 141 36v-70q-63 -41 -151 -41zM118 587l102 144h76l102 -144h-70l-71 78l-69 -78
h-70z" />
    <glyph glyph-name="Cdotaccent" unicode="&#x10a;" horiz-adv-x="565" 
d="M342 -12q-143 0 -223.5 88.5t-80.5 260.5v24q0 177 88 260.5t230 83.5q100 0 171 -38v-76q-95 36 -177 36q-99 0 -156.5 -61.5t-57.5 -189.5v-38q0 -272 218 -272q89 0 181 44v-77q-79 -45 -193 -45zM289 746v91h90v-91h-90z" />
    <glyph glyph-name="cdotaccent" unicode="&#x10b;" horiz-adv-x="443" 
d="M270 -10q-112 0 -175.5 64.5t-63.5 190.5v17q0 129 68 195t176 66q85 0 140 -34v-73q-29 12 -44.5 17.5t-42.5 10t-59 4.5q-69 0 -108 -45t-39 -128v-27q0 -95 39.5 -139t118.5 -44q69 0 141 36v-70q-63 -41 -151 -41zM213 615v91h90v-91h-90z" />
    <glyph glyph-name="Ccaron" unicode="&#x10c;" horiz-adv-x="565" 
d="M342 -12q-143 0 -223.5 88.5t-80.5 260.5v24q0 177 88 260.5t230 83.5q100 0 171 -38v-76q-95 36 -177 36q-99 0 -156.5 -61.5t-57.5 -189.5v-38q0 -272 218 -272q89 0 181 44v-77q-79 -45 -193 -45zM469 864l-99 -124h-72l-99 124h69l67 -60l65 60h69z" />
    <glyph glyph-name="ccaron" unicode="&#x10d;" horiz-adv-x="443" 
d="M270 -10q-112 0 -175.5 64.5t-63.5 190.5v17q0 129 68 195t176 66q85 0 140 -34v-73q-29 12 -44.5 17.5t-42.5 10t-59 4.5q-69 0 -108 -45t-39 -128v-27q0 -95 39.5 -139t118.5 -44q69 0 141 36v-70q-63 -41 -151 -41zM220 587l-102 144h70l71 -78l69 78h70l-102 -144
h-76z" />
    <glyph glyph-name="Dcaron" unicode="&#x10e;" horiz-adv-x="651" 
d="M78 0v693h209q159 0 242.5 -82t83.5 -245v-20q0 -166 -80 -256t-244 -90h-211zM169 78h122q117 0 170.5 60.5t53.5 193.5v34q0 136 -59 192.5t-177 56.5h-110v-537zM445 864l-99 -124h-72l-99 124h69l67 -60l65 60h69z" />
    <glyph glyph-name="dcaron" unicode="&#x10f;" horiz-adv-x="544" 
d="M246 -10q-40 0 -75.5 13t-67 40.5t-50.5 78t-19 118.5v14q0 135 62 202t166 67q77 0 131 -32v248h88v-739h-74l-9 41h-5q-51 -51 -147 -51zM274 62q69 0 119 41v314q-38 31 -120 31q-73 0 -110.5 -42.5t-37.5 -139.5v-22q0 -99 38.5 -140.5t110.5 -41.5zM590 576h-63
l10 163h86z" />
    <glyph glyph-name="Dcroat" unicode="&#x110;" horiz-adv-x="651" 
d="M7 309v77h71v307h209q159 0 242.5 -82t83.5 -245v-20q0 -166 -80 -256t-244 -90h-211v309h-71zM169 78h122q117 0 170.5 60.5t53.5 193.5v34q0 136 -59 192.5t-177 56.5h-110v-229h196v-77h-196v-231z" />
    <glyph glyph-name="dcroat" unicode="&#x111;" horiz-adv-x="544" 
d="M247 588v61h146v90h88v-90h64v-61h-64v-588h-74l-9 41h-5q-51 -51 -147 -51q-40 0 -75.5 13t-67 40.5t-50.5 78t-19 118.5v14q0 135 62 202t166 67q77 0 131 -32v97h-146zM274 62q69 0 119 41v314q-38 31 -120 31q-73 0 -110.5 -42.5t-37.5 -139.5v-22q0 -99 38.5 -140.5
t110.5 -41.5z" />
    <glyph glyph-name="Emacron" unicode="&#x112;" horiz-adv-x="547" 
d="M78 0v693h413v-77h-322v-220h248v-77h-248v-242h325v-77h-416zM170 748v73h238v-73h-238z" />
    <glyph glyph-name="emacron" unicode="&#x113;" horiz-adv-x="496" 
d="M276 -10q-119 0 -182 68.5t-63 190.5v15q0 127 65 193t161 66q208 0 208 -242v-50h-343q4 -88 46 -126.5t122 -38.5q84 0 160 39v-65q-67 -50 -174 -50zM253 452q-23 0 -43.5 -7t-40 -23t-32 -47t-15.5 -73h250q0 79 -29.5 114.5t-89.5 35.5zM138 620v73h238v-73h-238z
" />
    <glyph glyph-name="Ebreve" unicode="&#x114;" horiz-adv-x="547" 
d="M78 0v693h413v-77h-322v-220h248v-77h-248v-242h325v-77h-416zM289 738q-57 0 -93 35t-39 91h67q10 -60 65 -60t65 60h67q-2 -56 -38.5 -91t-93.5 -35z" />
    <glyph glyph-name="ebreve" unicode="&#x115;" horiz-adv-x="496" 
d="M276 -10q-119 0 -182 68.5t-63 190.5v15q0 127 65 193t161 66q208 0 208 -242v-50h-343q4 -88 46 -126.5t122 -38.5q84 0 160 39v-65q-67 -50 -174 -50zM253 452q-23 0 -43.5 -7t-40 -23t-32 -47t-15.5 -73h250q0 79 -29.5 114.5t-89.5 35.5zM257 593q-57 0 -93 35
t-39 91h67q10 -60 65 -60t65 60h67q-2 -56 -38.5 -91t-93.5 -35z" />
    <glyph glyph-name="Edotaccent" unicode="&#x116;" horiz-adv-x="547" 
d="M78 0v693h413v-77h-322v-220h248v-77h-248v-242h325v-77h-416zM248 746v91h90v-91h-90z" />
    <glyph glyph-name="edotaccent" unicode="&#x117;" horiz-adv-x="496" 
d="M276 -10q-119 0 -182 68.5t-63 190.5v15q0 127 65 193t161 66q208 0 208 -242v-50h-343q4 -88 46 -126.5t122 -38.5q84 0 160 39v-65q-67 -50 -174 -50zM253 452q-23 0 -43.5 -7t-40 -23t-32 -47t-15.5 -73h250q0 79 -29.5 114.5t-89.5 35.5zM212 615v91h90v-91h-90z" />
    <glyph glyph-name="Eogonek" unicode="&#x118;" horiz-adv-x="547" 
d="M78 0v693h413v-77h-322v-220h248v-77h-248v-242h325v-77h-52q-76 -60 -76 -104q0 -36 52 -36q19 0 33 4v-54q-28 -10 -56 -10q-51 0 -79 23t-28 62q0 65 78 115h-288z" />
    <glyph glyph-name="eogonek" unicode="&#x119;" horiz-adv-x="496" 
d="M291 -10h-15q-119 0 -182 68.5t-63 190.5v15q0 127 65 193t161 66q208 0 208 -242v-50h-343q4 -88 46 -126.5t122 -38.5q84 0 160 39v-65q-10 -8 -37.5 -23.5t-41.5 -24.5q-71 -49 -71 -96q0 -36 52 -36q19 0 33 4v-54q-28 -10 -56 -10q-51 0 -79 23t-28 62q0 61 69 105z
M253 452q-23 0 -43.5 -7t-40 -23t-32 -47t-15.5 -73h250q0 79 -29.5 114.5t-89.5 35.5z" />
    <glyph glyph-name="Ecaron" unicode="&#x11a;" horiz-adv-x="547" 
d="M78 0v693h413v-77h-322v-220h248v-77h-248v-242h325v-77h-416zM428 864l-99 -124h-72l-99 124h69l67 -60l65 60h69z" />
    <glyph glyph-name="ecaron" unicode="&#x11b;" horiz-adv-x="496" 
d="M276 -10q-119 0 -182 68.5t-63 190.5v15q0 127 65 193t161 66q208 0 208 -242v-50h-343q4 -88 46 -126.5t122 -38.5q84 0 160 39v-65q-67 -50 -174 -50zM253 452q-23 0 -43.5 -7t-40 -23t-32 -47t-15.5 -73h250q0 79 -29.5 114.5t-89.5 35.5zM219 587l-102 144h70l71 -78
l69 78h70l-102 -144h-76z" />
    <glyph glyph-name="Gcircumflex" unicode="&#x11c;" horiz-adv-x="633" 
d="M360 -12q-152 0 -237 84.5t-85 258.5v20q0 96 26.5 166.5t74 110.5t104.5 58.5t125 18.5q104 0 182 -42v-78q-93 42 -189 42q-61 0 -106.5 -21.5t-70.5 -59t-36.5 -82.5t-11.5 -99v-32q0 -61 10 -107t34.5 -84t70 -57.5t112.5 -19.5q71 0 123 19v180h-144v76h235v-312
q-101 -40 -217 -40zM209 740l99 124h72l99 -124h-69l-67 60l-65 -60h-69z" />
    <glyph glyph-name="gcircumflex" unicode="&#x11d;" horiz-adv-x="503" 
d="M244 -199q-114 0 -173 34.5t-59 95.5q0 39 26.5 67t69.5 43v5q-52 19 -52 71q0 56 59 99q-64 43 -64 128v10q0 79 54 124t142 45q39 0 74 -9h175v-67h-87q32 -35 32 -89v-10q0 -80 -55 -122.5t-140 -42.5q-47 0 -86 12q-21 -19 -21 -43q0 -44 48 -44h141q163 0 163 -135
q0 -76 -61.5 -124t-185.5 -48zM242 -127q157 0 157 86q0 35 -19 50t-68 15h-145q-62 -21 -62 -80q0 -71 137 -71zM246 250q107 0 107 94v15q0 97 -107 97q-51 0 -79 -25t-28 -70v-15q0 -48 28.5 -72t78.5 -24zM120 587l102 144h76l102 -144h-70l-71 78l-69 -78h-70z" />
    <glyph glyph-name="Gbreve" unicode="&#x11e;" horiz-adv-x="633" 
d="M360 -12q-152 0 -237 84.5t-85 258.5v20q0 96 26.5 166.5t74 110.5t104.5 58.5t125 18.5q104 0 182 -42v-78q-93 42 -189 42q-61 0 -106.5 -21.5t-70.5 -59t-36.5 -82.5t-11.5 -99v-32q0 -61 10 -107t34.5 -84t70 -57.5t112.5 -19.5q71 0 123 19v180h-144v76h235v-312
q-101 -40 -217 -40zM344 738q-57 0 -93 35t-39 91h67q10 -60 65 -60t65 60h67q-2 -56 -38.5 -91t-93.5 -35z" />
    <glyph glyph-name="gbreve" unicode="&#x11f;" horiz-adv-x="503" 
d="M244 -199q-114 0 -173 34.5t-59 95.5q0 39 26.5 67t69.5 43v5q-52 19 -52 71q0 56 59 99q-64 43 -64 128v10q0 79 54 124t142 45q39 0 74 -9h175v-67h-87q32 -35 32 -89v-10q0 -80 -55 -122.5t-140 -42.5q-47 0 -86 12q-21 -19 -21 -43q0 -44 48 -44h141q163 0 163 -135
q0 -76 -61.5 -124t-185.5 -48zM242 -127q157 0 157 86q0 35 -19 50t-68 15h-145q-62 -21 -62 -80q0 -71 137 -71zM246 250q107 0 107 94v15q0 97 -107 97q-51 0 -79 -25t-28 -70v-15q0 -48 28.5 -72t78.5 -24zM260 593q-57 0 -93 35t-39 91h67q10 -60 65 -60t65 60h67
q-2 -56 -38.5 -91t-93.5 -35z" />
    <glyph glyph-name="Gdotaccent" unicode="&#x120;" horiz-adv-x="633" 
d="M360 -12q-152 0 -237 84.5t-85 258.5v20q0 96 26.5 166.5t74 110.5t104.5 58.5t125 18.5q104 0 182 -42v-78q-93 42 -189 42q-61 0 -106.5 -21.5t-70.5 -59t-36.5 -82.5t-11.5 -99v-32q0 -61 10 -107t34.5 -84t70 -57.5t112.5 -19.5q71 0 123 19v180h-144v76h235v-312
q-101 -40 -217 -40zM299 746v91h90v-91h-90z" />
    <glyph glyph-name="gdotaccent" unicode="&#x121;" horiz-adv-x="503" 
d="M244 -199q-114 0 -173 34.5t-59 95.5q0 39 26.5 67t69.5 43v5q-52 19 -52 71q0 56 59 99q-64 43 -64 128v10q0 79 54 124t142 45q39 0 74 -9h175v-67h-87q32 -35 32 -89v-10q0 -80 -55 -122.5t-140 -42.5q-47 0 -86 12q-21 -19 -21 -43q0 -44 48 -44h141q163 0 163 -135
q0 -76 -61.5 -124t-185.5 -48zM242 -127q157 0 157 86q0 35 -19 50t-68 15h-145q-62 -21 -62 -80q0 -71 137 -71zM246 250q107 0 107 94v15q0 97 -107 97q-51 0 -79 -25t-28 -70v-15q0 -48 28.5 -72t78.5 -24zM215 615v91h90v-91h-90z" />
    <glyph glyph-name="Gcommaaccent" unicode="&#x122;" horiz-adv-x="633" 
d="M360 -12q-152 0 -237 84.5t-85 258.5v20q0 96 26.5 166.5t74 110.5t104.5 58.5t125 18.5q104 0 182 -42v-78q-93 42 -189 42q-61 0 -106.5 -21.5t-70.5 -59t-36.5 -82.5t-11.5 -99v-32q0 -61 10 -107t34.5 -84t70 -57.5t112.5 -19.5q71 0 123 19v180h-144v76h235v-312
q-101 -40 -217 -40zM288 -182l12 140h99l-46 -140h-65z" />
    <glyph glyph-name="gcommaaccent" unicode="&#x123;" horiz-adv-x="503" 
d="M244 -199q-114 0 -173 34.5t-59 95.5q0 39 26.5 67t69.5 43v5q-52 19 -52 71q0 56 59 99q-64 43 -64 128v10q0 79 54 124t142 45q39 0 74 -9h175v-67h-87q32 -35 32 -89v-10q0 -80 -55 -122.5t-140 -42.5q-47 0 -86 12q-21 -19 -21 -43q0 -44 48 -44h141q163 0 163 -135
q0 -76 -61.5 -124t-185.5 -48zM242 -127q157 0 157 86q0 35 -19 50t-68 15h-145q-62 -21 -62 -80q0 -71 137 -71zM246 250q107 0 107 94v15q0 97 -107 97q-51 0 -79 -25t-28 -70v-15q0 -48 28.5 -72t78.5 -24zM317 746l-12 -140h-99l46 140h65z" />
    <glyph glyph-name="Hcircumflex" unicode="&#x124;" horiz-adv-x="671" 
d="M78 0v693h91v-296h333v296h91v-693h-91v320h-333v-320h-91zM200 740l99 124h72l99 -124h-69l-67 60l-65 -60h-69z" />
    <glyph glyph-name="hcircumflex" unicode="&#x125;" horiz-adv-x="534" 
d="M63 0v739h88v-268h5q75 52 169 52q76 0 112.5 -33.5t36.5 -107.5v-382h-88v363q0 46 -20.5 65t-79.5 19q-61 0 -135 -34v-413h-88zM139 790l99 124h72l99 -124h-69l-67 60l-65 -60h-69z" />
    <glyph glyph-name="Hbar" unicode="&#x126;" horiz-adv-x="671" 
d="M20 502v65h58v126h91v-126h333v126h91v-126h58v-65h-58v-502h-91v320h-333v-320h-91v502h-58zM169 397h333v105h-333v-105z" />
    <glyph glyph-name="hbar" unicode="&#x127;" horiz-adv-x="534" 
d="M63 0v588h-64v61h64v90h88v-90h146v-61h-146v-117h5q75 52 169 52q76 0 112.5 -33.5t36.5 -107.5v-382h-88v363q0 46 -20.5 65t-79.5 19q-61 0 -135 -34v-413h-88z" />
    <glyph glyph-name="Itilde" unicode="&#x128;" horiz-adv-x="253" 
d="M81 0v693h91v-693h-91zM-23 745q6 52 33 78t63 26q23 0 58.5 -15.5t47.5 -15.5q29 0 36 33h60q-6 -52 -33 -78t-63 -26q-23 0 -58.5 15.5t-47.5 15.5q-29 0 -36 -33h-60z" />
    <glyph glyph-name="itilde" unicode="&#x129;" horiz-adv-x="220" 
d="M66 0v513h88v-513h-88zM-27 604q5 53 30 80.5t57 27.5q23 0 55.5 -17.5t41.5 -17.5q24 0 30 37h60q-5 -53 -30 -80.5t-57 -27.5q-24 0 -56 17.5t-41 17.5q-24 0 -30 -37h-60z" />
    <glyph glyph-name="Imacron" unicode="&#x12a;" horiz-adv-x="253" 
d="M31 748v73h190v-73h-190zM81 0v693h91v-693h-91z" />
    <glyph glyph-name="imacron" unicode="&#x12b;" horiz-adv-x="220" 
d="M15 620v73h190v-73h-190zM66 0v513h88v-513h-88z" />
    <glyph glyph-name="Ibreve" unicode="&#x12c;" horiz-adv-x="253" 
d="M81 0v693h91v-693h-91zM126 738q-57 0 -93 35t-39 91h67q10 -60 65 -60t65 60h67q-2 -56 -38.5 -91t-93.5 -35z" />
    <glyph glyph-name="ibreve" unicode="&#x12d;" horiz-adv-x="220" 
d="M66 0v513h88v-513h-88zM110 593q-56 0 -89.5 35t-34.5 91h67q5 -60 57 -60t57 60h67q-2 -56 -35.5 -91t-88.5 -35z" />
    <glyph glyph-name="Iogonek" unicode="&#x12e;" horiz-adv-x="253" 
d="M17 -114q0 63 64 111v696h91v-691q-77 -58 -77 -105q0 -37 50 -37q19 0 33 4v-54q-28 -10 -56 -10q-50 0 -77.5 23t-27.5 63z" />
    <glyph glyph-name="iogonek" unicode="&#x12f;" horiz-adv-x="220" 
d="M3 -113q0 59 63 108v518h88v-512q-73 -57 -73 -103q0 -38 49 -38q19 0 33 4v-54q-28 -10 -56 -10q-49 0 -76.5 23.5t-27.5 63.5zM65 615v91h90v-91h-90z" />
    <glyph glyph-name="Idotaccent" unicode="&#x130;" horiz-adv-x="253" 
d="M81 0v693h91v-693h-91zM81 746v91h90v-91h-90z" />
    <glyph glyph-name="dotlessi" unicode="&#x131;" horiz-adv-x="220" 
d="M66 0v513h88v-513h-88z" />
    <glyph glyph-name="IJ" unicode="&#x132;" horiz-adv-x="624" 
d="M81 0v693h91v-693h-91zM248 11l-1 75q47 -15 106 -15q106 0 106 112v510h92v-513q0 -83 -47 -135t-143 -52q-65 0 -113 18z" />
    <glyph glyph-name="ij" unicode="&#x133;" horiz-adv-x="440" 
d="M66 0v513h88v-513h-88zM65 615v91h90v-91h-90zM232 -199q-47 0 -78 17v61q36 -6 55 -6q77 0 77 77v563h88v-568q0 -66 -35 -105t-107 -39zM285 615v91h90v-91h-90z" />
    <glyph glyph-name="Jcircumflex" unicode="&#x134;" horiz-adv-x="422" 
d="M159 -7q-76 0 -133 27v73q62 -22 125 -22q106 0 106 112v510h92v-513q0 -83 -47 -135t-143 -52zM167 740l99 124h72l99 -124h-69l-67 60l-65 -60h-69z" />
    <glyph glyph-name="jcircumflex" unicode="&#x135;" horiz-adv-x="220" 
d="M-17 587l90 144h76l90 -144h-71l-58 77l-56 -77h-71zM12 -199q-47 0 -78 17v61q36 -6 55 -6q77 0 77 77v563h88v-568q0 -66 -35 -105t-107 -39z" />
    <glyph glyph-name="Kcommaaccent" unicode="&#x136;" horiz-adv-x="586" 
d="M466 0l-269 354l266 339h97l-260 -329l274 -364h-108zM78 0v693h91v-693h-91zM248 -182l12 140h99l-46 -140h-65z" />
    <glyph glyph-name="kcommaaccent" unicode="&#x137;" horiz-adv-x="478" 
d="M63 0v739h88v-739h-88zM367 0l-192 265l182 248h95l-181 -242l197 -271h-101zM196 -182l12 140h99l-46 -140h-65z" />
    <glyph glyph-name="Lacute" unicode="&#x139;" horiz-adv-x="498" 
d="M78 0v693h91v-616h306v-77h-397zM80 740l73 125h99l-94 -125h-78z" />
    <glyph glyph-name="lacute" unicode="&#x13a;" horiz-adv-x="220" 
d="M66 0v739h88v-739h-88zM69 790l73 125h99l-94 -125h-78z" />
    <glyph glyph-name="Lcommaaccent" unicode="&#x13b;" horiz-adv-x="498" 
d="M78 0v693h91v-616h306v-77h-397zM221 -182l12 140h99l-46 -140h-65z" />
    <glyph glyph-name="lcommaaccent" unicode="&#x13c;" horiz-adv-x="220" 
d="M66 0v739h88v-739h-88zM50 -182l12 140h99l-46 -140h-65z" />
    <glyph glyph-name="Lcaron" unicode="&#x13d;" horiz-adv-x="498" 
d="M78 0v693h91v-616h306v-77h-397zM369 514h-63l11 179h86z" />
    <glyph glyph-name="lcaron" unicode="&#x13e;" horiz-adv-x="220" 
d="M66 0v739h88v-739h-88zM263 576h-63l10 163h86z" />
    <glyph glyph-name="Ldot" unicode="&#x13f;" horiz-adv-x="498" 
d="M78 0v693h91v-616h306v-77h-397zM353 315v101h100v-101h-100z" />
    <glyph glyph-name="ldot" unicode="&#x140;" horiz-adv-x="280" 
d="M66 0v739h88v-739h-88zM205 309v91h90v-91h-90z" />
    <glyph glyph-name="Lslash" unicode="&#x141;" horiz-adv-x="502" 
d="M1 214v78l77 33v368h91v-329l205 88v-78l-205 -88v-209h306v-77h-397v247z" />
    <glyph glyph-name="lslash" unicode="&#x142;" horiz-adv-x="246" 
d="M8 294v80l71 40v325h88v-275l80 46v-80l-80 -46v-384h-88v334z" />
    <glyph glyph-name="Nacute" unicode="&#x143;" horiz-adv-x="667" 
d="M78 0v693h107l318 -539h3v539h83v-693h-94l-331 568h-3v-568h-83zM307 740l73 125h99l-94 -125h-78z" />
    <glyph glyph-name="nacute" unicode="&#x144;" horiz-adv-x="534" 
d="M63 0v513h84v-44h5q77 54 173 54q76 0 112.5 -33.5t36.5 -107.5v-382h-88v363q0 46 -20.5 65t-79.5 19q-61 0 -135 -34v-413h-88zM223 587l86 145h99l-107 -145h-78z" />
    <glyph glyph-name="Ncommaaccent" unicode="&#x145;" horiz-adv-x="667" 
d="M78 0v693h107l318 -539h3v539h83v-693h-94l-331 568h-3v-568h-83zM273 -182l12 140h99l-46 -140h-65z" />
    <glyph glyph-name="ncommaaccent" unicode="&#x146;" horiz-adv-x="534" 
d="M63 0v513h84v-44h5q77 54 173 54q76 0 112.5 -33.5t36.5 -107.5v-382h-88v363q0 46 -20.5 65t-79.5 19q-61 0 -135 -34v-413h-88zM210 -182l12 140h99l-46 -140h-65z" />
    <glyph glyph-name="Ncaron" unicode="&#x147;" horiz-adv-x="667" 
d="M78 0v693h107l318 -539h3v539h83v-693h-94l-331 568h-3v-568h-83zM487 864l-99 -124h-72l-99 124h69l67 -60l65 60h69z" />
    <glyph glyph-name="ncaron" unicode="&#x148;" horiz-adv-x="534" 
d="M63 0v513h84v-44h5q77 54 173 54q76 0 112.5 -33.5t36.5 -107.5v-382h-88v363q0 46 -20.5 65t-79.5 19q-61 0 -135 -34v-413h-88zM232 587l-102 144h70l71 -78l69 78h70l-102 -144h-76z" />
    <glyph glyph-name="napostrophe" unicode="&#x149;" horiz-adv-x="560" 
d="M89 0v513h84v-44h5q77 54 173 54q76 0 112.5 -33.5t36.5 -107.5v-382h-88v363q0 46 -20.5 65t-79.5 19q-61 0 -135 -34v-413h-88zM-36 508l13 185h97l-33 -185h-77z" />
    <glyph glyph-name="Eng" unicode="&#x14a;" horiz-adv-x="667" 
d="M418 -177q-63 0 -111 23v68q49 -15 97 -15q94 0 101 84l-341 585h-3v-568h-83v693h107l318 -539h3v539h83v-700q0 -77 -42.5 -123.5t-128.5 -46.5z" />
    <glyph glyph-name="eng" unicode="&#x14b;" horiz-adv-x="534" 
d="M332 -199q-47 0 -78 17v61q36 -6 55 -6q77 0 77 77v413q0 46 -20.5 65t-79.5 19q-61 0 -135 -34v-413h-88v513h84v-44h5q77 54 173 54q76 0 112.5 -33.5t36.5 -107.5v-437q0 -66 -35 -105t-107 -39z" />
    <glyph glyph-name="Omacron" unicode="&#x14c;" horiz-adv-x="687" 
d="M342 -12q-143 0 -223.5 91t-80.5 258v20q0 162 82 255t226 93q142 0 222.5 -91t80.5 -258v-20q0 -162 -81.5 -255t-225.5 -93zM345 63q101 0 153.5 71.5t52.5 186.5v34q0 274 -210 275q-101 0 -153 -71t-52 -186v-34q0 -276 209 -276zM224 748v73h238v-73h-238z" />
    <glyph glyph-name="omacron" unicode="&#x14d;" horiz-adv-x="531" 
d="M265 -10q-111 0 -172.5 67.5t-61.5 188.5v17q0 120 64 190t171 70q110 0 172 -68t62 -189v-16q0 -120 -64 -190t-171 -70zM267 62q67 0 104.5 46t37.5 132v28q0 183 -145 183q-68 0 -105 -47t-37 -132v-28q0 -182 145 -182zM146 620v73h238v-73h-238z" />
    <glyph glyph-name="Obreve" unicode="&#x14e;" horiz-adv-x="687" 
d="M342 -12q-143 0 -223.5 91t-80.5 258v20q0 162 82 255t226 93q142 0 222.5 -91t80.5 -258v-20q0 -162 -81.5 -255t-225.5 -93zM345 63q101 0 153.5 71.5t52.5 186.5v34q0 274 -210 275q-101 0 -153 -71t-52 -186v-34q0 -276 209 -276zM343 738q-57 0 -93 35t-39 91h67
q10 -60 65 -60t65 60h67q-2 -56 -38.5 -91t-93.5 -35z" />
    <glyph glyph-name="obreve" unicode="&#x14f;" horiz-adv-x="531" 
d="M265 -10q-111 0 -172.5 67.5t-61.5 188.5v17q0 120 64 190t171 70q110 0 172 -68t62 -189v-16q0 -120 -64 -190t-171 -70zM267 62q67 0 104.5 46t37.5 132v28q0 183 -145 183q-68 0 -105 -47t-37 -132v-28q0 -182 145 -182zM265 593q-57 0 -93 35t-39 91h67
q10 -60 65 -60t65 60h67q-2 -56 -38.5 -91t-93.5 -35z" />
    <glyph glyph-name="Ohungarumlaut" unicode="&#x150;" horiz-adv-x="687" 
d="M342 -12q-143 0 -223.5 91t-80.5 258v20q0 162 82 255t226 93q142 0 222.5 -91t80.5 -258v-20q0 -162 -81.5 -255t-225.5 -93zM345 63q101 0 153.5 71.5t52.5 186.5v34q0 274 -210 275q-101 0 -153 -71t-52 -186v-34q0 -276 209 -276zM224 740l39 125h95l-60 -125h-74z
M382 740l38 125h95l-60 -125h-73z" />
    <glyph glyph-name="ohungarumlaut" unicode="&#x151;" horiz-adv-x="531" 
d="M265 -10q-111 0 -172.5 67.5t-61.5 188.5v17q0 120 64 190t171 70q110 0 172 -68t62 -189v-16q0 -120 -64 -190t-171 -70zM267 62q67 0 104.5 46t37.5 132v28q0 183 -145 183q-68 0 -105 -47t-37 -132v-28q0 -182 145 -182zM148 587l48 145h95l-69 -145h-74zM306 587
l47 145h95l-69 -145h-73z" />
    <glyph glyph-name="OE" unicode="&#x152;" horiz-adv-x="934" 
d="M359 0q-156 0 -238.5 82t-82.5 245v20q0 166 79 256t240 90h521v-77h-322v-220h248v-77h-248v-242h325v-77h-522zM367 78h98v537h-110q-113 0 -166 -60.5t-53 -193.5v-34q0 -135 58 -192t173 -57z" />
    <glyph glyph-name="oe" unicode="&#x153;" horiz-adv-x="874" 
d="M265 -10q-111 0 -172.5 67.5t-61.5 188.5v17q0 120 64 190t171 70q134 0 189 -103q56 103 180 103q208 0 208 -242v-49h-343q4 -89 46 -127.5t122 -38.5q84 0 160 39v-65q-67 -50 -174 -50q-144 0 -201 104q-56 -104 -188 -104zM267 62q67 0 104.5 46t37.5 132v28
q0 183 -145 183q-68 0 -105 -47t-37 -132v-28q0 -182 145 -182zM631 452q-51 0 -88.5 -35t-42.5 -117h250q0 81 -29.5 116.5t-89.5 35.5z" />
    <glyph glyph-name="Racute" unicode="&#x154;" horiz-adv-x="578" 
d="M78 0v693h204q114 0 173 -50t59 -147q0 -134 -131 -181v-5l181 -310h-104l-167 293h-124v-293h-91zM169 365h107q75 0 108 31t33 98q0 65 -33.5 93.5t-108.5 28.5h-106v-251zM239 740l73 125h99l-94 -125h-78z" />
    <glyph glyph-name="racute" unicode="&#x155;" horiz-adv-x="338" 
d="M63 0v513h84v-57h5q23 27 61 45t78 18q22 0 32 -4v-78q-19 3 -39 3q-73 0 -133 -40v-400h-88zM159 587l86 145h99l-107 -145h-78z" />
    <glyph glyph-name="Rcommaaccent" unicode="&#x156;" horiz-adv-x="578" 
d="M78 0v693h204q114 0 173 -50t59 -147q0 -134 -131 -181v-5l181 -310h-104l-167 293h-124v-293h-91zM169 365h107q75 0 108 31t33 98q0 65 -33.5 93.5t-108.5 28.5h-106v-251zM249 -182l12 140h99l-46 -140h-65z" />
    <glyph glyph-name="rcommaaccent" unicode="&#x157;" horiz-adv-x="338" 
d="M63 0v513h84v-57h5q23 27 61 45t78 18q22 0 32 -4v-78q-19 3 -39 3q-73 0 -133 -40v-400h-88zM45 -182l12 140h99l-46 -140h-65z" />
    <glyph glyph-name="Rcaron" unicode="&#x158;" horiz-adv-x="578" 
d="M78 0v693h204q114 0 173 -50t59 -147q0 -134 -131 -181v-5l181 -310h-104l-167 293h-124v-293h-91zM169 365h107q75 0 108 31t33 98q0 65 -33.5 93.5t-108.5 28.5h-106v-251zM419 864l-99 -124h-72l-99 124h69l67 -60l65 60h69z" />
    <glyph glyph-name="rcaron" unicode="&#x159;" horiz-adv-x="338" 
d="M63 0v513h84v-57h5q23 27 61 45t78 18q22 0 32 -4v-78q-19 3 -39 3q-73 0 -133 -40v-400h-88zM168 587l-102 144h70l71 -78l69 78h70l-102 -144h-76z" />
    <glyph glyph-name="Sacute" unicode="&#x15a;" horiz-adv-x="497" 
d="M227 -13q-116 0 -199 46v77q90 -45 194 -45q73 0 109.5 31.5t36.5 87.5q0 49 -24 74.5t-86 46.5l-72 24q-74 25 -111.5 68.5t-37.5 120.5q0 85 56.5 136t162.5 51q92 0 170 -38v-77q-82 37 -173 37q-59 0 -92 -26.5t-33 -74.5t20.5 -72.5t74.5 -42.5l72 -24
q84 -28 125 -71t41 -125q0 -95 -58 -149.5t-176 -54.5zM203 740l73 125h99l-94 -125h-78z" />
    <glyph glyph-name="sacute" unicode="&#x15b;" horiz-adv-x="409" 
d="M195 -9q-102 0 -166 36v70q30 -12 45 -17t45 -10t64 -5q109 0 109 71q0 32 -18.5 49.5t-65.5 30.5l-49 13q-62 17 -95 49t-33 94q0 70 45.5 110.5t134.5 40.5q82 0 140 -30v-71q-59 27 -136 27q-100 0 -100 -68q0 -31 17 -46.5t57 -26.5l49 -13q78 -21 109.5 -53
t31.5 -98q0 -74 -49 -113.5t-135 -39.5zM159 587l86 145h99l-107 -145h-78z" />
    <glyph glyph-name="Scircumflex" unicode="&#x15c;" horiz-adv-x="497" 
d="M227 -13q-116 0 -199 46v77q90 -45 194 -45q73 0 109.5 31.5t36.5 87.5q0 49 -24 74.5t-86 46.5l-72 24q-74 25 -111.5 68.5t-37.5 120.5q0 85 56.5 136t162.5 51q92 0 170 -38v-77q-82 37 -173 37q-59 0 -92 -26.5t-33 -74.5t20.5 -72.5t74.5 -42.5l72 -24
q84 -28 125 -71t41 -125q0 -95 -58 -149.5t-176 -54.5zM113 740l99 124h72l99 -124h-69l-67 60l-65 -60h-69z" />
    <glyph glyph-name="scircumflex" unicode="&#x15d;" horiz-adv-x="409" 
d="M195 -9q-102 0 -166 36v70q30 -12 45 -17t45 -10t64 -5q109 0 109 71q0 32 -18.5 49.5t-65.5 30.5l-49 13q-62 17 -95 49t-33 94q0 70 45.5 110.5t134.5 40.5q82 0 140 -30v-71q-59 27 -136 27q-100 0 -100 -68q0 -31 17 -46.5t57 -26.5l49 -13q78 -21 109.5 -53
t31.5 -98q0 -74 -49 -113.5t-135 -39.5zM66 587l102 144h76l102 -144h-70l-71 78l-69 -78h-70z" />
    <glyph glyph-name="Scedilla" unicode="&#x15e;" horiz-adv-x="497" 
d="M162 -217v52q102 8 102 41q0 17 -19 24t-62 7v82q-94 9 -155 44v77q90 -45 194 -45q73 0 109.5 31.5t36.5 87.5q0 49 -24 74.5t-86 46.5l-72 24q-74 25 -111.5 68.5t-37.5 120.5q0 85 56.5 136t162.5 51q92 0 170 -38v-77q-82 37 -173 37q-59 0 -92 -26.5t-33 -74.5
t20.5 -72.5t74.5 -42.5l72 -24q84 -28 125 -71t41 -125q0 -93 -54.5 -146.5t-166.5 -57.5v-35q96 -5 96 -70q0 -45 -39.5 -68.5t-134.5 -30.5z" />
    <glyph glyph-name="scedilla" unicode="&#x15f;" horiz-adv-x="409" 
d="M126 -217v52q102 8 102 41q0 17 -19 24t-62 7v86q-71 8 -118 34v70q30 -12 45 -17t45 -10t64 -5q109 0 109 71q0 32 -18.5 49.5t-65.5 30.5l-49 13q-62 17 -95 49t-33 94q0 70 45.5 110.5t134.5 40.5q82 0 140 -30v-71q-59 27 -136 27q-100 0 -100 -68q0 -31 17 -46.5
t57 -26.5l49 -13q78 -21 109.5 -53t31.5 -98q0 -73 -46.5 -112t-128.5 -41v-39q96 -5 96 -70q0 -45 -39.5 -68.5t-134.5 -30.5z" />
    <glyph glyph-name="Scaron" unicode="&#x160;" horiz-adv-x="497" 
d="M227 -13q-116 0 -199 46v77q90 -45 194 -45q73 0 109.5 31.5t36.5 87.5q0 49 -24 74.5t-86 46.5l-72 24q-74 25 -111.5 68.5t-37.5 120.5q0 85 56.5 136t162.5 51q92 0 170 -38v-77q-82 37 -173 37q-59 0 -92 -26.5t-33 -74.5t20.5 -72.5t74.5 -42.5l72 -24
q84 -28 125 -71t41 -125q0 -95 -58 -149.5t-176 -54.5zM383 864l-99 -124h-72l-99 124h69l67 -60l65 60h69z" />
    <glyph glyph-name="scaron" unicode="&#x161;" horiz-adv-x="409" 
d="M195 -9q-102 0 -166 36v70q30 -12 45 -17t45 -10t64 -5q109 0 109 71q0 32 -18.5 49.5t-65.5 30.5l-49 13q-62 17 -95 49t-33 94q0 70 45.5 110.5t134.5 40.5q82 0 140 -30v-71q-59 27 -136 27q-100 0 -100 -68q0 -31 17 -46.5t57 -26.5l49 -13q78 -21 109.5 -53
t31.5 -98q0 -74 -49 -113.5t-135 -39.5zM168 587l-102 144h70l71 -78l69 78h70l-102 -144h-76z" />
    <glyph glyph-name="Tcommaaccent" unicode="&#x162;" horiz-adv-x="537" 
d="M223 0v616h-205v77h501v-77h-205v-616h-91zM208 -182l12 140h99l-46 -140h-65z" />
    <glyph glyph-name="tcommaaccent" unicode="&#x163;" horiz-adv-x="342" 
d="M229 -6q-139 0 -139 126v320h-73v73h73v122h88v-122h129v-73h-129v-307q0 -37 15.5 -52t58.5 -15q33 0 65 8v-59q-44 -21 -88 -21zM143 -182l12 140h99l-46 -140h-65z" />
    <glyph glyph-name="Tcaron" unicode="&#x164;" horiz-adv-x="537" 
d="M223 0v616h-205v77h501v-77h-205v-616h-91zM403 864l-99 -124h-72l-99 124h69l67 -60l65 60h69z" />
    <glyph glyph-name="tcaron" unicode="&#x165;" horiz-adv-x="342" 
d="M229 -6q-139 0 -139 126v320h-73v73h73v122h88v-122h129v-73h-129v-307q0 -37 15.5 -52t58.5 -15q33 0 65 8v-59q-44 -21 -88 -21zM304 576h-63l10 163h86z" />
    <glyph glyph-name="Tbar" unicode="&#x166;" horiz-adv-x="537" 
d="M84 357v63h139v196h-205v77h501v-77h-205v-196h139v-63h-139v-357h-91v357h-139z" />
    <glyph glyph-name="tbar" unicode="&#x167;" horiz-adv-x="342" 
d="M17 289v61h73v90h-73v73h73v122h88v-122h129v-73h-129v-90h129v-61h-129v-156q0 -37 15.5 -52t58.5 -15q33 0 65 8v-59q-44 -21 -88 -21q-139 0 -139 126v169h-73z" />
    <glyph glyph-name="Utilde" unicode="&#x168;" horiz-adv-x="655" 
d="M331 -13q-126 0 -192 63.5t-66 190.5v452h91v-446q0 -105 42 -146.5t129 -41.5q86 0 124.5 41t38.5 148v445h84v-449q0 -133 -62 -195t-189 -62zM182 745q6 52 33 78t63 26q23 0 58.5 -15.5t47.5 -15.5q29 0 36 33h60q-6 -52 -33 -78t-63 -26q-23 0 -58.5 15.5
t-47.5 15.5q-29 0 -36 -33h-60z" />
    <glyph glyph-name="utilde" unicode="&#x169;" horiz-adv-x="527" 
d="M217 -10q-76 0 -116.5 38.5t-40.5 112.5v372h88v-358q0 -49 20.5 -69t74.5 -20q61 0 133 37v410h88v-513h-75l-9 44h-5q-77 -54 -158 -54zM115 604q6 53 33.5 80.5t62.5 27.5q23 0 58.5 -17.5t47.5 -17.5q29 0 36 37h60q-6 -53 -33.5 -80.5t-62.5 -27.5q-23 0 -58.5 17.5
t-47.5 17.5q-29 0 -36 -37h-60z" />
    <glyph glyph-name="Umacron" unicode="&#x16a;" horiz-adv-x="655" 
d="M331 -13q-126 0 -192 63.5t-66 190.5v452h91v-446q0 -105 42 -146.5t129 -41.5q86 0 124.5 41t38.5 148v445h84v-449q0 -133 -62 -195t-189 -62zM212 748v73h238v-73h-238z" />
    <glyph glyph-name="umacron" unicode="&#x16b;" horiz-adv-x="527" 
d="M217 -10q-76 0 -116.5 38.5t-40.5 112.5v372h88v-358q0 -49 20.5 -69t74.5 -20q61 0 133 37v410h88v-513h-75l-9 44h-5q-77 -54 -158 -54zM145 620v73h238v-73h-238z" />
    <glyph glyph-name="Ubreve" unicode="&#x16c;" horiz-adv-x="655" 
d="M331 -13q-126 0 -192 63.5t-66 190.5v452h91v-446q0 -105 42 -146.5t129 -41.5q86 0 124.5 41t38.5 148v445h84v-449q0 -133 -62 -195t-189 -62zM331 738q-57 0 -93 35t-39 91h67q10 -60 65 -60t65 60h67q-2 -56 -38.5 -91t-93.5 -35z" />
    <glyph glyph-name="ubreve" unicode="&#x16d;" horiz-adv-x="527" 
d="M217 -10q-76 0 -116.5 38.5t-40.5 112.5v372h88v-358q0 -49 20.5 -69t74.5 -20q61 0 133 37v410h88v-513h-75l-9 44h-5q-77 -54 -158 -54zM264 593q-57 0 -93 35t-39 91h67q10 -60 65 -60t65 60h67q-2 -56 -38.5 -91t-93.5 -35z" />
    <glyph glyph-name="Uring" unicode="&#x16e;" horiz-adv-x="655" 
d="M331 -13q-126 0 -192 63.5t-66 190.5v452h91v-446q0 -105 42 -146.5t129 -41.5q86 0 124.5 41t38.5 148v445h84v-449q0 -133 -62 -195t-189 -62zM331 709q-41 0 -68.5 27t-27.5 65t27.5 65t68.5 27t68.5 -27t27.5 -65t-27.5 -65t-68.5 -27zM331 752q22 0 35 13.5t13 35.5
t-13 35.5t-35 13.5t-35 -13.5t-13 -35.5t13 -35.5t35 -13.5z" />
    <glyph glyph-name="uring" unicode="&#x16f;" horiz-adv-x="527" 
d="M217 -10q-76 0 -116.5 38.5t-40.5 112.5v372h88v-358q0 -49 20.5 -69t74.5 -20q61 0 133 37v410h88v-513h-75l-9 44h-5q-77 -54 -158 -54zM264 576q-41 0 -68.5 27t-27.5 65t27.5 65t68.5 27t68.5 -27t27.5 -65t-27.5 -65t-68.5 -27zM264 619q22 0 35 13.5t13 35.5
t-13 35.5t-35 13.5t-35 -13.5t-13 -35.5t13 -35.5t35 -13.5z" />
    <glyph glyph-name="Uhungarumlaut" unicode="&#x170;" horiz-adv-x="655" 
d="M331 -13q-126 0 -192 63.5t-66 190.5v452h91v-446q0 -105 42 -146.5t129 -41.5q86 0 124.5 41t38.5 148v445h84v-449q0 -133 -62 -195t-189 -62zM212 740l39 125h95l-60 -125h-74zM370 740l38 125h95l-60 -125h-73z" />
    <glyph glyph-name="uhungarumlaut" unicode="&#x171;" horiz-adv-x="527" 
d="M217 -10q-76 0 -116.5 38.5t-40.5 112.5v372h88v-358q0 -49 20.5 -69t74.5 -20q61 0 133 37v410h88v-513h-75l-9 44h-5q-77 -54 -158 -54zM147 587l48 145h95l-69 -145h-74zM305 587l47 145h95l-69 -145h-73z" />
    <glyph glyph-name="Uogonek" unicode="&#x172;" horiz-adv-x="655" 
d="M366 -200q-51 0 -79 23t-28 62q0 59 64 102q-250 5 -250 254v452h91v-446q0 -105 42 -146.5t129 -41.5q86 0 124.5 41t38.5 148v445h84v-449q0 -127 -56 -188q-14 -15 -30 -26.5t-27 -17t-30.5 -14t-29.5 -13.5q-72 -36 -72 -89q0 -36 52 -36q19 0 33 4v-54
q-28 -10 -56 -10z" />
    <glyph glyph-name="uogonek" unicode="&#x173;" horiz-adv-x="527" 
d="M416 -200q-51 0 -79 23t-28 62q0 67 80 117l-9 42h-5q-77 -54 -158 -54q-76 0 -116.5 38.5t-40.5 112.5v372h88v-358q0 -49 20.5 -69t74.5 -20q61 0 133 37v410h88v-513q-77 -57 -77 -104q0 -36 52 -36q19 0 33 4v-54q-28 -10 -56 -10z" />
    <glyph glyph-name="Wcircumflex" unicode="&#x174;" horiz-adv-x="861" 
d="M190 0l-174 693h92l131 -550h3l157 550h75l154 -550h3l130 550h84l-173 -693h-88l-149 540h-3l-154 -540h-88zM301 740l99 124h72l99 -124h-69l-67 60l-65 -60h-69z" />
    <glyph glyph-name="wcircumflex" unicode="&#x175;" horiz-adv-x="734" 
d="M161 0l-145 513h94l101 -400h4l118 400h77l119 -400h4l101 400h84l-145 -513h-89l-114 378h-4l-115 -378h-90zM230 587l102 144h76l102 -144h-70l-71 78l-69 -78h-70z" />
    <glyph glyph-name="Ycircumflex" unicode="&#x176;" horiz-adv-x="554" 
d="M232 0v268l-226 425h97l178 -339h3l175 339h89l-225 -425v-268h-91zM147 740l99 124h72l99 -124h-69l-67 60l-65 -60h-69z" />
    <glyph glyph-name="ycircumflex" unicode="&#x177;" horiz-adv-x="479" 
d="M96 -199q-38 0 -66 15v62q26 -4 50 -4q71 0 102 77l23 59l-197 503h95l145 -387h3l133 387h87l-208 -574q-27 -74 -64.5 -106t-102.5 -32zM110 587l102 144h76l102 -144h-70l-71 78l-69 -78h-70z" />
    <glyph glyph-name="Ydieresis" unicode="&#x178;" horiz-adv-x="554" 
d="M232 0v268l-226 425h97l178 -339h3l175 339h89l-225 -425v-268h-91zM326 746v89h86v-89h-86zM152 746v89h86v-89h-86z" />
    <glyph glyph-name="Zacute" unicode="&#x179;" horiz-adv-x="535" 
d="M27 0v69l373 544v3h-346v77h456v-68l-374 -545v-3h361v-77h-470zM232 740l73 125h99l-94 -125h-78z" />
    <glyph glyph-name="zacute" unicode="&#x17a;" horiz-adv-x="447" 
d="M32 0v65l274 373v3h-259v72h366v-63l-274 -375v-3h273v-72h-380zM188 587l86 145h99l-107 -145h-78z" />
    <glyph glyph-name="Zdotaccent" unicode="&#x17b;" horiz-adv-x="535" 
d="M27 0v69l373 544v3h-346v77h456v-68l-374 -545v-3h361v-77h-470zM232 746v91h90v-91h-90z" />
    <glyph glyph-name="zdotaccent" unicode="&#x17c;" horiz-adv-x="447" 
d="M32 0v65l274 373v3h-259v72h366v-63l-274 -375v-3h273v-72h-380zM190 615v91h90v-91h-90z" />
    <glyph glyph-name="Zcaron" unicode="&#x17d;" horiz-adv-x="535" 
d="M27 0v69l373 544v3h-346v77h456v-68l-374 -545v-3h361v-77h-470zM420 864l-99 -124h-72l-99 124h69l67 -60l65 60h69z" />
    <glyph glyph-name="zcaron" unicode="&#x17e;" horiz-adv-x="447" 
d="M32 0v65l274 373v3h-259v72h366v-63l-274 -375v-3h273v-72h-380zM197 587l-102 144h70l71 -78l69 78h70l-102 -144h-76z" />
    <glyph glyph-name="florin" unicode="&#x192;" horiz-adv-x="419" 
d="M34 379v76h94l22 121q30 172 182 172q52 0 84 -13v-66q-32 6 -64 6q-48 0 -76.5 -25.5t-39.5 -84.5l-20 -110h123v-76h-136l-72 -407q-15 -84 -56 -119.5t-106 -35.5q-53 0 -83 17v64q35 -8 56 -8q86 0 102 91l71 398h-81z" />
    <glyph glyph-name="Aringacute" unicode="&#x1fa;" horiz-adv-x="605" 
d="M7 0l252 693h89l250 -693h-95l-70 195h-271l-69 -195h-86zM295 572l-106 -300h216l-107 300h-3zM302 729q-41 0 -68.5 27t-27.5 65t27.5 65t68.5 27t68.5 -27t27.5 -65t-27.5 -65t-68.5 -27zM302 772q22 0 35 13.5t13 35.5t-13 35.5t-35 13.5t-35 -13.5t-13 -35.5
t13 -35.5t35 -13.5zM260 936l73 125h99l-94 -125h-78z" />
    <glyph glyph-name="aringacute" unicode="&#x1fb;" horiz-adv-x="469" 
d="M189 -10q-72 0 -115.5 37t-43.5 109q0 130 155 149l136 17v48q0 57 -27.5 77t-98.5 20q-56 0 -122 -15v63q72 28 157 28q179 0 179 -151v-372h-71l-9 43h-6q-46 -53 -134 -53zM212 58q70 0 109 35v142l-113 -12q-45 -5 -66 -24.5t-21 -60.5q0 -39 24.5 -59.5t66.5 -20.5z
M230 576q-41 0 -68.5 27t-27.5 65t27.5 65t68.5 27t68.5 -27t27.5 -65t-27.5 -65t-68.5 -27zM230 619q22 0 35 13.5t13 35.5t-13 35.5t-35 13.5t-35 -13.5t-13 -35.5t13 -35.5t35 -13.5zM185 805l73 125h99l-94 -125h-78z" />
    <glyph glyph-name="AEacute" unicode="&#x1fc;" horiz-adv-x="893" 
d="M0 0l375 693h463v-77h-322v-220h248v-77h-248v-242h325v-77h-416v200h-228l-106 -200h-91zM421 622l-183 -345h187v345h-4zM553 740l73 125h99l-94 -125h-78z" />
    <glyph glyph-name="aeacute" unicode="&#x1fd;" horiz-adv-x="786" 
d="M189 -10q-72 0 -115.5 37t-43.5 109q0 129 155 148l136 17v49q0 57 -27.5 77t-98.5 20q-56 0 -122 -15v63q72 28 157 28q121 0 154 -79q58 79 163 79q208 0 208 -242v-46h-343q4 -91 46 -130t122 -39q84 0 160 39v-65q-67 -50 -174 -50q-131 0 -193 82q-77 -82 -184 -82z
M345 119q-22 51 -24 119l-113 -14q-45 -5 -66 -25t-21 -61q0 -39 24.5 -59.5t66.5 -20.5q74 0 133 61zM543 452q-50 0 -87.5 -34.5t-42.5 -114.5h249q0 79 -29.5 114t-89.5 35zM361 587l86 145h99l-107 -145h-78z" />
    <glyph glyph-name="Oslashacute" unicode="&#x1fe;" horiz-adv-x="687" 
d="M342 -12q-123 0 -200 68l-46 -56h-88l89 108q-59 88 -59 229v20q0 162 82 255t226 93q115 0 192 -63l42 51h87l-83 -101q65 -90 65 -236v-20q0 -162 -81.5 -255t-225.5 -93zM345 63q101 0 153.5 71.5t52.5 186.5v34q0 101 -28 163l-328 -398q52 -57 150 -57zM136 339
q0 -98 23 -156l325 394q-52 52 -143 53q-101 1 -153 -70.5t-52 -186.5v-34zM293 740l73 125h99l-94 -125h-78z" />
    <glyph glyph-name="oslashacute" unicode="&#x1ff;" horiz-adv-x="531" 
d="M265 -10q-95 0 -153 49l-34 -39h-79l73 84q-41 62 -41 162v17q0 120 64 190t171 70q88 0 147 -45l31 35h79l-69 -79q46 -66 46 -168v-16q0 -120 -64 -190t-171 -70zM267 61q67 0 104.5 46.5t37.5 132.5v28q0 58 -14 98l-233 -269q35 -36 105 -36zM122 244q0 -55 10 -91
l230 266q-36 33 -98 33q-67 0 -104.5 -47t-37.5 -133v-28zM217 587l86 145h99l-107 -145h-78z" />
    <glyph glyph-name="Scommaaccent" unicode="&#x218;" horiz-adv-x="497" 
d="M227 -13q-116 0 -199 46v77q90 -45 194 -45q73 0 109.5 31.5t36.5 87.5q0 49 -24 74.5t-86 46.5l-72 24q-74 25 -111.5 68.5t-37.5 120.5q0 85 56.5 136t162.5 51q92 0 170 -38v-77q-82 37 -173 37q-59 0 -92 -26.5t-33 -74.5t20.5 -72.5t74.5 -42.5l72 -24
q84 -28 125 -71t41 -125q0 -95 -58 -149.5t-176 -54.5zM177 -182l12 140h99l-46 -140h-65z" />
    <glyph glyph-name="scommaaccent" unicode="&#x219;" horiz-adv-x="409" 
d="M195 -9q-102 0 -166 36v70q30 -12 45 -17t45 -10t64 -5q109 0 109 71q0 32 -18.5 49.5t-65.5 30.5l-49 13q-62 17 -95 49t-33 94q0 70 45.5 110.5t134.5 40.5q82 0 140 -30v-71q-59 27 -136 27q-100 0 -100 -68q0 -31 17 -46.5t57 -26.5l49 -13q78 -21 109.5 -53
t31.5 -98q0 -74 -49 -113.5t-135 -39.5zM138 -182l12 140h99l-46 -140h-65z" />
    <glyph glyph-name="uni0237" unicode="&#x237;" horiz-adv-x="220" 
d="M12 -199q-47 0 -78 17v61q36 -6 55 -6q77 0 77 77v563h88v-568q0 -66 -35 -105t-107 -39z" />
    <glyph glyph-name="circumflex" unicode="&#x2c6;" 
d="M107 587l102 144h76l102 -144h-70l-71 78l-69 -78h-70z" />
    <glyph glyph-name="caron" unicode="&#x2c7;" 
d="M209 587l-102 144h70l71 -78l69 78h70l-102 -144h-76z" />
    <glyph glyph-name="breve" unicode="&#x2d8;" 
d="M247 593q-57 0 -93 35t-39 91h67q10 -60 65 -60t65 60h67q-2 -56 -38.5 -91t-93.5 -35z" />
    <glyph glyph-name="dotaccent" unicode="&#x2d9;" 
d="M202 615v91h90v-91h-90z" />
    <glyph glyph-name="ring" unicode="&#x2da;" 
d="M247 576q-41 0 -68.5 27t-27.5 65t27.5 65t68.5 27t68.5 -27t27.5 -65t-27.5 -65t-68.5 -27zM247 619q22 0 35 13.5t13 35.5t-13 35.5t-35 13.5t-35 -13.5t-13 -35.5t13 -35.5t35 -13.5z" />
    <glyph glyph-name="ogonek" unicode="&#x2db;" 
d="M255 -200q-51 0 -79 23t-28 62q0 38 26 67.5t60 47.5h68q-76 -60 -76 -104q0 -36 52 -36q19 0 33 4v-54q-28 -10 -56 -10z" />
    <glyph glyph-name="tilde" unicode="&#x2dc;" 
d="M95 604q6 53 33.5 80.5t62.5 27.5q23 0 58.5 -17.5t47.5 -17.5q29 0 36 37h60q-6 -53 -33.5 -80.5t-62.5 -27.5q-23 0 -58.5 17.5t-47.5 17.5q-29 0 -36 -37h-60z" />
    <glyph glyph-name="hungarumlaut" unicode="&#x2dd;" 
d="M115 587l48 145h95l-69 -145h-74zM273 587l47 145h95l-69 -145h-73z" />
    <glyph glyph-name="Wgrave" unicode="&#x1e80;" horiz-adv-x="861" 
d="M190 0l-174 693h92l131 -550h3l157 550h75l154 -550h3l130 550h84l-173 -693h-88l-149 540h-3l-154 -540h-88zM409 740l-88 125h99l67 -125h-78z" />
    <glyph glyph-name="wgrave" unicode="&#x1e81;" horiz-adv-x="734" 
d="M161 0l-145 513h94l101 -400h4l118 400h77l119 -400h4l101 400h84l-145 -513h-89l-114 378h-4l-115 -378h-90zM336 587l-107 145h99l86 -145h-78z" />
    <glyph glyph-name="Wacute" unicode="&#x1e82;" horiz-adv-x="861" 
d="M190 0l-174 693h92l131 -550h3l157 550h75l154 -550h3l130 550h84l-173 -693h-88l-149 540h-3l-154 -540h-88zM391 740l73 125h99l-94 -125h-78z" />
    <glyph glyph-name="wacute" unicode="&#x1e83;" horiz-adv-x="734" 
d="M161 0l-145 513h94l101 -400h4l118 400h77l119 -400h4l101 400h84l-145 -513h-89l-114 378h-4l-115 -378h-90zM323 587l86 145h99l-107 -145h-78z" />
    <glyph glyph-name="Wdieresis" unicode="&#x1e84;" horiz-adv-x="861" 
d="M190 0l-174 693h92l131 -550h3l157 550h75l154 -550h3l130 550h84l-173 -693h-88l-149 540h-3l-154 -540h-88zM480 746v89h86v-89h-86zM306 746v89h86v-89h-86z" />
    <glyph glyph-name="wdieresis" unicode="&#x1e85;" horiz-adv-x="734" 
d="M161 0l-145 513h94l101 -400h4l118 400h77l119 -400h4l101 400h84l-145 -513h-89l-114 378h-4l-115 -378h-90zM412 615v89h86v-89h-86zM242 615v89h86v-89h-86z" />
    <glyph glyph-name="Ygrave" unicode="&#x1ef2;" horiz-adv-x="554" 
d="M232 0v268l-226 425h97l178 -339h3l175 339h89l-225 -425v-268h-91zM255 740l-88 125h99l67 -125h-78z" />
    <glyph glyph-name="ygrave" unicode="&#x1ef3;" horiz-adv-x="479" 
d="M96 -199q-38 0 -66 15v62q26 -4 50 -4q71 0 102 77l23 59l-197 503h95l145 -387h3l133 387h87l-208 -574q-27 -74 -64.5 -106t-102.5 -32zM216 587l-107 145h99l86 -145h-78z" />
    <glyph glyph-name="uni2009" unicode="&#x2009;" horiz-adv-x="92" 
 />
    <glyph glyph-name="endash" unicode="&#x2013;" horiz-adv-x="425" 
d="M35 252v70h355v-70h-355z" />
    <glyph glyph-name="emdash" unicode="&#x2014;" horiz-adv-x="700" 
d="M35 252v70h630v-70h-630z" />
    <glyph glyph-name="quoteleft" unicode="&#x2018;" horiz-adv-x="207" 
d="M42 508l33 185h77l-13 -185h-97z" />
    <glyph glyph-name="quoteright" unicode="&#x2019;" horiz-adv-x="207" 
d="M55 508l13 185h97l-33 -185h-77z" />
    <glyph glyph-name="quotesinglbase" unicode="&#x201a;" horiz-adv-x="207" 
d="M55 -75l13 185h97l-33 -185h-77z" />
    <glyph glyph-name="quotedblleft" unicode="&#x201c;" horiz-adv-x="365" 
d="M200 508l33 185h77l-13 -185h-97zM42 508l33 185h77l-13 -185h-97z" />
    <glyph glyph-name="quotedblright" unicode="&#x201d;" horiz-adv-x="365" 
d="M213 508l13 185h97l-33 -185h-77zM55 508l13 185h97l-33 -185h-77z" />
    <glyph glyph-name="quotedblbase" unicode="&#x201e;" horiz-adv-x="365" 
d="M213 -75l13 185h97l-33 -185h-77zM55 -75l13 185h97l-33 -185h-77z" />
    <glyph glyph-name="dagger" unicode="&#x2020;" horiz-adv-x="471" 
d="M195 -69v489h-160v77h160v196h81v-196h160v-77h-160v-489h-81z" />
    <glyph glyph-name="daggerdbl" unicode="&#x2021;" horiz-adv-x="477" 
d="M38 127v77h160v216h-160v77h160v196h81v-196h160v-77h-160v-216h160v-77h-160v-196h-81v196h-160z" />
    <glyph glyph-name="bullet" unicode="&#x2022;" horiz-adv-x="353" 
d="M175 192q-53 0 -90.5 38.5t-37.5 92.5q0 55 37.5 93t90.5 38t92 -38t39 -93q0 -54 -39 -92.5t-92 -38.5z" />
    <glyph glyph-name="ellipsis" unicode="&#x2026;" horiz-adv-x="728" 
d="M552 0v101h100v-101h-100zM76 0v101h100v-101h-100zM314 0v101h100v-101h-100z" />
    <glyph glyph-name="perthousand" unicode="&#x2030;" horiz-adv-x="1237" 
d="M205 322q-75 0 -118.5 48.5t-43.5 131.5v17q0 82 44 134t118 52q75 0 118 -48.5t43 -130.5v-17q0 -83 -43.5 -135t-117.5 -52zM149 -40l480 753h76l-480 -753h-76zM1033 -9q-75 0 -118.5 48.5t-43.5 131.5v17q0 82 44 134t118 52q75 0 118 -48.5t43 -130.5v-17
q0 -83 -43.5 -135t-117.5 -52zM659 -9q-75 0 -118.5 48.5t-43.5 131.5v17q0 82 44 134t118 52q75 0 118 -48.5t43 -130.5v-17q0 -83 -43.5 -135t-117.5 -52zM205 380q82 0 82 121v25q0 121 -82 121q-83 0 -83 -120v-25q0 -122 83 -122zM1033 49q82 0 82 121v25
q0 121 -82 121q-83 0 -83 -120v-25q0 -122 83 -122zM659 49q82 0 82 121v25q0 121 -82 121q-83 0 -83 -120v-25q0 -122 83 -122z" />
    <glyph glyph-name="uni2032" unicode="&#x2032;" horiz-adv-x="207" 
d="M55 508l13 185h97l-33 -185h-77z" />
    <glyph glyph-name="uni2033" unicode="&#x2033;" horiz-adv-x="365" 
d="M213 508l13 185h97l-33 -185h-77zM55 508l13 185h97l-33 -185h-77z" />
    <glyph glyph-name="guilsinglleft" unicode="&#x2039;" horiz-adv-x="266" 
d="M142 56l-102 180v33l102 180h81l-100 -196l100 -197h-81z" />
    <glyph glyph-name="guilsinglright" unicode="&#x203a;" horiz-adv-x="266" 
d="M43 56l100 196l-100 197h81l102 -180v-33l-102 -180h-81z" />
    <glyph glyph-name="fraction" unicode="&#x2044;" horiz-adv-x="236" 
d="M-175 -40l511 753h74l-511 -753h-74z" />
    <glyph glyph-name="Euro" unicode="&#x20ac;" horiz-adv-x="574" 
d="M23 383v73h76q10 70 38.5 121t69.5 77.5t83.5 38.5t91.5 12q92 0 159 -36v-76q-90 34 -165 34q-159 0 -182 -171h216v-73h-220v-78h220v-73h-213q15 -93 63 -129.5t126 -36.5q34 0 66.5 7.5t49.5 14.5t47 21v-77q-77 -44 -175 -44q-103 0 -177.5 57t-96.5 187h-77v73h70
v78h-70z" />
    <glyph glyph-name="trademark" unicode="&#x2122;" horiz-adv-x="650" 
d="M303 404v289h86l73 -212h3l76 212h84v-289h-62v210h-3l-72 -210h-56l-71 210h-3v-210h-55zM103 404v237h-86v52h235v-52h-87v-237h-62z" />
    <glyph glyph-name="onethird" unicode="&#x2153;" horiz-adv-x="800" 
d="M105 277v342l-83 -13v46l118 44h38v-419h-73zM51 -40l511 753h74l-511 -753h-74zM608 -7q-70 0 -116 26v54q53 -21 97 -21q100 0 100 69q0 67 -91 67h-40v55h34q85 0 85 63q0 58 -80 58q-46 0 -89 -15v53q45 21 110 21q60 0 96.5 -27.5t36.5 -76.5q0 -73 -77 -97v-2
q92 -18 92 -104q0 -58 -42.5 -90.5t-115.5 -32.5z" />
    <glyph glyph-name="twothirds" unicode="&#x2154;" horiz-adv-x="866" 
d="M35 277v50l93 93q48 47 69.5 80t21.5 70q0 71 -78 71q-53 0 -99 -22v55q52 26 115 26q66 0 103 -33t37 -90q0 -49 -26 -88t-87 -96l-62 -57v-1h184v-58h-271zM147 -40l511 753h74l-511 -753h-74zM674 -7q-70 0 -116 26v54q53 -21 97 -21q100 0 100 69q0 67 -91 67h-40v55
h34q85 0 85 63q0 58 -80 58q-46 0 -89 -15v53q45 21 110 21q60 0 96.5 -27.5t36.5 -76.5q0 -73 -77 -97v-2q92 -18 92 -104q0 -58 -42.5 -90.5t-115.5 -32.5z" />
    <glyph glyph-name="oneeighth" unicode="&#x215b;" horiz-adv-x="793" 
d="M105 277v342l-83 -13v46l118 44h38v-419h-73zM36 -40l511 753h74l-511 -753h-74zM605 -7q-75 0 -116.5 30t-41.5 82q0 35 24.5 63t61.5 44q-73 38 -73 102q0 49 39 79.5t106 30.5q66 0 104.5 -28t38.5 -77q0 -64 -75 -102q44 -18 68 -41t24 -63q0 -54 -42.5 -87
t-117.5 -33zM603 48q40 0 63.5 15.5t23.5 43.5q0 30 -22.5 44.5t-86.5 37.5q-64 -32 -64 -79q0 -62 86 -62zM621 242q30 16 44 32t14 41t-19 39.5t-55 14.5q-34 0 -53.5 -14t-19.5 -39t20 -39.5t69 -34.5z" />
    <glyph glyph-name="threeeighths" unicode="&#x215c;" horiz-adv-x="851" 
d="M147 270q-70 0 -116 26v54q53 -21 97 -21q100 0 100 69q0 67 -91 67h-40v55h34q85 0 85 63q0 58 -80 58q-46 0 -89 -15v53q45 21 110 21q60 0 96.5 -27.5t36.5 -76.5q0 -73 -77 -97v-2q92 -18 92 -104q0 -58 -42.5 -90.5t-115.5 -32.5zM110 -40l511 753h74l-511 -753h-74
zM663 -7q-75 0 -116.5 30t-41.5 82q0 35 24.5 63t61.5 44q-73 38 -73 102q0 49 39 79.5t106 30.5q66 0 104.5 -28t38.5 -77q0 -64 -75 -102q44 -18 68 -41t24 -63q0 -54 -42.5 -87t-117.5 -33zM661 48q40 0 63.5 15.5t23.5 43.5q0 30 -22.5 44.5t-86.5 37.5q-64 -32 -64 -79
q0 -62 86 -62zM679 242q30 16 44 32t14 41t-19 39.5t-55 14.5q-34 0 -53.5 -14t-19.5 -39t20 -39.5t69 -34.5z" />
    <glyph glyph-name="fiveeighths" unicode="&#x215d;" horiz-adv-x="841" 
d="M146 270q-73 0 -118 26v54q49 -21 99 -21q99 0 99 78q0 40 -25 57.5t-74 17.5q-46 0 -81 -10l15 221h225v-58h-170l-8 -103q23 5 49 5q146 0 146 -130q0 -63 -42.5 -100t-114.5 -37zM100 -40l511 753h74l-511 -753h-74zM653 -7q-75 0 -116.5 30t-41.5 82q0 35 24.5 63
t61.5 44q-73 38 -73 102q0 49 39 79.5t106 30.5q66 0 104.5 -28t38.5 -77q0 -64 -75 -102q44 -18 68 -41t24 -63q0 -54 -42.5 -87t-117.5 -33zM651 48q40 0 63.5 15.5t23.5 43.5q0 30 -22.5 44.5t-86.5 37.5q-64 -32 -64 -79q0 -62 86 -62zM669 242q30 16 44 32t14 41
t-19 39.5t-55 14.5q-34 0 -53.5 -14t-19.5 -39t20 -39.5t69 -34.5z" />
    <glyph glyph-name="seveneighths" unicode="&#x215e;" horiz-adv-x="809" 
d="M64 277l166 354v2h-200v60h276v-54l-159 -362h-83zM59 -40l511 753h74l-511 -753h-74zM621 -7q-75 0 -116.5 30t-41.5 82q0 35 24.5 63t61.5 44q-73 38 -73 102q0 49 39 79.5t106 30.5q66 0 104.5 -28t38.5 -77q0 -64 -75 -102q44 -18 68 -41t24 -63q0 -54 -42.5 -87
t-117.5 -33zM619 48q40 0 63.5 15.5t23.5 43.5q0 30 -22.5 44.5t-86.5 37.5q-64 -32 -64 -79q0 -62 86 -62zM637 242q30 16 44 32t14 41t-19 39.5t-55 14.5q-34 0 -53.5 -14t-19.5 -39t20 -39.5t69 -34.5z" />
    <glyph glyph-name="minus" unicode="&#x2212;" horiz-adv-x="517" 
d="M49 295v77h419v-77h-419z" />
    <glyph glyph-name="uni24C5" unicode="&#x24c5;" horiz-adv-x="800" 
d="M399 -14q-151 0 -252.5 104.5t-101.5 253.5t101.5 252.5t252.5 103.5t253.5 -103.5t102.5 -252.5t-103 -253.5t-253 -104.5zM399 36q129 0 212.5 87t83.5 221t-83.5 220t-212.5 86q-130 0 -212 -86t-82 -220q0 -135 82.5 -221.5t211.5 -86.5zM275 161v373h133
q146 0 146 -118q0 -119 -136 -119h-68v-136h-75zM350 353h60q67 0 67 64q0 59 -71 59h-56v-123z" />
    <glyph glyph-name="space_uni0326" horiz-adv-x="488" 
d="M182 -182l12 140h99l-46 -140h-65z" />
    <glyph glyph-name="caron.alt" horiz-adv-x="488" 
d="M279 576h-63l10 163h86z" />
    <glyph glyph-name="space_uni0326.alt" horiz-adv-x="488" 
d="M300 746l-12 -140h-99l46 140h65z" />
    <glyph glyph-name="acute.pl" 
d="M245 587l46 145h96l-71 -145h-71z" />
    <glyph glyph-name="grave.uc" 
d="M211 740l-88 125h99l67 -125h-78z" />
    <glyph glyph-name="dieresis.uc" 
d="M291 746v89h86v-89h-86zM117 746v89h86v-89h-86z" />
    <glyph glyph-name="macron.uc" 
d="M128 748v73h238v-73h-238z" />
    <glyph glyph-name="acute.uc" 
d="M205 740l73 125h99l-94 -125h-78z" />
    <glyph glyph-name="circumflex.uc" 
d="M112 740l99 124h72l99 -124h-69l-67 60l-65 -60h-69z" />
    <glyph glyph-name="caron.uc" 
d="M382 864l-99 -124h-72l-99 124h69l67 -60l65 60h69z" />
    <glyph glyph-name="breve.uc" 
d="M247 738q-57 0 -93 35t-39 91h67q10 -60 65 -60t65 60h67q-2 -56 -38.5 -91t-93.5 -35z" />
    <glyph glyph-name="dotaccent.uc" 
d="M202 746v91h90v-91h-90z" />
    <glyph glyph-name="ring.uc" 
d="M247 729q-41 0 -68.5 27t-27.5 65t27.5 65t68.5 27t68.5 -27t27.5 -65t-27.5 -65t-68.5 -27zM247 772q22 0 35 13.5t13 35.5t-13 35.5t-35 13.5t-35 -13.5t-13 -35.5t13 -35.5t35 -13.5z" />
    <glyph glyph-name="tilde.uc" 
d="M95 745q6 52 33 78t63 26q23 0 58.5 -15.5t47.5 -15.5q29 0 36 33h60q-6 -52 -33 -78t-63 -26q-23 0 -58.5 15.5t-47.5 15.5q-29 0 -36 -33h-60z" />
    <glyph glyph-name="hungarumlaut.uc" 
d="M115 740l39 125h95l-60 -125h-74zM273 740l38 125h95l-60 -125h-73z" />
    <glyph glyph-name="acute.ucpl" 
d="M238 740l39 125h96l-64 -125h-71z" />
    <glyph glyph-name="Cacute.pl" horiz-adv-x="565" 
d="M342 -12q-143 0 -223.5 88.5t-80.5 260.5v24q0 177 88 260.5t230 83.5q100 0 171 -38v-76q-95 36 -177 36q-99 0 -156.5 -61.5t-57.5 -189.5v-38q0 -272 218 -272q89 0 181 44v-77q-79 -45 -193 -45zM300 740l39 125h96l-64 -125h-71z" />
    <glyph glyph-name="Nacute.pl" horiz-adv-x="667" 
d="M78 0v693h107l318 -539h3v539h83v-693h-94l-331 568h-3v-568h-83zM318 740l39 125h96l-64 -125h-71z" />
    <glyph glyph-name="Oacute.pl" horiz-adv-x="687" 
d="M342 -12q-143 0 -223.5 91t-80.5 258v20q0 162 82 255t226 93q142 0 222.5 -91t80.5 -258v-20q0 -162 -81.5 -255t-225.5 -93zM345 63q101 0 153.5 71.5t52.5 186.5v34q0 274 -210 275q-101 0 -153 -71t-52 -186v-34q0 -276 209 -276zM309 740l39 125h96l-64 -125h-71z
" />
    <glyph glyph-name="Sacute.pl" horiz-adv-x="497" 
d="M227 -13q-116 0 -199 46v77q90 -45 194 -45q73 0 109.5 31.5t36.5 87.5q0 49 -24 74.5t-86 46.5l-72 24q-74 25 -111.5 68.5t-37.5 120.5q0 85 56.5 136t162.5 51q92 0 170 -38v-77q-82 37 -173 37q-59 0 -92 -26.5t-33 -74.5t20.5 -72.5t74.5 -42.5l72 -24
q84 -28 125 -71t41 -125q0 -95 -58 -149.5t-176 -54.5zM214 740l39 125h96l-64 -125h-71z" />
    <glyph glyph-name="Zacute.pl" horiz-adv-x="535" 
d="M27 0v69l373 544v3h-346v77h456v-68l-374 -545v-3h361v-77h-470zM244 740l39 125h96l-64 -125h-71z" />
    <glyph glyph-name="cacute.pl" horiz-adv-x="443" 
d="M270 -10q-112 0 -175.5 64.5t-63.5 190.5v17q0 129 68 195t176 66q85 0 140 -34v-73q-29 12 -44.5 17.5t-42.5 10t-59 4.5q-69 0 -108 -45t-39 -128v-27q0 -95 39.5 -139t118.5 -44q69 0 141 36v-70q-63 -41 -151 -41zM223 587l46 145h96l-71 -145h-71z" />
    <glyph glyph-name="idotaccent" horiz-adv-x="220" 
d="M66 0v513h88v-513h-88zM65 615v91h90v-91h-90z" />
    <glyph glyph-name="nacute.pl" horiz-adv-x="534" 
d="M63 0v513h84v-44h5q77 54 173 54q76 0 112.5 -33.5t36.5 -107.5v-382h-88v363q0 46 -20.5 65t-79.5 19q-61 0 -135 -34v-413h-88zM235 587l46 145h96l-71 -145h-71z" />
    <glyph glyph-name="oacute.pl" horiz-adv-x="531" 
d="M265 -10q-111 0 -172.5 67.5t-61.5 188.5v17q0 120 64 190t171 70q110 0 172 -68t62 -189v-16q0 -120 -64 -190t-171 -70zM267 62q67 0 104.5 46t37.5 132v28q0 183 -145 183q-68 0 -105 -47t-37 -132v-28q0 -182 145 -182zM230 587l46 145h96l-71 -145h-71z" />
    <glyph glyph-name="sacute.pl" horiz-adv-x="409" 
d="M195 -9q-102 0 -166 36v70q30 -12 45 -17t45 -10t64 -5q109 0 109 71q0 32 -18.5 49.5t-65.5 30.5l-49 13q-62 17 -95 49t-33 94q0 70 45.5 110.5t134.5 40.5q82 0 140 -30v-71q-59 27 -136 27q-100 0 -100 -68q0 -31 17 -46.5t57 -26.5l49 -13q78 -21 109.5 -53
t31.5 -98q0 -74 -49 -113.5t-135 -39.5zM171 587l46 145h96l-71 -145h-71z" />
    <glyph glyph-name="zacute.pl" horiz-adv-x="447" 
d="M32 0v65l274 373v3h-259v72h366v-63l-274 -375v-3h273v-72h-380zM195 587l46 145h96l-71 -145h-71z" />
    <glyph glyph-name="dollar.old" horiz-adv-x="483" 
d="M165 -108l12 98q-84 9 -144 42v72q77 -37 153 -42l29 234l-30 10q-70 22 -106.5 61.5t-36.5 111.5q0 80 53.5 128t154.5 48h9l8 64h62l-9 -69q50 -8 97 -31v-72q-47 22 -106 30l-27 -217h2q83 -27 120.5 -66t37.5 -116q0 -85 -52 -135.5t-153 -54.5l-12 -96h-62zM127 487
q0 -43 20 -66t73 -40l5 -2l25 203h-1q-57 0 -89.5 -25.5t-32.5 -69.5zM355 171q0 42 -17 65t-64 41l-26 -214q53 7 80 35.5t27 72.5z" />
    <glyph glyph-name="Euro.old" horiz-adv-x="539" 
d="M24 355v69h70q18 121 89.5 176t174.5 55q83 0 148 -36v-71q-82 32 -154 32q-147 0 -169 -156h201v-69h-205v-71h205v-69h-198q13 -78 55.5 -115.5t120.5 -37.5q32 0 62.5 7t45 13t43.5 19v-71q-71 -41 -162 -41q-102 0 -169 56.5t-86 169.5h-72v69h65v71h-65z" />
    <glyph glyph-name="sterling.old" horiz-adv-x="491" 
d="M41 284v69h75v87q0 107 61 160.5t149 53.5q75 0 129 -34v-59q-60 21 -114 21q-137 0 -137 -146v-83h174v-69h-174v-46q0 -62 -17.5 -98t-57.5 -65v-2h331v-73h-428v64q44 26 64 65t20 106v49h-75z" />
    <glyph glyph-name="yen.old" horiz-adv-x="506" 
d="M210 0v117h-164v69h164v72h-164v69h133l-167 316h94l151 -296h3l148 296h86l-166 -316h134v-69h-165v-72h165v-69h-165v-117h-87z" />
    <glyph glyph-name="zero.old" horiz-adv-x="589" 
d="M295 -13q-112 0 -185 72t-73 221v24q0 153 73 227t185 74q113 0 185 -71.5t72 -223.5v-24q0 -152 -72.5 -225.5t-184.5 -73.5zM295 59q83 0 126 50t43 164v38q0 222 -168 222t-168 -216v-38q0 -220 167 -220z" />
    <glyph glyph-name="one.old" horiz-adv-x="331" 
d="M154 0v493l-131 -14v52l187 68h32v-599h-88z" />
    <glyph glyph-name="two.old" horiz-adv-x="462" 
d="M29 0v63l160 145q77 70 108 115t31 99q0 111 -121 111q-68 0 -145 -32v62q74 42 166 42q90 0 140 -46.5t50 -129.5q0 -68 -40.5 -127t-130.5 -134l-111 -92v-3h283v-73h-390z" />
    <glyph glyph-name="three.old" horiz-adv-x="493" 
d="M201 -111q-103 0 -178 44v66q87 -38 158 -38q84 0 132 34.5t48 101.5q0 127 -159 127h-64v73h52q69 0 106.5 30.5t37.5 90.5q0 61 -32.5 88t-96.5 27t-146 -30v66q74 36 169 36q94 0 145 -45.5t51 -127.5q0 -121 -127 -161v-3q155 -30 155 -175q0 -97 -67 -150.5
t-184 -53.5z" />
    <glyph glyph-name="four.old" horiz-adv-x="565" 
d="M340 -100v188h-324v66l337 439h73v-432h123v-73h-123v-188h-86zM109 161h231v299h-4l-227 -296v-3z" />
    <glyph glyph-name="five.old" horiz-adv-x="486" 
d="M208 -111q-112 0 -185 45v66q81 -38 165 -38q80 0 123 39t43 115t-40.5 107t-125.5 31q-77 0 -136 -18l26 357h357v-73h-286l-15 -202q40 9 80 9q231 0 231 -210q0 -102 -64.5 -165t-172.5 -63z" />
    <glyph glyph-name="six.old" horiz-adv-x="549" 
d="M288 -13q-117 0 -183 81t-66 219v44q0 98 25.5 172.5t69 117t96 63.5t112.5 21q92 0 138 -27v-66q-58 20 -122 20q-216 0 -228 -270q79 61 178 61q94 0 150 -50t56 -149q0 -102 -60 -169.5t-166 -67.5zM287 59q66 0 102 42.5t36 113.5q0 78 -36.5 106.5t-104.5 28.5
q-80 0 -155 -48v-17q0 -104 39.5 -165t118.5 -61z" />
    <glyph glyph-name="seven.old" horiz-adv-x="468" 
d="M72 -100l285 616v4h-330v73h416v-68l-274 -625h-97z" />
    <glyph glyph-name="eight.old" horiz-adv-x="551" 
d="M276 -13q-109 0 -173 50t-64 136q0 63 38 110t106 76q-58 29 -88.5 68t-30.5 100q0 78 58.5 128t153.5 50q96 0 154.5 -46t58.5 -126q0 -115 -128 -176q74 -27 112.5 -66t38.5 -109q0 -86 -64 -140.5t-172 -54.5zM274 58q67 0 108 31.5t41 82.5q0 57 -36 85.5t-148 69.5
q-114 -56 -114 -150q0 -56 40.5 -87.5t108.5 -31.5zM303 387q51 28 74.5 60.5t23.5 80.5q0 47 -30.5 76.5t-93.5 29.5q-56 0 -90 -28t-34 -75q0 -50 33 -81t117 -63z" />
    <glyph glyph-name="nine.old" horiz-adv-x="549" 
d="M212 -113q-100 0 -149 31v66q59 -24 133 -24q98 0 157 61t66 209q-79 -61 -178 -61q-94 0 -150 50t-56 149q0 102 60 169.5t166 67.5q117 0 183 -81t66 -219v-44q0 -192 -82 -283t-216 -91zM265 242q80 0 155 48v17q0 104 -39.5 165t-118.5 61q-66 0 -102 -42.5
t-36 -113.5q0 -78 36.5 -106.5t104.5 -28.5z" />
    <glyph glyph-name="percent.old" horiz-adv-x="817" 
d="M188 287q-70 0 -111.5 44t-41.5 121v13q0 75 42 122.5t111 47.5q70 0 111.5 -44t41.5 -120v-12q0 -76 -42 -124t-111 -48zM629 -7q-70 0 -111.5 44t-41.5 121v13q0 75 42 122.5t111 47.5q70 0 111.5 -44t41.5 -120v-12q0 -76 -42 -124t-111 -48zM149 -30l435 673h76
l-435 -673h-76zM629 49q76 0 76 108v20q0 108 -76 108t-76 -107v-20q0 -109 76 -109zM188 343q76 0 76 108v20q0 108 -76 108t-76 -107v-20q0 -109 76 -109z" />
    <glyph glyph-name="perthousand.old" horiz-adv-x="1169" 
d="M188 287q-70 0 -111.5 44t-41.5 121v13q0 75 42 122.5t111 47.5q70 0 111.5 -44t41.5 -120v-12q0 -76 -42 -124t-111 -48zM629 -7q-70 0 -111.5 44t-41.5 121v13q0 75 42 122.5t111 47.5q70 0 111.5 -44t41.5 -120v-12q0 -76 -42 -124t-111 -48zM149 -30l435 673h76
l-435 -673h-76zM629 49q76 0 76 108v20q0 108 -76 108t-76 -107v-20q0 -109 76 -109zM188 343q76 0 76 108v20q0 108 -76 108t-76 -107v-20q0 -109 76 -109zM981 -7q-70 0 -111.5 44t-41.5 121v13q0 75 42 122.5t111 47.5q70 0 111.5 -44t41.5 -120v-12q0 -76 -42 -124
t-111 -48zM981 49q76 0 76 108v20q0 108 -76 108t-76 -107v-20q0 -109 76 -109z" />
    <glyph glyph-name="plus.old" horiz-adv-x="555" 
d="M237 91v176h-169v77h169v176h81v-176h169v-77h-169v-176h-81z" />
    <glyph glyph-name="minus.old" horiz-adv-x="555" 
d="M68 267v77h419v-77h-419z" />
    <glyph glyph-name="multiply.old" horiz-adv-x="555" 
d="M129 96l-53 53l146 146l-146 146l53 53l146 -146l146 146l53 -53l-146 -146l146 -146l-53 -53l-146 146z" />
    <glyph glyph-name="divide.old" horiz-adv-x="554" 
d="M68 267v77h418v-77h-418zM227 99v101h100v-101h-100zM227 411v101h100v-101h-100z" />
    <glyph glyph-name="equal.old" horiz-adv-x="554" 
d="M69 329v74h416v-74h-416zM69 152v74h416v-74h-416z" />
    <glyph glyph-name="less.old" horiz-adv-x="511" 
d="M438 76l-376 180v71l376 180v-86l-282 -130l282 -127v-88z" />
    <glyph glyph-name="greater.old" horiz-adv-x="511" 
d="M73 76v86l282 130l-282 127v88l376 -180v-71z" />
    <glyph glyph-name="numbersign.old" horiz-adv-x="511" 
d="M78 0l30 188h-83v77h95l19 124h-83v77h95l28 177h71l-28 -177h109l28 177h71l-28 -177h83v-77h-95l-19 -124h83v-77h-95l-30 -188h-71l30 188h-109l-30 -188h-71zM191 265h109l19 124h-109z" />
    <glyph glyph-name="zero.num" horiz-adv-x="401" 
d="M201 270q-78 0 -125.5 50t-47.5 153v21q0 106 49 157t125 51t123.5 -50t47.5 -154v-22q0 -106 -47.5 -156t-124.5 -50zM201 327q50 0 73 33.5t23 108.5v30q0 146 -95 146q-50 0 -73 -34.5t-23 -108.5v-29q0 -146 95 -146z" />
    <glyph glyph-name="one.num" horiz-adv-x="246" 
d="M102 277v342l-83 -13v46l118 44h38v-419h-73z" />
    <glyph glyph-name="two.num" horiz-adv-x="337" 
d="M32 277v50l93 93q48 47 69.5 80t21.5 70q0 71 -78 71q-53 0 -99 -22v55q52 26 115 26q66 0 103 -33t37 -90q0 -49 -26 -88t-87 -96l-62 -57v-1h184v-58h-271z" />
    <glyph glyph-name="three.num" horiz-adv-x="333" 
d="M144 270q-70 0 -116 26v54q53 -21 97 -21q100 0 100 69q0 67 -91 67h-40v55h34q85 0 85 63q0 58 -80 58q-46 0 -89 -15v53q45 21 110 21q60 0 96.5 -27.5t36.5 -76.5q0 -73 -77 -97v-2q92 -18 92 -104q0 -58 -42.5 -90.5t-115.5 -32.5z" />
    <glyph glyph-name="four.num" horiz-adv-x="369" 
d="M211 277v109h-192v51l200 256h64v-252h75v-55h-75v-109h-72zM91 441h121v152h-3l-118 -149v-3z" />
    <glyph glyph-name="five.num" horiz-adv-x="332" 
d="M141 270q-73 0 -118 26v54q49 -21 99 -21q99 0 99 78q0 40 -25 57.5t-74 17.5q-46 0 -81 -10l15 221h225v-58h-170l-8 -103q23 5 49 5q146 0 146 -130q0 -63 -42.5 -100t-114.5 -37z" />
    <glyph glyph-name="six.num" horiz-adv-x="365" 
d="M191 270q-77 0 -120 50.5t-43 137.5v26q0 113 55 165.5t141 52.5q62 0 91 -15v-55q-35 11 -76 11q-61 0 -95.5 -27t-38.5 -103q43 28 105 28q59 0 94.5 -33t35.5 -94q0 -62 -39 -103t-110 -41zM190 325q36 0 56 22t20 61q0 45 -20 61.5t-58 16.5q-44 0 -84 -23v-11
q0 -127 86 -127z" />
    <glyph glyph-name="seven.num" horiz-adv-x="335" 
d="M61 277l166 354v2h-200v60h276v-54l-159 -362h-83z" />
    <glyph glyph-name="eight.num" horiz-adv-x="368" 
d="M183 270q-75 0 -116.5 30t-41.5 82q0 35 24.5 63t61.5 44q-73 38 -73 102q0 49 39 79.5t106 30.5q66 0 104.5 -28t38.5 -77q0 -64 -75 -102q44 -18 68 -41t24 -63q0 -54 -42.5 -87t-117.5 -33zM181 325q40 0 63.5 15.5t23.5 43.5q0 30 -22.5 44.5t-86.5 37.5
q-64 -32 -64 -79q0 -62 86 -62zM199 519q30 16 44 32t14 41t-19 39.5t-55 14.5q-34 0 -53.5 -14t-19.5 -39t20 -39.5t69 -34.5z" />
    <glyph glyph-name="nine.num" horiz-adv-x="365" 
d="M142 270q-66 0 -95 17v55q35 -13 79 -13q67 0 99.5 28t34.5 103q-43 -28 -104 -28q-60 0 -95.5 32.5t-35.5 94.5t39 102.5t111 40.5q75 0 118.5 -48t43.5 -139v-26q0 -219 -195 -219zM177 486q42 0 84 24v10q0 127 -85 127q-76 0 -76 -83q0 -45 19.5 -61.5t57.5 -16.5z
" />
    <glyph glyph-name="zero.den" horiz-adv-x="401" 
d="M201 -7q-78 0 -125.5 50t-47.5 153v21q0 106 49 157t125 51t123.5 -50t47.5 -154v-22q0 -106 -47.5 -156t-124.5 -50zM201 50q50 0 73 33.5t23 108.5v30q0 146 -95 146q-50 0 -73 -34.5t-23 -108.5v-29q0 -146 95 -146z" />
    <glyph glyph-name="one.den" horiz-adv-x="246" 
d="M102 0v342l-83 -13v46l118 44h38v-419h-73z" />
    <glyph glyph-name="two.den" horiz-adv-x="337" 
d="M32 0v50l93 93q48 47 69.5 80t21.5 70q0 71 -78 71q-53 0 -99 -22v55q52 26 115 26q66 0 103 -33t37 -90q0 -49 -26 -88t-87 -96l-62 -57v-1h184v-58h-271z" />
    <glyph glyph-name="three.den" horiz-adv-x="333" 
d="M144 -7q-70 0 -116 26v54q53 -21 97 -21q100 0 100 69q0 67 -91 67h-40v55h34q85 0 85 63q0 58 -80 58q-46 0 -89 -15v53q45 21 110 21q60 0 96.5 -27.5t36.5 -76.5q0 -73 -77 -97v-2q92 -18 92 -104q0 -58 -42.5 -90.5t-115.5 -32.5z" />
    <glyph glyph-name="four.den" horiz-adv-x="369" 
d="M211 0v109h-192v51l200 256h64v-252h75v-55h-75v-109h-72zM91 164h121v152h-3l-118 -149v-3z" />
    <glyph glyph-name="five.den" horiz-adv-x="332" 
d="M141 -7q-73 0 -118 26v54q49 -21 99 -21q99 0 99 78q0 40 -25 57.5t-74 17.5q-46 0 -81 -10l15 221h225v-58h-170l-8 -103q23 5 49 5q146 0 146 -130q0 -63 -42.5 -100t-114.5 -37z" />
    <glyph glyph-name="six.den" horiz-adv-x="365" 
d="M191 -7q-77 0 -120 50.5t-43 137.5v26q0 113 55 165.5t141 52.5q62 0 91 -15v-55q-35 11 -76 11q-61 0 -95.5 -27t-38.5 -103q43 28 105 28q59 0 94.5 -33t35.5 -94q0 -62 -39 -103t-110 -41zM190 48q36 0 56 22t20 61q0 45 -20 61.5t-58 16.5q-44 0 -84 -23v-11
q0 -127 86 -127z" />
    <glyph glyph-name="seven.den" horiz-adv-x="335" 
d="M61 0l166 354v2h-200v60h276v-54l-159 -362h-83z" />
    <glyph glyph-name="eight.den" horiz-adv-x="368" 
d="M183 -7q-75 0 -116.5 30t-41.5 82q0 35 24.5 63t61.5 44q-73 38 -73 102q0 49 39 79.5t106 30.5q66 0 104.5 -28t38.5 -77q0 -64 -75 -102q44 -18 68 -41t24 -63q0 -54 -42.5 -87t-117.5 -33zM181 48q40 0 63.5 15.5t23.5 43.5q0 30 -22.5 44.5t-86.5 37.5
q-64 -32 -64 -79q0 -62 86 -62zM199 242q30 16 44 32t14 41t-19 39.5t-55 14.5q-34 0 -53.5 -14t-19.5 -39t20 -39.5t69 -34.5z" />
    <glyph glyph-name="nine.den" horiz-adv-x="365" 
d="M142 -7q-66 0 -95 17v55q35 -13 79 -13q67 0 99.5 28t34.5 103q-43 -28 -104 -28q-60 0 -95.5 32.5t-35.5 94.5t39 102.5t111 40.5q75 0 118.5 -48t43.5 -139v-26q0 -219 -195 -219zM177 209q42 0 84 24v10q0 127 -85 127q-76 0 -76 -83q0 -45 19.5 -61.5t57.5 -16.5z
" />
    <glyph glyph-name="zero.sub" horiz-adv-x="401" 
d="M201 -127q-78 0 -125.5 50t-47.5 153v21q0 106 49 157t125 51t123.5 -50t47.5 -154v-22q0 -106 -47.5 -156t-124.5 -50zM201 -70q50 0 73 33.5t23 108.5v30q0 146 -95 146q-50 0 -73 -34.5t-23 -108.5v-29q0 -146 95 -146z" />
    <glyph glyph-name="one.sub" horiz-adv-x="246" 
d="M102 -120v342l-83 -13v46l118 44h38v-419h-73z" />
    <glyph glyph-name="two.sub" horiz-adv-x="337" 
d="M32 -120v50l93 93q48 47 69.5 80t21.5 70q0 71 -78 71q-53 0 -99 -22v55q52 26 115 26q66 0 103 -33t37 -90q0 -49 -26 -88t-87 -96l-62 -57v-1h184v-58h-271z" />
    <glyph glyph-name="three.sub" horiz-adv-x="333" 
d="M144 -127q-70 0 -116 26v54q53 -21 97 -21q100 0 100 69q0 67 -91 67h-40v55h34q85 0 85 63q0 58 -80 58q-46 0 -89 -15v53q45 21 110 21q60 0 96.5 -27.5t36.5 -76.5q0 -73 -77 -97v-2q92 -18 92 -104q0 -58 -42.5 -90.5t-115.5 -32.5z" />
    <glyph glyph-name="four.sub" horiz-adv-x="369" 
d="M211 -120v109h-192v51l200 256h64v-252h75v-55h-75v-109h-72zM91 44h121v152h-3l-118 -149v-3z" />
    <glyph glyph-name="five.sub" horiz-adv-x="332" 
d="M141 -127q-73 0 -118 26v54q49 -21 99 -21q99 0 99 78q0 40 -25 57.5t-74 17.5q-46 0 -81 -10l15 221h225v-58h-170l-8 -103q23 5 49 5q146 0 146 -130q0 -63 -42.5 -100t-114.5 -37z" />
    <glyph glyph-name="six.sub" horiz-adv-x="365" 
d="M191 -127q-77 0 -120 50.5t-43 137.5v26q0 113 55 165.5t141 52.5q62 0 91 -15v-55q-35 11 -76 11q-61 0 -95.5 -27t-38.5 -103q43 28 105 28q59 0 94.5 -33t35.5 -94q0 -62 -39 -103t-110 -41zM190 -72q36 0 56 22t20 61q0 45 -20 61.5t-58 16.5q-44 0 -84 -23v-11
q0 -127 86 -127z" />
    <glyph glyph-name="seven.sub" horiz-adv-x="335" 
d="M61 -120l166 354v2h-200v60h276v-54l-159 -362h-83z" />
    <glyph glyph-name="eight.sub" horiz-adv-x="368" 
d="M183 -127q-75 0 -116.5 30t-41.5 82q0 35 24.5 63t61.5 44q-73 38 -73 102q0 49 39 79.5t106 30.5q66 0 104.5 -28t38.5 -77q0 -64 -75 -102q44 -18 68 -41t24 -63q0 -54 -42.5 -87t-117.5 -33zM181 -72q40 0 63.5 15.5t23.5 43.5q0 30 -22.5 44.5t-86.5 37.5
q-64 -32 -64 -79q0 -62 86 -62zM199 122q30 16 44 32t14 41t-19 39.5t-55 14.5q-34 0 -53.5 -14t-19.5 -39t20 -39.5t69 -34.5z" />
    <glyph glyph-name="nine.sub" horiz-adv-x="365" 
d="M142 -127q-66 0 -95 17v55q35 -13 79 -13q67 0 99.5 28t34.5 103q-43 -28 -104 -28q-60 0 -95.5 32.5t-35.5 94.5t39 102.5t111 40.5q75 0 118.5 -48t43.5 -139v-26q0 -219 -195 -219zM177 89q42 0 84 24v10q0 127 -85 127q-76 0 -76 -83q0 -45 19.5 -61.5t57.5 -16.5z
" />
    <glyph glyph-name="zero.sup" horiz-adv-x="401" 
d="M201 315q-78 0 -125.5 50t-47.5 153v21q0 106 49 157t125 51t123.5 -50t47.5 -154v-22q0 -106 -47.5 -156t-124.5 -50zM201 372q50 0 73 33.5t23 108.5v30q0 146 -95 146q-50 0 -73 -34.5t-23 -108.5v-29q0 -146 95 -146z" />
    <glyph glyph-name="one.sup" horiz-adv-x="246" 
d="M102 322v342l-83 -13v46l118 44h38v-419h-73z" />
    <glyph glyph-name="two.sup" horiz-adv-x="337" 
d="M32 322v50l93 93q48 47 69.5 80t21.5 70q0 71 -78 71q-53 0 -99 -22v55q52 26 115 26q66 0 103 -33t37 -90q0 -49 -26 -88t-87 -96l-62 -57v-1h184v-58h-271z" />
    <glyph glyph-name="three.sup" horiz-adv-x="333" 
d="M144 315q-70 0 -116 26v54q53 -21 97 -21q100 0 100 69q0 67 -91 67h-40v55h34q85 0 85 63q0 58 -80 58q-46 0 -89 -15v53q45 21 110 21q60 0 96.5 -27.5t36.5 -76.5q0 -73 -77 -97v-2q92 -18 92 -104q0 -58 -42.5 -90.5t-115.5 -32.5z" />
    <glyph glyph-name="four.sup" horiz-adv-x="369" 
d="M211 322v109h-192v51l200 256h64v-252h75v-55h-75v-109h-72zM91 486h121v152h-3l-118 -149v-3z" />
    <glyph glyph-name="five.sup" horiz-adv-x="332" 
d="M141 315q-73 0 -118 26v54q49 -21 99 -21q99 0 99 78q0 40 -25 57.5t-74 17.5q-46 0 -81 -10l15 221h225v-58h-170l-8 -103q23 5 49 5q146 0 146 -130q0 -63 -42.5 -100t-114.5 -37z" />
    <glyph glyph-name="six.sup" horiz-adv-x="365" 
d="M191 315q-77 0 -120 50.5t-43 137.5v26q0 113 55 165.5t141 52.5q62 0 91 -15v-55q-35 11 -76 11q-61 0 -95.5 -27t-38.5 -103q43 28 105 28q59 0 94.5 -33t35.5 -94q0 -62 -39 -103t-110 -41zM190 370q36 0 56 22t20 61q0 45 -20 61.5t-58 16.5q-44 0 -84 -23v-11
q0 -127 86 -127z" />
    <glyph glyph-name="seven.sup" horiz-adv-x="335" 
d="M61 322l166 354v2h-200v60h276v-54l-159 -362h-83z" />
    <glyph glyph-name="eight.sup" horiz-adv-x="368" 
d="M183 315q-75 0 -116.5 30t-41.5 82q0 35 24.5 63t61.5 44q-73 38 -73 102q0 49 39 79.5t106 30.5q66 0 104.5 -28t38.5 -77q0 -64 -75 -102q44 -18 68 -41t24 -63q0 -54 -42.5 -87t-117.5 -33zM181 370q40 0 63.5 15.5t23.5 43.5q0 30 -22.5 44.5t-86.5 37.5
q-64 -32 -64 -79q0 -62 86 -62zM199 564q30 16 44 32t14 41t-19 39.5t-55 14.5q-34 0 -53.5 -14t-19.5 -39t20 -39.5t69 -34.5z" />
    <glyph glyph-name="nine.sup" horiz-adv-x="365" 
d="M142 315q-66 0 -95 17v55q35 -13 79 -13q67 0 99.5 28t34.5 103q-43 -28 -104 -28q-60 0 -95.5 32.5t-35.5 94.5t39 102.5t111 40.5q75 0 118.5 -48t43.5 -139v-26q0 -219 -195 -219zM177 531q42 0 84 24v10q0 127 -85 127q-76 0 -76 -83q0 -45 19.5 -61.5t57.5 -16.5z
" />
    <glyph glyph-name="g.alt" horiz-adv-x="544" 
d="M245 -205q-53 0 -102.5 11.5t-75.5 28.5v65q73 -31 161 -31q82 0 123.5 31t41.5 103v49h-5q-50 -48 -142 -48q-40 0 -75.5 12.5t-67 39.5t-50.5 76t-19 115v14q0 131 62 196.5t166 65.5q72 0 131 -39h5l9 29h74v-520q0 -105 -59.5 -151.5t-176.5 -46.5zM274 76
q69 0 119 41v294q-44 36 -120 36q-73 0 -110.5 -40t-37.5 -134v-22q0 -96 38.5 -135.5t110.5 -39.5z" />
    <glyph glyph-name="l.alt" horiz-adv-x="264" 
d="M177 -6q-111 0 -111 122v623h88v-613q0 -35 11.5 -48t35.5 -13q29 0 52 6v-61q-36 -16 -76 -16z" />
    <glyph glyph-name="gbreve.alt" horiz-adv-x="544" 
d="M245 -205q-53 0 -102.5 11.5t-75.5 28.5v65q73 -31 161 -31q82 0 123.5 31t41.5 103v49h-5q-50 -48 -142 -48q-40 0 -75.5 12.5t-67 39.5t-50.5 76t-19 115v14q0 131 62 196.5t166 65.5q72 0 131 -39h5l9 29h74v-520q0 -105 -59.5 -151.5t-176.5 -46.5zM274 76
q69 0 119 41v294q-44 36 -120 36q-73 0 -110.5 -40t-37.5 -134v-22q0 -96 38.5 -135.5t110.5 -39.5zM271 593q-57 0 -93 35t-39 91h67q10 -60 65 -60t65 60h67q-2 -56 -38.5 -91t-93.5 -35z" />
    <glyph glyph-name="gcircumflex.alt" horiz-adv-x="544" 
d="M245 -205q-53 0 -102.5 11.5t-75.5 28.5v65q73 -31 161 -31q82 0 123.5 31t41.5 103v49h-5q-50 -48 -142 -48q-40 0 -75.5 12.5t-67 39.5t-50.5 76t-19 115v14q0 131 62 196.5t166 65.5q72 0 131 -39h5l9 29h74v-520q0 -105 -59.5 -151.5t-176.5 -46.5zM274 76
q69 0 119 41v294q-44 36 -120 36q-73 0 -110.5 -40t-37.5 -134v-22q0 -96 38.5 -135.5t110.5 -39.5zM131 587l102 144h76l102 -144h-70l-71 78l-69 -78h-70z" />
    <glyph glyph-name="gcommaaccent.alt" horiz-adv-x="544" 
d="M245 -205q-53 0 -102.5 11.5t-75.5 28.5v65q73 -31 161 -31q82 0 123.5 31t41.5 103v49h-5q-50 -48 -142 -48q-40 0 -75.5 12.5t-67 39.5t-50.5 76t-19 115v14q0 131 62 196.5t166 65.5q72 0 131 -39h5l9 29h74v-520q0 -105 -59.5 -151.5t-176.5 -46.5zM274 76
q69 0 119 41v294q-44 36 -120 36q-73 0 -110.5 -40t-37.5 -134v-22q0 -96 38.5 -135.5t110.5 -39.5zM328 746l-12 -140h-99l46 140h65z" />
    <glyph glyph-name="gdotaccent.alt" horiz-adv-x="544" 
d="M245 -205q-53 0 -102.5 11.5t-75.5 28.5v65q73 -31 161 -31q82 0 123.5 31t41.5 103v49h-5q-50 -48 -142 -48q-40 0 -75.5 12.5t-67 39.5t-50.5 76t-19 115v14q0 131 62 196.5t166 65.5q72 0 131 -39h5l9 29h74v-520q0 -105 -59.5 -151.5t-176.5 -46.5zM274 76
q69 0 119 41v294q-44 36 -120 36q-73 0 -110.5 -40t-37.5 -134v-22q0 -96 38.5 -135.5t110.5 -39.5zM226 615v91h90v-91h-90z" />
    <glyph glyph-name="lacute.alt" horiz-adv-x="264" 
d="M177 -6q-111 0 -111 122v623h88v-613q0 -35 11.5 -48t35.5 -13q29 0 52 6v-61q-36 -16 -76 -16zM69 790l73 125h99l-94 -125h-78z" />
    <glyph glyph-name="lcaron.alt" horiz-adv-x="264" 
d="M177 -6q-111 0 -111 122v623h88v-613q0 -35 11.5 -48t35.5 -13q29 0 52 6v-61q-36 -16 -76 -16zM263 576h-63l10 163h86z" />
    <glyph glyph-name="lcommaaccent.alt" horiz-adv-x="264" 
d="M177 -6q-111 0 -111 122v623h88v-613q0 -35 11.5 -48t35.5 -13q29 0 52 6v-61q-36 -16 -76 -16zM96 -182l12 140h99l-46 -140h-65z" />
    <glyph glyph-name="ldot.alt" horiz-adv-x="280" 
d="M177 -6q-111 0 -111 122v623h88v-613q0 -35 11.5 -48t35.5 -13q29 0 52 6v-61q-36 -16 -76 -16zM205 309v91h90v-91h-90z" />
    <glyph glyph-name="lslash.alt" horiz-adv-x="273" 
d="M8 291v80l67 36v332h88v-284l101 55v-80l-101 -55v-249q0 -35 11.5 -48t35.5 -13q29 0 52 6v-61q-36 -16 -76 -16q-111 0 -111 122v211z" />
    <glyph glyph-name="f_f_l.alt" horiz-adv-x="850" 
d="M763 -6q-111 0 -111 122v552q-37 7 -76 7q-58 0 -87 -27t-29 -88v-47h117v-73h-117v-440h-88v440h-192v-440h-88v440h-75v73h75v67q0 78 43.5 119t111.5 41q47 0 81 -16v-63q-28 6 -65 6q-83 0 -83 -94v-60h192v54q0 91 55 136t144 45q100 0 169 -24v-598q0 -35 11.5 -48
t35.5 -13q29 0 52 6v-61q-36 -16 -76 -16z" />
    <glyph glyph-name="f_l.alt" horiz-adv-x="570" 
d="M483 -6q-111 0 -111 122v552q-37 7 -76 7q-58 0 -87 -27t-29 -88v-47h117v-73h-117v-440h-88v440h-75v73h75v54q0 91 55 136t144 45q100 0 169 -24v-598q0 -35 11.5 -48t35.5 -13q29 0 52 6v-61q-36 -16 -76 -16z" />
    <glyph glyph-name="registered.alt" horiz-adv-x="800" 
d="M399 -14q-151 0 -252.5 104.5t-101.5 253.5t101.5 252.5t252.5 103.5t253.5 -103.5t102.5 -252.5t-103 -253.5t-253 -104.5zM399 36q129 0 212.5 87t83.5 221t-83.5 220t-212.5 86q-130 0 -212 -86t-82 -220q0 -135 82.5 -221.5t211.5 -86.5zM273 161v373h128
q144 0 144 -112q0 -78 -76 -98v-4l95 -159h-81l-86 148h-49v-148h-75zM348 365h53q67 0 67 58q0 30 -17.5 41.5t-51.5 11.5h-51v-111z" />
    <glyph glyph-name="questiondown.uc" horiz-adv-x="414" 
d="M230 -12q-88 0 -143 42t-55 128q0 60 21 92.5t83 83.5q50 41 61 58q14 22 14 50v43h83v-49q0 -34 -14.5 -61.5t-30 -42.5t-59.5 -51q-35 -28 -48.5 -53.5t-13.5 -67.5q0 -52 31 -74t92 -22q62 0 137 25v-71q-70 -30 -158 -30zM201 592v101h100v-101h-100z" />
    <glyph glyph-name="exclamdown.uc" horiz-adv-x="279" 
d="M90 0l11 485h78l11 -485h-100zM89 592v101h100v-101h-100z" />
    <glyph glyph-name="hyphen.uc" horiz-adv-x="340" 
d="M63 298v76h214v-76h-214z" />
    <glyph glyph-name="endash.uc" horiz-adv-x="441" 
d="M43 302v70h355v-70h-355z" />
    <glyph glyph-name="emdash.uc" horiz-adv-x="716" 
d="M43 302v70h630v-70h-630z" />
    <glyph glyph-name="guilsinglleft.uc" horiz-adv-x="266" 
d="M142 86l-102 180v33l102 180h81l-100 -196l100 -197h-81z" />
    <glyph glyph-name="guilsinglright.uc" horiz-adv-x="266" 
d="M43 86l100 196l-100 197h81l102 -180v-33l-102 -180h-81z" />
    <glyph glyph-name="guillemotleft.uc" horiz-adv-x="446" 
d="M322 86l-102 180v33l102 180h81l-100 -196l100 -197h-81zM142 86l-102 180v33l102 180h81l-100 -196l100 -197h-81z" />
    <glyph glyph-name="guillemotright.uc" horiz-adv-x="446" 
d="M223 86l100 196l-100 197h81l102 -180v-33l-102 -180h-81zM43 86l100 196l-100 197h81l102 -180v-33l-102 -180h-81z" />
    <glyph glyph-name="parenleft.uc" horiz-adv-x="328" 
d="M238 -91q-81 80 -132 187t-51 234v17q0 128 51 234.5t132 186.5h78q-75 -82 -122 -190t-47 -222v-27q0 -112 47.5 -225.5t121.5 -194.5h-78z" />
    <glyph glyph-name="parenright.uc" horiz-adv-x="328" 
d="M12 -91q75 82 122 190t47 222v27q0 112 -47.5 225.5t-121.5 194.5h78q81 -80 132 -187t51 -234v-17q0 -128 -51 -234.5t-132 -186.5h-78z" />
    <glyph glyph-name="bracketleft.uc" horiz-adv-x="336" 
d="M78 -91v859h226v-70h-138v-719h138v-70h-226z" />
    <glyph glyph-name="bracketright.uc" horiz-adv-x="336" 
d="M32 -91v70h138v719h-138v70h226v-859h-226z" />
    <glyph glyph-name="braceleft.uc" horiz-adv-x="374" 
d="M342 -93q-124 3 -168.5 45.5t-44.5 117.5v141q0 48 -24.5 67.5t-88.5 23.5v72q64 4 88.5 24t24.5 68v141q0 75 44.5 117.5t168.5 45.5v-70q-70 -5 -97.5 -24t-27.5 -73v-141q0 -48 -22.5 -79t-83.5 -43v-3q61 -12 83.5 -43t22.5 -79v-141q0 -54 27.5 -73t97.5 -24v-70z
" />
    <glyph glyph-name="braceright.uc" horiz-adv-x="374" 
d="M32 -93v70q70 5 97.5 24t27.5 73v141q0 48 22.5 79t83.5 43v3q-61 12 -83.5 43t-22.5 79v141q0 54 -27.5 73t-97.5 24v70q124 -3 168.5 -45.5t44.5 -117.5v-141q0 -48 24.5 -67.5t88.5 -23.5v-72q-64 -4 -88.5 -24t-24.5 -68v-141q0 -75 -44.5 -117.5t-168.5 -45.5z" />
    <glyph glyph-name="slash.uc" horiz-adv-x="346" 
d="M101 -60h-79l223 793h79z" />
    <glyph glyph-name="backslash.uc" horiz-adv-x="346" 
d="M324 -60h-79l-223 793h79z" />
    <glyph glyph-name="bar.uc" horiz-adv-x="290" 
d="M107 -60v793h76v-793h-76z" />
    <glyph glyph-name="at.uc" horiz-adv-x="788" 
d="M392 -12q-163 0 -254 84t-91 237q0 105 43 193.5t132 145.5t208 57q141 0 226 -84t85 -217q0 -120 -52.5 -187t-143.5 -67q-83 0 -97 53h-4q-44 -53 -106 -53q-56 0 -88 37t-32 103q0 111 48.5 176.5t132.5 65.5q58 0 91 -31h4l5 24h78l-52 -272q-8 -45 34 -45
q53 0 83 50t30 141q0 114 -62 180t-183 66q-147 0 -229 -94.5t-82 -240.5q0 -127 70 -195.5t207 -68.5q96 0 196 34v-52q-89 -40 -197 -40zM362 212q40 0 81 37l35 194q-24 28 -74 28q-102 0 -102 -179q0 -80 60 -80z" />
    </font>
</defs>
</svg>
