<?xml version="1.0" encoding="UTF-8" standalone="no"?>
<svg width="29px" height="37px" viewBox="0 0 29 37" version="1.1" xmlns="http://www.w3.org/2000/svg" xmlns:xlink="http://www.w3.org/1999/xlink">
    <!-- Generator: Sketch 40 (33762) - http://www.bohemiancoding.com/sketch -->
    <title>Group 2</title>
    <desc>Created with Sketch.</desc>
    <defs></defs>
    <g id="Page-1" stroke="none" stroke-width="1" fill="none" fill-rule="evenodd">
        <g id="Landing-Page-Copy-4" transform="translate(-132.000000, -569.000000)" stroke="#FFFFFF" fill="#FFFFFF">
            <g id="Group" transform="translate(96.000000, 556.000000)">
                <g id="Group-3">
                    <g id="Group-2" transform="translate(37.000000, 14.000000)">
                        <path d="M21.6105485,0.181088442 C21.4974448,0.0658024864 21.3440576,0 21.1824072,0 L0.605285413,0 C0.270106033,0 0,0.275317603 0,0.616964112 L0,33.9293412 C0,34.2709877 0.270106033,34.5463053 0.605285413,34.5463053 L18.1967801,34.5463053 L18.1967801,33.3123771 L1.21057083,33.3123771 L1.21057083,1.23392822 L20.5776382,1.23392822 L20.5776382,6.1691147 L25.4188886,6.1691147 L25.4188886,33.3123771 L19.5041217,33.3123771 L18.2453269,33.3123771 L18.2453269,34.5463053 L26.024174,34.5463053 C26.3593534,34.5463053 26.6294594,34.2709877 26.6294594,33.9293412 L26.6294594,5.55215059 C26.6294594,5.38738116 26.5649025,5.23156088 26.4517989,5.11627492 L21.6105485,0.181088442 Z M21.7876926,2.10567956 L24.5636389,4.93518648 L21.7876926,4.93518648 L21.7876926,2.10567956 Z" id="Fill-1"></path>
                        <polygon id="Fill-6" points="5.62329102 6.40059489 13.171483 6.40059489 13.171483 5.16666667 5.62329102 5.16666667"></polygon>
                        <polygon id="Fill-7" points="5.62329102 14.4005949 20.831543 14.4005949 20.831543 13.1666667 5.62329102 13.1666667"></polygon>
                        <polygon id="Fill-8" points="5.62329102 18.5672616 20.831543 18.5672616 20.831543 17.3333333 5.62329102 17.3333333"></polygon>
                        <polygon id="Fill-9" points="5.62329102 22.7339282 20.831543 22.7339282 20.831543 21.5 16.1179995 21.5 5.62329102 21.5"></polygon>
                    </g>
                </g>
            </g>
        </g>
    </g>
</svg>