<?xml version="1.0" encoding="UTF-8" standalone="no"?>
<svg width="22px" height="25px" viewBox="0 0 22 25" version="1.1" xmlns="http://www.w3.org/2000/svg" xmlns:xlink="http://www.w3.org/1999/xlink">
    <!-- Generator: Sketch 40 (33762) - http://www.bohemiancoding.com/sketch -->
    <title>Page 1 Copy</title>
    <desc>Created with Sketch.</desc>
    <defs>
        <polygon id="path-1" points="10.6808453 24.8238282 21.3615161 24.8238282 21.3615161 3.10649903e-15 10.6808453 0 0.000174504369 3.10649903e-15 0.000174504369 24.8238282 10.6808453 24.8238282"></polygon>
    </defs>
    <g id="Page-1" stroke="none" stroke-width="1" fill="none" fill-rule="evenodd">
        <g id="Landing-Page-Copy-4" transform="translate(-101.000000, -1355.000000)">
            <g id="Page-1-Copy" transform="translate(101.000000, 1355.000000)">
                <mask id="mask-2" fill="white">
                    <use xlink:href="#path-1"></use>
                </mask>
                <g id="Clip-2"></g>
                <path d="M0.228338968,24.7634945 C0.0865541673,24.6821752 0.000174504369,24.5313409 0.000174504369,24.3682649 L0.000174504369,0.455126106 C0.000174504369,0.292050182 0.0865541673,0.141653082 0.228338968,0.0603337202 C0.298140715,0.0201112401 0.376231421,0 0.454322126,0 C0.533285354,0 0.612684842,0.0205484409 0.683359111,0.0620825236 L21.1361438,12.0186519 C21.2757472,12.0999713 21.3616907,12.2499312 21.3616907,12.4116955 C21.3616907,12.573897 21.2757472,12.7234197 21.1361438,12.8051763 L0.683359111,24.7617457 C0.612684842,24.8032798 0.533285354,24.8238282 0.454322126,24.8238282 C0.376231421,24.8238282 0.298140715,24.803717 0.228338968,24.7634945 Z" id="Fill-1" fill="#FE555B" mask="url(#mask-2)"></path>
            </g>
        </g>
    </g>
</svg>