<?xml version="1.0" encoding="UTF-8" standalone="no"?>
<svg width="133px" height="104px" viewBox="0 0 133 104" version="1.1" xmlns="http://www.w3.org/2000/svg" xmlns:xlink="http://www.w3.org/1999/xlink">
    <!-- Generator: Sketch 40 (33762) - http://www.bohemiancoding.com/sketch -->
    <title>Page 1</title>
    <desc>Created with Sketch.</desc>
    <defs>
        <polygon id="path-1" points="0 103.719512 132.897371 103.719512 132.897371 0.597987805 0 0.597987805"></polygon>
        <path d="M0.218228571,0.989817073 L0.218228571,19.4685366 C0.218228571,19.947439 0.472190476,20.3879268 0.886952381,20.6260976 C1.08986667,20.7439024 1.31958095,20.8028049 1.54674286,20.8028049 C1.77900952,20.8028049 2.01,20.742622 2.21674286,20.6209756 L35.7577273,0.989817073 L0.218228571,0.989817073 L0.218228571,0.989817073 Z" id="path-3"></path>
        <polygon id="path-5" points="0 103.719512 132.897371 103.719512 132.897371 0.597987805 0 0.597987805"></polygon>
    </defs>
    <g id="Page-1" stroke="none" stroke-width="1" fill="none" fill-rule="evenodd">
        <g id="Landing-Page-Copy-4" transform="translate(-99.000000, -51.000000)">
            <g id="Page-1" transform="translate(99.000000, 50.000000)">
                <g id="Group-27" transform="translate(0.000000, 0.681988)">
                    <path d="M0.371881905,24.4510427 L0.371881905,18.3021402 L3.05698667,18.3021402 L3.05698667,24.3537256 C3.05698667,25.5842744 3.55342476,26.0811037 4.59990095,26.0811037 C5.64637714,26.0811037 6.10070095,25.5842744 6.10070095,24.3396402 L6.10070095,18.3021402 L8.48334857,18.3021402 L8.48334857,24.4369573 C8.48334857,26.8135427 7.24416762,28.0440915 4.51694857,28.0440915 C1.76292952,28.0440915 0.371881905,26.827628 0.371881905,24.4510427 L0.371881905,24.4510427 Z" id="Fill-1" fill="#FEFEFE"></path>
                    <path d="M9.71142667,20.5263476 L12.0391981,20.5263476 L12.0391981,21.1768354 L12.1081124,21.1768354 C12.7411029,20.6646402 13.5119219,20.3880549 14.4346076,20.3880549 C15.7988552,20.3880549 16.5977505,20.955311 16.5977505,22.4061037 L16.5977505,27.877628 L14.1870267,27.877628 L14.1870267,23.0693963 C14.1870267,22.4880549 13.9394457,22.2818963 13.264341,22.2818963 C12.8789314,22.2818963 12.4246076,22.4061037 12.1221505,22.530311 L12.1221505,27.877628 L9.71142667,27.877628 L9.71142667,20.5263476 Z" id="Fill-3" fill="#FEFEFE"></path>
                    <mask id="mask-2" fill="white">
                        <use xlink:href="#path-1"></use>
                    </mask>
                    <g id="Clip-6"></g>
                    <path d="M17.7556381,27.8775 L20.1650857,27.8775 L20.1650857,20.5262195 L17.7556381,20.5262195 L17.7556381,27.8775 Z M17.7428762,19.6977439 L20.1804,19.6977439 L20.1804,17.8461585 L17.7428762,17.8461585 L17.7428762,19.6977439 Z" id="Fill-5" fill="#FEFEFE" mask="url(#mask-2)"></path>
                    <path d="M21.3376495,25.8741768 L21.3376495,20.5268598 L23.7470971,20.5268598 L23.7470971,25.3619817 C23.7470971,25.956128 23.9959543,26.1776524 24.6289448,26.1776524 C25.0551924,26.1776524 25.42784,26.0393598 25.7302971,25.9010671 L25.7302971,20.5268598 L28.141021,20.5268598 L28.141021,27.8768598 L26.0199924,27.8768598 L25.8540876,27.2289329 L25.7864495,27.2289329 C25.1381448,27.7257622 24.4911162,28.0151524 23.5684305,28.0151524 C22.1633448,28.0151524 21.3376495,27.3800305 21.3376495,25.8741768" id="Fill-7" fill="#FEFEFE" mask="url(#mask-2)"></path>
                    <path d="M29.2995467,20.5263476 L31.6273181,20.5263476 L31.6273181,21.1768354 L31.6949562,21.1768354 C32.3292229,20.6646402 33.1000419,20.3880549 34.0227276,20.3880549 C35.385699,20.3880549 36.1858705,20.955311 36.1858705,22.4061037 L36.1858705,27.877628 L33.7751467,27.877628 L33.7751467,23.0693963 C33.7751467,22.4880549 33.5275657,22.2818963 32.852461,22.2818963 C32.4670514,22.2818963 32.0127276,22.4061037 31.7089943,22.530311 L31.7089943,27.877628 L29.2995467,27.877628 L29.2995467,20.5263476 Z" id="Fill-8" fill="#FEFEFE" mask="url(#mask-2)"></path>
                    <path d="M39.4374762,23.4557195 L41.654219,23.4557195 C41.654219,22.3775488 41.3109238,21.9908415 40.6077429,21.9908415 C40.0577048,21.9908415 39.5472286,22.3084024 39.4374762,23.4557195 M36.9859143,24.2713902 L36.9859143,24.092122 C36.9859143,21.8115732 38.4050381,20.3876707 40.6077429,20.3876707 C43.0593048,20.3876707 43.9819905,21.7705976 43.9819905,24.1881585 L43.9819905,24.8232805 L39.4515143,24.8232805 C39.6021048,25.9705976 40.2504095,26.289439 41.4895905,26.289439 C42.3574,26.289439 43.114181,26.082 43.6795333,25.8463902 L43.6795333,27.3522439 C43.128219,27.6838902 42.2195714,28.0155366 40.8693619,28.0155366 C38.2672095,28.0155366 36.9859143,26.7030366 36.9859143,24.2713902" id="Fill-9" fill="#FEFEFE" mask="url(#mask-2)"></path>
                    <path d="M48.4046286,26.1918659 L48.4046286,24.7692439 L47.5508571,24.8511951 C46.9727429,24.8921707 46.7251619,25.1277805 46.7251619,25.6809512 C46.7251619,26.2891829 47.0684571,26.4825366 47.522781,26.4825366 C47.8954286,26.4825366 48.2387238,26.3583293 48.4046286,26.1918659 M44.4114286,25.9293659 C44.4114286,24.3825366 45.4719429,23.8562561 47.0684571,23.6360122 L48.4046286,23.4554634 L48.4046286,23.1379024 C48.4046286,22.3644878 48.0332571,22.1993049 46.9727429,22.1993049 C46.2427619,22.1993049 45.5408571,22.2953415 45.030381,22.4195488 L45.030381,20.816378 C45.7884381,20.5269878 46.7519619,20.3886951 47.8954286,20.3886951 C49.6986857,20.3886951 50.8140762,20.9828415 50.8140762,22.6410732 L50.8140762,27.8769878 L48.8040762,27.8769878 L48.6381714,27.3110122 L48.5564952,27.3110122 C48.2527619,27.7527805 47.6057333,28.0152805 46.6970857,28.0152805 C45.3468762,28.0152805 44.4114286,27.3379024 44.4114286,25.9293659" id="Fill-10" fill="#FEFEFE" mask="url(#mask-2)"></path>
                    <path d="M0.0279485714,40.2733902 L0.0279485714,38.3116829 C0.867681905,38.6151585 1.74952952,38.8507683 2.8508819,38.8507683 C3.92543429,38.8507683 4.33892,38.5319268 4.33892,37.9518659 C4.33892,37.3986951 4.09006286,37.2194268 3.16737714,37.0401585 L2.45143429,36.9018659 C0.93659619,36.6124756 -0.000127619048,35.9350976 -0.000127619048,33.9311341 C-0.000127619048,32.1205244 1.12930095,30.9322317 3.55278667,30.9322317 C5.06762476,30.9322317 5.8256819,31.1678415 6.37572,31.4303415 L6.37572,33.3651585 C5.71592952,33.1295488 4.8889581,32.9080244 3.80164381,32.9080244 C2.94787238,32.9080244 2.50631048,33.1718049 2.50631048,33.7236951 C2.50631048,34.2358902 2.78196762,34.4292439 3.62170095,34.5944268 L4.33892,34.7327195 C6.01838667,35.0502805 6.95511048,35.7276585 6.95511048,37.6752805 C6.95511048,39.7202195 5.64701524,40.8406463 3.16737714,40.8406463 C1.83120571,40.8406463 0.715815238,40.6332073 0.0279485714,40.2733902" id="Fill-11" fill="#FEFEFE" mask="url(#mask-2)"></path>
                    <path d="M11.4737181,38.9885488 L11.4737181,37.5659268 L10.6199467,37.647878 C10.0418324,37.6888537 9.79425143,37.9244634 9.79425143,38.4763537 C9.79425143,39.0845854 10.1388229,39.2792195 10.5918705,39.2792195 C10.9645181,39.2792195 11.3090895,39.1537317 11.4737181,38.9885488 M7.4805181,38.7260488 C7.4805181,37.177939 8.54103238,36.652939 10.1388229,36.4326951 L11.4737181,36.2521463 L11.4737181,35.9345854 C11.4737181,35.1611707 11.1023467,34.9959878 10.0418324,34.9959878 C9.31185143,34.9959878 8.60994667,35.0920244 8.09947048,35.2162317 L8.09947048,33.613061 C8.85752762,33.3236707 9.82105143,33.185378 10.9645181,33.185378 C12.7677752,33.185378 13.8844419,33.7795244 13.8844419,35.4377561 L13.8844419,40.6736707 L11.8731657,40.6736707 L11.707261,40.1076951 L11.6255848,40.1076951 C11.3231276,40.5494634 10.6748229,40.8119634 9.76617524,40.8119634 C8.41596571,40.8119634 7.4805181,40.1358659 7.4805181,38.7260488" id="Fill-12" fill="#FEFEFE" mask="url(#mask-2)"></path>
                    <polygon id="Fill-13" fill="#FEFEFE" mask="url(#mask-2)" points="15.0424571 40.6734146 17.4519048 40.6734146 17.4519048 30.4628049 15.0424571 30.4628049"></polygon>
                    <polygon id="Fill-14" fill="#FEFEFE" mask="url(#mask-2)" points="18.1147581 33.3230305 20.6352343 33.3230305 22.0530819 37.9238232 22.1079581 37.9238232 23.5270819 33.3230305 25.798701 33.3230305 23.2233486 40.674311 20.6901105 40.674311"></polygon>
                    <path d="M29.7256667,38.9885488 L29.7256667,37.5659268 L28.8718952,37.647878 C28.293781,37.6888537 28.0462,37.9244634 28.0462,38.4763537 C28.0462,39.0845854 28.3894952,39.2792195 28.843819,39.2792195 C29.2164667,39.2792195 29.5610381,39.1537317 29.7256667,38.9885488 M25.7324667,38.7260488 C25.7324667,37.177939 26.792981,36.652939 28.3894952,36.4326951 L29.7256667,36.2521463 L29.7256667,35.9345854 C29.7256667,35.1611707 29.3542952,34.9959878 28.293781,34.9959878 C27.5638,34.9959878 26.8618952,35.0920244 26.351419,35.2162317 L26.351419,33.613061 C27.1094762,33.3236707 28.073,33.185378 29.2164667,33.185378 C31.0197238,33.185378 32.1351143,33.7795244 32.1351143,35.4377561 L32.1351143,40.6736707 L30.1251143,40.6736707 L29.9592095,40.1076951 L29.8775333,40.1076951 C29.5738,40.5494634 28.9267714,40.8119634 28.0181238,40.8119634 C26.6679143,40.8119634 25.7324667,40.1358659 25.7324667,38.7260488" id="Fill-15" fill="#FEFEFE" mask="url(#mask-2)"></path>
                    <path d="M34.6167943,41.1576951 L36.778661,41.1576951 L36.1175943,43.1885488 L34.4789657,43.1885488 L34.6167943,41.1576951 Z M33.7209086,38.6697073 L33.7209086,35.0087927 L32.812261,35.0087927 L32.812261,33.3223902 L33.7209086,33.3223902 L33.7209086,31.5822073 L36.1456705,31.5822073 L36.1456705,33.3223902 L37.6324324,33.3223902 L37.6324324,35.0087927 L36.1456705,35.0087927 L36.1456705,38.3252561 C36.1456705,38.8361707 36.3651752,39.0026341 36.9573276,39.0026341 C37.2061848,39.0026341 37.4805657,38.960378 37.6745467,38.9194024 L37.6745467,40.4803171 C37.3848514,40.6326951 36.8335371,40.7837927 36.0627181,40.7837927 C34.5887181,40.7837927 33.7209086,40.2882439 33.7209086,38.6697073 L33.7209086,38.6697073 Z" id="Fill-16" fill="#FEFEFE" mask="url(#mask-2)"></path>
                    <path d="M38.5843429,40.6746951 L40.9937905,40.6746951 L40.9937905,33.3234146 L38.5843429,33.3234146 L38.5843429,40.6746951 Z M38.5703048,32.494939 L41.0078286,32.494939 L41.0078286,30.6433537 L38.5703048,30.6433537 L38.5703048,32.494939 Z" id="Fill-17" fill="#FEFEFE" mask="url(#mask-2)"></path>
                    <path d="M4.07640762,48.3722195 C5.02716952,48.3722195 5.41257905,47.9163659 5.41257905,47.0046585 C5.41257905,46.1198415 5.01313143,45.7190488 4.04833143,45.7190488 L3.08480762,45.7190488 L3.08480762,48.3722195 L4.07640762,48.3722195 Z M0.426502857,43.8956341 L4.44777905,43.8956341 C6.85850286,43.8956341 8.06960762,44.8214268 8.06960762,46.8804512 C8.06960762,48.1929512 7.47745524,48.8703293 6.48585524,49.2980122 L6.48585524,49.3530732 L8.6209219,53.471122 L5.83882667,53.471122 L4.09044571,49.9881951 L3.11288381,49.9881951 L3.11288381,53.471122 L0.426502857,53.471122 L0.426502857,43.8956341 Z" id="Fill-18" fill="#FEFEFE" mask="url(#mask-2)"></path>
                    <path d="M13.6497505,49.9611768 L13.6497505,49.6986768 C13.6497505,47.9572134 13.1124743,47.6396524 12.3697314,47.6396524 C11.5708362,47.6396524 11.1165124,48.1236768 11.1165124,49.6154451 L11.1165124,49.8920305 C11.1165124,51.5912378 11.6525124,51.9369695 12.3965314,51.9369695 C13.1813886,51.9369695 13.6497505,51.4670305 13.6497505,49.9611768 M8.63687429,49.9189207 L8.63687429,49.7396524 C8.63687429,47.2247744 10.2487029,45.9814207 12.3824933,45.9814207 C14.8200171,45.9814207 16.1281124,47.2670305 16.1281124,49.6564207 L16.1281124,49.8369695 C16.1281124,52.3646524 14.51756,53.6092866 12.3824933,53.6092866 C9.94624571,53.6092866 8.63687429,52.2686159 8.63687429,49.9189207" id="Fill-19" fill="#FEFEFE" mask="url(#mask-2)"></path>
                    <path d="M16.9709086,46.1197134 L19.29868,46.1197134 L19.29868,46.7689207 L19.3663181,46.7689207 C19.9725086,46.2861768 20.6884514,45.9814207 21.6392133,45.9814207 C22.4789467,45.9814207 23.057061,46.2298354 23.3888705,46.8111768 L23.4577848,46.8111768 C24.1724514,46.2861768 24.9994229,45.9814207 25.8812705,45.9814207 C27.1344895,45.9814207 27.8772324,46.5205061 27.8772324,47.9712988 L27.8772324,53.4709939 L25.4677848,53.4709939 L25.4677848,48.6486768 C25.4677848,48.0955061 25.2470038,47.8739817 24.6548514,47.8739817 C24.2975181,47.8739817 23.9797467,47.9712988 23.6224133,48.1236768 C23.6224133,48.1787378 23.6364514,48.2337988 23.6364514,48.2888598 L23.6364514,53.4709939 L21.2257276,53.4709939 L21.2257276,48.6486768 C21.2257276,48.0955061 20.9921848,47.8739817 20.4140705,47.8739817 C20.055461,47.8739817 19.6840895,47.9853841 19.3803562,48.1236768 L19.3803562,53.4709939 L16.9709086,53.4709939 L16.9709086,46.1197134 Z" id="Fill-20" fill="#FEFEFE" mask="url(#mask-2)"></path>
                    <path d="M32.6598838,51.7852317 L32.6598838,50.3626098 L31.8061124,50.444561 C31.2279981,50.4868171 30.9804171,50.7211463 30.9804171,51.2730366 C30.9804171,51.8812683 31.3237124,52.0759024 31.7780362,52.0759024 C32.1506838,52.0759024 32.493979,51.9504146 32.6598838,51.7852317 L32.6598838,51.7852317 Z M31.1310076,43.3007195 L33.1001695,43.3007195 L34.5333314,45.4429756 L32.8117505,45.4429756 L32.1098457,44.6554756 L31.434741,45.4429756 L29.6991219,45.4429756 L31.1310076,43.3007195 Z M28.6666838,51.5227317 C28.6666838,49.974622 29.7271981,49.449622 31.3237124,49.2280976 L32.6598838,49.0488293 L32.6598838,48.7312683 C32.6598838,47.9578537 32.2885124,47.7913902 31.2279981,47.7913902 C30.4980171,47.7913902 29.7961124,47.8887073 29.2856362,48.0129146 L29.2856362,46.4097439 C30.0436933,46.1203537 31.0072171,45.982061 32.1506838,45.982061 C33.953941,45.982061 35.0693314,46.5749268 35.0693314,48.234439 L35.0693314,53.4703537 L33.0593314,53.4703537 L32.8934267,52.904378 L32.8117505,52.904378 C32.5080171,53.3461463 31.8609886,53.6086463 30.952341,53.6086463 C29.6021314,53.6086463 28.6666838,52.9325488 28.6666838,51.5227317 L28.6666838,51.5227317 Z" id="Fill-21" fill="#FEFEFE" mask="url(#mask-2)"></path>
                    <path d="M36.1871467,46.1197134 L38.5149181,46.1197134 L38.5149181,46.7689207 L38.5838324,46.7689207 C39.2168229,46.2580061 39.9876419,45.9814207 40.9103276,45.9814207 C42.2745752,45.9814207 43.0721943,46.5486768 43.0721943,47.998189 L43.0721943,53.4709939 L40.6627467,53.4709939 L40.6627467,48.6627622 C40.6627467,48.0814207 40.4151657,47.8739817 39.740061,47.8739817 C39.3546514,47.8739817 38.9003276,47.998189 38.5978705,48.1236768 L38.5978705,53.4709939 L36.1871467,53.4709939 L36.1871467,46.1197134 Z" id="Fill-22" fill="#FEFEFE" mask="url(#mask-2)"></path>
                    <path d="M44.2314857,53.4706098 L46.6409333,53.4706098 L46.6409333,46.1193293 L44.2314857,46.1193293 L44.2314857,53.4706098 Z M44.2174476,45.2908537 L46.6549714,45.2908537 L46.6549714,43.4392683 L44.2174476,43.4392683 L44.2174476,45.2908537 Z" id="Fill-23" fill="#FEFEFE" mask="url(#mask-2)"></path>
                    <path d="M51.4902019,51.7852317 L51.4902019,50.3626098 L50.6364305,50.444561 C50.0583162,50.4868171 49.8107352,50.7211463 49.8107352,51.2730366 C49.8107352,51.8812683 50.1540305,52.0759024 50.6083543,52.0759024 C50.9810019,52.0759024 51.3242971,51.9504146 51.4902019,51.7852317 M47.4970019,51.5227317 C47.4970019,49.974622 48.5575162,49.449622 50.1540305,49.2280976 L51.4902019,49.0488293 L51.4902019,48.7312683 C51.4902019,47.9578537 51.1188305,47.7913902 50.0583162,47.7913902 C49.3283352,47.7913902 48.6264305,47.8887073 48.1159543,48.0129146 L48.1159543,46.4097439 C48.8740114,46.1203537 49.8375352,45.982061 50.9810019,45.982061 C52.784259,45.982061 53.8996495,46.5749268 53.8996495,48.234439 L53.8996495,53.4703537 L51.8896495,53.4703537 L51.7237448,52.904378 L51.6420686,52.904378 C51.3383352,53.3461463 50.6913067,53.6086463 49.782659,53.6086463 C48.4324495,53.6086463 47.4970019,52.9325488 47.4970019,51.5227317" id="Fill-24" fill="#FEFEFE" mask="url(#mask-2)"></path>
                    <path d="M71.7379848,73.3033171 C71.5095467,73.3033171 71.2811086,73.2444146 71.0769181,73.1266098 C70.6621562,72.888439 70.4094705,72.4466707 70.4094705,71.9690488 L70.4094705,1.9314878 C70.4094705,1.45386585 70.6621562,1.01337805 71.0769181,0.775207317 C71.2811086,0.657402439 71.5095467,0.5985 71.7379848,0.5985 C71.9689752,0.5985 72.2012419,0.658682927 72.4079848,0.780329268 L132.238347,35.7991098 C132.646728,36.0372805 132.898137,36.4764878 132.898137,36.9502683 C132.898137,37.4253293 132.646728,37.8632561 132.238347,38.1027073 L72.4079848,73.1214878 C72.2012419,73.2431341 71.9689752,73.3033171 71.7379848,73.3033171" id="Fill-25" fill="#FEFEFE" mask="url(#mask-2)"></path>
                    <path d="M71.7379848,73.3033171 C71.5095467,73.3033171 71.2811086,73.2444146 71.0769181,73.1266098 C70.6621562,72.888439 70.4094705,72.4466707 70.4094705,71.9690488 L70.4094705,1.9314878 C70.4094705,1.45386585 70.6621562,1.01337805 71.0769181,0.775207317 C71.2811086,0.657402439 71.5095467,0.5985 71.7379848,0.5985 C71.9689752,0.5985 72.2012419,0.658682927 72.4079848,0.780329268 L132.238347,35.7991098 C132.646728,36.0372805 132.898137,36.4764878 132.898137,36.9502683 C132.898137,37.4253293 132.646728,37.8632561 132.238347,38.1027073 L72.4079848,73.1214878 C72.2012419,73.2431341 71.9689752,73.3033171 71.7379848,73.3033171" id="Fill-26" fill="#FEFEFE" mask="url(#mask-2)"></path>
                </g>
                <g id="Group-31" transform="translate(70.190476, 53.181988)">
                    <mask id="mask-4" fill="white">
                        <use xlink:href="#path-3"></use>
                    </mask>
                    <g id="Clip-29"></g>
                    <polygon id="Fill-28" fill="#FEFEFE" mask="url(#mask-4)" points="-11.6796952 18.3340244 54.088781 18.3340244 54.088781 0.989817073 -11.6796952 0.989817073"></polygon>
                    <polygon id="Fill-30" fill="#FEFEFE" mask="url(#mask-4)" points="-11.6796952 26.990122 54.088781 26.990122 54.088781 9.64591463 -11.6796952 9.64591463"></polygon>
                </g>
                <g id="Group-45" transform="translate(0.000000, 0.681988)">
                    <path d="M76.7886362,38.7747073 L76.7886362,30.5309268 L80.3900457,30.5309268 L80.3900457,38.645378 C80.3900457,40.2946463 81.0536648,40.9605 82.4574743,40.9605 C83.8612838,40.9605 84.4700267,40.2946463 84.4700267,38.6261707 L84.4700267,30.5309268 L87.6643314,30.5309268 L87.6643314,38.7567805 C87.6643314,41.9426341 86.0027314,43.5931829 82.3464457,43.5931829 C78.6544267,43.5931829 76.7886362,41.9618415 76.7886362,38.7747073 L76.7886362,38.7747073 Z" id="Fill-32" fill="#00ADEF"></path>
                    <path d="M89.3813181,42.8324451 L89.3813181,40.2023232 C90.5081943,40.6095183 91.6886705,40.9245183 93.166499,40.9245183 C94.6060419,40.9245183 95.1599086,40.4981159 95.1599086,39.7195793 C95.1599086,38.9794573 94.828099,38.7374451 93.5914705,38.4967134 L92.6317752,38.3110427 C90.60008,37.9230549 89.3443086,37.015189 89.3443086,34.3287256 C89.3443086,31.9009207 90.8578705,30.3079939 94.1083276,30.3079939 C96.1387467,30.3079939 97.1545943,30.6229939 97.8935086,30.975128 L97.8935086,33.5681159 C97.0065562,33.2543963 95.8988229,32.9573232 94.4414133,32.9573232 C93.2953943,32.9573232 92.7045181,33.3094573 92.7045181,34.0508598 C92.7045181,34.7359207 93.0733371,34.9958598 94.2002133,35.2186646 L95.1599086,35.4030549 C97.413661,35.8294573 98.6694324,36.7373232 98.6694324,39.3495183 C98.6694324,42.0910427 96.9146705,43.5930549 93.5914705,43.5930549 C91.8009752,43.5930549 90.30528,43.3139085 89.3813181,42.8324451" id="Fill-34" fill="#00ADEF"></path>
                    <path d="M105.333699,36.5332134 C106.608613,36.5332134 107.124194,35.9224207 107.124194,34.6995549 C107.124194,33.5138232 106.58947,32.9760183 105.29669,32.9760183 L104.005185,32.9760183 L104.005185,36.5332134 L105.333699,36.5332134 Z M100.440785,30.5302866 L105.83269,30.5302866 C109.064004,30.5302866 110.68987,31.7723598 110.68987,34.531811 C110.68987,36.2924817 109.894804,37.2003476 108.565013,37.7752866 L108.565013,37.8482744 L111.427509,43.3697378 L107.697204,43.3697378 L105.352842,38.7010793 L104.040918,38.7010793 L104.040918,43.3697378 L100.440785,43.3697378 L100.440785,30.5302866 Z" id="Fill-36" fill="#00ADEF"></path>


                </g>
            </g>
        </g>
    </g>
</svg>