<?xml version="1.0" encoding="UTF-8" standalone="no"?>
<svg width="105px" height="111px" viewBox="0 0 105 111" version="1.1" xmlns="http://www.w3.org/2000/svg" xmlns:xlink="http://www.w3.org/1999/xlink">
    <!-- Generator: Sketch 40 (33762) - http://www.bohemiancoding.com/sketch -->
    <title>Page 1</title>
    <desc>Created with Sketch.</desc>
    <defs></defs>
    <g id="Page-1" stroke="none" stroke-width="1" fill="none" fill-rule="evenodd">
        <g id="Landing-Page-Copy-4" transform="translate(-425.000000, -851.000000)" fill="#00AFE9">
            <g id="Page-1" transform="translate(425.000000, 851.000000)">
                <path d="M90.1195775,0.50912 C89.7957042,0.185 89.3564789,0 88.8935915,0 L29.9708451,0 C29.0110563,0 28.2376056,0.77404 28.2376056,1.73456 L28.2376056,95.39044 C28.2376056,96.35096 29.0110563,97.125 29.9708451,97.125 L80.3442254,97.125 L80.3442254,93.65588 L31.7040845,93.65588 L31.7040845,3.46912 L87.161831,3.46912 L87.161831,17.34412 L101.024789,17.34412 L101.024789,93.65588 L84.0878081,93.65588 L80.4832394,93.65588 L80.4832394,97.125 L102.758028,97.125 C103.717817,97.125 104.491268,96.35096 104.491268,95.39044 L104.491268,15.60956 C104.491268,15.14632 104.306408,14.70824 103.982535,14.38412 L90.1195775,0.50912 Z M90.626831,5.92 L98.5757746,13.875 L90.626831,13.875 L90.626831,5.92 Z" id="Fill-1"></path>
                <path d="M14.373169,0 C10.5488028,0 7.44021127,3.11096 7.44021127,6.93824 L7.44021127,15.60956 L2.24197183,15.60956 C1.2821831,15.60956 0.508732394,16.3836 0.508732394,17.34412 L0.508732394,50.29632 L3.97521127,50.29632 L3.97521127,19.07868 L7.44021127,19.07868 L7.44021127,100.59412 C7.44021127,100.91232 7.52746479,101.21868 7.68866197,101.4836 L12.8883803,110.1564 C13.2004225,110.67588 13.766831,111 14.373169,111 C14.979507,111 15.5459155,110.67588 15.8579577,110.1564 L21.0561972,101.4836 C21.2188732,101.21868 21.3046479,100.91232 21.3046479,100.59412 L21.3046479,6.93824 C21.3046479,3.11096 18.1975352,0 14.373169,0 L14.373169,0 Z M14.373169,3.46912 C16.2853521,3.46912 17.838169,5.0246 17.838169,6.93824 L17.838169,8.67132 L10.9066901,8.67132 L10.9066901,6.93824 C10.9066901,5.0246 12.4609859,3.46912 14.373169,3.46912 L14.373169,3.46912 Z M10.9066901,12.14044 L17.838169,12.14044 L17.838169,15.60956 L10.9066901,15.60956 L10.9066901,12.14044 Z M17.838169,19.07868 L17.838169,65.90588 L10.9066901,65.90588 L10.9066901,19.07868 L17.838169,19.07868 Z M10.9066901,69.375 L17.838169,69.375 L17.838169,93.65588 L10.9066901,93.65588 L10.9066901,69.375 Z M14.373169,105.89548 L10.9066901,100.1146 L10.9066901,97.125 L17.838169,97.125 L17.838169,100.1146 L14.373169,105.89548 Z" id="Fill-5"></path>
                <polygon id="Fill-6" points="38.6355634 12.14044 59.4314789 12.14044 59.4314789 8.67132 38.6355634 8.67132"></polygon>
                <polygon id="Fill-7" points="38.6355634 24.28088 94.0933099 24.28088 94.0933099 20.81176 38.6355634 20.81176"></polygon>
                <polygon id="Fill-8" points="38.6355634 31.21912 94.0933099 31.21912 94.0933099 27.75 38.6355634 27.75"></polygon>
                <polygon id="Fill-9" points="38.6355634 38.15736 94.0933099 38.15736 94.0933099 34.68824 38.6355634 34.68824"></polygon>
            </g>
        </g>
    </g>
</svg>