<?xml version="1.0" encoding="UTF-8" standalone="no"?>
<svg width="123px" height="123px" viewBox="0 0 123 123" version="1.1" xmlns="http://www.w3.org/2000/svg" xmlns:xlink="http://www.w3.org/1999/xlink">
    <!-- Generator: Sketch 40 (33762) - http://www.bohemiancoding.com/sketch -->
    <title>Page 1</title>
    <desc>Created with Sketch.</desc>
    <defs></defs>
    <g id="Page-1" stroke="none" stroke-width="1" fill="none" fill-rule="evenodd">
        <g id="Landing-Page-Copy-4" transform="translate(-94.000000, -830.000000)" fill="#00AFE9">
            <g id="Page-1" transform="translate(94.000000, 830.000000)">
                <path d="M95.29876,69.18832 L74.95292,69.18832 L74.95292,73.03084 L96.88792,73.03084 L104.57624,65.34416 L111.46916,65.34416 L111.46916,111.46916 L11.53084,111.46916 L11.53084,65.34416 L18.42376,65.34416 L26.11208,73.03084 L48.04708,73.03084 L48.04708,69.18832 L27.70124,69.18832 L20.01292,61.5 L0,61.5 L0,65.34416 L7.68832,65.34416 L7.68832,119.15584 C7.68832,121.27636 9.41032,123 11.53084,123 L111.46916,123 C113.58968,123 115.31168,121.27636 115.31168,119.15584 L115.31168,65.34416 L123,65.34416 L123,61.5 L102.98708,61.5 L95.29876,69.18832 Z M11.53084,119.15584 L11.53084,115.31168 L111.46916,115.31168 L111.46916,119.15584 L11.53084,119.15584 Z" id="Fill-1"></path>
                <path d="M51.32708,58.22 L48.61124,60.93584 L60.14208,72.46832 C60.51272,72.84552 61.00636,73.03084 61.5,73.03084 C61.99364,73.03084 62.48728,72.84552 62.85792,72.46832 L74.38876,60.93584 L71.67292,58.22 L63.42208,66.47084 L63.42208,23.06168 L59.57792,23.06168 L59.57792,66.47084 L51.32708,58.22 Z" id="Fill-2"></path>
                <path d="M84.56168,57.65584 C85.05532,57.65584 85.54896,57.47052 85.92124,57.09168 L97.45208,45.56084 L94.73624,42.845 L86.48376,51.09584 L86.48376,34.59416 C86.48376,30.35312 89.93104,26.90584 94.17208,26.90584 L99.93832,26.90584 L99.93832,23.06168 L94.17208,23.06168 C87.81052,23.06168 82.64124,28.2326 82.64124,34.59416 L82.64124,51.09584 L74.38876,42.845 L71.67292,45.56084 L83.20376,57.09168 C83.57604,57.47052 84.06968,57.65584 84.56168,57.65584 L84.56168,57.65584 Z" id="Fill-3"></path>
                <path d="M36.51624,34.59416 L36.51624,51.09584 L28.26376,42.845 L25.54792,45.56084 L37.07876,57.09168 C37.45104,57.47052 37.94468,57.65584 38.43832,57.65584 C38.93032,57.65584 39.42396,57.47052 39.79624,57.09168 L51.32708,45.56084 L48.61124,42.845 L40.35876,51.09584 L40.35876,34.59416 C40.35876,28.2326 35.18948,23.06168 28.82792,23.06168 L23.06168,23.06168 L23.06168,26.90584 L28.82792,26.90584 C33.06896,26.90584 36.51624,30.35312 36.51624,34.59416 L36.51624,34.59416 Z" id="Fill-4"></path>
                <path d="M107.625,76.875 L107.625,73.03084 L103.78084,73.03084 L103.78084,76.875 L19.21916,76.875 L19.21916,73.03084 L15.375,73.03084 L15.375,76.875 C15.375,78.99552 17.09864,80.71916 19.21916,80.71916 L103.78084,80.71916 C105.90136,80.71916 107.625,78.99552 107.625,76.875 L107.625,76.875 Z" id="Fill-5"></path>
                <polygon id="Fill-6" points="7.68832 26.90584 11.53248 26.90584 11.53248 23.06168 7.68832 23.06168"></polygon>
                <polygon id="Fill-7" points="0 26.90584 3.84416 26.90584 3.84416 23.06168 0 23.06168"></polygon>
                <polygon id="Fill-8" points="15.375 26.90584 19.21916 26.90584 19.21916 23.06168 15.375 23.06168"></polygon>
                <polygon id="Fill-9" points="111.46916 26.90584 115.31332 26.90584 115.31332 23.06168 111.46916 23.06168"></polygon>
                <polygon id="Fill-10" points="103.78084 26.90584 107.625 26.90584 107.625 23.06168 103.78084 23.06168"></polygon>
                <polygon id="Fill-11" points="119.15584 26.90584 123 26.90584 123 23.06168 119.15584 23.06168"></polygon>
                <path d="M53.81168,98.01624 C53.81168,102.25728 57.25896,105.70292 61.5,105.70292 C65.74104,105.70292 69.18832,102.25728 69.18832,98.01624 C69.18832,93.7752 65.74104,90.32792 61.5,90.32792 C57.25896,90.32792 53.81168,93.7752 53.81168,98.01624 L53.81168,98.01624 Z M65.34416,98.01624 C65.34416,100.13676 63.62052,101.85876 61.5,101.85876 C59.37948,101.85876 57.65584,100.13676 57.65584,98.01624 C57.65584,95.89572 59.37948,94.17208 61.5,94.17208 C63.62052,94.17208 65.34416,95.89572 65.34416,98.01624 L65.34416,98.01624 Z" id="Fill-12"></path>
                <polygon id="Fill-13" points="59.57792 3.84416 63.42208 3.84416 63.42208 0 59.57792 0"></polygon>
                <polygon id="Fill-14" points="59.57792 11.53248 63.42208 11.53248 63.42208 7.68832 59.57792 7.68832"></polygon>
                <polygon id="Fill-15" points="59.57792 19.21916 63.42208 19.21916 63.42208 15.375 59.57792 15.375"></polygon>
            </g>
        </g>
    </g>
</svg>