<?xml version="1.0" encoding="UTF-8" standalone="no"?>
<svg width="106px" height="106px" viewBox="0 0 106 106" version="1.1" xmlns="http://www.w3.org/2000/svg" xmlns:xlink="http://www.w3.org/1999/xlink">
    <!-- Generator: Sketch 40 (33762) - http://www.bohemiancoding.com/sketch -->
    <title>Page 1</title>
    <desc>Created with Sketch.</desc>
    <defs></defs>
    <g id="Page-1" stroke="none" stroke-width="1" fill="none" fill-rule="evenodd">
        <g id="Landing-Page-Copy-4" transform="translate(-1080.000000, -853.000000)" fill="#00AFE9">
            <g id="Page-1" transform="translate(1080.000000, 853.000000)">
                <path d="M88.4435733,31.1159467 L88.4435733,9.37464 L63.3738667,9.37464 L53,0.414106667 L42.6261333,9.40149333 L17.5564267,9.40149333 L17.5564267,31.1428 L0.684053333,45.7566667 L0.684053333,105.591547 L105.315947,105.591547 L105.315947,45.7566667 L88.4435733,31.1159467 Z M34.5545867,74.7413067 L4.05768,100.285893 L4.05768,50.0630933 L34.5545867,74.7413067 Z M37.2215467,76.8938133 L68.7954133,76.8938133 L98.99976,102.191067 L7.0172,102.191067 L37.2215467,76.8938133 Z M71.2630933,74.5759467 L101.947973,50.04048 L101.947973,100.285893 L71.2630933,74.5759467 Z M100.986907,46.4802933 L88.4435733,56.5220267 L88.4435733,35.6089333 L100.986907,46.4802933 Z M53,4.88589333 L58.2166133,9.40149333 L47.8045867,9.40149333 L53,4.88589333 Z M85.0699467,12.77512 L85.0699467,59.2116 L67.1828,73.5371467 L38.4257067,73.5371467 L20.9512533,59.39816 L20.9512533,12.77512 L85.0699467,12.77512 Z M17.5564267,56.6435733 L4.99048,46.4802933 L17.5564267,35.5933867 L17.5564267,56.6435733 Z" id="Fill-1"></path>
                <polygon id="Fill-6" points="25 25.46912 45.7959155 25.46912 45.7959155 22 25 22"></polygon>
                <polygon id="Fill-7" points="25 38.46912 80.4577465 38.46912 80.4577465 35 25 35"></polygon>
                <polygon id="Fill-8" points="25 45.46912 80.4577465 45.46912 80.4577465 42 25 42"></polygon>
                <polygon id="Fill-9" points="25 51.46912 80.4577465 51.46912 80.4577465 48 25 48"></polygon>
                <polygon id="Fill-4" points="51.29976 90.3869067 54.6733867 90.3869067 54.6733867 87.01328 51.29976 87.01328"></polygon>
                <polygon id="Fill-5" points="58.0738667 90.3869067 61.4474933 90.3869067 61.4474933 87.01328 58.0738667 87.01328"></polygon>
                <polygon id="Fill-6" points="44.5525067 90.3869067 47.9261333 90.3869067 47.9261333 87.01328 44.5525067 87.01328"></polygon>
            </g>
        </g>
    </g>
</svg>