<?xml version="1.0" encoding="UTF-8" standalone="no"?>
<svg width="100px" height="103px" viewBox="0 0 100 103" version="1.1" xmlns="http://www.w3.org/2000/svg" xmlns:xlink="http://www.w3.org/1999/xlink">
    <!-- Generator: Sketch 40 (33762) - http://www.bohemiancoding.com/sketch -->
    <title>Page 1</title>
    <desc>Created with Sketch.</desc>
    <defs></defs>
    <g id="Page-1" stroke="none" stroke-width="1" fill="none" fill-rule="evenodd">
        <g id="Landing-Page-Copy-4" transform="translate(-753.000000, -850.000000)" fill="#00AFE9">
            <g id="Page-1" transform="translate(753.000000, 850.000000)">
                <path d="M33.1257067,57.2877534 C33.1257067,52.2830822 31.9936267,46.5390685 23.1871467,46.5390685 C14.38208,46.5390685 13.25,52.2830822 13.25,57.2877534 C13.25,60.7093288 14.25488,63.7132603 15.9325067,65.918589 L6.62570667,72.1126986 L6.62570667,76.3018356 C6.62570667,79.8842603 8.89976,82.916411 11.5935733,82.916411 L34.78072,82.916411 C37.4759467,82.916411 39.75,79.8842603 39.75,76.3018356 L39.75,72.1126986 L30.4417867,65.918589 C32.1208267,63.7132603 33.1257067,60.7093288 33.1257067,57.2877534 L33.1257067,57.2877534 Z M23.1871467,49.8463562 C28.20024,49.8463562 29.8128533,51.6537945 29.8128533,57.2877534 C29.8128533,61.697 27.48792,66.3813836 23.1871467,66.3813836 C18.8863733,66.3813836 16.5628533,61.697 16.5628533,57.2877534 C16.5628533,51.6537945 18.1740533,49.8463562 23.1871467,49.8463562 L23.1871467,49.8463562 Z M36.4371467,76.3018356 C36.4371467,78.3251507 35.27256,79.6091233 34.78072,79.6091233 L11.5935733,79.6091233 C11.1017333,79.6091233 9.93714667,78.3251507 9.93714667,76.3018356 L9.93714667,73.8763973 L18.3959467,68.2494932 C19.8036267,69.1694384 21.4261333,69.6886712 23.1871467,69.6886712 C24.94816,69.6886712 26.57208,69.1694384 27.97976,68.2494932 L36.4371467,73.8763973 L36.4371467,76.3018356 Z" id="Fill-1"></path>
                <path d="M41.4064267,39.9259041 L4.96928,39.9259041 C2.23024,39.9259041 0,42.1523973 0,44.8854247 L0,84.5700548 C0,87.3030822 2.23024,89.5295753 4.96928,89.5295753 L12.8585067,89.5295753 L39.0108267,102.580945 C39.2426133,102.702288 39.4956,102.757315 39.75,102.757315 C40.1810667,102.757315 40.6050667,102.592233 40.92024,102.271945 C41.4233867,101.765411 41.5491733,100.99926 41.22976,100.36574 L35.80256,89.5295753 L41.4064267,89.5295753 C44.1440533,89.5295753 46.3742933,87.3030822 46.3742933,84.5700548 L46.3742933,44.8854247 C46.3742933,42.1523973 44.1440533,39.9259041 41.4064267,39.9259041 L41.4064267,39.9259041 Z M43.0628533,84.5700548 C43.0628533,85.4843562 42.3166133,86.2222877 41.4064267,86.2222877 L33.1257067,86.2222877 C32.55048,86.2222877 32.02048,86.52 31.7166133,87.0053699 C31.41416,87.4963836 31.3858933,88.1016849 31.6459467,88.615274 L36.0513067,97.4055479 L13.9891733,86.3930137 C13.76304,86.2829589 13.5044,86.2222877 13.25,86.2222877 L4.96928,86.2222877 C4.05768,86.2222877 3.31285333,85.4843562 3.31285333,84.5700548 L3.31285333,44.8854247 C3.31285333,43.9711233 4.05768,43.2331918 4.96928,43.2331918 L41.4064267,43.2331918 C42.3166133,43.2331918 43.0628533,43.9711233 43.0628533,44.8854247 L43.0628533,84.5700548 Z" id="Fill-2"></path>
                <path d="M82.8128533,30.0054521 C74.0063733,30.0054521 72.8742933,35.7480548 72.8742933,40.752726 C72.8742933,44.1757123 73.8791733,47.1796438 75.5582133,49.3835616 L66.25,55.5790822 L66.25,59.7668082 C66.25,63.3492329 68.5240533,66.3813836 71.21928,66.3813836 L94.4064267,66.3813836 C97.10024,66.3813836 99.3742933,63.3492329 99.3742933,59.7668082 L99.3742933,55.5790822 L90.0674933,49.3835616 C91.74512,47.1796438 92.75,44.1757123 92.75,40.752726 C92.75,35.7480548 91.61792,30.0054521 82.8128533,30.0054521 L82.8128533,30.0054521 Z M82.8128533,33.3113288 C87.8259467,33.3113288 89.4371467,35.1201781 89.4371467,40.752726 C89.4371467,45.1619726 87.1136267,49.8463562 82.8128533,49.8463562 C78.51208,49.8463562 76.1871467,45.1619726 76.1871467,40.752726 C76.1871467,35.1201781 77.79976,33.3113288 82.8128533,33.3113288 L82.8128533,33.3113288 Z M96.0628533,59.7668082 C96.0628533,61.7901233 94.8982667,63.0740959 94.4064267,63.0740959 L71.21928,63.0740959 C70.72744,63.0740959 69.5628533,61.7901233 69.5628533,59.7668082 L69.5628533,57.3427808 L78.02024,51.7144658 C79.4222667,52.6358219 81.05184,53.1536438 82.8128533,53.1536438 C84.5738667,53.1536438 86.2020267,52.6358219 87.6040533,51.7144658 L96.0628533,57.3427808 L96.0628533,59.7668082 Z" id="Fill-3"></path>
                <path d="M59.6257067,34.1931781 L59.6257067,36.6186164 C59.6257067,38.6419315 58.4597067,39.9259041 57.96928,39.9259041 L49.6871467,39.9259041 L49.6871467,43.2331918 L57.96928,43.2331918 C60.6630933,43.2331918 62.9371467,40.2010411 62.9371467,36.6186164 L62.9371467,32.4294795 L53.6289333,26.2353699 C55.3079733,24.0300411 56.3128533,21.0261096 56.3128533,17.6045342 C56.3128533,12.599863 55.1807733,6.85584932 46.3742933,6.85584932 C37.5692267,6.85584932 36.4371467,12.599863 36.4371467,17.6045342 C36.4371467,21.0261096 37.4420267,24.0300411 39.1210667,26.2353699 L29.8128533,32.4294795 L29.8128533,36.6186164 L33.1257067,36.6186164 L33.1257067,34.1931781 L41.5830933,28.566274 C42.9907733,29.4862192 44.61328,30.0054521 46.3742933,30.0054521 C48.13672,30.0054521 49.7592267,29.4862192 51.1669067,28.566274 L59.6257067,34.1931781 Z M46.3742933,26.6981644 C42.0749333,26.6981644 39.75,22.0137808 39.75,17.6045342 C39.75,11.9705753 41.3626133,10.163137 46.3742933,10.163137 C51.3873867,10.163137 53,11.9705753 53,17.6045342 C53,22.0137808 50.6750667,26.6981644 46.3742933,26.6981644 L46.3742933,26.6981644 Z" id="Fill-5"></path>
                <path d="M69.5628533,44.8854247 L69.5628533,5.20361644 C69.5628533,2.46917808 67.3326133,0.242684932 64.5935733,0.242684932 L28.1564267,0.242684932 C25.4173867,0.242684932 23.1871467,2.46917808 23.1871467,5.20361644 L23.1871467,36.6186164 L26.5,36.6186164 L26.5,5.20361644 C26.5,4.28790411 27.2448267,3.5499726 28.1564267,3.5499726 L64.5935733,3.5499726 C65.5051733,3.5499726 66.25,4.28790411 66.25,5.20361644 L66.25,44.8854247 C66.25,45.801137 65.5051733,46.5390685 64.5935733,46.5390685 L56.3128533,46.5390685 C55.76024,46.5390685 55.2415467,46.8156164 54.9320267,47.278411 L48.3077333,57.198863 L51.06232,59.0345205 L57.1961867,49.8463562 L64.5935733,49.8463562 C67.3326133,49.8463562 69.5628533,47.619863 69.5628533,44.8854247 L69.5628533,44.8854247 Z" id="Fill-6"></path>
                <polygon id="Fill-7" points="64.5935733 96.1441507 67.9064267 96.1441507 67.9064267 92.836863 64.5935733 92.836863"></polygon>
                <polygon id="Fill-8" points="57.96928 96.1441507 61.2821333 96.1441507 61.2821333 92.836863 57.96928 92.836863"></polygon>
                <polygon id="Fill-9" points="51.3435733 96.1441507 54.6564267 96.1441507 54.6564267 92.836863 51.3435733 92.836863"></polygon>
                <polygon id="Fill-10" points="71.21928 96.1441507 74.5321333 96.1441507 74.5321333 92.836863 71.21928 92.836863"></polygon>
            </g>
        </g>
    </g>
</svg>